<svg width="16" height="16" viewBox="0 0 16 16" fill="none" xmlns="http://www.w3.org/2000/svg">
<path d="M8.00008 2.66699C5.06008 2.66699 2.66675 5.06033 2.66675 8.00033C2.66675 10.9403 5.06008 13.3337 8.00008 13.3337C10.9401 13.3337 13.3334 10.9403 13.3334 8.00033C13.3334 5.06033 10.9401 2.66699 8.00008 2.66699ZM11.3334 8.66699H8.66675V11.3337H7.33342V8.66699H4.66675V7.33366H7.33342V4.66699H8.66675V7.33366H11.3334V8.66699Z" fill="#BAD6FF"/>
<path d="M8.66658 4.66634H7.33325V7.33301H4.66658V8.66634H7.33325V11.333H8.66658V8.66634H11.3333V7.33301H8.66658V4.66634ZM7.99992 1.33301C4.31992 1.33301 1.33325 4.31967 1.33325 7.99967C1.33325 11.6797 4.31992 14.6663 7.99992 14.6663C11.6799 14.6663 14.6666 11.6797 14.6666 7.99967C14.6666 4.31967 11.6799 1.33301 7.99992 1.33301ZM7.99992 13.333C5.05992 13.333 2.66659 10.9397 2.66659 7.99967C2.66659 5.05967 5.05992 2.66634 7.99992 2.66634C10.9399 2.66634 13.3333 5.05967 13.3333 7.99967C13.3333 10.9397 10.9399 13.333 7.99992 13.333Z" fill="#0061F4"/>
</svg>
