<svg width="48" height="48" viewBox="0 0 48 48" fill="none" xmlns="http://www.w3.org/2000/svg">
<path opacity="0.3" d="M10.1655 38H37.822V10H10.1655V38ZM20.0428 24V16H27.9447V24H33.871L23.9937 34L14.1164 24H20.0428Z" fill="#1854D1"/>
<path d="M33.871 24H27.9447V16H20.0428V24H14.1164L23.9937 34L33.871 24ZM37.822 6H29.5645C28.7348 3.68 26.5618 2 23.9937 2C21.4256 2 19.2526 3.68 18.4229 6H10.1655C9.88896 6 9.63215 6.02 9.37534 6.08C8.60491 6.24 7.9135 6.64 7.38012 7.18C7.02454 7.54 6.72822 7.98 6.53067 8.46C6.33313 8.94 6.2146 9.44 6.2146 10V38C6.2146 38.54 6.33313 39.08 6.53067 39.56C6.72822 40.04 7.02454 40.46 7.38012 40.84C7.9135 41.38 8.60491 41.78 9.37534 41.94C9.63215 41.98 9.88896 42 10.1655 42H37.822C39.995 42 41.7729 40.2 41.7729 38V10C41.7729 7.8 39.995 6 37.822 6ZM23.9937 5.5C24.8037 5.5 25.4753 6.18 25.4753 7C25.4753 7.82 24.8037 8.5 23.9937 8.5C23.1838 8.5 22.5121 7.82 22.5121 7C22.5121 6.18 23.1838 5.5 23.9937 5.5ZM37.822 38H10.1655V10H37.822V38Z" fill="#1854D1"/>
</svg>
