<svg width="40" height="40" viewBox="0 0 40 40" fill="none" xmlns="http://www.w3.org/2000/svg">
<circle cx="20" cy="20" r="20" fill="url(#paint0_linear)"/>
<path d="M17.3472 16.5212C17.9843 17.4613 19.0611 18.0807 20.2801 18.0807C21.4991 18.0807 22.5759 17.4613 23.2131 16.5212C23.6878 17.5091 24.6898 18.1982 25.857 18.1982C27.479 18.1982 28.7985 16.8787 28.7985 15.2574C28.7985 13.6353 27.479 12.3158 25.857 12.3158C24.9514 12.3158 24.1501 12.7363 23.6102 13.3824C23.1276 12.0003 21.8248 11 20.2801 11C18.7354 11 17.4327 12.0003 16.9501 13.3824C16.4101 12.7363 15.6089 12.3158 14.7033 12.3158C13.0812 12.3158 11.7617 13.6353 11.7617 15.2574C11.7617 16.8787 13.0812 18.1982 14.7033 18.1982C15.8704 18.1982 16.8725 17.5091 17.3472 16.5212ZM25.857 13.8196C26.65 13.8196 27.2947 14.4643 27.2947 15.2574C27.2947 16.0497 26.65 16.6944 25.857 16.6944C25.0647 16.6944 24.42 16.0497 24.42 15.2574C24.42 14.4643 25.0647 13.8196 25.857 13.8196ZM20.2801 12.5038C21.4036 12.5038 22.317 13.4172 22.317 14.5407C22.317 15.6634 21.4036 16.5769 20.2801 16.5769C19.1567 16.5769 18.2432 15.6634 18.2432 14.5407C18.2432 13.4172 19.1566 12.5038 20.2801 12.5038ZM13.2655 15.2574C13.2655 14.4643 13.9102 13.8196 14.7032 13.8196C15.4955 13.8196 16.1402 14.4643 16.1402 15.2574C16.1402 16.0497 15.4955 16.6944 14.7032 16.6944C13.9102 16.6943 13.2655 16.0496 13.2655 15.2574Z" fill="white"/>
<path d="M26.4223 18.5933C25.1966 18.5517 23.8529 18.6019 22.7902 19.2668C22.2159 19.0924 21.6146 18.9993 20.9938 18.9993C20.0052 19.0036 18.692 18.9368 17.768 19.2665C16.7078 18.6027 15.3581 18.55 14.1363 18.5933C11.3599 18.5431 8.94982 20.9631 9.00079 23.7369C9.00076 24.5454 9.65867 25.2025 10.4671 25.2025H13.2322C13.1498 26.1626 13.9234 27.0048 14.8882 27C14.8882 27.0001 25.6704 27.0001 25.6704 27.0001C26.635 27.0046 27.4091 26.1628 27.3265 25.2025C27.3265 25.2025 30.0915 25.2025 30.0915 25.2025C30.9 25.2025 31.5579 24.5454 31.5579 23.7369C31.5579 20.9004 29.2544 18.5933 26.4223 18.5933ZM11.5729 21.1603C12.4965 20.1345 13.9647 20.0275 15.2642 20.0972C15.4823 20.0971 15.6974 20.1162 15.9089 20.1543C14.8067 20.8909 13.7787 22.3613 13.4403 23.7054C13.4402 23.7053 10.5046 23.7369 10.5046 23.7369C10.5046 22.7581 10.882 21.8447 11.5729 21.1603ZM25.6704 25.4962H14.8882C14.7994 25.4962 14.7304 25.4272 14.7304 25.3384C14.7094 23.3433 16.0319 21.422 17.9473 20.7873C18.792 20.4198 20.077 20.5116 20.9938 20.5032C23.5985 20.469 25.8644 22.7042 25.8282 25.3384C25.8283 25.4272 25.7593 25.4962 25.6704 25.4962ZM27.1155 23.6987C26.7916 22.5143 26.1402 21.4205 25.2132 20.6106C25.0469 20.4627 24.6632 20.166 24.6473 20.1549C25.0639 20.0578 25.9873 20.1099 26.4223 20.0971C28.4122 20.0971 30.0335 21.7096 30.0541 23.6987H27.1155V23.6987Z" fill="white"/>
<defs>
<linearGradient id="paint0_linear" x1="0" y1="0" x2="40" y2="40" gradientUnits="userSpaceOnUse">
<stop stop-color="#FFF720"/>
<stop offset="1" stop-color="#3CD500"/>
</linearGradient>
</defs>
</svg>
