<svg width="450" height="276" viewBox="0 0 450 276" fill="none" xmlns="http://www.w3.org/2000/svg">
<g clip-path="url(#clip0_421_1066)">
<path opacity="0.1" d="M450 177.268C450.008 184.746 449.101 192.197 447.299 199.456C446.693 201.901 445.988 204.296 445.186 206.641C444.204 209.534 443.067 212.373 441.778 215.144C441.128 216.546 440.442 217.92 439.719 219.266C439.73 226.934 438.147 234.522 435.069 241.549C429.504 254.157 419.582 264.351 407.11 270.274C399.312 273.984 390.79 275.935 382.15 275.988H85.425C72.2232 276.016 59.2493 272.558 47.8225 265.965L47.6468 265.866C46.0192 264.916 44.4323 263.91 42.8863 262.849C39.4077 260.452 36.1395 257.766 33.1169 254.818C29.026 250.832 25.4211 246.378 22.3772 241.549C15.228 230.229 11.4408 217.122 11.454 203.745C4.21397 191.078 -0.0078125 175.904 -0.0078125 159.599C-0.0078125 139.026 6.70119 120.26 17.7237 106.054C20.0217 103.086 22.5388 100.293 25.2541 97.699C27.9333 95.1321 30.8129 92.7817 33.8658 90.6701C36.3083 88.9788 38.861 87.4516 41.507 86.0985C42.6112 85.5385 43.7192 85.0089 44.8462 84.5174C45.8358 84.0793 46.8368 83.6717 47.8493 83.2869C49.0642 82.8272 50.2945 82.4044 51.54 82.0183C52.7855 81.6323 54.0145 81.2945 55.2269 81.0049C57.0098 80.5706 58.8233 80.2176 60.6674 79.9458C62.1957 79.7211 63.7239 79.5649 65.2522 79.4468C66.4671 79.3553 67.6935 79.3058 68.9276 79.2906H69.5962C70.9564 79.2906 72.3089 79.3439 73.6499 79.4353C73.7913 79.1534 73.9441 78.8677 74.0854 78.5896C74.6203 77.5724 75.1743 76.559 75.7321 75.5685C75.7309 75.5597 75.7309 75.5507 75.7321 75.5418C75.8276 75.3666 75.9232 75.1952 76.0225 75.0275C76.4733 74.2161 76.9433 73.4122 77.4247 72.616C77.6463 72.235 77.864 71.8769 78.0894 71.5188C78.1371 71.4298 78.1894 71.3434 78.2461 71.2598C78.4753 70.8788 78.7084 70.4978 78.9453 70.1169C80.1246 68.2374 81.351 66.391 82.6245 64.5776L82.9493 64.1128C83.1479 63.8309 83.3313 63.5566 83.5529 63.2747C84.0802 62.5394 84.6227 61.8003 85.1691 61.0765C85.5511 60.5584 85.9332 60.0441 86.3458 59.5526C87.3392 58.2827 88.358 57.0128 89.4023 55.7429C90.4466 54.473 91.5317 53.2197 92.6575 51.9828C92.8103 51.8113 92.9631 51.6437 93.1236 51.4761L94.755 49.7008C94.8352 49.617 94.904 49.5408 94.9804 49.4646C95.1753 49.255 95.3625 49.0455 95.5726 48.8436C96.4475 47.9178 97.3454 47.0111 98.247 46.1082C102.836 41.5509 107.724 37.3038 112.88 33.3953C113.082 33.2353 113.289 33.0829 113.491 32.9306C114.462 32.2029 115.447 31.4829 116.433 30.7743C121.855 26.8958 127.523 23.3709 133.401 20.2215C133.806 19.9891 134.218 19.7719 134.635 19.5586C139.904 16.7787 145.324 14.291 150.868 12.1068C153.891 10.9144 156.981 9.79436 160.091 8.76955C162.162 8.09143 164.241 7.44759 166.346 6.84186C169.637 5.89705 172.95 5.05004 176.287 4.3008C186.117 2.10141 196.118 0.742771 206.179 0.239676C209.236 0.0847488 212.327 0.00474654 215.452 -0.000333035C230.532 -0.0202401 245.553 1.87444 260.153 5.63799C260.304 5.86547 260.511 6.05091 260.753 6.17687C260.996 6.30283 261.267 6.36517 261.54 6.35802H262.824C263.382 6.51041 263.936 6.6628 264.494 6.82281C267.609 7.71681 270.679 8.69336 273.705 9.75245L274.469 10.0267C281.938 12.6748 289.204 15.8579 296.212 19.551C302.53 22.8721 308.612 26.6193 314.418 30.7667C315.312 31.4067 316.193 32.0518 317.061 32.702C318.116 32.0289 319.188 31.3838 320.278 30.7667C324.488 28.3758 328.96 26.4751 333.605 25.1017C343.316 22.2361 353.591 21.8354 363.497 23.9359C376.201 26.6217 387.701 33.2887 396.989 42.771C400.771 46.6507 404.137 50.9126 407.033 55.4877C407.243 55.8153 407.453 56.1468 407.656 56.482C410.145 60.5313 412.285 64.7842 414.052 69.1949C414.117 69.3587 414.182 69.5111 414.239 69.6711C415.87 73.8012 417.186 78.0484 418.174 82.3764C418.22 82.5974 418.273 82.8145 418.319 83.0355C419.244 87.2239 419.872 91.4721 420.199 95.7484C420.199 95.9008 420.199 96.057 420.23 96.217C420.39 98.4291 420.472 100.664 420.474 102.922C420.474 104.941 420.405 106.945 420.279 108.934C420.279 109.151 420.249 109.376 420.23 109.6C420.195 110.176 420.146 110.743 420.096 111.322C423.014 113.669 425.745 116.238 428.264 119.007C429.378 120.218 430.455 121.475 431.497 122.778C434.67 126.744 437.459 131 439.826 135.491C446.286 147.652 450 161.957 450 177.268Z" fill="#1A75FF"/>
<path opacity="0.1" d="M406.827 268.865C406.827 271.467 397.837 273.905 382.149 276.001H85.4247C72.2229 276.029 59.249 272.57 47.8222 265.977L47.6465 265.878C52.1548 264.24 60.2927 262.713 71.3687 261.333L71.8654 261.272C76.8322 260.667 82.3835 260.091 88.4507 259.547C88.6035 259.547 88.7602 259.524 88.913 259.505C93.727 259.078 98.8479 258.678 104.276 258.305C104.448 258.305 104.616 258.274 104.788 258.267C106.881 258.117 109.018 257.975 111.199 257.84L112.039 257.787C127.914 256.804 145.959 256.019 165.528 255.501H165.551C168.291 255.425 171.061 255.357 173.861 255.299C176.973 255.225 180.124 255.16 183.313 255.105C185.747 255.051 188.211 255.013 190.683 254.975H190.74C201.892 254.807 213.415 254.724 225.198 254.724C254.334 254.724 281.873 255.253 306.276 256.206H306.344C310.096 256.35 313.779 256.51 317.371 256.674L320.427 256.819C324.48 257.012 328.428 257.219 332.271 257.44C377.469 260.004 406.827 264.168 406.827 268.865Z" fill="#1A75FF"/>
<g opacity="0.2">
<path opacity="0.2" d="M259.909 252.974C259.897 253.385 259.849 253.794 259.767 254.197C257.108 253.775 254.434 253.394 251.744 253.054C251.744 252.947 251.744 252.837 251.744 252.726C251.769 251.584 252.099 250.469 252.699 249.495C253.486 248.253 254.682 247.476 256 247.518C257.318 247.56 258.461 248.41 259.168 249.694C259.702 250.702 259.958 251.834 259.909 252.974Z" fill="#3F3D56"/>
<path opacity="0.2" d="M260.128 246.464C260.222 243.518 258.468 241.071 256.211 241C253.955 240.929 252.05 243.26 251.956 246.206C251.863 249.153 253.616 251.599 255.873 251.67C258.13 251.741 260.035 249.41 260.128 246.464Z" fill="#3F3D56"/>
<path opacity="0.2" d="M260.337 239.942C260.431 236.996 258.677 234.55 256.42 234.478C254.164 234.407 252.259 236.738 252.165 239.684C252.072 242.631 253.825 245.077 256.082 245.148C258.339 245.219 260.244 242.888 260.337 239.942Z" fill="#3F3D56"/>
<path opacity="0.2" d="M260.541 233.419C260.635 230.473 258.881 228.027 256.624 227.955C254.368 227.884 252.463 230.215 252.369 233.161C252.276 236.108 254.03 238.554 256.286 238.625C258.543 238.696 260.448 236.365 260.541 233.419Z" fill="#3F3D56"/>
<path opacity="0.2" d="M260.746 226.897C260.84 223.951 259.086 221.505 256.829 221.433C254.573 221.362 252.668 223.693 252.574 226.639C252.481 229.586 254.235 232.032 256.491 232.103C258.748 232.174 260.653 229.843 260.746 226.897Z" fill="#3F3D56"/>
<path opacity="0.2" d="M242.755 181.641C242.217 180.915 241.731 180.151 241.303 179.355L252.1 177.934L240.478 177.656C239.44 175.203 238.916 172.565 238.936 169.903C238.957 167.241 239.521 164.611 240.596 162.174L255.924 170.727L241.883 159.739C243.3 157.455 245.173 155.486 247.387 153.957C249.601 152.427 252.107 151.368 254.749 150.848C257.392 150.327 260.113 150.355 262.744 150.93C265.375 151.506 267.859 152.616 270.04 154.191C272.222 155.767 274.054 157.774 275.422 160.087C276.791 162.4 277.666 164.97 277.994 167.635C278.322 170.301 278.095 173.006 277.328 175.58C276.56 178.154 275.268 180.543 273.533 182.597C274.37 183.727 275.081 184.945 275.654 186.228L261.483 193.009L276.51 188.502C277.456 191.616 277.609 194.916 276.953 198.103C276.298 201.29 274.856 204.263 272.758 206.755C274.939 209.706 276.244 213.21 276.523 216.866C276.801 220.522 276.042 224.183 274.332 227.429C272.623 230.675 270.031 233.376 266.855 235.223C263.678 237.069 260.044 237.987 256.369 237.872C252.694 237.756 249.126 236.612 246.072 234.569C243.018 232.526 240.603 229.668 239.102 226.321C237.6 222.974 237.074 219.273 237.583 215.642C238.092 212.011 239.615 208.596 241.979 205.787C239.373 202.26 238.031 197.961 238.17 193.582C238.308 189.203 239.919 184.998 242.743 181.641H242.755Z" fill="#1A75FF"/>
<path opacity="0.1" d="M277.343 194.815C277.209 199.197 275.593 203.404 272.758 206.755C274.94 209.706 276.244 213.21 276.523 216.866C276.801 220.522 276.042 224.183 274.332 227.429C272.623 230.675 270.031 233.376 266.855 235.222C263.678 237.069 260.044 237.987 256.369 237.872C252.694 237.756 249.126 236.612 246.072 234.569C243.018 232.526 240.603 229.668 239.102 226.321C237.6 222.974 237.074 219.273 237.583 215.642C238.092 212.011 239.615 208.595 241.979 205.787C239.469 202.385 277.411 192.624 277.343 194.815Z" fill="black"/>
</g>
<g opacity="0.2">
<path opacity="0.2" d="M201.836 252.974C201.823 253.385 201.776 253.794 201.694 254.197C199.035 253.775 196.361 253.394 193.671 253.054C193.671 252.947 193.671 252.837 193.671 252.726C193.696 251.584 194.025 250.469 194.626 249.495C195.413 248.253 196.609 247.476 197.927 247.518C199.245 247.56 200.388 248.41 201.094 249.694C201.629 250.702 201.885 251.834 201.836 252.974Z" fill="#3F3D56"/>
<path opacity="0.2" d="M202.051 246.466C202.144 243.519 200.391 241.073 198.134 241.002C195.877 240.931 193.972 243.262 193.879 246.208C193.786 249.155 195.539 251.601 197.796 251.672C200.053 251.743 201.958 249.412 202.051 246.466Z" fill="#3F3D56"/>
<path opacity="0.2" d="M202.26 239.942C202.353 236.996 200.6 234.55 198.343 234.479C196.086 234.408 194.181 236.739 194.088 239.685C193.995 242.631 195.748 245.077 198.005 245.148C200.262 245.219 202.167 242.889 202.26 239.942Z" fill="#3F3D56"/>
<path opacity="0.2" d="M202.464 233.42C202.558 230.474 200.804 228.028 198.547 227.957C196.291 227.886 194.385 230.217 194.292 233.163C194.199 236.109 195.952 238.555 198.209 238.626C200.466 238.697 202.371 236.367 202.464 233.42Z" fill="#3F3D56"/>
<path opacity="0.2" d="M202.669 226.898C202.763 223.952 201.009 221.506 198.752 221.435C196.496 221.364 194.591 223.695 194.497 226.641C194.404 229.587 196.157 232.033 198.414 232.104C200.671 232.175 202.576 229.845 202.669 226.898Z" fill="#3F3D56"/>
<path opacity="0.2" d="M184.681 181.641C184.143 180.915 183.658 180.151 183.23 179.355L194.027 177.934L182.404 177.656C181.367 175.203 180.843 172.565 180.863 169.903C180.883 167.241 181.448 164.611 182.523 162.174L197.851 170.727L183.81 159.739C185.227 157.455 187.1 155.486 189.314 153.957C191.528 152.427 194.034 151.368 196.676 150.848C199.319 150.327 202.04 150.355 204.671 150.93C207.302 151.506 209.786 152.616 211.967 154.191C214.148 155.767 215.981 157.774 217.349 160.087C218.718 162.4 219.593 164.97 219.921 167.635C220.249 170.301 220.022 173.006 219.254 175.58C218.487 178.154 217.195 180.543 215.46 182.597C216.297 183.727 217.008 184.945 217.581 186.228L203.41 193.009L218.437 188.502C219.383 191.616 219.535 194.916 218.88 198.103C218.225 201.29 216.783 204.263 214.685 206.755C216.866 209.706 218.171 213.21 218.449 216.866C218.728 220.522 217.969 224.183 216.259 227.429C214.549 230.675 211.958 233.376 208.781 235.223C205.605 237.069 201.971 237.987 198.296 237.872C194.621 237.756 191.052 236.612 187.999 234.569C184.945 232.526 182.53 229.668 181.028 226.321C179.527 222.974 179.001 219.273 179.51 215.642C180.019 212.011 181.542 208.596 183.906 205.787C181.299 202.26 179.958 197.961 180.096 193.582C180.235 189.203 181.846 184.998 184.67 181.641H184.681Z" fill="#1A75FF"/>
<path opacity="0.1" d="M219.269 194.815C219.136 199.197 217.52 203.404 214.685 206.755C216.866 209.706 218.171 213.21 218.449 216.866C218.728 220.522 217.969 224.183 216.259 227.429C214.549 230.675 211.958 233.376 208.782 235.222C205.605 237.069 201.971 237.987 198.296 237.872C194.621 237.756 191.052 236.612 187.999 234.569C184.945 232.526 182.53 229.668 181.028 226.321C179.527 222.974 179.001 219.273 179.51 215.642C180.019 212.011 181.542 208.595 183.906 205.787C181.396 202.385 219.338 192.624 219.269 194.815Z" fill="black"/>
</g>
<g opacity="0.2">
<path opacity="0.2" d="M360.468 257.141C360.439 257.92 360.346 258.694 360.189 259.457C355.07 258.642 349.913 257.913 344.72 257.271C344.72 257.065 344.72 256.855 344.72 256.642C344.768 254.442 345.404 252.295 346.561 250.421C348.09 248.032 350.382 246.535 352.915 246.611C355.448 246.687 357.653 248.329 359.028 250.802C360.065 252.75 360.562 254.938 360.468 257.141Z" fill="#3F3D56"/>
<path opacity="0.2" d="M360.884 244.599C361.063 238.925 357.686 234.215 353.339 234.078C348.992 233.941 345.323 238.429 345.143 244.103C344.963 249.777 348.341 254.487 352.688 254.624C357.034 254.761 360.704 250.273 360.884 244.599Z" fill="#3F3D56"/>
<path opacity="0.2" d="M361.281 232.041C361.461 226.368 358.083 221.657 353.736 221.52C349.39 221.383 345.72 225.872 345.54 231.545C345.361 237.219 348.739 241.93 353.085 242.067C357.432 242.204 361.101 237.715 361.281 232.041Z" fill="#3F3D56"/>
<path opacity="0.2" d="M361.682 219.485C361.861 213.811 358.483 209.101 354.137 208.964C349.79 208.827 346.121 213.315 345.941 218.989C345.761 224.663 349.139 229.374 353.486 229.511C357.832 229.648 361.502 225.159 361.682 219.485Z" fill="#3F3D56"/>
<path opacity="0.2" d="M361.631 206.356C361.802 200.68 358.415 195.972 354.066 195.842C349.717 195.712 346.053 200.208 345.882 205.885C345.712 211.562 349.099 216.269 353.448 216.399C357.796 216.529 361.46 212.033 361.631 206.356Z" fill="#3F3D56"/>
<path opacity="0.2" d="M327.439 119.818C326.408 118.419 325.475 116.952 324.646 115.425L345.43 112.69L323.06 112.153C321.062 107.431 320.051 102.352 320.089 97.2265C320.127 92.1013 321.214 87.0379 323.282 82.3458L352.796 98.8074L325.769 77.6561C328.502 73.2688 332.111 69.4898 336.373 66.5546C340.635 63.6194 345.457 61.5908 350.539 60.5954C355.621 59.5999 360.855 59.6589 365.913 60.7686C370.972 61.8783 375.747 64.015 379.941 67.0455C384.135 70.076 387.658 73.9353 390.291 78.383C392.923 82.8307 394.609 87.7713 395.243 92.8971C395.877 98.0229 395.445 103.224 393.974 108.176C392.504 113.128 390.027 117.725 386.696 121.681C388.306 123.858 389.675 126.202 390.781 128.672L363.498 141.735L392.424 133.049C394.247 139.035 394.543 145.381 393.287 151.511C392.031 157.641 389.262 163.361 385.229 168.155C389.428 173.837 391.939 180.583 392.475 187.621C393.01 194.659 391.549 201.705 388.257 207.954C384.966 214.202 379.977 219.401 373.862 222.956C367.747 226.511 360.752 228.279 353.677 228.056C346.602 227.834 339.733 225.631 333.854 221.699C327.976 217.767 323.326 212.265 320.436 205.822C317.545 199.379 316.532 192.255 317.511 185.264C318.49 178.274 321.422 171.699 325.972 166.292C320.957 159.502 318.375 151.229 318.641 142.8C318.907 134.371 322.005 126.276 327.439 119.814V119.818Z" fill="#1A75FF"/>
<path opacity="0.1" d="M394.032 145.175C393.782 153.605 390.686 161.705 385.245 168.162C389.444 173.845 391.955 180.59 392.49 187.628C393.026 194.666 391.564 201.712 388.273 207.961C384.981 214.21 379.993 219.409 373.878 222.964C367.763 226.519 360.768 228.286 353.693 228.064C346.618 227.841 339.748 225.638 333.87 221.706C327.992 217.774 323.341 212.272 320.451 205.829C317.561 199.386 316.548 192.262 317.527 185.272C318.506 178.281 321.437 171.707 325.987 166.3C321.12 159.743 394.166 140.958 394.032 145.175Z" fill="black"/>
</g>
<path d="M60.2969 257.813L64.3047 257.802H69.9554L77.1 142.071L147.854 24.3405L144.778 21.049V12.7134L68.259 139.343L60.2969 257.813Z" fill="#F1C0C0"/>
<path opacity="0.1" d="M64.7324 257.801H69.9552L77.0998 142.07L147.854 24.3399L144.778 21.0483L71.7967 140.307L64.7324 257.801Z" fill="black"/>
<path d="M48.4873 258.777L231.82 272.766L231.976 272.777L409.402 261.897L409.536 261.889V254.419L214.035 250.841L50.9287 250.685H49.7366L49.6067 251.523L48.4873 258.777Z" fill="#F1C0C0"/>
<path opacity="0.1" d="M48.4873 258.777L231.82 272.766L231.976 272.777L409.402 261.897L409.536 261.752V254.575H409.379L231.82 260.487L50.9287 250.685H50.9019L50.581 250.895L49.6067 251.523L48.4873 258.777Z" fill="black"/>
<path opacity="0.1" d="M48.4873 258.776L231.82 272.765V260.487L50.581 250.894L49.6067 251.523L48.4873 258.776Z" fill="black"/>
<path d="M144.756 20.8925L225.581 107.395L223.082 259.554L229.948 260.381L230.063 260.396H236.928L237.75 113.929L389.096 164.338L391.648 254.095L397.173 254.712L399.045 254.921L394.712 158.113L236.5 102.728L149.749 12.8008H144.756V20.8925Z" fill="#F1C0C0"/>
<path opacity="0.1" d="M237.127 111.129L237.75 113.929L389.096 164.339L391.648 254.095L397.173 254.712L392.84 162.472L237.127 111.129Z" fill="black"/>
<path opacity="0.1" d="M144.756 20.8925L225.581 107.395L223.082 259.554L229.948 260.381L231.82 102.416L144.756 12.8008V20.8925Z" fill="black"/>
<path d="M237.421 172.193L292.931 183.093L292.95 183.097L390.173 202.195L394.624 200.415L394.609 200.103L394.318 193.912L237.478 162.311L237.421 172.193Z" fill="#F1C0C0"/>
<path opacity="0.1" d="M292.949 183.098L390.172 202.196L394.624 200.416L394.608 200.104L292.949 183.098Z" fill="black"/>
<path d="M296.667 133.552L298.168 215.97L298.944 258.254L305.779 258.025L310.081 257.881L308.744 134.744L305.779 133.761L305.13 133.552H296.667Z" fill="#F1C0C0"/>
<path opacity="0.1" d="M296.729 133.533V133.552L298.169 215.971L298.944 258.255L305.78 258.026V133.533H296.729Z" fill="black"/>
<path d="M189.602 154.601C190.003 154.818 190.386 155.067 190.748 155.344C191.176 155.717 191.561 156.138 191.894 156.597C193.533 158.712 195.046 161.169 194.886 163.836C194.889 164.224 194.816 164.608 194.669 164.968C194.523 165.328 194.307 165.655 194.034 165.931C193.358 166.506 192.387 166.533 191.501 166.533C190.538 166.533 189.525 166.533 188.693 166.038C187.86 165.542 187.164 164.578 186.179 164.601C186.039 164.624 185.897 164.624 185.758 164.601C185.418 164.491 185.35 164.045 185.128 163.763C184.746 163.256 183.94 163.382 183.34 163.603C182.74 163.824 182.075 164.156 181.483 163.9C181.139 163.719 180.858 163.439 180.677 163.096C179.259 160.811 178.958 158.064 178.69 155.409C178.526 153.793 177.273 148.284 180.73 149.538C182.259 150.086 183.688 151.184 185.078 151.987L189.602 154.601Z" fill="#3F3D56"/>
<path d="M186.187 155.146C186.495 155.367 186.87 155.479 187.25 155.464C187.63 155.449 187.994 155.307 188.284 155.062C188.853 154.549 189.216 153.848 189.304 153.089C189.686 152.97 189.881 153.47 190.126 153.774C190.554 154.292 191.425 154.285 191.814 154.837C192.086 155.218 192.024 155.748 192.216 156.178C192.464 156.734 193.079 157.024 193.499 157.473C193.896 157.965 194.183 158.535 194.34 159.146L194.966 161.02C195.266 161.8 195.459 162.616 195.539 163.447C195.579 163.862 195.535 164.282 195.41 164.68C195.286 165.078 195.083 165.448 194.814 165.767C193.973 166.67 192.594 166.765 191.375 166.739C190.968 166.747 190.562 166.7 190.168 166.598C189.086 166.262 188.395 165.177 188.108 164.083C187.822 162.99 187.852 161.843 187.684 160.723C187.503 159.623 187.182 158.55 186.729 157.531C186.393 156.738 185.468 155.557 185.484 154.715C185.759 154.715 185.957 154.967 186.187 155.146Z" fill="#3F3D56"/>
<path d="M187.558 151.286C187.38 150.745 187.276 150.182 187.249 149.613C187.249 148.47 187.772 147.396 188.3 146.375L183.933 146.965C183.405 147.038 182.817 147.145 182.519 147.583C182.406 147.8 182.347 148.041 182.347 148.286C182.347 148.53 182.406 148.771 182.519 148.988C182.738 149.423 182.912 149.879 183.039 150.348C183.048 150.76 183.096 151.169 183.18 151.571C183.316 151.867 183.506 152.135 183.742 152.36C184.991 153.739 185.927 155.366 186.859 156.977C186.832 156.932 189.492 154.878 189.385 154.208C189.323 153.827 188.556 153.37 188.311 153.004C187.973 152.473 187.719 151.893 187.558 151.286Z" fill="#BE6F72"/>
<path d="M225 136.402V140.155L160.557 152.689L157.214 154.708H145.68V152.593L208.995 137.34L225 136.402Z" fill="#F1C0C0"/>
<path opacity="0.1" d="M225 140.154L160.557 152.688L157.214 154.707H145.68L209.465 141.095L225 140.154Z" fill="black"/>
<path d="M173.261 242.928C172.543 242.061 171.552 241.462 170.449 241.228C169.346 240.994 168.196 241.14 167.186 241.64C166.97 241.742 166.779 241.89 166.628 242.075C166.246 242.608 166.491 243.343 166.525 244.002C166.613 245.61 165.329 246.917 164.175 248.041C163.557 248.643 162.926 249.286 162.647 250.105C162.368 250.925 162.575 251.965 163.323 252.391C163.65 252.555 164.006 252.653 164.37 252.681C165.592 252.918 166.844 252.953 168.076 252.784C169.295 252.551 170.491 251.862 171.018 250.742C171.12 250.438 171.288 250.161 171.511 249.93C172.184 249.401 173.215 250.022 173.979 249.644C174.61 249.332 174.636 248.841 174.644 248.193C174.667 246.402 174.399 244.376 173.261 242.928Z" fill="#1A75FF"/>
<path d="M182.43 242.86C182.9 244.094 182.965 245.439 183.026 246.757C183.061 247.519 183.084 248.334 182.671 248.978C182.258 249.622 181.452 249.961 180.68 250.121C179.087 250.449 177.242 250.14 176.214 248.879C175.427 247.915 175.263 246.593 175.408 245.344C175.53 244.319 175.79 243.119 175.053 242.391C174.862 242.197 174.613 242.06 174.438 241.85C174.056 241.385 174.117 240.684 174.323 240.113C174.592 239.566 174.793 238.99 174.923 238.395C174.953 238.113 180.096 238.593 180.57 238.825C181.215 239.142 181.116 239.671 181.311 240.311C181.582 241.203 182.102 242.006 182.43 242.86Z" fill="#1A75FF"/>
<path d="M183.374 188.13C184.383 188.781 184.772 190.061 184.929 191.25C185.361 194.507 184.604 197.799 184.547 201.086C184.494 205.692 185.831 210.382 184.688 214.843C184.004 217.51 184.585 220.558 183.943 223.251C183.752 224.051 183.401 224.806 183.217 225.606C182.835 227.339 183.237 229.152 183.775 230.848C183.947 231.305 184.056 231.783 184.1 232.269C184.074 233.017 183.884 233.751 183.542 234.417L181.25 239.823C180.994 240.429 179.985 240.528 179.339 240.608C178.125 240.753 176.768 240.856 175.802 240.105C174.835 239.355 174.602 238.098 174.453 236.924C174.167 234.672 174.039 232.402 174.071 230.132C174.113 229.539 174.06 228.944 173.914 228.368C173.704 227.716 173.242 227.152 173.116 226.463C172.955 225.571 173.41 224.695 173.578 223.796C173.693 222.975 173.68 222.141 173.54 221.324C173.391 220.104 173.219 218.885 173.024 217.674C172.749 215.979 173.142 214.306 173.406 212.607C173.654 211.011 173.337 209.384 173.024 207.799C173.051 209.085 172.89 210.369 172.546 211.609C172.344 212.215 172.054 212.794 171.878 213.411C171.095 216.18 172.764 219.087 172.527 221.956C172.417 223.297 171.889 224.623 172.038 225.945C172.141 226.912 172.592 227.8 172.902 228.722C173.211 229.644 173.372 230.699 172.902 231.56C171.66 233.899 172.588 237.08 173.7 239.48C173.926 239.906 174.123 240.347 174.289 240.799C174.617 241.881 174.342 243.043 174.43 244.17C174.11 244.222 173.782 244.201 173.472 244.108C173.161 244.015 172.876 243.853 172.638 243.633C172.47 243.458 172.332 243.252 172.168 243.069C171.709 242.633 171.166 242.295 170.571 242.075C170.222 241.88 169.824 241.789 169.425 241.812C169.005 241.929 168.627 242.163 168.336 242.486C167.958 242.818 167.557 243.122 167.136 243.397C166.957 243.534 166.748 243.627 166.525 243.667C166.413 243.685 166.299 243.666 166.198 243.615C166.097 243.564 166.015 243.482 165.964 243.382C165.94 243.318 165.925 243.251 165.921 243.183C165.78 242.033 165.704 240.876 165.696 239.717C165.696 237.724 163.304 236.353 163.003 234.383C162.762 232.794 163.209 231.175 163.06 229.575C162.987 228.752 162.758 227.945 162.773 227.122C162.773 226.588 162.896 226.067 162.938 225.537C162.973 224.949 162.964 224.36 162.911 223.773L162.792 221.933C162.678 220.116 162.552 218.261 161.833 216.6C160.982 214.66 160.477 212.587 160.343 210.474C160.267 209.14 160.317 207.807 160.164 206.47C160.026 205.262 159.721 204.062 159.808 202.85C159.881 201.913 160.191 201.006 160.263 200.069C160.412 198.267 159.724 196.515 159.186 194.789C158.647 193.063 158.25 191.151 158.956 189.486C159.058 189.213 159.226 188.969 159.446 188.777C159.717 188.599 160.025 188.484 160.347 188.442C166.902 187.069 173.621 186.642 180.298 187.174C181.387 187.235 182.443 187.564 183.374 188.13Z" fill="#3F3D56"/>
<path d="M161.685 147.667C165.065 147.667 167.806 144.934 167.806 141.564C167.806 138.193 165.065 135.46 161.685 135.46C158.305 135.46 155.564 138.193 155.564 141.564C155.564 144.934 158.305 147.667 161.685 147.667Z" fill="#BE6F72"/>
<path d="M160.501 149.187C160.589 149.536 160.589 149.901 160.501 150.25C160.405 150.493 160.269 150.72 160.1 150.92C159.507 151.682 158.852 152.393 158.14 153.046C158.502 153.854 159.155 154.497 159.97 154.848C160.778 155.191 161.627 155.433 162.495 155.568C162.929 155.682 163.38 155.713 163.825 155.659C164.235 155.557 164.623 155.381 164.971 155.141L168.371 153.111C168.884 152.834 169.359 152.492 169.785 152.094C170.409 151.454 170.761 150.6 170.771 149.709C170.786 149.549 170.743 149.389 170.648 149.259C170.518 149.146 170.355 149.078 170.182 149.065C168.986 148.802 168.043 147.834 167.508 146.737C167.024 145.612 166.711 144.422 166.579 143.206L162.954 145.11C162.415 145.396 161.88 145.682 161.322 145.929C160.967 146.089 160.249 146.223 159.996 146.547C159.515 147.145 160.375 148.467 160.501 149.187Z" fill="#BE6F72"/>
<path d="M158.162 151.938C157.646 152.36 157.243 152.903 156.989 153.519C156.752 154.281 156.989 155.084 157.203 155.839C158.206 159.054 158.972 162.338 159.496 165.664C159.817 167.95 159.935 170.27 160.092 172.582C160.413 177.299 160.879 184.819 161.501 189.505C163.794 189.608 166.029 188.941 168.302 188.697C172.551 188.248 176.925 189.276 181.086 188.316C180.077 184.343 179.069 177.558 178.06 173.588C177.614 172.024 177.304 170.424 177.135 168.807C177.048 167.645 177.101 166.479 177.116 165.31C177.151 163.024 177.025 160.738 176.899 158.452C176.753 155.785 176.608 153.119 175.974 150.509C175.93 150.177 175.773 149.869 175.531 149.637C175.149 149.359 174.652 149.458 174.197 149.519C172.805 149.695 171.396 149.362 170.232 148.581C169.727 148.238 169.051 147.819 168.581 148.2C168.381 148.43 168.248 148.711 168.199 149.012C167.991 149.551 167.67 150.039 167.258 150.445C166.845 150.85 166.351 151.163 165.807 151.362C164.719 151.756 163.578 151.989 162.422 152.056C162.068 152.132 161.7 152.09 161.372 151.938C160.829 151.606 160.791 150.414 160.107 150.334C159.507 150.265 158.567 151.553 158.162 151.938Z" fill="#3F3D56"/>
<path d="M167.202 161.24C165.792 159.895 165.173 157.945 164.146 156.288C163.446 155.173 162.552 154.193 161.506 153.392C160.98 153.046 160.497 152.638 160.069 152.177C159.706 151.731 159.431 151.137 158.881 150.966C158.653 150.916 158.418 150.923 158.193 150.984C157.969 151.046 157.763 151.161 157.593 151.32C157.256 151.64 156.938 151.978 156.638 152.333C155.018 154.006 152.172 154.238 150.888 156.173C150.542 156.584 150.306 157.076 150.204 157.602C149.835 160.419 150.565 163.27 152.244 165.564C152.57 166.096 153.069 166.5 153.658 166.707C153.578 167.418 153.673 168.137 153.933 168.803C154.641 171.214 155.51 173.575 156.535 175.869C156.29 176.767 156.119 177.683 156.023 178.609C155.756 180.936 156.004 183.298 155.752 185.63C155.545 187.535 154.988 189.39 154.969 191.299C154.969 191.603 154.995 191.965 155.259 192.122C155.399 192.193 155.556 192.226 155.714 192.217L160.413 192.358C163.141 192.438 165.895 192.518 168.581 192.015C168.939 191.962 169.286 191.853 169.609 191.691C170.518 191.184 170.82 190.042 170.965 189.024C171.155 187.705 171.23 186.372 171.191 185.039C171.76 186.834 172.436 188.689 174.156 189.466C175.065 189.878 176.104 189.847 177.101 189.821C179.251 189.725 181.393 189.505 183.516 189.161C183.647 189.178 183.78 189.163 183.904 189.119C184.028 189.075 184.14 189.002 184.231 188.907C184.322 188.812 184.39 188.697 184.428 188.571C184.466 188.445 184.475 188.312 184.452 188.182L184.475 186.102C184.521 181.877 183.47 177.839 183.062 173.633C182.932 172.307 182.943 170.966 182.618 169.667C182.485 169.123 182.29 168.589 182.171 168.041C182.069 167.503 182.006 166.96 181.98 166.414L181.682 162.223C181.541 160.284 181.338 158.414 181.189 156.478C181.108 154.594 180.834 152.722 180.372 150.893C180.039 149.75 179.348 148.455 178.152 148.314C177.514 148.242 176.895 148.52 176.288 148.714C174.794 149.183 173.192 149.176 171.703 148.695C171.243 148.514 170.763 148.386 170.274 148.314C170.028 148.281 169.777 148.313 169.547 148.408C169.318 148.503 169.117 148.657 168.967 148.855C168.819 149.153 168.749 149.483 168.765 149.815C168.585 153.621 168.253 157.541 167.202 161.24Z" fill="#1A75FF"/>
<path d="M161.054 161.355C159.293 159.503 157.486 157.618 155.216 156.44C154.322 155.976 153.306 155.625 152.316 155.8C151.327 155.976 150.406 156.833 150.452 157.835C150.482 158.456 150.861 159.004 150.979 159.614C151.117 160.3 150.918 161.031 151.132 161.694C151.306 162.131 151.566 162.528 151.896 162.863L154.601 166.06C155.747 167.393 156.893 168.746 158.368 169.668C159.843 170.589 161.753 171.02 163.373 170.365C164.526 169.831 165.484 168.953 166.116 167.854C166.789 166.787 167.263 165.622 167.893 164.521C168.874 162.761 170.169 161.195 171.714 159.9C170.919 159.694 169.922 159.404 169.421 158.757C169.279 158.551 169.157 158.331 169.058 158.101L168.439 156.768C168.229 156.757 168.018 156.79 167.821 156.864C167.624 156.938 167.444 157.052 167.293 157.198C167.028 157.504 166.743 157.793 166.441 158.063C165.902 158.467 165.173 158.578 164.684 159.039C164.494 159.236 164.323 159.451 164.172 159.679C163.802 160.163 163.332 160.564 162.795 160.853C162.257 161.142 161.663 161.313 161.054 161.355Z" fill="#3F3D56"/>
<path d="M171.856 153.389C173.181 150.977 173.12 148.086 173.498 145.362C173.539 144.64 173.793 143.947 174.228 143.369C174.992 142.508 176.341 142.497 177.495 142.607C177.835 142.645 178.259 142.805 178.24 143.144C178.213 143.266 178.154 143.378 178.068 143.468C176.95 144.908 176.292 146.649 176.181 148.467C176.78 148.882 177.709 148.028 178.286 148.467C178.668 148.787 178.492 149.419 178.263 149.876C177.73 150.935 177.182 151.987 176.616 153.031C176.165 153.951 175.576 154.797 174.87 155.541C174.385 156.006 173.816 156.372 173.323 156.829C172.177 157.899 171.485 159.412 170.301 160.456C170.201 160.564 170.065 160.633 169.919 160.65C169.768 160.639 169.626 160.576 169.517 160.471C168.926 159.991 168.435 159.399 168.073 158.73C167.622 157.899 167.691 157.656 168.402 157.069C169.731 156.021 171.026 154.897 171.856 153.389Z" fill="#BE6F72"/>
<path d="M158.838 159.717C159.067 159.858 159.35 160.018 159.602 159.9C159.705 159.838 159.793 159.753 159.858 159.652C160.295 159.071 160.659 158.439 160.943 157.77C160.992 157.676 161.019 157.572 161.023 157.465C161.023 157.222 160.806 157.042 160.603 156.902C159.518 156.212 158.351 155.659 157.13 155.256C156.121 154.875 155.067 154.543 153.997 154.639C153.595 154.665 153.203 154.773 152.844 154.955C152.485 155.137 152.166 155.39 151.907 155.698C151.143 156.677 152.423 156.974 153.225 157.328C155.082 158.17 157.092 158.658 158.838 159.717Z" fill="#1A75FF"/>
<path opacity="0.1" d="M157.635 166.193C157.622 166.28 157.63 166.369 157.658 166.452C157.686 166.536 157.733 166.611 157.795 166.673C157.906 166.132 157.761 165.561 157.876 165.016C158.044 164.197 158.842 163.58 158.911 162.757C157.448 162.471 157.646 165.309 157.635 166.193Z" fill="black"/>
<path opacity="0.2" d="M225 136.402V140.155L209.465 141.096L208.995 137.34L225 136.402Z" fill="black"/>
<path d="M156.175 142.471C157.146 141.682 156.584 140.029 157.241 138.97C157.623 138.39 158.269 138.086 158.903 137.827C159.669 137.47 160.489 137.243 161.329 137.156C161.75 137.116 162.175 137.171 162.572 137.316C162.969 137.462 163.328 137.695 163.622 137.998C163.87 138.28 164.038 138.623 164.271 138.916C164.56 139.258 164.936 139.516 165.36 139.663C165.784 139.809 166.239 139.838 166.678 139.747C167.186 139.632 167.714 139.248 167.679 138.73C167.622 138.414 167.46 138.127 167.221 137.914L166.128 136.707C164.886 135.335 163.507 133.88 161.685 133.537C160.416 133.297 159.117 133.636 157.895 134.044C157.402 134.207 156.848 134.451 156.71 134.95C156.619 135.293 156.756 135.667 156.676 136.013C156.519 136.703 155.633 136.935 155.22 137.514C154.808 138.093 154.934 138.779 154.815 139.419C154.697 140.059 154.353 140.684 154.311 141.347C154.284 141.747 154.487 142.49 154.938 142.634C155.388 142.779 155.896 141.994 156.175 142.471Z" fill="#3F3D56"/>
<path d="M167.309 138.181C166.986 136.505 166.292 134.922 165.276 133.549C164.373 132.266 163.116 131.27 161.658 130.684C160.929 130.4 160.145 130.284 159.365 130.346C158.585 130.407 157.829 130.644 157.153 131.038C156.151 131.752 155.371 132.733 154.903 133.869C153.913 135.995 153.547 138.593 154.697 140.635C155.155 140.079 155.942 140.33 156.638 140.128C157.509 139.88 158.246 139.301 159.075 138.939C161.578 137.838 164.634 138.73 167.309 138.181Z" fill="#FED253"/>
<path opacity="0.1" d="M155.282 138.062C155.194 137.376 155.137 136.58 155.626 136.093C155.65 136.063 155.681 136.039 155.716 136.023C155.751 136.007 155.79 136 155.828 136.001C155.862 136.012 155.894 136.03 155.921 136.054C155.948 136.077 155.969 136.106 155.985 136.138C156.267 136.583 156.507 137.052 156.703 137.54C156.418 137.475 156.12 137.496 155.848 137.601C155.575 137.707 155.341 137.891 155.175 138.131" fill="black"/>
<path opacity="0.1" d="M164.21 136.127L164.072 134.767C164.05 134.655 164.059 134.539 164.099 134.432C164.157 134.342 164.246 134.277 164.349 134.249C164.452 134.221 164.561 134.231 164.657 134.279C164.845 134.383 165 134.538 165.104 134.725C165.422 135.212 165.686 135.732 165.891 136.276C165.276 136.157 164.643 136.165 164.03 136.299" fill="black"/>
<path opacity="0.1" d="M167.63 191.325V194.434L164.997 194.609H151.151V191.325H167.63Z" fill="black"/>
<path d="M167.63 191.326V194.61H151.152L107.375 139.93V137.347H116.552L167.63 191.326Z" fill="#F1C0C0"/>
<path opacity="0.1" d="M167.63 191.326V194.61H151.152L107.375 139.93V137.347H116.552L167.63 191.326Z" fill="black"/>
<path opacity="0.1" d="M167.63 191.326V194.61H151.152L107.375 139.93V137.347L151.389 191.326H167.63Z" fill="black"/>
<path d="M113.113 246.132C113.142 246.287 113.139 246.445 113.103 246.599C113.068 246.752 113.001 246.896 112.907 247.022C112.813 247.148 112.694 247.254 112.557 247.332C112.42 247.41 112.269 247.46 112.112 247.477C111.05 247.835 109.923 248.189 109.17 249.001C108.418 249.812 108.269 251.317 109.17 251.976C109.631 252.253 110.161 252.397 110.699 252.391C112.429 252.51 114.233 252.487 115.803 251.755C116.926 251.237 117.985 250.353 119.219 250.433C119.857 250.471 120.537 250.769 121.106 250.479C121.675 250.189 121.836 249.382 121.84 248.708C121.854 247.3 121.641 245.899 121.209 244.559C121.152 244.376 118.722 244.235 118.432 244.178L115.486 243.797C114.928 243.724 113.725 243.305 113.285 243.77C112.846 244.235 113.113 245.58 113.113 246.132Z" fill="#1A75FF"/>
<path d="M130.692 236.623C130.817 237.309 131.019 237.979 131.296 238.619C131.704 239.656 132.228 240.757 133.229 241.26C134.138 241.713 135.254 241.549 136.178 241.119C136.564 240.959 136.902 240.703 137.16 240.376C137.459 239.857 137.592 239.261 137.542 238.665C137.542 237.191 137.454 235.667 136.778 234.356C136.197 233.214 135.185 232.231 135.17 230.966L131.689 231.636C131.503 231.654 131.325 231.724 131.177 231.838C131.067 231.954 130.99 232.098 130.956 232.253C130.584 233.679 130.494 235.163 130.692 236.623Z" fill="#1A75FF"/>
<path d="M89.1277 200.432C88.9825 201.659 89.0437 202.973 89.6855 204.032C90.3274 205.091 91.6799 205.792 92.849 205.369C92.9089 205.354 92.9651 205.327 93.0143 205.29C93.0635 205.252 93.1048 205.206 93.1355 205.152C93.1666 205.023 93.149 204.888 93.0859 204.771C92.5697 203.398 92.6122 201.877 93.2043 200.535C93.2807 200.36 93.445 200.154 93.6246 200.222C93.6997 200.26 93.7601 200.322 93.7965 200.398C93.9815 200.717 94.074 201.081 94.0639 201.449C94.01 201.783 93.9997 202.122 94.0334 202.459C94.106 202.786 94.4575 203.095 94.7631 202.954C94.8515 202.9 94.9279 202.828 94.9876 202.744C95.0474 202.659 95.0893 202.564 95.1108 202.463C95.9628 200.005 95.5769 197.319 95.1872 194.748C95.1905 194.689 95.1807 194.63 95.1585 194.575C95.1364 194.52 95.1024 194.471 95.0591 194.43C95.0157 194.39 94.964 194.36 94.9076 194.342C94.8511 194.323 94.7914 194.318 94.7326 194.325C92.9292 194.146 91.9435 193.715 90.9119 195.388C90.0256 196.798 89.1277 198.737 89.1277 200.432Z" fill="#1A75FF"/>
<path d="M110.21 194.179C109.675 196.397 109.136 198.641 109.102 200.919C109.111 202.338 109.218 203.755 109.422 205.159L109.824 208.458C109.961 209.571 110.095 210.679 110.29 211.78C110.414 212.347 110.482 212.925 110.492 213.506C110.455 214.078 110.364 214.646 110.221 215.201C109.981 216.368 109.846 217.554 109.82 218.744C109.778 220.649 110.015 222.554 110.164 224.459C110.461 228.255 110.416 232.069 110.03 235.857C109.876 236.88 110.098 237.923 110.657 238.795C110.883 239.069 111.07 239.375 111.211 239.701C111.497 240.574 110.828 241.446 110.657 242.341C110.547 243.04 110.719 243.753 111.136 244.324C111.553 244.896 112.18 245.279 112.88 245.389C115.937 245.751 119.077 245.587 121.832 246.982C122.122 246.136 121.488 245.176 121.778 244.315C121.962 243.782 122.466 243.435 122.81 242.985C123.272 242.3 123.502 241.486 123.467 240.661C123.481 239.585 123.289 238.516 122.902 237.511C122.577 236.673 122.111 235.846 122.138 234.947C122.138 234.505 122.294 234.04 122.115 233.633C121.991 233.398 121.824 233.19 121.622 233.019C120.48 231.772 119.778 230.186 119.624 228.505C119.475 226.836 119.528 225.155 119.784 223.499C119.971 221.922 120.223 220.257 121.228 219.026C120.762 215.295 121.036 211.509 122.034 207.883C122.134 207.548 122.29 207.159 122.634 207.079C122.771 207.065 122.909 207.084 123.036 207.134C123.164 207.185 123.278 207.265 123.368 207.369C123.968 207.929 124.254 208.74 124.514 209.517C124.8 210.359 125.091 211.258 124.873 212.119C124.781 212.5 124.598 212.835 124.491 213.201C124.259 213.936 124.299 214.73 124.606 215.437C124.755 215.696 124.849 215.983 124.881 216.279C124.845 216.534 124.768 216.781 124.651 217.011C124.51 217.462 124.465 217.937 124.519 218.406C124.574 218.876 124.727 219.328 124.969 219.735C125.456 220.544 126.056 221.279 126.753 221.918C126.42 223.38 126.506 224.906 127.001 226.322C127.037 226.386 127.06 226.456 127.068 226.528C127.077 226.601 127.071 226.674 127.051 226.745C126.982 226.889 126.806 226.943 126.669 227.046C126.287 227.358 126.524 227.948 126.78 228.356C127.481 229.475 128.256 230.547 129.099 231.564C129.863 232.474 129.794 234.231 130.933 234.558C131.411 234.661 131.906 234.661 132.384 234.558C133.508 234.387 134.761 234.063 135.311 233.072C135.536 232.665 135.628 232.17 135.98 231.865C136.331 231.56 136.786 231.507 136.981 231.141C137.175 230.775 136.958 230.295 137.023 229.872C137.088 229.449 137.458 229.11 137.577 228.665C137.859 227.636 136.656 226.79 136.492 225.739C136.255 224.215 138.18 223.072 138.1 221.548C137.932 218.238 137.825 214.912 137.653 211.601C137.437 208.636 137.407 205.66 137.561 202.69C137.695 200.843 137.943 198.907 137.263 197.189C136.285 194.766 133.588 193.406 130.978 193.147C128.369 192.888 125.767 193.505 123.181 193.909C118.888 194.569 114.526 194.66 110.21 194.179Z" fill="#3F3D56"/>
<path d="M117.965 157.766C121.346 157.766 124.086 155.034 124.086 151.663C124.086 148.293 121.346 145.56 117.965 145.56C114.585 145.56 111.845 148.293 111.845 151.663C111.845 155.034 114.585 157.766 117.965 157.766Z" fill="#FBBEBE"/>
<path d="M115.474 158.906C115.266 159.389 114.916 159.798 114.471 160.078C114.026 160.359 113.506 160.499 112.979 160.479C112.757 161.394 113.289 162.316 113.896 163.036C115.157 164.499 116.788 165.601 118.618 166.227C120.449 166.853 122.414 166.981 124.311 166.598C125.049 166.466 125.749 166.175 126.363 165.744C127.189 165.056 127.744 164.098 127.929 163.04C128.105 161.989 128.155 160.921 128.078 159.859C128.1 159.649 128.039 159.439 127.91 159.272C127.757 159.154 127.568 159.092 127.375 159.097C126.084 158.982 124.735 158.933 123.6 158.3C122.466 157.668 121.66 156.239 122.206 155.066C122.118 155.249 119.887 155.336 119.593 155.375C118.672 155.504 117.751 155.649 116.834 155.816C116.393 155.841 115.958 155.923 115.539 156.06C114.985 156.346 115.191 156.205 115.321 156.723C115.516 157.516 115.803 158.083 115.474 158.906Z" fill="#FBBEBE"/>
<path d="M120.132 162.616C119.307 162.626 118.485 162.535 117.682 162.346C116.872 162.157 116.158 161.682 115.673 161.009C115.39 160.582 115.207 160.045 114.756 159.805C114.019 159.424 113.178 160.068 112.59 160.658C112.054 161.241 111.433 161.739 110.748 162.136C109.93 162.567 108.975 162.719 108.204 163.226C107.601 163.68 107.083 164.237 106.675 164.872L101.261 172.224C99.0875 175.181 97.1963 178.354 95.2593 181.474C93.582 184.175 92.7033 187.284 91.4387 190.199C91.3385 190.377 91.2971 190.582 91.3202 190.785C91.3661 190.983 91.6068 191.143 91.7749 191.029C91.2056 191.593 91.7061 192.553 91.5724 193.345C91.4204 193.9 91.1033 194.395 90.6631 194.766C91.504 194.657 92.3577 194.697 93.1847 194.884C94.0393 195.126 94.8458 195.513 95.5688 196.027C96.0311 195.955 95.989 195.136 96.3329 194.831C96.5392 194.652 96.8448 194.675 97.1161 194.622C98.1362 194.423 98.5412 193.201 99.3244 192.511C99.9778 191.936 100.902 191.749 101.594 191.208C102.717 190.328 102.958 188.762 103.546 187.463C104.047 186.362 104.834 185.402 105.273 184.274C105.56 183.543 105.697 182.751 106.106 182.076C106.759 180.987 107.99 180.408 109.163 179.886C109.904 179.554 110.691 179.211 111.489 179.265C111.447 181.036 111.222 182.781 111.608 184.511C111.741 185.12 111.929 185.715 112.089 186.32C112.819 189.048 112.991 191.89 113.025 194.702C114.781 194.301 116.573 194.087 118.374 194.062C119.791 194.02 121.205 194.202 122.623 194.176C124.304 194.145 125.966 193.821 127.647 193.707C129.328 193.593 131.085 193.707 132.571 194.469C132.451 192.055 132.518 189.635 132.774 187.231L133.179 183.444C133.27 182.344 133.44 181.251 133.687 180.175C133.909 179.307 134.23 178.468 134.474 177.604C135.334 174.556 135.177 171.302 135.013 168.129C134.929 166.498 134.298 164.895 133.557 163.443C133.289 162.904 132.982 162.385 132.64 161.889C131.745 160.658 130.551 159.674 129.171 159.028C127.79 158.382 126.268 158.095 124.747 158.193C124.552 158.199 124.361 158.241 124.181 158.315C123.859 158.521 123.607 158.82 123.459 159.172C122.669 160.589 121.522 161.776 120.132 162.616Z" fill="#3F3D56"/>
<path d="M112.583 153.686C112.754 153.305 113.217 153.164 113.499 152.859C114.042 152.28 113.797 151.354 113.882 150.573C114.019 149.43 114.97 148.474 116.059 148.067C117.17 147.711 118.351 147.637 119.498 147.849C120.05 147.89 120.583 148.066 121.049 148.364C121.248 148.508 121.431 148.695 121.618 148.828C121.96 149.034 122.368 149.099 122.756 149.008C123.145 148.918 123.482 148.68 123.697 148.345C122.344 146.722 120.847 145.007 118.791 144.508C118.086 144.365 117.367 144.297 116.648 144.306C115.696 144.287 114.714 144.272 113.836 144.634C112.64 145.125 111.799 146.257 111.368 147.476C110.99 148.712 110.788 149.994 110.768 151.286C110.689 152.147 110.689 153.015 110.768 153.876C110.915 155.053 111.354 156.175 112.044 157.141C112.137 157.291 112.269 157.414 112.426 157.496C114.168 158.257 112.441 154.002 112.583 153.686Z" fill="#3F3D56"/>
<path d="M123.498 147.404C123.288 145.61 122.004 144.128 120.64 142.935C119.541 141.901 118.231 141.115 116.8 140.63C115.36 140.207 113.702 140.299 112.468 141.156C111.474 141.846 110.844 142.943 110.359 144.048C109.721 145.351 109.405 146.788 109.438 148.238C109.533 149.678 110.236 151.137 111.489 151.865C111.94 151.202 112.724 150.859 113.476 150.589C116.757 149.348 120.102 148.285 123.498 147.404Z" fill="#FED253"/>
<path opacity="0.1" d="M111.91 146.658C112.032 146.658 112.112 146.784 112.173 146.886C112.484 147.37 112.752 147.88 112.972 148.41C112.525 148.506 111.757 148.612 111.535 148.22C111.417 148.022 111.558 146.639 111.91 146.658Z" fill="black"/>
<path opacity="0.1" d="M120.617 145.797C120.525 145.884 120.418 145.705 120.418 145.576V144.098C120.416 144.057 120.425 144.016 120.445 143.98C120.461 143.961 120.48 143.947 120.502 143.936C120.524 143.926 120.547 143.92 120.571 143.919C120.881 143.884 121.137 144.147 121.335 144.399C121.637 144.806 121.899 145.241 122.119 145.698L120.502 145.648" fill="black"/>
<path d="M140.786 170.274C141.137 169.942 141.513 169.635 141.909 169.356C142.967 168.651 144.247 168.373 145.435 167.924C146.623 167.474 147.831 166.747 148.293 165.566C148.524 164.827 148.6 164.049 148.515 163.28C148.526 162.958 148.468 162.637 148.347 162.339C148.201 162.075 147.994 161.85 147.743 161.683C146.131 160.495 143.968 160.4 141.966 160.522C137.552 160.794 133.226 161.871 129.201 163.699C128.989 163.769 128.802 163.902 128.667 164.08C128.588 164.245 128.553 164.427 128.563 164.609C128.492 165.733 128.639 166.859 128.995 167.928C129.522 169.284 130.607 170.377 131.062 171.76C131.268 172.381 131.337 173.04 131.517 173.665C131.664 174.31 132.047 174.878 132.59 175.257C134.099 176.156 135.525 174.949 136.571 174.012L140.786 170.274Z" fill="#3F3D56"/>
<path d="M121.022 175.55L119.085 171.337C118.801 170.753 118.556 170.151 118.352 169.535C118.13 168.799 118.023 168.038 117.817 167.298C117.137 164.837 115.421 162.788 114.584 160.376C114.531 160.159 114.424 159.958 114.271 159.793C114.149 159.707 114.009 159.649 113.862 159.623C113.715 159.596 113.564 159.603 113.419 159.641C112.25 159.843 111.337 160.731 110.267 161.233C109.77 161.462 109.236 161.614 108.739 161.877C108.491 161.995 108.271 162.164 108.094 162.373C107.917 162.583 107.788 162.828 107.715 163.093C107.596 163.675 107.887 164.235 108.131 164.803C109.171 167.142 109.407 169.756 109.453 172.316C109.488 174.038 109.4 175.885 108.38 177.268C106.42 179.935 107.673 183.852 108.406 187.078C108.494 187.459 108.597 187.871 108.659 188.275C108.723 188.78 108.753 189.289 108.746 189.798C108.746 191.509 108.651 193.273 107.933 194.823C108.642 195.2 109.423 195.42 110.225 195.471C112.444 195.753 114.671 195.951 116.907 196.065C117.608 196.131 118.315 196.095 119.005 195.959C119.825 195.738 120.547 195.251 121.059 194.575C121.57 193.899 121.841 193.072 121.828 192.225C121.951 193.28 122.176 194.427 122.944 195.159C123.712 195.89 124.831 196.001 125.874 196.058C128.818 196.213 131.77 196.131 134.7 195.81C134.887 195.802 135.071 195.759 135.242 195.684C135.808 195.402 135.838 194.625 135.793 194C135.709 192.831 135.621 191.661 135.479 190.499C135.359 189.759 135.298 189.01 135.296 188.259C135.354 187.487 135.482 186.722 135.678 185.973C136.19 183.596 136.595 181.169 136.423 178.735C136.355 178.142 136.331 177.545 136.35 176.948C136.45 175.604 137.16 174.324 137.027 172.986C136.645 169.055 136.335 165.02 135.235 161.226C135.036 160.548 134.784 159.82 134.192 159.431C133.428 158.921 132.354 159.188 131.479 158.864C131.069 158.673 130.678 158.442 130.314 158.174C129.522 157.681 128.615 157.402 127.681 157.367C126.978 157.34 126.195 157.496 125.771 158.06C125.575 158.377 125.445 158.731 125.389 159.1C124.835 161.424 124.186 163.721 123.536 166.018L122.913 168.22L121.244 174.133C121.079 174.762 121.19 174.956 121.022 175.55Z" fill="#1A75FF"/>
<path d="M130.792 152.482L167.748 191.208V194.492H151.27L123.498 158.349" fill="#F1C0C0"/>
<path opacity="0.1" d="M130.792 152.482L167.748 191.208V194.492H151.27L123.498 158.349" fill="black"/>
<path opacity="0.1" d="M124.086 157.838L124.205 157.88L151.507 191.207H167.748V194.491H151.27L123.498 158.349L124.086 157.838Z" fill="black"/>
<path d="M128.338 158.654C127.001 159.237 125.515 159.984 125.113 161.386C125.034 161.632 125.017 161.893 125.064 162.148C125.161 162.446 125.348 162.709 125.598 162.9C125.848 163.091 126.151 163.202 126.466 163.218C127.095 163.233 127.721 163.119 128.304 162.883L136.193 160.285C136.407 160.216 136.652 160.113 136.705 159.904C136.719 159.772 136.692 159.639 136.629 159.523C136.384 158.928 136.144 157.713 135.632 157.298C135.211 156.963 134.378 157.081 133.87 157.088C131.914 157.104 130.076 157.892 128.338 158.654Z" fill="#1A75FF"/>
<path d="M135.372 160.593C136.702 160.589 138.023 160.794 139.289 161.199C140.56 161.611 141.686 162.378 142.532 163.409C142.779 163.697 142.954 164.039 143.044 164.407C143.121 164.788 144.366 165.016 144.091 165.275C144.928 165.142 144.729 165.535 145.577 165.527C146.425 165.519 147.342 165.302 147.851 164.628C148.204 164.074 148.361 163.418 148.298 162.765C148.309 162.313 148.223 161.863 148.045 161.447C147.663 160.647 146.785 160.216 145.975 159.847L139.151 156.734C138.755 156.524 138.33 156.374 137.89 156.288C137.52 156.254 137.147 156.262 136.778 156.315L133.688 156.669C134.363 157.106 134.914 157.71 135.284 158.423C135.655 159.135 135.833 159.932 135.8 160.734" fill="#3F3D56"/>
</g>
<defs>
<clipPath id="clip0_421_1066">
<rect width="450" height="276" fill="white"/>
</clipPath>
</defs>
</svg>
