<svg width="233" height="194" viewBox="0 0 233 194" fill="none" xmlns="http://www.w3.org/2000/svg">
<path d="M214.507 190.264L211.029 190.264L209.374 176.926H214.508L214.507 190.264Z" fill="#9E616A"/>
<path d="M215.395 193.616L204.178 193.615V193.474C204.178 192.323 204.638 191.22 205.457 190.406C206.276 189.592 207.386 189.135 208.544 189.135H208.544L215.395 189.135L215.395 193.616Z" fill="#2F2E41"/>
<path d="M201.171 190.264L197.693 190.264L196.038 176.926H201.172L201.171 190.264Z" fill="#9E616A"/>
<path d="M202.059 193.616L190.842 193.615V193.474C190.842 192.323 191.302 191.22 192.121 190.406C192.94 189.592 194.05 189.135 195.208 189.135H195.208L202.059 189.135L202.059 193.616Z" fill="#2F2E41"/>
<path d="M50.8841 193.1V85.9715C50.8841 85.3117 51.1477 84.679 51.6171 84.2124C52.0864 83.7459 52.7229 83.4838 53.3867 83.4838H64.5548C65.2185 83.4838 65.855 83.7459 66.3244 84.2124C66.7937 84.679 67.0574 85.3117 67.0574 85.9715V85.9715V193.379L50.8841 193.1Z" fill="#3F3D56"/>
<path d="M87.7705 193.436V108.254C87.7705 107.594 88.0342 106.962 88.5035 106.495C88.9729 106.028 89.6094 105.766 90.2731 105.766H101.441C102.105 105.766 102.742 106.028 103.211 106.495C103.68 106.962 103.944 107.594 103.944 108.254V108.254V193.252L87.7705 193.436Z" fill="#3F3D56"/>
<path d="M22.2258 92.2329C22.0614 92.2329 21.9006 92.1855 21.7627 92.0965C21.6248 92.0076 21.5157 91.8809 21.4487 91.7316C21.3817 91.5824 21.3596 91.4171 21.3851 91.2557C21.4106 91.0942 21.4825 90.9436 21.5923 90.8219L58.9343 49.4183L95.6841 69.9323L132.653 6.61096L170.313 37.4244C170.399 37.495 170.471 37.5818 170.524 37.6799C170.576 37.778 170.609 37.8855 170.62 37.9961C170.631 38.1068 170.619 38.2185 170.587 38.3248C170.554 38.4312 170.501 38.5301 170.43 38.6159C170.359 38.7018 170.271 38.7729 170.173 38.8251C170.074 38.8774 169.966 38.9098 169.854 38.9205C169.743 38.9312 169.631 38.9199 169.524 38.8875C169.417 38.855 169.317 38.8019 169.231 38.7311L133.119 9.18419L96.3141 72.2248L59.2908 51.5583L22.8599 91.9515C22.7801 92.0402 22.6824 92.1111 22.5731 92.1596C22.4638 92.2081 22.3455 92.2331 22.2258 92.2329V92.2329Z" fill="#3F3D56"/>
<path d="M22.0842 99.2844C26.472 99.2844 30.029 95.7485 30.029 91.3868C30.029 87.025 26.472 83.4891 22.0842 83.4891C17.6964 83.4891 14.1394 87.025 14.1394 91.3868C14.1394 95.7485 17.6964 99.2844 22.0842 99.2844Z" fill="#1854D1"/>
<path d="M58.9707 58.386C63.3585 58.386 66.9155 54.8501 66.9155 50.4884C66.9155 46.1266 63.3585 42.5907 58.9707 42.5907C54.5829 42.5907 51.0259 46.1266 51.0259 50.4884C51.0259 54.8501 54.5829 58.386 58.9707 58.386Z" fill="#CCCCCC"/>
<path d="M95.8572 78.9762C100.245 78.9762 103.802 75.4403 103.802 71.0786C103.802 66.7169 100.245 63.181 95.8572 63.181C91.4694 63.181 87.9124 66.7169 87.9124 71.0786C87.9124 75.4403 91.4694 78.9762 95.8572 78.9762Z" fill="#E6E6E6"/>
<path d="M132.744 15.7952C137.131 15.7952 140.688 12.2594 140.688 7.89762C140.688 3.53589 137.131 0 132.744 0C128.356 0 124.799 3.53589 124.799 7.89762C124.799 12.2594 128.356 15.7952 132.744 15.7952Z" fill="#1854D1"/>
<path d="M203.679 74.6142C208.067 74.6142 211.624 71.0783 211.624 66.7166C211.624 62.3548 208.067 58.8189 203.679 58.8189C199.291 58.8189 195.734 62.3548 195.734 66.7166C195.734 71.0783 199.291 74.6142 203.679 74.6142Z" fill="#1854D1"/>
<path d="M200.87 128.239C203.844 128.595 211.448 125.899 211.86 130.001C215.774 141.454 215.658 185.357 215.658 185.357L209.699 185.639C209.699 185.639 204.938 150.756 202.686 143.293C201.556 152.363 201.754 187.049 201.754 187.049L196.363 187.331C196.363 187.331 191.527 157.795 191.5 149.126C190.912 142.775 192.353 133.365 191.736 127.227C194.685 128.156 197.788 128.5 200.87 128.239L200.87 128.239Z" fill="#3F3D56"/>
<path d="M161.543 193.056V69.584C161.543 68.0005 162.664 66.7166 164.046 66.7166H175.214C176.596 66.7166 177.717 68.0002 177.717 69.584V193.379L161.543 193.056Z" fill="#3F3D56"/>
<path d="M190.755 95.0129C189.562 92.5892 188.105 90.3031 186.411 88.1956C186.057 87.784 185.734 87.3465 185.446 86.8868C184.836 85.8347 184.654 84.5993 184.268 83.4485C183.19 80.2218 180.5 77.6297 179.845 74.2929C179.607 73.0801 177.593 76.6052 178.123 78.1092C179.067 80.831 179.189 83.7137 180.392 86.3425C181.596 88.9712 183.009 91.4928 184.047 94.1809C184.637 95.7068 185.108 97.2835 185.974 98.6938C186.839 100.104 188.19 101.286 189.821 101.497C189.81 100.475 189.966 99.4576 190.284 98.4851C190.638 97.3737 191.268 96.065 190.755 95.0129Z" fill="#9E616A"/>
<path d="M208.605 96.8406C208.532 94.8463 208.845 92.8565 209.527 90.9795C209.788 90.2602 210.095 89.5297 210.069 88.7653C210.032 88.0545 209.692 87.403 209.382 86.7599C208.316 84.5457 207.566 82.199 206.829 79.8579L205.41 75.4437C204.948 75.1066 207.649 74.9896 208.225 75.7822C210.109 78.3828 211.536 81.3698 213.029 84.2101C213.409 84.8869 213.734 85.5935 213.999 86.3227C214.363 87.5045 214.536 88.7367 214.51 89.9725C214.51 92.2826 214.203 94.5842 213.885 96.8745C213.684 98.3102 213.42 99.8728 212.328 100.823C211.193 99.3792 210.052 97.9689 208.605 96.8406Z" fill="#9E616A"/>
<path d="M201.103 94.5554C204.354 94.5554 206.99 91.9351 206.99 88.7027C206.99 85.4703 204.354 82.85 201.103 82.85C197.851 82.85 195.215 85.4703 195.215 88.7027C195.215 91.9351 197.851 94.5554 201.103 94.5554Z" fill="#9E616A"/>
<path d="M196.317 82.8636C196.251 82.6859 196.236 82.4935 196.274 82.3079C196.312 82.1223 196.401 81.951 196.532 81.8134C196.679 81.6982 196.874 81.6552 197.032 81.5453C197.256 81.3581 197.439 81.1274 197.571 80.8675C197.973 80.308 198.562 79.9082 199.232 79.739C199.903 79.5698 200.612 79.6422 201.234 79.9433C202.207 80.4495 202.794 81.4632 203.66 82.1457C204.099 82.4994 204.608 82.7618 205.05 83.1155C205.936 83.8757 206.565 84.8875 206.853 86.0145C207.14 87.1338 207.308 88.2801 207.353 89.4343C207.399 89.7806 207.386 90.1322 207.313 90.474C207.224 90.7606 207.09 91.0318 206.917 91.2778C206.027 92.6174 204.855 93.8339 203.386 94.5251C201.917 95.2164 200.13 95.329 198.682 94.6055C198.536 94.5469 198.41 94.4473 198.32 94.3188C198.238 94.1232 198.218 93.9071 198.264 93.7C198.343 92.8812 198.18 92.0573 197.795 91.3289C197.525 90.7932 197.121 90.3322 196.906 89.7777C196.705 89.157 196.619 88.5053 196.652 87.8542C196.627 86.167 196.742 84.4872 196.317 82.8636Z" fill="#2D293D"/>
<path d="M13.9973 193.224V133.613C13.9973 132.849 15.1178 132.229 16.4999 132.229H27.668C29.0501 132.229 30.1706 132.85 30.1706 133.613V193.379L13.9973 193.224Z" fill="#3F3D56"/>
<path d="M232.717 194H0.283742C0.208489 194 0.136318 193.97 0.0831059 193.917C0.029894 193.865 0 193.793 0 193.718C0 193.643 0.029894 193.571 0.0831059 193.519C0.136318 193.466 0.208489 193.436 0.283742 193.436H232.716C232.791 193.436 232.864 193.466 232.917 193.519C232.97 193.571 233 193.643 233 193.718C233 193.793 232.97 193.865 232.917 193.917C232.864 193.97 232.791 194 232.716 194H232.717Z" fill="#E6E6E6"/>
<path d="M124.657 193.014V52.896C124.657 51.099 125.777 49.6422 127.159 49.6422H138.327C139.71 49.6422 140.83 51.099 140.83 52.896V193.379L124.657 193.014Z" fill="#1854D1"/>
<path d="M177.958 77.387C179.368 77.387 180.512 76.2504 180.512 74.8485C180.512 73.4465 179.368 72.3099 177.958 72.3099C176.548 72.3099 175.404 73.4465 175.404 74.8485C175.404 76.2504 176.548 77.387 177.958 77.387Z" fill="#A0616A"/>
<path d="M206.332 76.2587C207.743 76.2587 208.886 75.1222 208.886 73.7202C208.886 72.3182 207.743 71.1817 206.332 71.1817C204.922 71.1817 203.779 72.3182 203.779 73.7202C203.779 75.1222 204.922 76.2587 206.332 76.2587Z" fill="#A0616A"/>
<path d="M212.538 105.144C212.787 104.918 214.818 93.1079 214.806 92.8418C214.775 91.3868 210.309 89.7251 209.415 90.3033C208.572 90.8488 207.104 97.1077 206.159 98.2475L205.159 96.5086H197.214L196.733 97.3975C195.69 96.7732 194.753 96.1976 194.418 96.0072C194.303 95.9298 194.178 95.8685 194.046 95.8253C193.22 95.6417 192.445 95.2796 191.776 94.7647C191.124 94.2655 188.095 89.0368 187.283 89.1751C186.367 89.3274 183.276 91.9844 183.311 94.5342C183.7 94.5259 188.763 104.589 188.834 104.964C189.223 106.549 190.506 129.667 190.92 130.744C192.829 130.561 191.322 130.233 193.169 130.744C195.158 131.294 197.258 130.699 199.31 130.479C200.164 130.395 201.022 130.357 201.88 130.366C205.001 130.38 209.456 130.552 212.478 131.322C212.495 129.353 210.756 125.094 210.112 123.236C210.027 122.68 210.03 122.115 210.12 121.56C210.202 120.88 211.864 105.896 212.538 105.144Z" fill="#E6E6E6"/>
</svg>
