<svg width="168" height="164" viewBox="0 0 168 164" fill="none" xmlns="http://www.w3.org/2000/svg">
<rect width="167.844" height="164" rx="6" fill="white"/>
<path d="M115.054 8.96875H53.3592C49.9317 8.9727 46.6457 10.336 44.2221 12.7597C41.7985 15.1833 40.4351 18.4693 40.4312 21.8968V141.961C40.4351 145.388 41.7985 148.674 44.2221 151.098C46.6457 153.522 49.9317 154.885 53.3592 154.889H115.055C118.483 154.885 121.769 153.522 124.192 151.098C126.616 148.674 127.979 145.388 127.983 141.961V21.8968C127.979 18.469 126.616 15.1828 124.192 12.7591C121.768 10.3355 118.481 8.97231 115.054 8.96875Z" fill="#3B97D3"/>
<path d="M127.983 141.961V21.8968C127.979 18.4693 126.615 15.1833 124.192 12.7597C121.768 10.336 118.482 8.9727 115.054 8.96875H84.2065V154.889H115.054C118.482 154.885 121.768 153.522 124.192 151.098C126.615 148.674 127.979 145.388 127.983 141.961Z" fill="#285680"/>
<path d="M113.869 17.5193H109.03V22.403C109.03 25.9668 107.627 29.3846 105.131 31.9045C102.634 34.4245 99.2474 35.8402 95.7163 35.8402H71.8828C68.3517 35.8402 64.9653 34.4245 62.4685 31.9045C59.9717 29.3846 58.5688 25.9668 58.5688 22.403V17.5193H53.73C52.447 17.5205 51.217 18.0354 50.3098 18.951C49.4026 19.8667 48.8923 21.1081 48.8911 22.403V141.461C48.8923 142.756 49.4026 143.997 50.3098 144.913C51.217 145.828 52.447 146.343 53.73 146.344H113.859C115.142 146.343 116.372 145.828 117.279 144.913C118.186 143.997 118.696 142.756 118.697 141.461V22.403C118.696 21.1081 118.186 19.8667 117.279 18.951C116.372 18.0354 115.142 17.5205 113.859 17.5193H113.869Z" fill="#ECF0F1"/>
<path d="M118.708 141.461V22.403C118.707 21.1081 118.197 19.8667 117.29 18.951C116.383 18.0354 115.152 17.5205 113.869 17.5193H109.032V22.403C109.032 25.9668 107.629 29.3846 105.133 31.9045C102.636 34.4245 99.2492 35.8402 95.7181 35.8402H83.8008V146.344H113.865C115.149 146.344 116.38 145.83 117.288 144.914C118.196 143.999 118.707 142.756 118.708 141.461Z" fill="#E0E0E0"/>
<rect x="34.5938" y="46.9077" width="99.2257" height="56.9089" rx="2" fill="#FFB192"/>
<rect x="100.258" y="92.1429" width="21.888" height="5.83681" rx="2.9184" fill="#F3F3F3"/>
<rect x="46.2666" y="92.1429" width="21.888" height="5.83681" rx="2.9184" fill="#F3F3F3"/>
<rect x="46.2666" y="81.9285" width="45.2352" height="4.3776" rx="2.1888" fill="#F3F3F3"/>
<rect x="46.2666" y="74.6325" width="75.8785" height="4.3776" rx="2.1888" fill="#F3F3F3"/>
<path d="M50.4626 65.2036C52.0106 65.2036 52.8386 64.6036 52.8386 63.2956V61.4236C52.8386 60.1156 52.0106 59.5156 50.4626 59.5156H48.6986C48.3866 59.5156 48.2066 59.6956 48.2066 60.0076V67.7116C48.2066 68.0236 48.3866 68.2036 48.6986 68.2036H49.4906C49.8026 68.2036 49.9826 68.0236 49.9826 67.7116V65.2036H50.4626ZM49.9826 63.8596V60.8596H50.4626C50.8586 60.8596 51.0626 61.0996 51.0626 61.4236V63.2956C51.0626 63.6196 50.8586 63.8596 50.4626 63.8596H49.9826ZM53.562 66.3556C53.562 67.6636 54.39 68.2636 55.938 68.2636C57.486 68.2636 58.314 67.6636 58.314 66.3556V60.0076C58.314 59.6956 58.134 59.5156 57.822 59.5156H57.03C56.718 59.5156 56.538 59.6956 56.538 60.0076V66.3556C56.538 66.6796 56.334 66.9196 55.938 66.9196C55.542 66.9196 55.338 66.6796 55.338 66.3556V60.0076C55.338 59.6956 55.158 59.5156 54.846 59.5156H54.054C53.742 59.5156 53.562 59.6956 53.562 60.0076V66.3556ZM60.9251 61.3636C60.9251 61.0396 61.1291 60.7996 61.5251 60.7996C61.9211 60.7996 62.1251 61.0396 62.1251 61.3636V62.2156C62.1251 62.5276 62.3051 62.7076 62.6171 62.7076H63.4091C63.7211 62.7076 63.9011 62.5276 63.9011 62.2156V61.3636C63.9011 60.0556 63.0731 59.4556 61.5251 59.4556C59.9771 59.4556 59.1491 60.0556 59.1491 61.3636C59.1491 62.4796 59.2691 63.0796 60.1331 63.8116L61.5371 64.9996C62.0291 65.4076 62.1251 65.7316 62.1251 66.3556C62.1251 66.6796 61.9211 66.9196 61.5251 66.9196C61.1291 66.9196 60.9251 66.6796 60.9251 66.3556V65.5036C60.9251 65.1916 60.7451 65.0116 60.4331 65.0116H59.6411C59.3291 65.0116 59.1491 65.1916 59.1491 65.5036V66.3556C59.1491 67.6636 59.9771 68.2636 61.5251 68.2636C63.0731 68.2636 63.9011 67.6636 63.9011 66.3556C63.9011 65.2396 63.7811 64.6396 62.9171 63.9076L61.5131 62.7196C61.0211 62.3116 60.9251 61.9876 60.9251 61.3636ZM66.5177 60.0076C66.5177 59.6956 66.3377 59.5156 66.0257 59.5156H65.2337C64.9217 59.5156 64.7417 59.6956 64.7417 60.0076V67.7116C64.7417 68.0236 64.9217 68.2036 65.2337 68.2036H66.0257C66.3377 68.2036 66.5177 68.0236 66.5177 67.7116V64.5316H67.7177V67.7116C67.7177 68.0236 67.8977 68.2036 68.2097 68.2036H69.0017C69.3137 68.2036 69.4937 68.0236 69.4937 67.7116V60.0076C69.4937 59.6956 69.3137 59.5156 69.0017 59.5156H68.2097C67.8977 59.5156 67.7177 59.6956 67.7177 60.0076V63.1876H66.5177V60.0076Z" fill="#1854D1"/>
<path d="M120.687 46.9076H131.819C132.924 46.9076 133.819 47.8031 133.819 48.9076V60.0404H120.687V46.9076Z" fill="#1854D1"/>
<path d="M129.226 53.4741L130.487 52.2122C130.618 52.083 130.722 51.9292 130.793 51.7596C130.864 51.5901 130.901 51.4083 130.901 51.2245C130.901 51.0407 130.866 50.8587 130.796 50.6888C130.725 50.5189 130.622 50.3646 130.492 50.2346C130.362 50.1047 130.208 50.0017 130.038 49.9316C129.868 49.8615 129.686 49.8256 129.503 49.8261C129.319 49.8266 129.137 49.8633 128.967 49.9343C128.798 50.0053 128.644 50.1091 128.515 50.2397L127.253 51.5015L125.991 50.2397C125.862 50.1091 125.708 50.0053 125.539 49.9343C125.369 49.8633 125.187 49.8266 125.003 49.8261C124.82 49.8256 124.638 49.8615 124.468 49.9316C124.298 50.0017 124.143 50.1047 124.014 50.2346C123.884 50.3646 123.781 50.5189 123.71 50.6888C123.64 50.8587 123.605 51.0407 123.605 51.2245C123.605 51.4083 123.642 51.5901 123.713 51.7596C123.784 51.9292 123.888 52.083 124.019 52.2122L125.28 53.4741L124.019 54.7359C123.888 54.8652 123.784 55.019 123.713 55.1885C123.642 55.358 123.605 55.5399 123.605 55.7237C123.605 55.9074 123.64 56.0895 123.71 56.2594C123.781 56.4293 123.884 56.5836 124.014 56.7136C124.143 56.8435 124.298 56.9465 124.468 57.0166C124.638 57.0867 124.82 57.1226 125.003 57.1221C125.187 57.1216 125.369 57.0848 125.539 57.0138C125.708 56.9429 125.862 56.8391 125.991 56.7085L127.253 55.4466L128.515 56.7085C128.644 56.8391 128.798 56.9429 128.967 57.0138C129.137 57.0848 129.319 57.1216 129.503 57.1221C129.686 57.1226 129.868 57.0867 130.038 57.0166C130.208 56.9465 130.362 56.8435 130.492 56.7136C130.622 56.5836 130.725 56.4293 130.796 56.2594C130.866 56.0895 130.901 55.9074 130.901 55.7237C130.901 55.5399 130.864 55.358 130.793 55.1885C130.722 55.019 130.618 54.8652 130.487 54.7359L129.226 53.4741Z" fill="#ECF0F1"/>
</svg>
