<svg width="187" height="50" viewBox="0 0 187 50" fill="none" xmlns="http://www.w3.org/2000/svg">
<path d="M22.647 1.64844L26.061 9.10547L29.4751 1.64844H33.1475L27.7681 12.0479V18H24.354V12.0479L18.9634 1.64844H22.647ZM33.1812 12.0479V11.812C33.1812 10.9211 33.3084 10.1012 33.563 9.35254C33.8175 8.59635 34.1882 7.94124 34.6748 7.38721C35.1615 6.83317 35.7604 6.40267 36.4717 6.0957C37.1829 5.78125 37.999 5.62402 38.9199 5.62402C39.8408 5.62402 40.6606 5.78125 41.3794 6.0957C42.0981 6.40267 42.7008 6.83317 43.1875 7.38721C43.6816 7.94124 44.056 8.59635 44.3105 9.35254C44.5651 10.1012 44.6924 10.9211 44.6924 11.812V12.0479C44.6924 12.9313 44.5651 13.7511 44.3105 14.5073C44.056 15.256 43.6816 15.9111 43.1875 16.4727C42.7008 17.0267 42.1019 17.4572 41.3906 17.7642C40.6794 18.0711 39.8633 18.2246 38.9424 18.2246C38.0215 18.2246 37.2017 18.0711 36.4829 17.7642C35.7716 17.4572 35.1689 17.0267 34.6748 16.4727C34.1882 15.9111 33.8175 15.256 33.563 14.5073C33.3084 13.7511 33.1812 12.9313 33.1812 12.0479ZM36.4155 11.812V12.0479C36.4155 12.557 36.4604 13.0324 36.5503 13.4741C36.6401 13.9159 36.7824 14.3052 36.9771 14.6421C37.1792 14.9715 37.4412 15.2298 37.7632 15.417C38.0851 15.6042 38.4782 15.6978 38.9424 15.6978C39.3916 15.6978 39.7772 15.6042 40.0991 15.417C40.4211 15.2298 40.6794 14.9715 40.874 14.6421C41.0687 14.3052 41.2109 13.9159 41.3008 13.4741C41.3981 13.0324 41.4468 12.557 41.4468 12.0479V11.812C41.4468 11.3179 41.3981 10.8537 41.3008 10.4194C41.2109 9.9777 41.0649 9.58838 40.8628 9.25146C40.6681 8.90706 40.4098 8.63753 40.0879 8.44287C39.766 8.24821 39.3766 8.15088 38.9199 8.15088C38.4632 8.15088 38.0739 8.24821 37.752 8.44287C37.4375 8.63753 37.1792 8.90706 36.9771 9.25146C36.7824 9.58838 36.6401 9.9777 36.5503 10.4194C36.4604 10.8537 36.4155 11.3179 36.4155 11.812ZM53.8677 15.0913V5.84863H57.1021V18H54.0586L53.8677 15.0913ZM54.2271 12.5981L55.1816 12.5757C55.1816 13.3843 55.0881 14.1367 54.9009 14.833C54.7137 15.5218 54.4329 16.1208 54.0586 16.6299C53.6842 17.1315 53.2126 17.5246 52.6436 17.8091C52.0745 18.0861 51.4045 18.2246 50.6333 18.2246C50.0418 18.2246 49.4953 18.1423 48.9937 17.9775C48.4995 17.8053 48.0728 17.5396 47.7134 17.1802C47.3615 16.8133 47.0845 16.3454 46.8823 15.7764C46.6877 15.1999 46.5903 14.5073 46.5903 13.6987V5.84863H49.8247V13.7212C49.8247 14.0806 49.8659 14.3838 49.9482 14.6309C50.0381 14.8779 50.1616 15.0801 50.3188 15.2373C50.4761 15.3945 50.6595 15.5068 50.8691 15.5742C51.0863 15.6416 51.3258 15.6753 51.5879 15.6753C52.2542 15.6753 52.7783 15.5405 53.1602 15.271C53.5495 15.0015 53.8228 14.6346 53.98 14.1704C54.1447 13.6987 54.2271 13.1746 54.2271 12.5981ZM72.4766 15.3496V0.75H75.7334V18H72.8022L72.4766 15.3496ZM64.7949 12.0703V11.8345C64.7949 10.9061 64.8997 10.0638 65.1094 9.30762C65.319 8.54395 65.626 7.88883 66.0303 7.34229C66.4346 6.79574 66.9325 6.37272 67.5239 6.07324C68.1154 5.77376 68.7892 5.62402 69.5454 5.62402C70.2567 5.62402 70.8781 5.77376 71.4097 6.07324C71.9487 6.37272 72.4054 6.79948 72.7798 7.35352C73.1616 7.90007 73.4686 8.54769 73.7007 9.29639C73.9328 10.0376 74.1012 10.8499 74.2061 11.7334V12.25C74.1012 13.096 73.9328 13.8822 73.7007 14.6084C73.4686 15.3346 73.1616 15.971 72.7798 16.5176C72.4054 17.0566 71.9487 17.4759 71.4097 17.7754C70.8706 18.0749 70.2417 18.2246 69.5229 18.2246C68.7668 18.2246 68.0929 18.0711 67.5015 17.7642C66.9175 17.4572 66.4233 17.0267 66.019 16.4727C65.6222 15.9186 65.319 15.2673 65.1094 14.5186C64.8997 13.7699 64.7949 12.9538 64.7949 12.0703ZM68.0293 11.8345V12.0703C68.0293 12.5719 68.0667 13.0399 68.1416 13.4741C68.224 13.9084 68.355 14.2939 68.5347 14.6309C68.7218 14.9603 68.9614 15.2186 69.2534 15.4058C69.5529 15.5854 69.916 15.6753 70.3428 15.6753C70.8968 15.6753 71.3535 15.5518 71.7129 15.3047C72.0723 15.0501 72.3455 14.702 72.5327 14.2603C72.7274 13.8185 72.8397 13.3094 72.8696 12.7329V11.2617C72.8472 10.79 72.7798 10.367 72.6675 9.99268C72.5627 9.61084 72.4054 9.28516 72.1958 9.01562C71.9937 8.74609 71.7391 8.53646 71.4321 8.38672C71.1326 8.23698 70.777 8.16211 70.3652 8.16211C69.946 8.16211 69.5866 8.25944 69.2871 8.4541C68.9876 8.64128 68.7443 8.89958 68.5571 9.229C68.3774 9.55843 68.2427 9.94775 68.1528 10.397C68.0705 10.8387 68.0293 11.3179 68.0293 11.8345ZM77.7437 12.0479V11.812C77.7437 10.9211 77.8709 10.1012 78.1255 9.35254C78.38 8.59635 78.7507 7.94124 79.2373 7.38721C79.724 6.83317 80.3229 6.40267 81.0342 6.0957C81.7454 5.78125 82.5615 5.62402 83.4824 5.62402C84.4033 5.62402 85.2231 5.78125 85.9419 6.0957C86.6606 6.40267 87.2633 6.83317 87.75 7.38721C88.2441 7.94124 88.6185 8.59635 88.873 9.35254C89.1276 10.1012 89.2549 10.9211 89.2549 11.812V12.0479C89.2549 12.9313 89.1276 13.7511 88.873 14.5073C88.6185 15.256 88.2441 15.9111 87.75 16.4727C87.2633 17.0267 86.6644 17.4572 85.9531 17.7642C85.2419 18.0711 84.4258 18.2246 83.5049 18.2246C82.584 18.2246 81.7642 18.0711 81.0454 17.7642C80.3341 17.4572 79.7314 17.0267 79.2373 16.4727C78.7507 15.9111 78.38 15.256 78.1255 14.5073C77.8709 13.7511 77.7437 12.9313 77.7437 12.0479ZM80.978 11.812V12.0479C80.978 12.557 81.0229 13.0324 81.1128 13.4741C81.2026 13.9159 81.3449 14.3052 81.5396 14.6421C81.7417 14.9715 82.0037 15.2298 82.3257 15.417C82.6476 15.6042 83.0407 15.6978 83.5049 15.6978C83.9541 15.6978 84.3397 15.6042 84.6616 15.417C84.9836 15.2298 85.2419 14.9715 85.4365 14.6421C85.6312 14.3052 85.7734 13.9159 85.8633 13.4741C85.9606 13.0324 86.0093 12.557 86.0093 12.0479V11.812C86.0093 11.3179 85.9606 10.8537 85.8633 10.4194C85.7734 9.9777 85.6274 9.58838 85.4253 9.25146C85.2306 8.90706 84.9723 8.63753 84.6504 8.44287C84.3285 8.24821 83.9391 8.15088 83.4824 8.15088C83.0257 8.15088 82.6364 8.24821 82.3145 8.44287C82 8.63753 81.7417 8.90706 81.5396 9.25146C81.3449 9.58838 81.2026 9.9777 81.1128 10.4194C81.0229 10.8537 80.978 11.3179 80.978 11.812ZM94.4097 8.44287V18H91.1753V5.84863H94.2075L94.4097 8.44287ZM93.938 11.4976H93.062C93.062 10.5991 93.1781 9.79053 93.4102 9.07178C93.6423 8.34554 93.9679 7.72786 94.3872 7.21875C94.8065 6.70215 95.3044 6.30908 95.8809 6.03955C96.4648 5.76253 97.1162 5.62402 97.835 5.62402C98.404 5.62402 98.9243 5.70638 99.396 5.87109C99.8677 6.03581 100.272 6.29785 100.609 6.65723C100.953 7.0166 101.215 7.49202 101.395 8.0835C101.582 8.67497 101.676 9.39746 101.676 10.251V18H98.4189V10.2397C98.4189 9.70068 98.3441 9.28141 98.1943 8.98193C98.0446 8.68245 97.8237 8.47282 97.5317 8.35303C97.2472 8.22575 96.8953 8.16211 96.4761 8.16211C96.0418 8.16211 95.6637 8.24821 95.3418 8.42041C95.0273 8.59261 94.7653 8.83219 94.5557 9.13916C94.3535 9.43864 94.2 9.79053 94.0952 10.1948C93.9904 10.5991 93.938 11.0334 93.938 11.4976ZM104.966 0.75V2.37842L104.641 6.85938H102.597L102.608 2.54688V0.75H104.966ZM112.805 5.84863V8.13965H105.73V5.84863H112.805ZM107.482 2.8501H110.716V14.3389C110.716 14.6908 110.761 14.9603 110.851 15.1475C110.948 15.3346 111.091 15.4657 111.278 15.5405C111.465 15.6079 111.701 15.6416 111.985 15.6416C112.188 15.6416 112.367 15.6341 112.524 15.6191C112.689 15.5967 112.828 15.5742 112.94 15.5518L112.951 17.9326C112.674 18.0225 112.375 18.0936 112.053 18.146C111.731 18.1984 111.375 18.2246 110.986 18.2246C110.275 18.2246 109.653 18.1086 109.122 17.8765C108.597 17.6369 108.193 17.255 107.909 16.731C107.624 16.2069 107.482 15.5181 107.482 14.6646V2.8501ZM123.53 0.75V18H120.296V0.75H123.53ZM123.07 11.4976H122.183C122.19 10.6515 122.302 9.87288 122.52 9.16162C122.737 8.44287 123.047 7.82145 123.452 7.29736C123.856 6.76579 124.339 6.354 124.9 6.06201C125.469 5.77002 126.098 5.62402 126.787 5.62402C127.386 5.62402 127.929 5.71012 128.416 5.88232C128.91 6.04704 129.333 6.31657 129.685 6.69092C130.044 7.05778 130.321 7.54069 130.516 8.13965C130.71 8.73861 130.808 9.46484 130.808 10.3184V18H127.551V10.2959C127.551 9.75684 127.472 9.33382 127.315 9.02686C127.165 8.7124 126.944 8.49154 126.652 8.36426C126.368 8.22949 126.016 8.16211 125.597 8.16211C125.132 8.16211 124.736 8.24821 124.406 8.42041C124.084 8.59261 123.826 8.83219 123.631 9.13916C123.437 9.43864 123.294 9.79053 123.205 10.1948C123.115 10.5991 123.07 11.0334 123.07 11.4976ZM139.826 15.2598V9.84668C139.826 9.45736 139.762 9.12419 139.635 8.84717C139.507 8.56266 139.309 8.3418 139.04 8.18457C138.778 8.02734 138.437 7.94873 138.018 7.94873C137.658 7.94873 137.347 8.01237 137.085 8.13965C136.823 8.25944 136.621 8.43538 136.479 8.66748C136.337 8.89209 136.266 9.15788 136.266 9.46484H133.031C133.031 8.94824 133.151 8.45785 133.391 7.99365C133.63 7.52946 133.978 7.12142 134.435 6.76953C134.892 6.41016 135.435 6.12939 136.063 5.92725C136.7 5.7251 137.411 5.62402 138.197 5.62402C139.141 5.62402 139.979 5.78125 140.713 6.0957C141.447 6.41016 142.023 6.88184 142.442 7.51074C142.869 8.13965 143.083 8.92578 143.083 9.86914V15.0688C143.083 15.7352 143.124 16.2817 143.206 16.7085C143.288 17.1278 143.408 17.4946 143.565 17.8091V18H140.297C140.14 17.6706 140.02 17.2588 139.938 16.7646C139.863 16.263 139.826 15.7614 139.826 15.2598ZM140.252 10.5991L140.275 12.4297H138.467C138.04 12.4297 137.669 12.4784 137.355 12.5757C137.041 12.673 136.782 12.8115 136.58 12.9912C136.378 13.1634 136.228 13.3656 136.131 13.5977C136.041 13.8298 135.996 14.0843 135.996 14.3613C135.996 14.6383 136.06 14.8892 136.187 15.1138C136.314 15.3309 136.498 15.5031 136.737 15.6304C136.977 15.7502 137.258 15.8101 137.58 15.8101C138.066 15.8101 138.489 15.7127 138.849 15.5181C139.208 15.3234 139.485 15.0838 139.68 14.7993C139.882 14.5148 139.987 14.2453 139.994 13.9907L140.848 15.3608C140.728 15.6678 140.563 15.986 140.354 16.3154C140.151 16.6449 139.893 16.9556 139.579 17.2476C139.264 17.5321 138.886 17.7679 138.444 17.9551C138.003 18.1348 137.479 18.2246 136.872 18.2246C136.101 18.2246 135.401 18.0711 134.772 17.7642C134.151 17.4497 133.656 17.0192 133.29 16.4727C132.93 15.9186 132.75 15.2897 132.75 14.5859C132.75 13.9495 132.87 13.3843 133.11 12.8901C133.349 12.396 133.701 11.9805 134.166 11.6436C134.637 11.2992 135.225 11.0409 135.929 10.8687C136.632 10.689 137.449 10.5991 138.377 10.5991H140.252ZM149.529 15.6416L152.224 5.84863H155.604L151.505 18H149.461L149.529 15.6416ZM147.676 5.84863L150.382 15.6528L150.438 18H148.383L144.284 5.84863H147.676ZM162.489 18.2246C161.545 18.2246 160.699 18.0749 159.951 17.7754C159.202 17.4684 158.566 17.0454 158.042 16.5063C157.525 15.9673 157.128 15.3421 156.851 14.6309C156.574 13.9121 156.436 13.1484 156.436 12.3398V11.8906C156.436 10.9697 156.567 10.1274 156.829 9.36377C157.091 8.6001 157.465 7.9375 157.952 7.37598C158.446 6.81445 159.045 6.38395 159.749 6.08447C160.452 5.77751 161.246 5.62402 162.129 5.62402C162.99 5.62402 163.754 5.76628 164.42 6.05078C165.087 6.33529 165.645 6.73958 166.094 7.26367C166.55 7.78776 166.895 8.41667 167.127 9.15039C167.359 9.87663 167.475 10.6852 167.475 11.5762V12.9238H157.817V10.7676H164.297V10.5205C164.297 10.0713 164.215 9.67074 164.05 9.31885C163.893 8.95947 163.653 8.67497 163.331 8.46533C163.009 8.2557 162.597 8.15088 162.096 8.15088C161.669 8.15088 161.302 8.24447 160.995 8.43164C160.688 8.61882 160.437 8.88086 160.243 9.21777C160.056 9.55469 159.913 9.9515 159.816 10.4082C159.726 10.8574 159.681 11.3516 159.681 11.8906V12.3398C159.681 12.8265 159.749 13.2757 159.883 13.6875C160.026 14.0993 160.224 14.4549 160.479 14.7544C160.741 15.0539 161.055 15.286 161.422 15.4507C161.796 15.6154 162.219 15.6978 162.691 15.6978C163.275 15.6978 163.818 15.5854 164.319 15.3608C164.828 15.1287 165.266 14.7806 165.633 14.3164L167.206 16.0234C166.951 16.3903 166.603 16.7422 166.161 17.0791C165.727 17.416 165.203 17.693 164.589 17.9102C163.975 18.1198 163.275 18.2246 162.489 18.2246ZM7.53076 42.2598V36.8467C7.53076 36.4574 7.46712 36.1242 7.33984 35.8472C7.21257 35.5627 7.01416 35.3418 6.74463 35.1846C6.48258 35.0273 6.14193 34.9487 5.72266 34.9487C5.36328 34.9487 5.05257 35.0124 4.79053 35.1396C4.52848 35.2594 4.32633 35.4354 4.18408 35.6675C4.04183 35.8921 3.9707 36.1579 3.9707 36.4648H0.736328C0.736328 35.9482 0.85612 35.4578 1.0957 34.9937C1.33529 34.5295 1.68343 34.1214 2.14014 33.7695C2.59684 33.4102 3.13965 33.1294 3.76855 32.9272C4.40495 32.7251 5.11621 32.624 5.90234 32.624C6.8457 32.624 7.68424 32.7812 8.41797 33.0957C9.15169 33.4102 9.72819 33.8818 10.1475 34.5107C10.5742 35.1396 10.7876 35.9258 10.7876 36.8691V42.0688C10.7876 42.7352 10.8288 43.2817 10.9111 43.7085C10.9935 44.1278 11.1133 44.4946 11.2705 44.8091V45H8.00244C7.84521 44.6706 7.72542 44.2588 7.64307 43.7646C7.5682 43.263 7.53076 42.7614 7.53076 42.2598ZM7.95752 37.5991L7.97998 39.4297H6.17188C5.74512 39.4297 5.37451 39.4784 5.06006 39.5757C4.74561 39.673 4.4873 39.8115 4.28516 39.9912C4.08301 40.1634 3.93327 40.3656 3.83594 40.5977C3.74609 40.8298 3.70117 41.0843 3.70117 41.3613C3.70117 41.6383 3.76481 41.8892 3.89209 42.1138C4.01937 42.3309 4.2028 42.5031 4.44238 42.6304C4.68197 42.7502 4.96273 42.8101 5.28467 42.8101C5.77132 42.8101 6.19434 42.7127 6.55371 42.5181C6.91309 42.3234 7.1901 42.0838 7.38477 41.7993C7.58691 41.5148 7.69173 41.2453 7.69922 40.9907L8.55273 42.3608C8.43294 42.6678 8.26823 42.986 8.05859 43.3154C7.85645 43.6449 7.59814 43.9556 7.28369 44.2476C6.96924 44.5321 6.59115 44.7679 6.14941 44.9551C5.70768 45.1348 5.18359 45.2246 4.57715 45.2246C3.80599 45.2246 3.10596 45.0711 2.47705 44.7642C1.85563 44.4497 1.36149 44.0192 0.994629 43.4727C0.635254 42.9186 0.455566 42.2897 0.455566 41.5859C0.455566 40.9495 0.575358 40.3843 0.814941 39.8901C1.05452 39.396 1.40641 38.9805 1.87061 38.6436C2.34229 38.2992 2.93001 38.0409 3.63379 37.8687C4.33757 37.689 5.15365 37.5991 6.08203 37.5991H7.95752ZM16.4478 35.4429V45H13.2134V32.8486H16.2456L16.4478 35.4429ZM15.9761 38.4976H15.1001C15.1001 37.5991 15.2161 36.7905 15.4482 36.0718C15.6803 35.3455 16.006 34.7279 16.4253 34.2188C16.8446 33.7021 17.3424 33.3091 17.9189 33.0396C18.5029 32.7625 19.1543 32.624 19.873 32.624C20.4421 32.624 20.9624 32.7064 21.4341 32.8711C21.9058 33.0358 22.3101 33.2979 22.647 33.6572C22.9914 34.0166 23.2534 34.492 23.4331 35.0835C23.6203 35.675 23.7139 36.3975 23.7139 37.251V45H20.457V37.2397C20.457 36.7007 20.3822 36.2814 20.2324 35.9819C20.0827 35.6825 19.8618 35.4728 19.5698 35.353C19.2853 35.2257 18.9334 35.1621 18.5142 35.1621C18.0799 35.1621 17.7018 35.2482 17.3799 35.4204C17.0654 35.5926 16.8034 35.8322 16.5938 36.1392C16.3916 36.4386 16.2381 36.7905 16.1333 37.1948C16.0285 37.5991 15.9761 38.0334 15.9761 38.4976ZM32.7319 42.2598V36.8467C32.7319 36.4574 32.6683 36.1242 32.541 35.8472C32.4137 35.5627 32.2153 35.3418 31.9458 35.1846C31.6838 35.0273 31.3431 34.9487 30.9238 34.9487C30.5645 34.9487 30.2537 35.0124 29.9917 35.1396C29.7297 35.2594 29.5275 35.4354 29.3853 35.6675C29.243 35.8921 29.1719 36.1579 29.1719 36.4648H25.9375C25.9375 35.9482 26.0573 35.4578 26.2969 34.9937C26.5365 34.5295 26.8846 34.1214 27.3413 33.7695C27.798 33.4102 28.3408 33.1294 28.9697 32.9272C29.6061 32.7251 30.3174 32.624 31.1035 32.624C32.0469 32.624 32.8854 32.7812 33.6191 33.0957C34.3529 33.4102 34.9294 33.8818 35.3486 34.5107C35.7754 35.1396 35.9888 35.9258 35.9888 36.8691V42.0688C35.9888 42.7352 36.0299 43.2817 36.1123 43.7085C36.1947 44.1278 36.3145 44.4946 36.4717 44.8091V45H33.2036C33.0464 44.6706 32.9266 44.2588 32.8442 43.7646C32.7694 43.263 32.7319 42.7614 32.7319 42.2598ZM33.1587 37.5991L33.1812 39.4297H31.373C30.9463 39.4297 30.5757 39.4784 30.2612 39.5757C29.9468 39.673 29.6885 39.8115 29.4863 39.9912C29.2842 40.1634 29.1344 40.3656 29.0371 40.5977C28.9473 40.8298 28.9023 41.0843 28.9023 41.3613C28.9023 41.6383 28.966 41.8892 29.0933 42.1138C29.2205 42.3309 29.404 42.5031 29.6436 42.6304C29.8831 42.7502 30.1639 42.8101 30.4858 42.8101C30.9725 42.8101 31.3955 42.7127 31.7549 42.5181C32.1143 42.3234 32.3913 42.0838 32.5859 41.7993C32.7881 41.5148 32.8929 41.2453 32.9004 40.9907L33.7539 42.3608C33.6341 42.6678 33.4694 42.986 33.2598 43.3154C33.0576 43.6449 32.7993 43.9556 32.4849 44.2476C32.1704 44.5321 31.7923 44.7679 31.3506 44.9551C30.9089 45.1348 30.3848 45.2246 29.7783 45.2246C29.0072 45.2246 28.3071 45.0711 27.6782 44.7642C27.0568 44.4497 26.5627 44.0192 26.1958 43.4727C25.8364 42.9186 25.6567 42.2897 25.6567 41.5859C25.6567 40.9495 25.7765 40.3843 26.0161 39.8901C26.2557 39.396 26.6076 38.9805 27.0718 38.6436C27.5435 38.2992 28.1312 38.0409 28.835 37.8687C29.5387 37.689 30.3548 37.5991 31.2832 37.5991H33.1587ZM41.896 27.75V45H38.6504V27.75H41.896ZM48.1738 43.6299L51.397 32.8486H54.8672L49.9819 46.8306C49.8771 47.1375 49.7349 47.467 49.5552 47.8188C49.383 48.1707 49.1471 48.5039 48.8477 48.8184C48.5557 49.1403 48.1851 49.4023 47.7358 49.6045C47.2941 49.8066 46.7513 49.9077 46.1074 49.9077C45.8005 49.9077 45.5496 49.889 45.355 49.8516C45.1603 49.8141 44.9282 49.7617 44.6587 49.6943V47.3247C44.741 47.3247 44.8271 47.3247 44.917 47.3247C45.0068 47.3322 45.0929 47.3359 45.1753 47.3359C45.6021 47.3359 45.9502 47.2873 46.2197 47.1899C46.4893 47.0926 46.7064 46.9429 46.8711 46.7407C47.0358 46.5461 47.1668 46.2915 47.2642 45.9771L48.1738 43.6299ZM46.8262 32.8486L49.4653 41.6533L49.9258 45.0786L47.7246 45.3145L43.356 32.8486H46.8262ZM62.1108 32.8486V35.1396H55.0356V32.8486H62.1108ZM56.7876 29.8501H60.022V41.3389C60.022 41.6908 60.0669 41.9603 60.1567 42.1475C60.2541 42.3346 60.3963 42.4657 60.5835 42.5405C60.7707 42.6079 61.0065 42.6416 61.291 42.6416C61.4932 42.6416 61.6729 42.6341 61.8301 42.6191C61.9948 42.5967 62.1333 42.5742 62.2456 42.5518L62.2568 44.9326C61.9798 45.0225 61.6803 45.0936 61.3584 45.146C61.0365 45.1984 60.6808 45.2246 60.2915 45.2246C59.5802 45.2246 58.9588 45.1086 58.4272 44.8765C57.9032 44.6369 57.4989 44.255 57.2144 43.731C56.9299 43.2069 56.7876 42.5181 56.7876 41.6646V29.8501ZM67.3667 32.8486V45H64.1211V32.8486H67.3667ZM63.9189 29.6816C63.9189 29.21 64.0837 28.8206 64.4131 28.5137C64.7425 28.2067 65.1842 28.0532 65.7383 28.0532C66.2848 28.0532 66.7228 28.2067 67.0522 28.5137C67.3892 28.8206 67.5576 29.21 67.5576 29.6816C67.5576 30.1533 67.3892 30.5426 67.0522 30.8496C66.7228 31.1566 66.2848 31.3101 65.7383 31.3101C65.1842 31.3101 64.7425 31.1566 64.4131 30.8496C64.0837 30.5426 63.9189 30.1533 63.9189 29.6816ZM75.0596 42.6978C75.4564 42.6978 75.8083 42.6229 76.1152 42.4731C76.4222 42.3159 76.6618 42.0988 76.834 41.8218C77.0137 41.5373 77.1073 41.2041 77.1147 40.8223H80.1582C80.1507 41.6758 79.9224 42.4357 79.4731 43.1021C79.0239 43.7609 78.4212 44.2812 77.665 44.6631C76.9089 45.0374 76.0628 45.2246 75.127 45.2246C74.1836 45.2246 73.36 45.0674 72.6562 44.7529C71.96 44.4385 71.3797 44.0042 70.9155 43.4502C70.4513 42.8887 70.1032 42.2373 69.8711 41.4961C69.639 40.7474 69.5229 39.9463 69.5229 39.0928V38.7671C69.5229 37.9061 69.639 37.105 69.8711 36.3638C70.1032 35.6151 70.4513 34.9637 70.9155 34.4097C71.3797 33.8481 71.96 33.4102 72.6562 33.0957C73.3525 32.7812 74.1686 32.624 75.1045 32.624C76.1003 32.624 76.9725 32.8149 77.7212 33.1968C78.4774 33.5786 79.0688 34.1252 79.4956 34.8364C79.9299 35.5402 80.1507 36.375 80.1582 37.3408H77.1147C77.1073 36.9365 77.0212 36.5697 76.8564 36.2402C76.6992 35.9108 76.4671 35.6488 76.1602 35.4541C75.8607 35.252 75.4901 35.1509 75.0483 35.1509C74.5767 35.1509 74.1911 35.252 73.8916 35.4541C73.5921 35.6488 73.36 35.9183 73.1953 36.2627C73.0306 36.5996 72.9146 36.9852 72.8472 37.4194C72.7873 37.8462 72.7573 38.2954 72.7573 38.7671V39.0928C72.7573 39.5645 72.7873 40.0174 72.8472 40.4517C72.9071 40.8859 73.0194 41.2715 73.1841 41.6084C73.3563 41.9453 73.5921 42.2111 73.8916 42.4058C74.1911 42.6004 74.5804 42.6978 75.0596 42.6978ZM88.6035 41.6421C88.6035 41.41 88.5361 41.2004 88.4014 41.0132C88.2666 40.826 88.0158 40.6538 87.6489 40.4966C87.2896 40.3319 86.7692 40.1821 86.0879 40.0474C85.474 39.9126 84.9012 39.7441 84.3696 39.542C83.8455 39.3324 83.3888 39.0815 82.9995 38.7896C82.6177 38.4976 82.3182 38.1532 82.1011 37.7563C81.884 37.3521 81.7754 36.8916 81.7754 36.375C81.7754 35.8659 81.884 35.3867 82.1011 34.9375C82.3257 34.4883 82.6439 34.0915 83.0557 33.7471C83.4749 33.3952 83.984 33.1219 84.583 32.9272C85.1895 32.7251 85.8708 32.624 86.627 32.624C87.6826 32.624 88.5885 32.7925 89.3447 33.1294C90.1084 33.4663 90.6924 33.9305 91.0967 34.522C91.5085 35.106 91.7144 35.7723 91.7144 36.521H88.48C88.48 36.2065 88.4126 35.9258 88.2778 35.6787C88.1506 35.4242 87.9484 35.2257 87.6714 35.0835C87.4019 34.9338 87.05 34.8589 86.6157 34.8589C86.2563 34.8589 85.9456 34.9225 85.6836 35.0498C85.4215 35.1696 85.2194 35.3343 85.0771 35.5439C84.9424 35.7461 84.875 35.9707 84.875 36.2178C84.875 36.4049 84.9124 36.5734 84.9873 36.7231C85.0697 36.8654 85.2007 36.9964 85.3804 37.1162C85.5601 37.236 85.7922 37.3483 86.0767 37.4531C86.3687 37.5505 86.728 37.6403 87.1548 37.7227C88.0308 37.9023 88.8132 38.1382 89.502 38.4302C90.1908 38.7147 90.7373 39.104 91.1416 39.5981C91.5459 40.0848 91.748 40.7249 91.748 41.5186C91.748 42.0576 91.6283 42.5518 91.3887 43.001C91.1491 43.4502 90.8047 43.8433 90.3555 44.1802C89.9062 44.5096 89.3672 44.7679 88.7383 44.9551C88.1169 45.1348 87.4168 45.2246 86.6382 45.2246C85.5076 45.2246 84.5493 45.0225 83.7632 44.6182C82.9845 44.2139 82.3931 43.701 81.9888 43.0796C81.592 42.4507 81.3936 41.8068 81.3936 41.1479H84.4595C84.4744 41.5897 84.5868 41.9453 84.7964 42.2148C85.0135 42.4844 85.2868 42.679 85.6162 42.7988C85.9531 42.9186 86.3162 42.9785 86.7056 42.9785C87.1248 42.9785 87.473 42.9224 87.75 42.8101C88.027 42.6903 88.2367 42.533 88.3789 42.3384C88.5286 42.1362 88.6035 41.9041 88.6035 41.6421ZM106.752 42.3496V27.75H110.009V45H107.078L106.752 42.3496ZM99.0703 39.0703V38.8345C99.0703 37.9061 99.1751 37.0638 99.3848 36.3076C99.5944 35.5439 99.9014 34.8888 100.306 34.3423C100.71 33.7957 101.208 33.3727 101.799 33.0732C102.391 32.7738 103.065 32.624 103.821 32.624C104.532 32.624 105.153 32.7738 105.685 33.0732C106.224 33.3727 106.681 33.7995 107.055 34.3535C107.437 34.9001 107.744 35.5477 107.976 36.2964C108.208 37.0376 108.377 37.8499 108.481 38.7334V39.25C108.377 40.096 108.208 40.8822 107.976 41.6084C107.744 42.3346 107.437 42.971 107.055 43.5176C106.681 44.0566 106.224 44.4759 105.685 44.7754C105.146 45.0749 104.517 45.2246 103.798 45.2246C103.042 45.2246 102.368 45.0711 101.777 44.7642C101.193 44.4572 100.699 44.0267 100.294 43.4727C99.8976 42.9186 99.5944 42.2673 99.3848 41.5186C99.1751 40.7699 99.0703 39.9538 99.0703 39.0703ZM102.305 38.8345V39.0703C102.305 39.5719 102.342 40.0399 102.417 40.4741C102.499 40.9084 102.63 41.2939 102.81 41.6309C102.997 41.9603 103.237 42.2186 103.529 42.4058C103.828 42.5854 104.191 42.6753 104.618 42.6753C105.172 42.6753 105.629 42.5518 105.988 42.3047C106.348 42.0501 106.621 41.702 106.808 41.2603C107.003 40.8185 107.115 40.3094 107.145 39.7329V38.2617C107.123 37.79 107.055 37.367 106.943 36.9927C106.838 36.6108 106.681 36.2852 106.471 36.0156C106.269 35.7461 106.014 35.5365 105.708 35.3867C105.408 35.237 105.052 35.1621 104.641 35.1621C104.221 35.1621 103.862 35.2594 103.562 35.4541C103.263 35.6413 103.02 35.8996 102.833 36.229C102.653 36.5584 102.518 36.9478 102.428 37.397C102.346 37.8387 102.305 38.3179 102.305 38.8345ZM119.094 42.2598V36.8467C119.094 36.4574 119.031 36.1242 118.903 35.8472C118.776 35.5627 118.578 35.3418 118.308 35.1846C118.046 35.0273 117.705 34.9487 117.286 34.9487C116.927 34.9487 116.616 35.0124 116.354 35.1396C116.092 35.2594 115.89 35.4354 115.748 35.6675C115.605 35.8921 115.534 36.1579 115.534 36.4648H112.3C112.3 35.9482 112.42 35.4578 112.659 34.9937C112.899 34.5295 113.247 34.1214 113.704 33.7695C114.16 33.4102 114.703 33.1294 115.332 32.9272C115.968 32.7251 116.68 32.624 117.466 32.624C118.409 32.624 119.248 32.7812 119.981 33.0957C120.715 33.4102 121.292 33.8818 121.711 34.5107C122.138 35.1396 122.351 35.9258 122.351 36.8691V42.0688C122.351 42.7352 122.392 43.2817 122.475 43.7085C122.557 44.1278 122.677 44.4946 122.834 44.8091V45H119.566C119.409 44.6706 119.289 44.2588 119.207 43.7646C119.132 43.263 119.094 42.7614 119.094 42.2598ZM119.521 37.5991L119.543 39.4297H117.735C117.309 39.4297 116.938 39.4784 116.624 39.5757C116.309 39.673 116.051 39.8115 115.849 39.9912C115.646 40.1634 115.497 40.3656 115.399 40.5977C115.31 40.8298 115.265 41.0843 115.265 41.3613C115.265 41.6383 115.328 41.8892 115.456 42.1138C115.583 42.3309 115.766 42.5031 116.006 42.6304C116.245 42.7502 116.526 42.8101 116.848 42.8101C117.335 42.8101 117.758 42.7127 118.117 42.5181C118.477 42.3234 118.754 42.0838 118.948 41.7993C119.15 41.5148 119.255 41.2453 119.263 40.9907L120.116 42.3608C119.996 42.6678 119.832 42.986 119.622 43.3154C119.42 43.6449 119.162 43.9556 118.847 44.2476C118.533 44.5321 118.155 44.7679 117.713 44.9551C117.271 45.1348 116.747 45.2246 116.141 45.2246C115.369 45.2246 114.669 45.0711 114.041 44.7642C113.419 44.4497 112.925 44.0192 112.558 43.4727C112.199 42.9186 112.019 42.2897 112.019 41.5859C112.019 40.9495 112.139 40.3843 112.378 39.8901C112.618 39.396 112.97 38.9805 113.434 38.6436C113.906 38.2992 114.493 38.0409 115.197 37.8687C115.901 37.689 116.717 37.5991 117.646 37.5991H119.521ZM130.796 32.8486V35.1396H123.721V32.8486H130.796ZM125.473 29.8501H128.708V41.3389C128.708 41.6908 128.752 41.9603 128.842 42.1475C128.94 42.3346 129.082 42.4657 129.269 42.5405C129.456 42.6079 129.692 42.6416 129.977 42.6416C130.179 42.6416 130.358 42.6341 130.516 42.6191C130.68 42.5967 130.819 42.5742 130.931 42.5518L130.942 44.9326C130.665 45.0225 130.366 45.0936 130.044 45.146C129.722 45.1984 129.366 45.2246 128.977 45.2246C128.266 45.2246 127.644 45.1086 127.113 44.8765C126.589 44.6369 126.184 44.255 125.9 43.731C125.615 43.2069 125.473 42.5181 125.473 41.6646V29.8501ZM139.197 42.2598V36.8467C139.197 36.4574 139.133 36.1242 139.006 35.8472C138.879 35.5627 138.68 35.3418 138.411 35.1846C138.149 35.0273 137.808 34.9487 137.389 34.9487C137.029 34.9487 136.719 35.0124 136.457 35.1396C136.194 35.2594 135.992 35.4354 135.85 35.6675C135.708 35.8921 135.637 36.1579 135.637 36.4648H132.402C132.402 35.9482 132.522 35.4578 132.762 34.9937C133.001 34.5295 133.349 34.1214 133.806 33.7695C134.263 33.4102 134.806 33.1294 135.435 32.9272C136.071 32.7251 136.782 32.624 137.568 32.624C138.512 32.624 139.35 32.7812 140.084 33.0957C140.818 33.4102 141.394 33.8818 141.813 34.5107C142.24 35.1396 142.454 35.9258 142.454 36.8691V42.0688C142.454 42.7352 142.495 43.2817 142.577 43.7085C142.66 44.1278 142.779 44.4946 142.937 44.8091V45H139.668C139.511 44.6706 139.391 44.2588 139.309 43.7646C139.234 43.263 139.197 42.7614 139.197 42.2598ZM139.624 37.5991L139.646 39.4297H137.838C137.411 39.4297 137.041 39.4784 136.726 39.5757C136.412 39.673 136.153 39.8115 135.951 39.9912C135.749 40.1634 135.599 40.3656 135.502 40.5977C135.412 40.8298 135.367 41.0843 135.367 41.3613C135.367 41.6383 135.431 41.8892 135.558 42.1138C135.685 42.3309 135.869 42.5031 136.108 42.6304C136.348 42.7502 136.629 42.8101 136.951 42.8101C137.437 42.8101 137.86 42.7127 138.22 42.5181C138.579 42.3234 138.856 42.0838 139.051 41.7993C139.253 41.5148 139.358 41.2453 139.365 40.9907L140.219 42.3608C140.099 42.6678 139.934 42.986 139.725 43.3154C139.522 43.6449 139.264 43.9556 138.95 44.2476C138.635 44.5321 138.257 44.7679 137.815 44.9551C137.374 45.1348 136.85 45.2246 136.243 45.2246C135.472 45.2246 134.772 45.0711 134.143 44.7642C133.522 44.4497 133.028 44.0192 132.661 43.4727C132.301 42.9186 132.122 42.2897 132.122 41.5859C132.122 40.9495 132.241 40.3843 132.481 39.8901C132.721 39.396 133.072 38.9805 133.537 38.6436C134.008 38.2992 134.596 38.0409 135.3 37.8687C136.004 37.689 136.82 37.5991 137.748 37.5991H139.624ZM154.279 43.6299L157.502 32.8486H160.973L156.087 46.8306C155.983 47.1375 155.84 47.467 155.661 47.8188C155.488 48.1707 155.253 48.5039 154.953 48.8184C154.661 49.1403 154.291 49.4023 153.841 49.6045C153.4 49.8066 152.857 49.9077 152.213 49.9077C151.906 49.9077 151.655 49.889 151.46 49.8516C151.266 49.8141 151.034 49.7617 150.764 49.6943V47.3247C150.847 47.3247 150.933 47.3247 151.022 47.3247C151.112 47.3322 151.198 47.3359 151.281 47.3359C151.708 47.3359 152.056 47.2873 152.325 47.1899C152.595 47.0926 152.812 46.9429 152.977 46.7407C153.141 46.5461 153.272 46.2915 153.37 45.9771L154.279 43.6299ZM152.932 32.8486L155.571 41.6533L156.031 45.0786L153.83 45.3145L149.461 32.8486H152.932ZM167.7 45.2246C166.756 45.2246 165.91 45.0749 165.162 44.7754C164.413 44.4684 163.777 44.0454 163.252 43.5063C162.736 42.9673 162.339 42.3421 162.062 41.6309C161.785 40.9121 161.646 40.1484 161.646 39.3398V38.8906C161.646 37.9697 161.778 37.1274 162.04 36.3638C162.302 35.6001 162.676 34.9375 163.163 34.376C163.657 33.8145 164.256 33.384 164.959 33.0845C165.663 32.7775 166.457 32.624 167.34 32.624C168.201 32.624 168.965 32.7663 169.631 33.0508C170.298 33.3353 170.855 33.7396 171.305 34.2637C171.761 34.7878 172.106 35.4167 172.338 36.1504C172.57 36.8766 172.686 37.6852 172.686 38.5762V39.9238H163.028V37.7676H169.508V37.5205C169.508 37.0713 169.425 36.6707 169.261 36.3188C169.104 35.9595 168.864 35.675 168.542 35.4653C168.22 35.2557 167.808 35.1509 167.307 35.1509C166.88 35.1509 166.513 35.2445 166.206 35.4316C165.899 35.6188 165.648 35.8809 165.454 36.2178C165.266 36.5547 165.124 36.9515 165.027 37.4082C164.937 37.8574 164.892 38.3516 164.892 38.8906V39.3398C164.892 39.8265 164.959 40.2757 165.094 40.6875C165.236 41.0993 165.435 41.4549 165.689 41.7544C165.951 42.0539 166.266 42.286 166.633 42.4507C167.007 42.6154 167.43 42.6978 167.902 42.6978C168.486 42.6978 169.029 42.5854 169.53 42.3608C170.039 42.1287 170.477 41.7806 170.844 41.3164L172.417 43.0234C172.162 43.3903 171.814 43.7422 171.372 44.0791C170.938 44.416 170.414 44.693 169.8 44.9102C169.186 45.1198 168.486 45.2246 167.7 45.2246ZM180.48 32.8486V35.1396H173.405V32.8486H180.48ZM175.157 29.8501H178.391V41.3389C178.391 41.6908 178.436 41.9603 178.526 42.1475C178.623 42.3346 178.765 42.4657 178.953 42.5405C179.14 42.6079 179.376 42.6416 179.66 42.6416C179.862 42.6416 180.042 42.6341 180.199 42.6191C180.364 42.5967 180.502 42.5742 180.615 42.5518L180.626 44.9326C180.349 45.0225 180.049 45.0936 179.728 45.146C179.406 45.1984 179.05 45.2246 178.661 45.2246C177.949 45.2246 177.328 45.1086 176.796 44.8765C176.272 44.6369 175.868 44.255 175.583 43.731C175.299 43.2069 175.157 42.5181 175.157 41.6646V29.8501ZM185.972 28.6484L185.601 40.0024H182.906L182.524 28.6484H185.972ZM182.434 43.5176C182.434 43.0384 182.599 42.6416 182.928 42.3271C183.265 42.0052 183.707 41.8442 184.253 41.8442C184.807 41.8442 185.249 42.0052 185.579 42.3271C185.908 42.6416 186.073 43.0384 186.073 43.5176C186.073 43.9818 185.908 44.3748 185.579 44.6968C185.249 45.0187 184.807 45.1797 184.253 45.1797C183.707 45.1797 183.265 45.0187 182.928 44.6968C182.599 44.3748 182.434 43.9818 182.434 43.5176Z" fill="#223354"/>
</svg>
