<svg width="16" height="16" viewBox="0 0 16 16" fill="none" xmlns="http://www.w3.org/2000/svg">
<path opacity="0.3" d="M7.99984 2.6665C5.05984 2.6665 2.6665 5.05984 2.6665 7.99984C2.6665 10.9398 5.05984 13.3332 7.99984 13.3332C10.9398 13.3332 13.3332 10.9398 13.3332 7.99984C13.3332 5.05984 10.9398 2.6665 7.99984 2.6665ZM11.3332 10.3932L10.3932 11.3332L7.99984 8.93984L5.6065 11.3332L4.6665 10.3932L7.05984 7.99984L4.6665 5.6065L5.6065 4.6665L7.99984 7.05984L10.3932 4.6665L11.3332 5.6065L8.93984 7.99984L11.3332 10.3932Z" fill="#F4002C"/>
<path d="M8.00016 1.3335C4.3135 1.3335 1.3335 4.3135 1.3335 8.00016C1.3335 11.6868 4.3135 14.6668 8.00016 14.6668C11.6868 14.6668 14.6668 11.6868 14.6668 8.00016C14.6668 4.3135 11.6868 1.3335 8.00016 1.3335ZM8.00016 13.3335C5.06016 13.3335 2.66683 10.9402 2.66683 8.00016C2.66683 5.06016 5.06016 2.66683 8.00016 2.66683C10.9402 2.66683 13.3335 5.06016 13.3335 8.00016C13.3335 10.9402 10.9402 13.3335 8.00016 13.3335ZM10.3935 4.66683L8.00016 7.06016L5.60683 4.66683L4.66683 5.60683L7.06016 8.00016L4.66683 10.3935L5.60683 11.3335L8.00016 8.94016L10.3935 11.3335L11.3335 10.3935L8.94016 8.00016L11.3335 5.60683L10.3935 4.66683Z" fill="#FF1A43"/>
</svg>
