<svg width="10" height="10" viewBox="0 0 10 10" fill="none" xmlns="http://www.w3.org/2000/svg">
<path d="M4.08385 5.00681L0.190046 1.11289C-0.0633564 0.859605 -0.0633564 0.450081 0.190046 0.196798C0.44333 -0.0564848 0.852854 -0.0564848 1.10614 0.196798L5.00006 4.09072L8.89386 0.196798C9.14726 -0.0564848 9.55667 -0.0564848 9.80995 0.196798C10.0634 0.450081 10.0634 0.859605 9.80995 1.11289L5.91615 5.00681L9.80995 8.90072C10.0634 9.15401 10.0634 9.56353 9.80995 9.81681C9.68372 9.94316 9.51775 10.0066 9.3519 10.0066C9.18605 10.0066 9.0202 9.94316 8.89386 9.81681L5.00006 5.9229L1.10614 9.81681C0.979792 9.94316 0.813942 10.0066 0.648091 10.0066C0.482242 10.0066 0.316391 9.94316 0.190046 9.81681C-0.0633564 9.56353 -0.0633564 9.15401 0.190046 8.90072L4.08385 5.00681Z" fill="#515151"/>
</svg>
