<svg width="77" height="114" viewBox="0 0 77 114" fill="none" xmlns="http://www.w3.org/2000/svg">
<path d="M62.7971 0H14.6454C11.9702 0.00308409 9.40558 1.06714 7.51397 2.95875C5.62236 4.85036 4.55826 7.41504 4.55518 10.0902V103.799C4.55826 106.474 5.62236 109.039 7.51397 110.93C9.40558 112.822 11.9702 113.886 14.6454 113.889H62.7984C65.4735 113.886 68.0382 112.822 69.9298 110.93C71.8214 109.039 72.8854 106.474 72.8885 103.799V10.0902C72.8854 7.41484 71.8212 4.84998 69.9294 2.95834C68.0375 1.0667 65.4725 0.00277571 62.7971 0Z" fill="#3B97D3"/>
<path d="M72.8886 103.799V10.0902C72.8855 7.41504 71.8215 4.85036 69.9298 2.95875C68.0382 1.06714 65.4734 0.00308409 62.7982 0H38.7219V113.889H62.7982C65.4734 113.886 68.0382 112.822 69.9298 110.93C71.8215 109.039 72.8855 106.474 72.8886 103.799Z" fill="#285680"/>
<path d="M61.8727 6.67358H58.096V10.4852C58.096 13.2667 57.0012 15.9342 55.0524 17.901C53.1036 19.8678 50.4606 20.9728 47.7047 20.9728H29.1029C26.3469 20.9728 23.7039 19.8678 21.7552 17.901C19.8064 15.9342 18.7116 13.2667 18.7116 10.4852V6.67358H14.9349C13.9335 6.67451 12.9735 7.07639 12.2654 7.79101C11.5574 8.50563 11.1591 9.4746 11.1582 10.4852V103.408C11.1591 104.419 11.5574 105.388 12.2654 106.103C12.9735 106.817 13.9335 107.219 14.9349 107.22H61.8645C62.8659 107.219 63.826 106.817 64.5341 106.103C65.2422 105.388 65.6403 104.419 65.6412 103.408V10.4852C65.6403 9.4746 65.2422 8.50563 64.5341 7.79101C63.826 7.07639 62.8659 6.67451 61.8645 6.67358H61.8727Z" fill="#ECF0F1"/>
<path d="M65.6494 103.408V10.4852C65.6485 9.4746 65.2504 8.50563 64.5423 7.79101C63.8343 7.07639 62.8741 6.67451 61.8728 6.67358H58.0972V10.4852C58.0972 13.2667 57.0025 15.9342 55.0537 17.901C53.105 19.8678 50.4618 20.9728 47.7059 20.9728H38.4045V107.22H61.8694C62.8713 107.22 63.8322 106.819 64.5411 106.104C65.2499 105.389 65.6485 104.42 65.6494 103.408Z" fill="#E0E0E0"/>
<rect y="43" width="77" height="60" rx="2" fill="#FFB192"/>
<rect x="9" y="95" width="35" height="3" rx="1.5" fill="#F3F3F3"/>
<rect x="9" y="89" width="59" height="3" rx="1.5" fill="#F3F3F3"/>
<rect x="9.5" y="64.5" width="58" height="21" stroke="#1854D1"/>
<path d="M46.5836 68.4161C46.3062 68.1387 45.9729 68 45.5832 68H31.4167C31.0271 68 30.6937 68.1387 30.4161 68.4161C30.1387 68.6936 30 69.027 30 69.4166V80.1831C30 80.5728 30.1387 80.9062 30.4161 81.1836C30.6937 81.4611 31.0271 81.5998 31.4167 81.5998H45.5834C45.9729 81.5998 46.3063 81.4611 46.5838 81.1836C46.8612 80.9062 47 80.5728 47 80.1831V69.4166C47 69.027 46.8612 68.6936 46.5836 68.4161ZM45.8664 80.1831C45.8664 80.2599 45.8385 80.3261 45.7825 80.3824C45.7263 80.4382 45.6599 80.4662 45.5832 80.4662H31.4167C31.34 80.4662 31.2735 80.4382 31.2175 80.3824C31.1614 80.3262 31.1334 80.2599 31.1334 80.1831V69.4164C31.1334 69.3397 31.1613 69.2734 31.2175 69.2172C31.2736 69.1613 31.34 69.1333 31.4167 69.1333H45.5834C45.66 69.1333 45.7264 69.1613 45.7825 69.2172C45.8383 69.2734 45.8664 69.3397 45.8664 69.4164V80.1831Z" fill="#F3F3F3"/>
<path d="M33.9653 73.6665C34.4375 73.6665 34.8389 73.5013 35.1695 73.1707C35.5 72.8401 35.6653 72.4388 35.6653 71.9666C35.6653 71.4943 35.4999 71.093 35.1695 70.7624C34.8389 70.4319 34.4375 70.2666 33.9653 70.2666C33.493 70.2666 33.0917 70.4319 32.7611 70.7624C32.4307 71.0929 32.2654 71.4943 32.2654 71.9666C32.2654 72.4388 32.4306 72.8402 32.7611 73.1707C33.0917 73.5012 33.493 73.6665 33.9653 73.6665Z" fill="#F3F3F3"/>
<path d="M36.5153 76.2165L35.0986 74.8L32.2654 77.6332V79.3332H44.732V75.3666L41.0487 71.6832L36.5153 76.2165Z" fill="#F3F3F3"/>
<rect x="9" y="58" width="59" height="3" rx="1.5" fill="#F3F3F3"/>
<path d="M12.13 48.17C12.13 47.91 11.98 47.76 11.72 47.76H11.06C10.8 47.76 10.65 47.91 10.65 48.17V54.59C10.65 54.85 10.8 55 11.06 55H11.72C11.98 55 12.13 54.85 12.13 54.59V48.17ZM15.6054 50.15L15.7554 51.94L15.6554 51.96L15.1654 50.22L14.4154 48.06C14.3554 47.89 14.2554 47.76 14.0054 47.76H13.3354C13.0754 47.76 12.9254 47.91 12.9254 48.17V54.59C12.9254 54.85 13.0754 55 13.3354 55H13.8954C14.1554 55 14.3054 54.85 14.3054 54.59V52.61L14.1554 50.82L14.2554 50.8L14.7454 52.54L15.4954 54.7C15.5554 54.87 15.6554 55 15.9054 55H16.5754C16.8354 55 16.9854 54.85 16.9854 54.59V48.17C16.9854 47.91 16.8354 47.76 16.5754 47.76H16.0154C15.7554 47.76 15.6054 47.91 15.6054 48.17V50.15ZM17.9987 51.58C17.7387 51.58 17.5887 51.73 17.5887 51.99V52.29C17.5887 52.55 17.7387 52.7 17.9987 52.7H19.5887C19.8487 52.7 19.9987 52.55 19.9987 52.29V51.99C19.9987 51.73 19.8487 51.58 19.5887 51.58H17.9987ZM23.5712 55H24.1712C24.4712 55 24.6212 54.79 24.5712 54.49L23.6112 48.15C23.5712 47.86 23.4212 47.76 23.1912 47.76H21.6912C21.4612 47.76 21.3112 47.86 21.2712 48.15L20.3112 54.49C20.2612 54.79 20.4112 55 20.7112 55H21.3112C21.5012 55 21.6912 54.92 21.7212 54.64L21.8412 53.64H23.0412L23.1612 54.64C23.1912 54.92 23.3812 55 23.5712 55ZM22.1112 51.38L22.3912 48.71H22.4912L22.7712 51.38L22.9012 52.52H21.9712L22.1112 51.38ZM26.9636 52.5C28.2536 52.5 28.9436 52 28.9436 50.91V49.35C28.9436 48.26 28.2536 47.76 26.9636 47.76H25.4936C25.2336 47.76 25.0836 47.91 25.0836 48.17V54.59C25.0836 54.85 25.2336 55 25.4936 55H26.1536C26.4136 55 26.5636 54.85 26.5636 54.59V52.5H26.9636ZM26.5636 51.38V48.88H26.9636C27.2936 48.88 27.4636 49.08 27.4636 49.35V50.91C27.4636 51.18 27.2936 51.38 26.9636 51.38H26.5636ZM31.4265 52.5C32.7165 52.5 33.4065 52 33.4065 50.91V49.35C33.4065 48.26 32.7165 47.76 31.4265 47.76H29.9565C29.6965 47.76 29.5465 47.91 29.5465 48.17V54.59C29.5465 54.85 29.6965 55 29.9565 55H30.6165C30.8765 55 31.0265 54.85 31.0265 54.59V52.5H31.4265ZM31.0265 51.38V48.88H31.4265C31.7565 48.88 31.9265 49.08 31.9265 49.35V50.91C31.9265 51.18 31.7565 51.38 31.4265 51.38H31.0265Z" fill="#1854D1"/>
<rect y="11" width="77" height="29" rx="2" fill="#FFB192"/>
<rect x="9" y="32.3055" width="35" height="3" rx="1.5" fill="#F3F3F3"/>
<rect x="9" y="27.3055" width="59" height="3" rx="1.5" fill="#F3F3F3"/>
<path d="M12.53 21.5C13.82 21.5 14.51 21 14.51 19.91V18.35C14.51 17.26 13.82 16.76 12.53 16.76H11.06C10.8 16.76 10.65 16.91 10.65 17.17V23.59C10.65 23.85 10.8 24 11.06 24H11.72C11.98 24 12.13 23.85 12.13 23.59V21.5H12.53ZM12.13 20.38V17.88H12.53C12.86 17.88 13.03 18.08 13.03 18.35V19.91C13.03 20.18 12.86 20.38 12.53 20.38H12.13ZM15.1129 22.46C15.1129 23.55 15.8029 24.05 17.0929 24.05C18.3829 24.05 19.0729 23.55 19.0729 22.46V17.17C19.0729 16.91 18.9229 16.76 18.6629 16.76H18.0029C17.7429 16.76 17.5929 16.91 17.5929 17.17V22.46C17.5929 22.73 17.4229 22.93 17.0929 22.93C16.7629 22.93 16.5929 22.73 16.5929 22.46V17.17C16.5929 16.91 16.4429 16.76 16.1829 16.76H15.5229C15.2629 16.76 15.1129 16.91 15.1129 17.17V22.46ZM21.2488 18.3C21.2488 18.03 21.4188 17.83 21.7488 17.83C22.0788 17.83 22.2488 18.03 22.2488 18.3V19.01C22.2488 19.27 22.3988 19.42 22.6588 19.42H23.3188C23.5788 19.42 23.7288 19.27 23.7288 19.01V18.3C23.7288 17.21 23.0388 16.71 21.7488 16.71C20.4588 16.71 19.7688 17.21 19.7688 18.3C19.7688 19.23 19.8688 19.73 20.5888 20.34L21.7588 21.33C22.1688 21.67 22.2488 21.94 22.2488 22.46C22.2488 22.73 22.0788 22.93 21.7488 22.93C21.4188 22.93 21.2488 22.73 21.2488 22.46V21.75C21.2488 21.49 21.0988 21.34 20.8388 21.34H20.1788C19.9188 21.34 19.7688 21.49 19.7688 21.75V22.46C19.7688 23.55 20.4588 24.05 21.7488 24.05C23.0388 24.05 23.7288 23.55 23.7288 22.46C23.7288 21.53 23.6288 21.03 22.9088 20.42L21.7388 19.43C21.3288 19.09 21.2488 18.82 21.2488 18.3ZM25.9093 17.17C25.9093 16.91 25.7593 16.76 25.4993 16.76H24.8393C24.5793 16.76 24.4293 16.91 24.4293 17.17V23.59C24.4293 23.85 24.5793 24 24.8393 24H25.4993C25.7593 24 25.9093 23.85 25.9093 23.59V20.94H26.9093V23.59C26.9093 23.85 27.0593 24 27.3193 24H27.9793C28.2393 24 28.3893 23.85 28.3893 23.59V17.17C28.3893 16.91 28.2393 16.76 27.9793 16.76H27.3193C27.0593 16.76 26.9093 16.91 26.9093 17.17V19.82H25.9093V17.17Z" fill="#1854D1"/>
<path d="M66.9993 11H74.9993C76.1038 11 76.9993 11.8954 76.9993 13V21H66.9993V11Z" fill="#1854D1"/>
<path d="M73.3863 15.8472L74.3712 14.8624C74.4731 14.7615 74.5541 14.6414 74.6095 14.5091C74.6649 14.3768 74.6936 14.2349 74.694 14.0914C74.6943 13.948 74.6664 13.8059 74.6117 13.6733C74.557 13.5407 74.4765 13.4203 74.3751 13.3189C74.2737 13.2174 74.1532 13.1371 74.0206 13.0823C73.888 13.0276 73.746 12.9996 73.6025 13C73.4591 13.0004 73.3171 13.0291 73.1848 13.0845C73.0525 13.1399 72.9325 13.2209 72.8316 13.3228L71.8468 14.3077L70.8619 13.3228C70.761 13.2209 70.6409 13.1399 70.5086 13.0845C70.3763 13.0291 70.2344 13.0004 70.0909 13C69.9475 12.9996 69.8054 13.0276 69.6728 13.0823C69.5403 13.1371 69.4198 13.2174 69.3184 13.3189C69.2169 13.4203 69.1365 13.5407 69.0818 13.6733C69.0271 13.8059 68.9991 13.948 68.9995 14.0914C68.9999 14.2349 69.0286 14.3768 69.084 14.5091C69.1394 14.6414 69.2204 14.7615 69.3223 14.8624L70.3072 15.8472L69.3223 16.8321C69.2204 16.933 69.1394 17.053 69.084 17.1853C69.0286 17.3176 68.9999 17.4596 68.9995 17.603C68.9991 17.7464 69.0271 17.8885 69.0818 18.0211C69.1365 18.1537 69.2169 18.2742 69.3184 18.3756C69.4198 18.477 69.5403 18.5574 69.6728 18.6121C69.8054 18.6668 69.9475 18.6948 70.0909 18.6944C70.2344 18.6941 70.3763 18.6654 70.5086 18.61C70.6409 18.5546 70.761 18.4736 70.8619 18.3716L71.8468 17.3868L72.8316 18.3716C72.9325 18.4736 73.0525 18.5546 73.1848 18.61C73.3171 18.6654 73.4591 18.6941 73.6025 18.6944C73.746 18.6948 73.888 18.6668 74.0206 18.6121C74.1532 18.5574 74.2737 18.477 74.3751 18.3756C74.4765 18.2742 74.557 18.1537 74.6117 18.0211C74.6664 17.8885 74.6943 17.7464 74.694 17.603C74.6936 17.4596 74.6649 17.3176 74.6095 17.1853C74.5541 17.053 74.4731 16.933 74.3712 16.8321L73.3863 15.8472Z" fill="#ECF0F1"/>
</svg>
