<svg width="78" height="115" viewBox="0 0 78 115" fill="none" xmlns="http://www.w3.org/2000/svg">
<path d="M62.7971 0.777832H14.6454C11.9702 0.780916 9.40558 1.84498 7.51397 3.73658C5.62236 5.62819 4.55826 8.19288 4.55518 10.868V104.577C4.55826 107.252 5.62236 109.816 7.51397 111.708C9.40558 113.6 11.9702 114.664 14.6454 114.667H62.7984C65.4735 114.664 68.0382 113.6 69.9298 111.708C71.8214 109.816 72.8854 107.252 72.8885 104.577V10.868C72.8854 8.19267 71.8212 5.62781 69.9294 3.73617C68.0375 1.84453 65.4725 0.780608 62.7971 0.777832Z" fill="#3B97D3"/>
<path d="M72.8886 104.577V10.868C72.8855 8.19288 71.8215 5.62819 69.9298 3.73658C68.0382 1.84498 65.4734 0.780916 62.7982 0.777832H38.7219V114.667H62.7982C65.4734 114.664 68.0382 113.6 69.9298 111.708C71.8215 109.816 72.8855 107.252 72.8886 104.577Z" fill="#285680"/>
<path d="M61.8727 7.45142H58.096V11.2631C58.096 14.0445 57.0012 16.7121 55.0524 18.6789C53.1036 20.6457 50.4606 21.7506 47.7047 21.7506H29.1029C26.3469 21.7506 23.7039 20.6457 21.7552 18.6789C19.8064 16.7121 18.7116 14.0445 18.7116 11.2631V7.45142H14.9349C13.9335 7.45234 12.9735 7.85422 12.2654 8.56884C11.5574 9.28346 11.1591 10.2524 11.1582 11.2631V104.186C11.1591 105.197 11.5574 106.166 12.2654 106.88C12.9735 107.595 13.9335 107.997 14.9349 107.998H61.8645C62.8659 107.997 63.826 107.595 64.5341 106.88C65.2422 106.166 65.6403 105.197 65.6412 104.186V11.2631C65.6403 10.2524 65.2422 9.28346 64.5341 8.56884C63.826 7.85422 62.8659 7.45234 61.8645 7.45142H61.8727Z" fill="#ECF0F1"/>
<path d="M65.6494 104.186V11.2631C65.6485 10.2524 65.2504 9.28346 64.5423 8.56884C63.8343 7.85422 62.8741 7.45234 61.8728 7.45142H58.0972V11.2631C58.0972 14.0445 57.0025 16.7121 55.0537 18.6789C53.105 20.6457 50.4618 21.7506 47.7059 21.7506H38.4045V107.998H61.8694C62.8713 107.998 63.8322 107.596 64.5411 106.882C65.2499 106.167 65.6485 105.197 65.6494 104.186Z" fill="#E0E0E0"/>
<rect x="-0.000244141" y="13.3055" width="77.4445" height="87.6944" rx="2" fill="#FFB192"/>
<rect x="20.4998" y="89.6111" width="37.5833" height="6.83333" rx="3.41667" fill="#F3F3F3"/>
<rect x="9.11084" y="80.5" width="35.3056" height="3.41667" rx="1.70833" fill="#F3F3F3"/>
<rect x="9.11084" y="74.8055" width="59.2222" height="3.41667" rx="1.70833" fill="#F3F3F3"/>
<rect x="9.61084" y="41.1389" width="58.2222" height="29.75" stroke="#1854D1"/>
<path d="M52.5243 44.7733C52.0458 44.2948 51.4708 44.0555 50.7985 44.0555H26.3603C25.6883 44.0555 25.1131 44.2947 24.6343 44.7733C24.1557 45.252 23.9165 45.8271 23.9165 46.4992V65.0721C23.9165 65.7444 24.1557 66.3196 24.6343 66.7982C25.1131 67.2768 25.6883 67.5161 26.3603 67.5161H50.7988C51.4708 67.5161 52.046 67.2768 52.5246 66.7982C53.0031 66.3196 53.2426 65.7444 53.2426 65.0721V46.4992C53.2426 45.8271 53.0031 45.252 52.5243 44.7733ZM51.2871 65.0721C51.2871 65.2047 51.239 65.3189 51.1423 65.416C51.0455 65.5122 50.9309 65.5606 50.7985 65.5606H26.3603C26.228 65.5606 26.1134 65.5122 26.0167 65.416C25.92 65.319 25.8716 65.2047 25.8716 65.0721V46.499C25.8716 46.3666 25.9199 46.2523 26.0167 46.1554C26.1135 46.0589 26.2281 46.0105 26.3603 46.0105H50.7988C50.931 46.0105 51.0456 46.0589 51.1423 46.1554C51.2386 46.2523 51.2871 46.3666 51.2871 46.499V65.0721Z" fill="#F3F3F3"/>
<path d="M30.7579 53.8306C31.5726 53.8306 32.2649 53.5456 32.8352 52.9753C33.4053 52.405 33.6905 51.7127 33.6905 50.8982C33.6905 50.0834 33.4052 49.3911 32.8352 48.8208C32.2649 48.2507 31.5725 47.9656 30.7579 47.9656C29.9432 47.9656 29.2509 48.2507 28.6807 48.8208C28.1106 49.3911 27.8254 50.0834 27.8254 50.8982C27.8254 51.7127 28.1104 52.4052 28.6807 52.9753C29.2509 53.5454 29.9432 53.8306 30.7579 53.8306Z" fill="#F3F3F3"/>
<path d="M35.1569 58.2295L32.713 55.7859L27.8254 60.6733V63.6061H49.3311V56.7634L42.9772 50.4093L35.1569 58.2295Z" fill="#F3F3F3"/>
<rect x="9.11084" y="34.9445" width="59.2222" height="3.41667" rx="1.70833" fill="#F3F3F3"/>
<path d="M12.5055 22.804C12.5055 22.492 12.3255 22.312 12.0135 22.312H11.2215C10.9095 22.312 10.7295 22.492 10.7295 22.804V30.508C10.7295 30.82 10.9095 31 11.2215 31H12.0135C12.3255 31 12.5055 30.82 12.5055 30.508V22.804ZM16.676 25.18L16.856 27.328L16.736 27.352L16.148 25.264L15.248 22.672C15.176 22.468 15.056 22.312 14.756 22.312H13.952C13.64 22.312 13.46 22.492 13.46 22.804V30.508C13.46 30.82 13.64 31 13.952 31H14.624C14.936 31 15.116 30.82 15.116 30.508V28.132L14.936 25.984L15.056 25.96L15.644 28.048L16.544 30.64C16.616 30.844 16.736 31 17.036 31H17.84C18.152 31 18.332 30.82 18.332 30.508V22.804C18.332 22.492 18.152 22.312 17.84 22.312H17.168C16.856 22.312 16.676 22.492 16.676 22.804V25.18ZM19.5479 26.896C19.2359 26.896 19.0559 27.076 19.0559 27.388V27.748C19.0559 28.06 19.2359 28.24 19.5479 28.24H21.4559C21.7679 28.24 21.9479 28.06 21.9479 27.748V27.388C21.9479 27.076 21.7679 26.896 21.4559 26.896H19.5479ZM26.2349 31H26.9549C27.3149 31 27.4949 30.748 27.4349 30.388L26.2829 22.78C26.2349 22.432 26.0549 22.312 25.7789 22.312H23.9789C23.7029 22.312 23.5229 22.432 23.4749 22.78L22.3229 30.388C22.2629 30.748 22.4429 31 22.8029 31H23.5229C23.7509 31 23.9789 30.904 24.0149 30.568L24.1589 29.368H25.5989L25.7429 30.568C25.7789 30.904 26.0069 31 26.2349 31ZM24.4829 26.656L24.8189 23.452H24.9389L25.2749 26.656L25.4309 28.024H24.3149L24.4829 26.656ZM30.3058 28C31.8538 28 32.6818 27.4 32.6818 26.092V24.22C32.6818 22.912 31.8538 22.312 30.3058 22.312H28.5418C28.2298 22.312 28.0498 22.492 28.0498 22.804V30.508C28.0498 30.82 28.2298 31 28.5418 31H29.3338C29.6458 31 29.8258 30.82 29.8258 30.508V28H30.3058ZM29.8258 26.656V23.656H30.3058C30.7018 23.656 30.9058 23.896 30.9058 24.22V26.092C30.9058 26.416 30.7018 26.656 30.3058 26.656H29.8258ZM35.6613 28C37.2093 28 38.0373 27.4 38.0373 26.092V24.22C38.0373 22.912 37.2093 22.312 35.6613 22.312H33.8973C33.5853 22.312 33.4053 22.492 33.4053 22.804V30.508C33.4053 30.82 33.5853 31 33.8973 31H34.6893C35.0013 31 35.1813 30.82 35.1813 30.508V28H35.6613ZM35.1813 26.656V23.656H35.6613C36.0573 23.656 36.2613 23.896 36.2613 24.22V26.092C36.2613 26.416 36.0573 26.656 35.6613 26.656H35.1813Z" fill="#1854D1"/>
<path d="M67.1941 13.3055H75.4441C76.5487 13.3055 77.4441 14.201 77.4441 15.3055V23.5555H67.1941V13.3055Z" fill="#1854D1"/>
<path d="M73.8587 18.4306L74.8436 17.4457C74.9455 17.3448 75.0265 17.2248 75.0819 17.0925C75.1373 16.9602 75.166 16.8182 75.1664 16.6748C75.1667 16.5314 75.1388 16.3893 75.0841 16.2567C75.0294 16.1241 74.9489 16.0037 74.8475 15.9022C74.7461 15.8008 74.6256 15.7204 74.493 15.6657C74.3605 15.611 74.2184 15.583 74.0749 15.5834C73.9315 15.5837 73.7896 15.6125 73.6573 15.6679C73.5249 15.7233 73.4049 15.8042 73.304 15.9062L72.3192 16.891L71.3343 15.9062C71.2334 15.8042 71.1133 15.7233 70.981 15.6679C70.8487 15.6125 70.7068 15.5837 70.5634 15.5834C70.4199 15.583 70.2778 15.611 70.1453 15.6657C70.0127 15.7204 69.8922 15.8008 69.7908 15.9022C69.6894 16.0037 69.6089 16.1241 69.5542 16.2567C69.4995 16.3893 69.4716 16.5314 69.4719 16.6748C69.4723 16.8182 69.501 16.9602 69.5564 17.0925C69.6118 17.2248 69.6928 17.3448 69.7947 17.4457L70.7796 18.4306L69.7947 19.4154C69.6928 19.5163 69.6118 19.6364 69.5564 19.7687C69.501 19.901 69.4723 20.0429 69.4719 20.1864C69.4716 20.3298 69.4995 20.4719 69.5542 20.6045C69.6089 20.7371 69.6894 20.8575 69.7908 20.959C69.8922 21.0604 70.0127 21.1408 70.1453 21.1955C70.2778 21.2502 70.4199 21.2782 70.5634 21.2778C70.7068 21.2774 70.8487 21.2487 70.981 21.1933C71.1133 21.1379 71.2334 21.0569 71.3343 20.955L72.3192 19.9701L73.304 20.955C73.4049 21.0569 73.5249 21.1379 73.6573 21.1933C73.7896 21.2487 73.9315 21.2774 74.0749 21.2778C74.2184 21.2782 74.3605 21.2502 74.493 21.1955C74.6256 21.1408 74.7461 21.0604 74.8475 20.959C74.9489 20.8575 75.0294 20.7371 75.0841 20.6045C75.1388 20.4719 75.1667 20.3298 75.1664 20.1864C75.166 20.0429 75.1373 19.901 75.0819 19.7687C75.0265 19.6364 74.9455 19.5163 74.8436 19.4154L73.8587 18.4306Z" fill="#ECF0F1"/>
</svg>
