<svg width="79" height="115" viewBox="0 0 79 115" fill="none" xmlns="http://www.w3.org/2000/svg">
<path d="M63.7977 0.777832H15.646C12.9708 0.780916 10.4062 1.84498 8.51458 3.73658C6.62297 5.62819 5.55887 8.19288 5.55579 10.868V104.577C5.55887 107.252 6.62297 109.816 8.51458 111.708C10.4062 113.6 12.9708 114.664 15.646 114.667H63.799C66.4741 114.664 69.0388 113.6 70.9304 111.708C72.822 109.816 73.886 107.252 73.8891 104.577V10.868C73.886 8.19267 72.8218 5.62781 70.93 3.73617C69.0381 1.84453 66.4731 0.780608 63.7977 0.777832Z" fill="#C8C8C8"/>
<path d="M73.8891 104.577V10.868C73.886 8.19288 72.8219 5.62819 70.9303 3.73658C69.0387 1.84498 66.4739 0.780916 63.7987 0.777832H39.7224V114.667H63.7987C66.4739 114.664 69.0387 113.6 70.9303 111.708C72.8219 109.816 73.886 107.252 73.8891 104.577Z" fill="#9D9D9D"/>
<path d="M62.8734 7.45142H59.0968V11.2631C59.0968 14.0445 58.0019 16.7121 56.0531 18.6789C54.1044 20.6457 51.4614 21.7506 48.7054 21.7506H30.1036C27.3477 21.7506 24.7047 20.6457 22.7559 18.6789C20.8072 16.7121 19.7123 14.0445 19.7123 11.2631V7.45142H15.9356C14.9343 7.45234 13.9742 7.85422 13.2662 8.56884C12.5581 9.28346 12.1599 10.2524 12.1589 11.2631V104.186C12.1599 105.197 12.5581 106.166 13.2662 106.88C13.9742 107.595 14.9343 107.997 15.9356 107.998H62.8653C63.8666 107.997 64.8268 107.595 65.5348 106.88C66.2429 106.166 66.641 105.197 66.6419 104.186V11.2631C66.641 10.2524 66.2429 9.28346 65.5348 8.56884C64.8268 7.85422 63.8666 7.45234 62.8653 7.45142H62.8734Z" fill="#ECF0F1"/>
<path d="M66.65 104.186V11.2631C66.6491 10.2524 66.251 9.28346 65.5429 8.56884C64.8349 7.85422 63.8747 7.45234 62.8734 7.45142H59.0978V11.2631C59.0978 14.0445 58.0031 16.7121 56.0543 18.6789C54.1056 20.6457 51.4624 21.7506 48.7065 21.7506H39.4052V107.998H62.87C63.8719 107.998 64.8329 107.596 65.5417 106.882C66.2505 106.167 66.6491 105.197 66.65 104.186Z" fill="#E0E0E0"/>
<rect x="0.75" y="30.1387" width="77.9445" height="44.9167" rx="2.25" fill="#F3F3F3" stroke="#9D9D9D" stroke-width="0.5"/>
<rect x="52.2499" y="65.6943" width="17.0833" height="4.55556" rx="2.27778" fill="#C8C8C8"/>
<rect x="10.1111" y="65.6943" width="17.0833" height="4.55556" rx="2.27778" fill="#C8C8C8"/>
<rect x="10.1111" y="57.722" width="35.3056" height="3.41667" rx="1.70833" fill="#C8C8C8"/>
<rect x="10.1111" y="52.0276" width="59.2222" height="3.41667" rx="1.70833" fill="#C8C8C8"/>
<path d="M13.986 45.0831C15.534 45.0831 16.362 44.4831 16.362 43.1751V41.3031C16.362 39.9951 15.534 39.3951 13.986 39.3951H12.222C11.91 39.3951 11.73 39.5751 11.73 39.8871V47.5911C11.73 47.9031 11.91 48.0831 12.222 48.0831H13.014C13.326 48.0831 13.506 47.9031 13.506 47.5911V45.0831H13.986ZM13.506 43.7391V40.7391H13.986C14.382 40.7391 14.586 40.9791 14.586 41.3031V43.1751C14.586 43.4991 14.382 43.7391 13.986 43.7391H13.506ZM17.0855 46.2351C17.0855 47.5431 17.9135 48.1431 19.4615 48.1431C21.0095 48.1431 21.8375 47.5431 21.8375 46.2351V39.8871C21.8375 39.5751 21.6575 39.3951 21.3455 39.3951H20.5535C20.2415 39.3951 20.0615 39.5751 20.0615 39.8871V46.2351C20.0615 46.5591 19.8575 46.7991 19.4615 46.7991C19.0655 46.7991 18.8615 46.5591 18.8615 46.2351V39.8871C18.8615 39.5751 18.6815 39.3951 18.3695 39.3951H17.5775C17.2655 39.3951 17.0855 39.5751 17.0855 39.8871V46.2351ZM24.4485 41.2431C24.4485 40.9191 24.6525 40.6791 25.0485 40.6791C25.4445 40.6791 25.6485 40.9191 25.6485 41.2431V42.0951C25.6485 42.4071 25.8285 42.5871 26.1405 42.5871H26.9325C27.2445 42.5871 27.4245 42.4071 27.4245 42.0951V41.2431C27.4245 39.9351 26.5965 39.3351 25.0485 39.3351C23.5005 39.3351 22.6725 39.9351 22.6725 41.2431C22.6725 42.3591 22.7925 42.9591 23.6565 43.6911L25.0605 44.8791C25.5525 45.2871 25.6485 45.6111 25.6485 46.2351C25.6485 46.5591 25.4445 46.7991 25.0485 46.7991C24.6525 46.7991 24.4485 46.5591 24.4485 46.2351V45.3831C24.4485 45.0711 24.2685 44.8911 23.9565 44.8911H23.1645C22.8525 44.8911 22.6725 45.0711 22.6725 45.3831V46.2351C22.6725 47.5431 23.5005 48.1431 25.0485 48.1431C26.5965 48.1431 27.4245 47.5431 27.4245 46.2351C27.4245 45.1191 27.3045 44.5191 26.4405 43.7871L25.0365 42.5991C24.5445 42.1911 24.4485 41.8671 24.4485 41.2431ZM30.0412 39.8871C30.0412 39.5751 29.8612 39.3951 29.5492 39.3951H28.7572C28.4452 39.3951 28.2652 39.5751 28.2652 39.8871V47.5911C28.2652 47.9031 28.4452 48.0831 28.7572 48.0831H29.5492C29.8612 48.0831 30.0412 47.9031 30.0412 47.5911V44.4111H31.2412V47.5911C31.2412 47.9031 31.4212 48.0831 31.7332 48.0831H32.5252C32.8372 48.0831 33.0172 47.9031 33.0172 47.5911V39.8871C33.0172 39.5751 32.8372 39.3951 32.5252 39.3951H31.7332C31.4212 39.3951 31.2412 39.5751 31.2412 39.8871V43.0671H30.0412V39.8871Z" fill="#C8C8C8"/>
<path d="M68.1945 30.3887H76.4445C77.549 30.3887 78.4445 31.2841 78.4445 32.3887V40.6387H68.1945V30.3887Z" fill="#C8C8C8"/>
<path d="M74.8589 35.5137L75.8438 34.5289C75.9458 34.428 76.0267 34.3079 76.0821 34.1756C76.1375 34.0433 76.1662 33.9014 76.1666 33.7579C76.167 33.6145 76.139 33.4724 76.0843 33.3398C76.0296 33.2072 75.9492 33.0868 75.8478 32.9854C75.7463 32.8839 75.6259 32.8036 75.4933 32.7488C75.3607 32.6941 75.2186 32.6661 75.0752 32.6665C74.9317 32.6669 74.7898 32.6956 74.6575 32.751C74.5252 32.8064 74.4051 32.8874 74.3042 32.9893L73.3194 33.9742L72.3346 32.9893C72.2337 32.8874 72.1136 32.8064 71.9813 32.751C71.849 32.6956 71.707 32.6669 71.5636 32.6665C71.4202 32.6661 71.2781 32.6941 71.1455 32.7488C71.0129 32.8036 70.8925 32.8839 70.791 32.9854C70.6896 33.0868 70.6092 33.2072 70.5545 33.3398C70.4997 33.4724 70.4718 33.6145 70.4722 33.7579C70.4725 33.9014 70.5012 34.0433 70.5566 34.1756C70.612 34.3079 70.693 34.428 70.795 34.5289L71.7798 35.5137L70.795 36.4986C70.693 36.5995 70.612 36.7195 70.5566 36.8518C70.5012 36.9841 70.4725 37.1261 70.4722 37.2695C70.4718 37.4129 70.4997 37.555 70.5545 37.6876C70.6092 37.8202 70.6896 37.9407 70.791 38.0421C70.8925 38.1435 71.0129 38.2239 71.1455 38.2786C71.2781 38.3333 71.4202 38.3613 71.5636 38.3609C71.707 38.3606 71.849 38.3319 71.9813 38.2765C72.1136 38.2211 72.2337 38.1401 72.3346 38.0381L73.3194 37.0533L74.3042 38.0381C74.4051 38.1401 74.5252 38.2211 74.6575 38.2765C74.7898 38.3319 74.9317 38.3606 75.0752 38.3609C75.2186 38.3613 75.3607 38.3333 75.4933 38.2786C75.6259 38.2239 75.7463 38.1435 75.8478 38.0421C75.9492 37.9407 76.0296 37.8202 76.0843 37.6876C76.139 37.555 76.167 37.4129 76.1666 37.2695C76.1662 37.1261 76.1375 36.9841 76.0821 36.8518C76.0267 36.7195 75.9458 36.5995 75.8438 36.4986L74.8589 35.5137Z" fill="#ECF0F1"/>
</svg>
