<svg width="78" height="115" viewBox="0 0 78 115" fill="none" xmlns="http://www.w3.org/2000/svg">
<path d="M62.7977 0.777832H14.646C11.9708 0.780916 9.40619 1.84498 7.51458 3.73658C5.62297 5.62819 4.55887 8.19288 4.55579 10.868V104.577C4.55887 107.252 5.62297 109.816 7.51458 111.708C9.40619 113.6 11.9708 114.664 14.646 114.667H62.799C65.4741 114.664 68.0388 113.6 69.9304 111.708C71.822 109.816 72.886 107.252 72.8891 104.577V10.868C72.886 8.19267 71.8218 5.62781 69.93 3.73617C68.0381 1.84453 65.4731 0.780608 62.7977 0.777832Z" fill="#3B97D3"/>
<path d="M72.8891 104.577V10.868C72.886 8.19288 71.8219 5.62819 69.9303 3.73658C68.0387 1.84498 65.4739 0.780916 62.7987 0.777832H38.7224V114.667H62.7987C65.4739 114.664 68.0387 113.6 69.9303 111.708C71.8219 109.816 72.886 107.252 72.8891 104.577Z" fill="#285680"/>
<path d="M61.8734 7.45142H58.0968V11.2631C58.0968 14.0445 57.0019 16.7121 55.0531 18.6789C53.1044 20.6457 50.4614 21.7506 47.7054 21.7506H29.1036C26.3477 21.7506 23.7047 20.6457 21.7559 18.6789C19.8072 16.7121 18.7123 14.0445 18.7123 11.2631V7.45142H14.9356C13.9343 7.45234 12.9742 7.85422 12.2662 8.56884C11.5581 9.28346 11.1599 10.2524 11.1589 11.2631V104.186C11.1599 105.197 11.5581 106.166 12.2662 106.88C12.9742 107.595 13.9343 107.997 14.9356 107.998H61.8653C62.8666 107.997 63.8268 107.595 64.5348 106.88C65.2429 106.166 65.641 105.197 65.6419 104.186V11.2631C65.641 10.2524 65.2429 9.28346 64.5348 8.56884C63.8268 7.85422 62.8666 7.45234 61.8653 7.45142H61.8734Z" fill="#ECF0F1"/>
<path d="M65.65 104.186V11.2631C65.6491 10.2524 65.251 9.28346 64.5429 8.56884C63.8349 7.85422 62.8747 7.45234 61.8734 7.45142H58.0978V11.2631C58.0978 14.0445 57.0031 16.7121 55.0543 18.6789C53.1056 20.6457 50.4624 21.7506 47.7065 21.7506H38.4052V107.998H61.87C62.8719 107.998 63.8329 107.596 64.5417 106.882C65.2505 106.167 65.6491 105.197 65.65 104.186Z" fill="#E0E0E0"/>
<rect y="30.3887" width="77.4445" height="44.4167" rx="2" fill="#FFB192"/>
<rect x="51.2499" y="65.6943" width="17.0833" height="4.55556" rx="2.27778" fill="#F3F3F3"/>
<rect x="9.11108" y="65.6943" width="17.0833" height="4.55556" rx="2.27778" fill="#F3F3F3"/>
<rect x="9.11108" y="57.722" width="35.3056" height="3.41667" rx="1.70833" fill="#F3F3F3"/>
<rect x="9.11108" y="52.0276" width="59.2222" height="3.41667" rx="1.70833" fill="#F3F3F3"/>
<path d="M12.986 45.0831C14.534 45.0831 15.362 44.4831 15.362 43.1751V41.3031C15.362 39.9951 14.534 39.3951 12.986 39.3951H11.222C10.91 39.3951 10.73 39.5751 10.73 39.8871V47.5911C10.73 47.9031 10.91 48.0831 11.222 48.0831H12.014C12.326 48.0831 12.506 47.9031 12.506 47.5911V45.0831H12.986ZM12.506 43.7391V40.7391H12.986C13.382 40.7391 13.586 40.9791 13.586 41.3031V43.1751C13.586 43.4991 13.382 43.7391 12.986 43.7391H12.506ZM16.0855 46.2351C16.0855 47.5431 16.9135 48.1431 18.4615 48.1431C20.0095 48.1431 20.8375 47.5431 20.8375 46.2351V39.8871C20.8375 39.5751 20.6575 39.3951 20.3455 39.3951H19.5535C19.2415 39.3951 19.0615 39.5751 19.0615 39.8871V46.2351C19.0615 46.5591 18.8575 46.7991 18.4615 46.7991C18.0655 46.7991 17.8615 46.5591 17.8615 46.2351V39.8871C17.8615 39.5751 17.6815 39.3951 17.3695 39.3951H16.5775C16.2655 39.3951 16.0855 39.5751 16.0855 39.8871V46.2351ZM23.4485 41.2431C23.4485 40.9191 23.6525 40.6791 24.0485 40.6791C24.4445 40.6791 24.6485 40.9191 24.6485 41.2431V42.0951C24.6485 42.4071 24.8285 42.5871 25.1405 42.5871H25.9325C26.2445 42.5871 26.4245 42.4071 26.4245 42.0951V41.2431C26.4245 39.9351 25.5965 39.3351 24.0485 39.3351C22.5005 39.3351 21.6725 39.9351 21.6725 41.2431C21.6725 42.3591 21.7925 42.9591 22.6565 43.6911L24.0605 44.8791C24.5525 45.2871 24.6485 45.6111 24.6485 46.2351C24.6485 46.5591 24.4445 46.7991 24.0485 46.7991C23.6525 46.7991 23.4485 46.5591 23.4485 46.2351V45.3831C23.4485 45.0711 23.2685 44.8911 22.9565 44.8911H22.1645C21.8525 44.8911 21.6725 45.0711 21.6725 45.3831V46.2351C21.6725 47.5431 22.5005 48.1431 24.0485 48.1431C25.5965 48.1431 26.4245 47.5431 26.4245 46.2351C26.4245 45.1191 26.3045 44.5191 25.4405 43.7871L24.0365 42.5991C23.5445 42.1911 23.4485 41.8671 23.4485 41.2431ZM29.0412 39.8871C29.0412 39.5751 28.8612 39.3951 28.5492 39.3951H27.7572C27.4452 39.3951 27.2652 39.5751 27.2652 39.8871V47.5911C27.2652 47.9031 27.4452 48.0831 27.7572 48.0831H28.5492C28.8612 48.0831 29.0412 47.9031 29.0412 47.5911V44.4111H30.2412V47.5911C30.2412 47.9031 30.4212 48.0831 30.7332 48.0831H31.5252C31.8372 48.0831 32.0172 47.9031 32.0172 47.5911V39.8871C32.0172 39.5751 31.8372 39.3951 31.5252 39.3951H30.7332C30.4212 39.3951 30.2412 39.5751 30.2412 39.8871V43.0671H29.0412V39.8871Z" fill="#1854D1"/>
<path d="M67.1945 30.3887H75.4445C76.549 30.3887 77.4445 31.2841 77.4445 32.3887V40.6387H67.1945V30.3887Z" fill="#1854D1"/>
<path d="M73.8589 35.5137L74.8438 34.5289C74.9458 34.428 75.0267 34.3079 75.0821 34.1756C75.1375 34.0433 75.1662 33.9014 75.1666 33.7579C75.167 33.6145 75.139 33.4724 75.0843 33.3398C75.0296 33.2072 74.9492 33.0868 74.8478 32.9854C74.7463 32.8839 74.6259 32.8036 74.4933 32.7488C74.3607 32.6941 74.2186 32.6661 74.0752 32.6665C73.9317 32.6669 73.7898 32.6956 73.6575 32.751C73.5252 32.8064 73.4051 32.8874 73.3042 32.9893L72.3194 33.9742L71.3346 32.9893C71.2337 32.8874 71.1136 32.8064 70.9813 32.751C70.849 32.6956 70.707 32.6669 70.5636 32.6665C70.4202 32.6661 70.2781 32.6941 70.1455 32.7488C70.0129 32.8036 69.8925 32.8839 69.791 32.9854C69.6896 33.0868 69.6092 33.2072 69.5545 33.3398C69.4997 33.4724 69.4718 33.6145 69.4722 33.7579C69.4725 33.9014 69.5012 34.0433 69.5566 34.1756C69.612 34.3079 69.693 34.428 69.795 34.5289L70.7798 35.5137L69.795 36.4986C69.693 36.5995 69.612 36.7195 69.5566 36.8518C69.5012 36.9841 69.4725 37.1261 69.4722 37.2695C69.4718 37.4129 69.4997 37.555 69.5545 37.6876C69.6092 37.8202 69.6896 37.9407 69.791 38.0421C69.8925 38.1435 70.0129 38.2239 70.1455 38.2786C70.2781 38.3333 70.4202 38.3613 70.5636 38.3609C70.707 38.3606 70.849 38.3319 70.9813 38.2765C71.1136 38.2211 71.2337 38.1401 71.3346 38.0381L72.3194 37.0533L73.3042 38.0381C73.4051 38.1401 73.5252 38.2211 73.6575 38.2765C73.7898 38.3319 73.9317 38.3606 74.0752 38.3609C74.2186 38.3613 74.3607 38.3333 74.4933 38.2786C74.6259 38.2239 74.7463 38.1435 74.8478 38.0421C74.9492 37.9407 75.0296 37.8202 75.0843 37.6876C75.139 37.555 75.167 37.4129 75.1666 37.2695C75.1662 37.1261 75.1375 36.9841 75.0821 36.8518C75.0267 36.7195 74.9458 36.5995 74.8438 36.4986L73.8589 35.5137Z" fill="#ECF0F1"/>
</svg>
