<svg width="250" height="46" viewBox="0 0 250 46" fill="none" xmlns="http://www.w3.org/2000/svg">
<g clip-path="url(#clip0)">
<path d="M233.584 44.6881V0.505615H250V3.34344H236.619V21.1478H249.366V23.9856H236.619V44.6881H233.584Z" fill="black"/>
<path d="M213.078 44.6881V0.505615H229.486V3.34344H216.105V21.1478H228.852V23.9856H216.105V41.8427H229.486V44.6881H213.078Z" fill="black"/>
<path d="M192.564 44.6881V0.505615H208.972V3.34344H195.591V21.1478H208.346V23.9856H195.591V41.8427H208.972V44.6881H192.564Z" fill="black"/>
<path d="M186.006 44.6881L176.949 23.9856H173.349V44.6881H170.33V0.505615H177.522C181.938 0.505615 185.16 2.27171 187.055 5.42652C188.167 7.51569 188.73 9.85286 188.693 12.2192C188.728 14.5132 188.163 16.7766 187.055 18.7854C185.477 21.5025 182.632 23.2006 179.039 23.4573V24.0233L180.428 24.529L189.44 44.6881H186.006ZM173.379 3.34344V21.3968H177.417C180.639 21.3968 182.972 20.0685 184.36 17.6684C185.239 16.0493 185.674 14.2266 185.621 12.3852C185.683 10.5165 185.248 8.66473 184.36 7.01902C182.972 4.68687 180.639 3.35853 177.417 3.35853L173.379 3.34344Z" fill="black"/>
<path d="M153.559 44.6881V0.505615H160.82V37.8652H167.824V44.6881H153.559Z" fill="black"/>
<path d="M143.28 44.6881L142.585 31.3669H139.363L138.668 44.6881H130.97L134.344 0.505615H147.665L150.948 44.6881H143.28ZM139.68 24.5516H142.2L141.506 10.6644V4.67178H140.434L140.382 10.6644L139.68 24.5516Z" fill="black"/>
<path d="M131.913 0.505615V7.32092H127.121V44.6881H119.86V7.32092H115.128V0.505615H131.913Z" fill="black"/>
<path d="M113.045 0.505615H105.784V44.6881H113.045V0.505615Z" fill="black"/>
<path d="M85.9724 41.3371C85.3384 39.3823 84.9611 36.9822 84.9611 22.529C84.9611 8.94367 85.1497 6.75492 85.8441 4.9209C86.9158 1.82647 89.3159 0 93.9877 0C100.735 0 102.758 3.97748 102.758 11.6758V16.959H95.2104V10.2267C95.2104 7.69835 94.8934 6.8153 93.8821 6.8153C93.2556 6.8153 92.999 7.07191 92.75 7.69835C92.5009 8.32478 92.433 9.72105 92.433 22.529C92.433 35.3369 92.6217 36.9219 92.8783 37.6238C92.9324 37.8596 93.0718 38.0671 93.2696 38.2064C93.4674 38.3457 93.7097 38.407 93.95 38.3785C95.1501 38.3785 95.7161 36.2954 95.7161 33.6463V28.0235H94.0708V21.6459H102.569V44.6881H96.1312L97.9652 38.6502H96.8859C95.3765 43.6391 93.4821 45.1561 90.9537 45.1561C88.9989 45.1561 86.9762 44.273 85.9724 41.2994" fill="black"/>
<path d="M82.063 0.505615H74.8024V44.6881H82.063V0.505615Z" fill="black"/>
<path d="M54.3413 44.6881V0.505615H62.9378C67.5417 0.505615 69.8738 2.40001 71.0135 5.42652C71.6475 7.32092 71.8362 9.65306 71.8362 22.5969C71.8362 35.5406 71.6475 37.8652 71.0135 39.7596C69.8738 42.7786 67.5417 44.6881 62.9378 44.6881H54.3413ZM61.6019 37.8954H62.9302C63.1989 37.9086 63.4632 37.8229 63.6731 37.6547C63.883 37.4865 64.0242 37.2473 64.0699 36.9822C64.3265 36.2878 64.3869 34.7784 64.3869 22.5969C64.3869 10.4154 64.3265 8.89832 64.0699 8.20396C64.0179 7.94576 63.8751 7.71474 63.6674 7.55275C63.4597 7.39076 63.2009 7.30851 62.9378 7.32092H61.6094L61.6019 37.8954Z" fill="black"/>
<path d="M0 22.5972H22.0912V44.6885L0 22.5972Z" fill="#1854D1"/>
<path d="M22.0913 0.505615H44.1825V22.5968L22.0913 0.505615Z" fill="#1854D1"/>
<path d="M0 0.505615H22.0912V22.5968L0 0.505615Z" fill="#1854D1"/>
<path d="M22.0913 22.5972H44.1825V44.6885L22.0913 22.5972Z" fill="#1854D1"/>
</g>
<defs>
<clipPath id="clip0">
<rect width="250" height="45.1938" fill="white"/>
</clipPath>
</defs>
</svg>
