<svg width="332" height="60" viewBox="0 0 332 60" fill="none" xmlns="http://www.w3.org/2000/svg">
<g clip-path="url(#clip0)">
<path d="M309.49 59.2099V0.669922H331.24V4.42992H313.51V28.0199H330.4V31.7799H313.51V59.2099H309.49Z" fill="white"/>
<path d="M282.32 59.2099V0.669922H304.06V4.42992H286.33V28.0199H303.22V31.7799H286.33V55.4399H304.06V59.2099H282.32Z" fill="white"/>
<path d="M255.14 59.2099V0.669922H276.88V4.42992H259.15V28.0199H276.05V31.7799H259.15V55.4399H276.88V59.2099H255.14Z" fill="white"/>
<path d="M246.45 59.2099L234.45 31.7799H229.68V59.2099H225.68V0.669922H235.21C241.06 0.669922 245.33 3.00992 247.84 7.18992C249.313 9.95799 250.06 13.0546 250.01 16.1899C250.056 19.2294 249.308 22.2283 247.84 24.8899C245.75 28.4899 241.98 30.7399 237.22 31.0799V31.8299L239.06 32.4999L251 59.2099H246.45ZM229.72 4.42992V28.3499H235.07C239.34 28.3499 242.43 26.5899 244.27 23.4099C245.434 21.2647 246.01 18.8497 245.94 16.4099C246.022 13.9339 245.446 11.4804 244.27 9.29992C242.43 6.20992 239.34 4.44992 235.07 4.44992L229.72 4.42992Z" fill="white"/>
<path d="M203.46 59.2099V0.669922H213.08V50.1699H222.36V59.2099H203.46Z" fill="white"/>
<path d="M189.84 59.2099L188.92 41.5599H184.65L183.73 59.2099H173.53L178 0.669922H195.65L200 59.2099H189.84ZM185.07 32.5299H188.41L187.49 14.1299V6.18992H186.07L186 14.1299L185.07 32.5299Z" fill="white"/>
<path d="M174.78 0.669922V9.69992H168.43V59.2099H158.81V9.69992H152.54V0.669922H174.78Z" fill="white"/>
<path d="M149.78 0.669922H140.16V59.2099H149.78V0.669922Z" fill="white"/>
<path d="M113.91 54.77C113.07 52.18 112.57 49 112.57 29.85C112.57 11.85 112.82 8.95 113.74 6.52C115.16 2.42 118.34 0 124.53 0C133.47 0 136.15 5.27 136.15 15.47V22.47H126.15V13.55C126.15 10.2 125.73 9.03 124.39 9.03C123.56 9.03 123.22 9.37 122.89 10.2C122.56 11.03 122.47 12.88 122.47 29.85C122.47 46.82 122.72 48.92 123.06 49.85C123.132 50.1624 123.316 50.4373 123.579 50.6219C123.841 50.8065 124.162 50.8877 124.48 50.85C126.07 50.85 126.82 48.09 126.82 44.58V37.13H124.64V28.68H135.9V59.21H127.37L129.8 51.21H128.37C126.37 57.82 123.86 59.83 120.51 59.83C117.92 59.83 115.24 58.66 113.91 54.72" fill="white"/>
<path d="M108.73 0.669922H99.1099V59.2099H108.73V0.669922Z" fill="white"/>
<path d="M72 59.2099V0.669922H83.39C89.49 0.669922 92.58 3.17992 94.09 7.18992C94.93 9.69992 95.18 12.7899 95.18 29.9399C95.18 47.0899 94.93 50.1699 94.09 52.6799C92.58 56.6799 89.49 59.2099 83.39 59.2099H72ZM81.62 50.2099H83.38C83.736 50.2273 84.0861 50.1139 84.3642 49.891C84.6424 49.6681 84.8294 49.3512 84.89 48.9999C85.23 48.0799 85.31 46.0799 85.31 29.9399C85.31 13.7999 85.23 11.7899 84.89 10.8699C84.8211 10.5278 84.6319 10.2217 84.3567 10.0071C84.0815 9.79246 83.7386 9.68349 83.39 9.69992H81.63L81.62 50.2099Z" fill="white"/>
<path d="M0 29.9404H29.27V59.2104L0 29.9404Z" fill="#1644A2"/>
<path d="M29.27 0.669922H58.54V29.9399L29.27 0.669922Z" fill="#1644A2"/>
<path d="M0 0.669922H29.27V29.9399L0 0.669922Z" fill="#1644A2"/>
<path d="M29.27 29.9404H58.54V59.2104L29.27 29.9404Z" fill="#1644A2"/>
</g>
<defs>
<clipPath id="clip0">
<rect width="331.24" height="59.88" fill="white"/>
</clipPath>
</defs>
</svg>
