<svg width="86" height="143" viewBox="0 0 86 143" fill="none" xmlns="http://www.w3.org/2000/svg">
<path d="M74.6761 133.715C74.6761 135.213 74.0752 136.649 73.0054 137.709C71.9357 138.768 70.4846 139.364 68.971 139.366H17.1506C15.6361 139.366 14.1835 138.77 13.1126 137.711C12.0416 136.651 11.4399 135.214 11.4399 133.715V9.16358C11.4407 7.66523 12.0426 6.22845 13.1134 5.16895C14.1842 4.10946 15.6363 3.51392 17.1506 3.51318H25.1266C25.4689 3.51464 25.7967 3.64982 26.0387 3.8893C26.2808 4.12878 26.4174 4.45317 26.4189 4.79184V5.41598C26.4196 6.20679 26.7374 6.96501 27.3026 7.5242C27.8677 8.08339 28.634 8.39786 29.4333 8.39859H56.3059C57.1052 8.39786 57.8715 8.08339 58.4366 7.5242C59.0018 6.96501 59.3196 6.20679 59.3203 5.41598V4.78908C59.3218 4.45066 59.4585 4.12656 59.7006 3.88752C59.9427 3.64848 60.2706 3.51391 60.6126 3.51318H68.971C70.4853 3.51392 71.9374 4.10946 73.0082 5.16895C74.079 6.22845 74.6809 7.66523 74.6816 9.16358L74.6761 133.715Z" fill="white"/>
<path d="M54.7722 139.366L16.9954 3.51889C16.3935 3.47292 14.8287 3.68439 13.3843 4.89805C11.9399 6.11171 11.4862 7.97816 11.4399 8.75969V133.849C11.4399 137.931 15.2361 139.228 17.1342 139.366H54.7722Z" fill="#FAFAFA"/>
<path d="M68.4136 -0.000238004H17.7107C15.1158 -0.000238004 12.6271 1.02916 10.7922 2.8615C8.95735 4.69384 7.92651 7.17903 7.92651 9.77034L7.92651 133.111C7.92724 135.702 8.95839 138.187 10.7932 140.018C12.628 141.85 15.1163 142.879 17.7107 142.879H68.4273C71.0213 142.878 73.5088 141.849 75.3431 140.017C77.1773 138.186 78.2081 135.702 78.2088 133.111V9.77034C78.2088 8.48633 77.9553 7.21491 77.463 6.02877C76.9706 4.84264 76.2489 3.76505 75.3392 2.85763C74.4295 1.9502 73.3496 1.23073 72.1612 0.740358C70.9729 0.249985 69.6994 -0.00167708 68.4136 -0.000238004ZM50.5367 4.53327C50.7563 4.53327 50.971 4.5983 51.1535 4.72013C51.3361 4.84195 51.4784 5.01512 51.5625 5.21771C51.6465 5.42031 51.6685 5.64324 51.6256 5.85831C51.5828 6.07339 51.4771 6.27094 51.3218 6.426C51.1665 6.58106 50.9687 6.68666 50.7533 6.72944C50.5379 6.77222 50.3147 6.75027 50.1118 6.66635C49.9089 6.58243 49.7355 6.44032 49.6135 6.25799C49.4915 6.07566 49.4264 5.86129 49.4264 5.64201C49.4246 5.4959 49.452 5.35089 49.5072 5.21555C49.5623 5.0802 49.644 4.95724 49.7475 4.85392C49.851 4.75059 49.9741 4.66899 50.1096 4.61392C50.2452 4.55885 50.3904 4.53143 50.5367 4.53327ZM39.2063 5.27243H46.6082C46.6678 5.26768 46.7277 5.27531 46.7842 5.29482C46.8407 5.31434 46.8926 5.34532 46.9365 5.38582C46.9804 5.42633 47.0155 5.47547 47.0394 5.53016C47.0634 5.58485 47.0758 5.6439 47.0758 5.7036C47.0758 5.7633 47.0634 5.82236 47.0394 5.87705C47.0155 5.93174 46.9804 5.98088 46.9365 6.02138C46.8926 6.06188 46.8407 6.09287 46.7842 6.11238C46.7277 6.1319 46.6678 6.13953 46.6082 6.13478H39.2063C39.1467 6.13953 39.0868 6.1319 39.0303 6.11238C38.9738 6.09287 38.922 6.06188 38.878 6.02138C38.8341 5.98088 38.7991 5.93174 38.7751 5.87705C38.7511 5.82236 38.7388 5.7633 38.7388 5.7036C38.7388 5.6439 38.7511 5.58485 38.7751 5.53016C38.7991 5.47547 38.8341 5.42633 38.878 5.38582C38.922 5.34532 38.9738 5.31434 39.0303 5.29482C39.0868 5.27531 39.1467 5.26768 39.2063 5.27243ZM74.1158 133.174C74.1158 134.659 73.5256 136.083 72.4749 137.133C71.4242 138.183 69.999 138.774 68.5123 138.775H17.6148C16.1272 138.775 14.7005 138.185 13.6486 137.135C12.5967 136.084 12.0058 134.66 12.0058 133.174V9.70738C12.0065 8.22208 12.5977 6.79782 13.6494 5.74755C14.7011 4.69728 16.1274 4.10693 17.6148 4.1062H24.2984C24.6346 4.10764 24.9566 4.24164 25.1943 4.47904C25.432 4.71643 25.5662 5.038 25.5677 5.37372V5.99242C25.5684 6.77635 25.8806 7.52796 26.4357 8.08228C26.9908 8.6366 27.7434 8.94833 28.5284 8.94906H57.2231C58.0081 8.94833 58.7607 8.6366 59.3158 8.08228C59.8709 7.52796 60.1831 6.77635 60.1838 5.99242V5.37098C60.1853 5.03551 60.3195 4.71423 60.5573 4.47728C60.7952 4.24032 61.1172 4.10692 61.4531 4.1062H68.5123C69.9997 4.10693 71.4259 4.69728 72.4777 5.74755C73.5294 6.79782 74.1206 8.22208 74.1213 9.70738L74.1158 133.174Z" fill="#E0E0E0"/>
<ellipse cx="46.8549" cy="134.965" rx="1.09657" ry="1.09505" fill="#F0F0F0"/>
<ellipse cx="43.017" cy="134.965" rx="1.09658" ry="1.09505" fill="#F0F0F0"/>
<ellipse cx="39.1786" cy="134.965" rx="1.09658" ry="1.09505" fill="#F0F0F0"/>
<rect x="30.6802" y="127.847" width="24.9471" height="1.91633" rx="0.958165" fill="#F0F0F0"/>
<rect y="45" width="86" height="53.1392" rx="3" fill="#EBEBEB"/>
<rect x="33.0557" y="91.1699" width="15.023" height="3.22274" rx="1.61137" fill="#EEEEEE" stroke="#C9C9C9"/>
<rect x="5.00977" y="91.1699" width="15.0231" height="3.22274" rx="1.61137" fill="#EEEEEE" stroke="#C9C9C9"/>
<rect x="4.37305" y="85.2764" width="72.3955" height="1.84837" rx="0.924184" fill="#CECECE"/>
<rect x="4.37305" y="81.041" width="72.3955" height="1.84813" rx="0.924065" fill="#CECECE"/>
<rect x="4.37305" y="76.8076" width="72.3955" height="1.84837" rx="0.924184" fill="#CECECE"/>
<rect x="4.37305" y="71.7139" width="57.7098" height="2.22286" rx="1.11143" fill="#CECECE"/>
<rect x="4.37305" y="67.2705" width="72.3464" height="2.22286" rx="1.11143" fill="#CECECE"/>
<rect x="4.37329" y="61.7129" width="25.7091" height="2.22262" rx="1.11131" fill="#B5B5B5"/>
<path d="M77.7402 54H77.4473L76.877 53.0645V54H76.584V52.5781H76.877L77.4482 53.5156V52.5781H77.7402V54ZM79.1641 53.3213C79.1641 53.4613 79.1393 53.584 79.0898 53.6895C79.0404 53.7949 78.9694 53.8763 78.877 53.9336C78.7852 53.9909 78.6797 54.0195 78.5605 54.0195C78.4427 54.0195 78.3376 53.9912 78.2451 53.9346C78.1527 53.8779 78.0811 53.7972 78.0303 53.6924C77.9795 53.5869 77.9538 53.4658 77.9531 53.3291V53.2588C77.9531 53.1188 77.9782 52.9958 78.0283 52.8896C78.0791 52.7829 78.1504 52.7012 78.2422 52.6445C78.3346 52.5872 78.4401 52.5586 78.5586 52.5586C78.6771 52.5586 78.7822 52.5872 78.874 52.6445C78.9665 52.7012 79.0378 52.7829 79.0879 52.8896C79.1387 52.9958 79.1641 53.1185 79.1641 53.2578V53.3213ZM78.8672 53.2568C78.8672 53.1077 78.8405 52.9945 78.7871 52.917C78.7337 52.8395 78.6576 52.8008 78.5586 52.8008C78.4603 52.8008 78.3844 52.8392 78.3311 52.916C78.2777 52.9922 78.2507 53.1042 78.25 53.252V53.3213C78.25 53.4665 78.2767 53.5791 78.3301 53.6592C78.3835 53.7393 78.4603 53.7793 78.5605 53.7793C78.6589 53.7793 78.7344 53.7409 78.7871 53.6641C78.8398 53.5866 78.8665 53.474 78.8672 53.3262V53.2568ZM80.4844 53.5898L80.6758 52.5781H80.9678L80.6523 54H80.3574L80.126 53.0488L79.8945 54H79.5996L79.2842 52.5781H79.5762L79.7686 53.5879L80.0029 52.5781H80.251L80.4844 53.5898Z" fill="#898989"/>
<path d="M16.1877 53.5361H15.4431L15.2759 54H15.0342L15.7129 52.2227H15.918L16.5979 54H16.3574L16.1877 53.5361ZM15.5139 53.3433H16.1182L15.8154 52.512L15.5139 53.3433ZM17.9175 53.3542C17.9175 53.5553 17.8715 53.7172 17.7795 53.8401C17.6876 53.963 17.5631 54.0244 17.406 54.0244C17.2457 54.0244 17.1195 53.9736 17.0276 53.8718V54.5078H16.8018V52.6792H17.0081L17.019 52.8257C17.111 52.7118 17.2388 52.6548 17.4023 52.6548C17.561 52.6548 17.6864 52.7146 17.7783 52.8342C17.8711 52.9539 17.9175 53.1203 17.9175 53.3335V53.3542ZM17.6917 53.3286C17.6917 53.1797 17.6599 53.0621 17.5964 52.9758C17.533 52.8896 17.4459 52.8464 17.3352 52.8464C17.1985 52.8464 17.0959 52.9071 17.0276 53.0283V53.6594C17.0951 53.7799 17.1985 53.8401 17.3376 53.8401C17.4459 53.8401 17.5317 53.7974 17.5952 53.7119C17.6595 53.6257 17.6917 53.4979 17.6917 53.3286ZM19.3213 53.3542C19.3213 53.5553 19.2753 53.7172 19.1833 53.8401C19.0914 53.963 18.9669 54.0244 18.8098 54.0244C18.6495 54.0244 18.5234 53.9736 18.4314 53.8718V54.5078H18.2056V52.6792H18.4119L18.4229 52.8257C18.5148 52.7118 18.6426 52.6548 18.8062 52.6548C18.9648 52.6548 19.0902 52.7146 19.1821 52.8342C19.2749 52.9539 19.3213 53.1203 19.3213 53.3335V53.3542ZM19.0955 53.3286C19.0955 53.1797 19.0637 53.0621 19.0002 52.9758C18.9368 52.8896 18.8497 52.8464 18.739 52.8464C18.6023 52.8464 18.4998 52.9071 18.4314 53.0283V53.6594C18.4989 53.7799 18.6023 53.8401 18.7415 53.8401C18.8497 53.8401 18.9355 53.7974 18.999 53.7119C19.0633 53.6257 19.0955 53.4979 19.0955 53.3286ZM21.6309 54H21.3953L20.5005 52.6304V54H20.2649V52.2227H20.5005L21.3977 53.5984V52.2227H21.6309V54ZM22.8271 54C22.8141 53.974 22.8035 53.9276 22.7954 53.8608C22.6904 53.9699 22.5651 54.0244 22.4194 54.0244C22.2892 54.0244 22.1822 53.9878 22.0984 53.9146C22.0154 53.8405 21.9739 53.7469 21.9739 53.6338C21.9739 53.4963 22.026 53.3896 22.1301 53.314C22.2351 53.2375 22.3824 53.1992 22.572 53.1992H22.7917V53.0955C22.7917 53.0165 22.7681 52.9539 22.7209 52.9075C22.6737 52.8603 22.6042 52.8367 22.5122 52.8367C22.4316 52.8367 22.3641 52.857 22.3096 52.8977C22.255 52.9384 22.2278 52.9876 22.2278 53.0454H22.0007C22.0007 52.9795 22.0239 52.916 22.0703 52.855C22.1175 52.7931 22.181 52.7443 22.2607 52.7085C22.3413 52.6727 22.4296 52.6548 22.5256 52.6548C22.6778 52.6548 22.797 52.693 22.8833 52.7695C22.9696 52.8452 23.0143 52.9498 23.0176 53.0833V53.6912C23.0176 53.8124 23.033 53.9089 23.064 53.9805V54H22.8271ZM22.4524 53.8279C22.5232 53.8279 22.5903 53.8096 22.6538 53.7729C22.7173 53.7363 22.7633 53.6887 22.7917 53.6301V53.3591H22.6147C22.3381 53.3591 22.1997 53.4401 22.1997 53.6021C22.1997 53.6729 22.2233 53.7282 22.2705 53.7681C22.3177 53.8079 22.3783 53.8279 22.4524 53.8279ZM23.584 52.6792L23.5901 52.8257C23.6869 52.7118 23.8175 52.6548 23.9819 52.6548C24.1667 52.6548 24.2924 52.7256 24.3591 52.8672C24.4031 52.8037 24.46 52.7524 24.53 52.7134C24.6008 52.6743 24.6842 52.6548 24.7803 52.6548C25.07 52.6548 25.2173 52.8082 25.2222 53.115V54H24.9963V53.1284C24.9963 53.034 24.9748 52.9636 24.9316 52.9172C24.8885 52.87 24.8161 52.8464 24.7144 52.8464C24.6305 52.8464 24.561 52.8717 24.5056 52.9221C24.4503 52.9718 24.4181 53.0389 24.4092 53.1235V54H24.1821V53.1345C24.1821 52.9425 24.0881 52.8464 23.9001 52.8464C23.752 52.8464 23.6507 52.9095 23.5962 53.0356V54H23.3704V52.6792H23.584ZM26.1121 54.0244C25.933 54.0244 25.7874 53.9658 25.675 53.8486C25.5627 53.7306 25.5066 53.5732 25.5066 53.3762V53.3347C25.5066 53.2037 25.5314 53.0869 25.5811 52.9844C25.6315 52.881 25.7015 52.8005 25.791 52.7427C25.8813 52.6841 25.979 52.6548 26.084 52.6548C26.2557 52.6548 26.3892 52.7113 26.4844 52.8245C26.5796 52.9376 26.6272 53.0995 26.6272 53.3103V53.4043H25.7324C25.7357 53.5345 25.7735 53.6399 25.8459 53.7205C25.9192 53.8002 26.012 53.8401 26.1243 53.8401C26.204 53.8401 26.2716 53.8238 26.3269 53.7913C26.3822 53.7587 26.4307 53.7156 26.4722 53.6619L26.6101 53.7693C26.4994 53.9394 26.3334 54.0244 26.1121 54.0244ZM26.084 52.8403C25.9928 52.8403 25.9163 52.8737 25.8545 52.9404C25.7926 53.0063 25.7544 53.0991 25.7397 53.2188H26.4014V53.2017C26.3949 53.0869 26.3639 52.9982 26.3086 52.9355C26.2533 52.8721 26.1784 52.8403 26.084 52.8403Z" fill="#898989"/>
<rect x="3.79443" y="49.6981" width="7.14603" height="6.79609" rx="1" fill="#1854D1"/>
<path d="M4.97791 53.0958H7.37241V55.3611L4.97791 53.0958Z" fill="white"/>
<path d="M7.3739 50.8312H9.76852V53.0965L7.3739 50.8312Z" fill="white"/>
<path d="M4.97791 50.8312H7.37241V53.0965L4.97791 50.8312Z" fill="white"/>
<path d="M7.3739 53.0958H9.76852V55.3611L7.3739 53.0958Z" fill="white"/>
</svg>
