<svg width="96" height="143" viewBox="0 0 96 143" fill="none" xmlns="http://www.w3.org/2000/svg">
<path d="M74.6758 133.715C74.6758 135.213 74.0749 136.649 73.0052 137.709C71.9354 138.768 70.4843 139.364 68.9707 139.366H17.1504C15.6358 139.366 14.1833 138.77 13.1123 137.711C12.0414 136.651 11.4397 135.214 11.4397 133.715V9.16358C11.4404 7.66523 12.0423 6.22845 13.1131 5.16895C14.1839 4.10946 15.636 3.51392 17.1504 3.51318H25.1263C25.4686 3.51464 25.7965 3.64982 26.0385 3.8893C26.2805 4.12878 26.4172 4.45317 26.4186 4.79184V5.41598C26.4194 6.20679 26.7372 6.96501 27.3023 7.5242C27.8675 8.08339 28.6338 8.39786 29.4331 8.39859H56.3057C57.1049 8.39786 57.8712 8.08339 58.4364 7.5242C59.0015 6.96501 59.3193 6.20679 59.3201 5.41598V4.78908C59.3216 4.45066 59.4583 4.12656 59.7004 3.88752C59.9425 3.64848 60.2704 3.51391 60.6124 3.51318H68.9707C70.4851 3.51392 71.9372 4.10946 73.008 5.16895C74.0788 6.22845 74.6807 7.66523 74.6814 9.16358L74.6758 133.715Z" fill="white"/>
<path d="M54.772 139.366L16.9951 3.51889C16.3933 3.47292 14.8285 3.68439 13.3841 4.89805C11.9397 6.11171 11.486 7.97816 11.4397 8.75969V133.849C11.4397 137.931 15.2359 139.228 17.134 139.366H54.772Z" fill="#FAFAFA"/>
<path d="M68.4134 -0.000238004H17.7105C15.1155 -0.000238004 12.6269 1.02916 10.792 2.8615C8.9571 4.69384 7.92627 7.17903 7.92627 9.77034L7.92627 133.111C7.927 135.702 8.95815 138.187 10.793 140.018C12.6278 141.85 15.116 142.879 17.7105 142.879H68.4271C71.0211 142.878 73.5086 141.849 75.3428 140.017C77.177 138.186 78.2078 135.702 78.2085 133.111V9.77034C78.2085 8.48633 77.9551 7.21491 77.4627 6.02877C76.9703 4.84264 76.2486 3.76505 75.3389 2.85763C74.4292 1.9502 73.3493 1.23073 72.161 0.740358C70.9727 0.249985 69.6992 -0.00167708 68.4134 -0.000238004ZM50.5364 4.53327C50.756 4.53327 50.9707 4.5983 51.1533 4.72013C51.3359 4.84195 51.4782 5.01512 51.5622 5.21771C51.6463 5.42031 51.6682 5.64324 51.6254 5.85831C51.5826 6.07339 51.4768 6.27094 51.3215 6.426C51.1663 6.58106 50.9684 6.68666 50.7531 6.72944C50.5377 6.77222 50.3144 6.75027 50.1116 6.66635C49.9087 6.58243 49.7353 6.44032 49.6133 6.25799C49.4913 6.07566 49.4262 5.86129 49.4262 5.64201C49.4243 5.4959 49.4518 5.35089 49.5069 5.21555C49.5621 5.0802 49.6438 4.95724 49.7473 4.85392C49.8507 4.75059 49.9739 4.66899 50.1094 4.61392C50.2449 4.55885 50.3901 4.53143 50.5364 4.53327ZM39.2061 5.27243H46.608C46.6676 5.26768 46.7275 5.27531 46.784 5.29482C46.8405 5.31434 46.8923 5.34532 46.9363 5.38582C46.9802 5.42633 47.0152 5.47547 47.0392 5.53016C47.0632 5.58485 47.0756 5.6439 47.0756 5.7036C47.0756 5.7633 47.0632 5.82236 47.0392 5.87705C47.0152 5.93174 46.9802 5.98088 46.9363 6.02138C46.8923 6.06188 46.8405 6.09287 46.784 6.11238C46.7275 6.1319 46.6676 6.13953 46.608 6.13478H39.2061C39.1465 6.13953 39.0866 6.1319 39.0301 6.11238C38.9736 6.09287 38.9217 6.06188 38.8778 6.02138C38.8339 5.98088 38.7988 5.93174 38.7749 5.87705C38.7509 5.82236 38.7385 5.7633 38.7385 5.7036C38.7385 5.6439 38.7509 5.58485 38.7749 5.53016C38.7988 5.47547 38.8339 5.42633 38.8778 5.38582C38.9217 5.34532 38.9736 5.31434 39.0301 5.29482C39.0866 5.27531 39.1465 5.26768 39.2061 5.27243ZM74.1156 133.174C74.1156 134.659 73.5254 136.083 72.4747 137.133C71.424 138.183 69.9987 138.774 68.5121 138.775H17.6145C16.1269 138.775 14.7003 138.185 13.6484 137.135C12.5965 136.084 12.0055 134.66 12.0055 133.174V9.70738C12.0063 8.22208 12.5974 6.79782 13.6492 5.74755C14.7009 4.69728 16.1271 4.10693 17.6145 4.1062H24.2981C24.6343 4.10764 24.9563 4.24164 25.1941 4.47904C25.4318 4.71643 25.566 5.038 25.5674 5.37372V5.99242C25.5682 6.77635 25.8803 7.52796 26.4354 8.08228C26.9905 8.6366 27.7432 8.94833 28.5282 8.94906H57.2228C58.0078 8.94833 58.7605 8.6366 59.3156 8.08228C59.8707 7.52796 60.1828 6.77635 60.1836 5.99242V5.37098C60.185 5.03551 60.3193 4.71423 60.5571 4.47728C60.7949 4.24032 61.1169 4.10692 61.4529 4.1062H68.5121C69.9994 4.10693 71.4257 4.69728 72.4774 5.74755C73.5291 6.79782 74.1203 8.22208 74.121 9.70738L74.1156 133.174Z" fill="#E0E0E0"/>
<ellipse cx="46.8544" cy="134.965" rx="1.09657" ry="1.09505" fill="#F0F0F0"/>
<ellipse cx="43.0167" cy="134.965" rx="1.09658" ry="1.09505" fill="#F0F0F0"/>
<ellipse cx="39.1786" cy="134.965" rx="1.09658" ry="1.09505" fill="#F0F0F0"/>
<rect x="30.6799" y="127.847" width="24.9471" height="1.91633" rx="0.958165" fill="#F0F0F0"/>
<rect y="59.7273" width="86.4935" height="57.2727" rx="3" fill="#EBEBEB"/>
<rect x="4.67529" y="77.2595" width="75.974" height="35.0649" fill="#CECECE"/>
<path d="M49.3177 89.3054C49.0793 89.0669 48.7928 88.9478 48.4579 88.9478H36.2825C35.9477 88.9478 35.6611 89.0669 35.4225 89.3054C35.1841 89.5438 35.0649 89.8304 35.0649 90.1652V99.4185C35.0649 99.7534 35.1841 100.04 35.4225 100.278C35.6611 100.517 35.9477 100.636 36.2825 100.636H48.458C48.7928 100.636 49.0794 100.517 49.3178 100.278C49.5562 100.04 49.6756 99.7534 49.6756 99.4185V90.1652C49.6756 89.8304 49.5562 89.5438 49.3177 89.3054ZM48.7013 99.4185C48.7013 99.4845 48.6773 99.5414 48.6292 99.5898C48.5809 99.6377 48.5238 99.6618 48.4579 99.6618H36.2825C36.2166 99.6618 36.1595 99.6377 36.1113 99.5898C36.0631 99.5414 36.039 99.4845 36.039 99.4185V90.1651C36.039 90.0992 36.063 90.0422 36.1113 89.9939C36.1595 89.9459 36.2166 89.9217 36.2825 89.9217H48.458C48.5239 89.9217 48.581 89.9459 48.6292 89.9939C48.6772 90.0422 48.7013 90.0992 48.7013 90.1651V99.4185Z" fill="white"/>
<path d="M38.4737 93.818C38.8796 93.818 39.2245 93.676 39.5086 93.3919C39.7927 93.1078 39.9347 92.7629 39.9347 92.3571C39.9347 91.9511 39.7926 91.6062 39.5086 91.3221C39.2245 91.0381 38.8795 90.896 38.4737 90.896C38.0678 90.896 37.7229 91.0381 37.4388 91.3221C37.1548 91.6062 37.0127 91.9511 37.0127 92.3571C37.0127 92.7629 37.1547 93.1079 37.4388 93.3919C37.7229 93.6759 38.0678 93.818 38.4737 93.818Z" fill="white"/>
<path d="M40.6653 96.0089L39.4477 94.7915L37.0127 97.2265V98.6876H47.7271V95.2785L44.5615 92.1128L40.6653 96.0089Z" fill="white"/>
<path d="M77.5344 68.74H77.2414L76.6711 67.8044V68.74H76.3782V67.3181H76.6711L77.2424 68.2556V67.3181H77.5344V68.74ZM78.9582 68.0613C78.9582 68.2013 78.9335 68.324 78.884 68.4294C78.8345 68.5349 78.7636 68.6163 78.6711 68.6736C78.5793 68.7309 78.4739 68.7595 78.3547 68.7595C78.2369 68.7595 78.1317 68.7312 78.0393 68.6746C77.9468 68.6179 77.8752 68.5372 77.8244 68.4324C77.7737 68.3269 77.7479 68.2058 77.7473 68.0691V67.9988C77.7473 67.8588 77.7724 67.7358 77.8225 67.6296C77.8733 67.5229 77.9446 67.4412 78.0364 67.3845C78.1288 67.3272 78.2343 67.2986 78.3528 67.2986C78.4713 67.2986 78.5764 67.3272 78.6682 67.3845C78.7606 67.4412 78.8319 67.5229 78.8821 67.6296C78.9328 67.7358 78.9582 67.8585 78.9582 67.9978V68.0613ZM78.6614 67.9968C78.6614 67.8477 78.6347 67.7345 78.5813 67.657C78.5279 67.5795 78.4517 67.5408 78.3528 67.5408C78.2545 67.5408 78.1786 67.5792 78.1252 67.656C78.0718 67.7322 78.0448 67.8442 78.0442 67.9919V68.0613C78.0442 68.2065 78.0709 68.3191 78.1242 68.3992C78.1776 68.4792 78.2545 68.5193 78.3547 68.5193C78.453 68.5193 78.5285 68.4809 78.5813 68.4041C78.634 68.3266 78.6607 68.2139 78.6614 68.0662V67.9968ZM80.2785 68.3298L80.4699 67.3181H80.7619L80.4465 68.74H80.1516L79.9201 67.7888L79.6887 68.74H79.3938L79.0783 67.3181H79.3703L79.5627 68.3279L79.7971 67.3181H80.0451L80.2785 68.3298Z" fill="#898989"/>
<path d="M15.8677 69.1073H15.123L14.9558 69.5712H14.7141L15.3928 67.7938H15.5979L16.2778 69.5712H16.0374L15.8677 69.1073ZM15.1938 68.9144H15.7981L15.4954 68.0831L15.1938 68.9144ZM17.5974 68.9254C17.5974 69.1264 17.5514 69.2884 17.4595 69.4113C17.3675 69.5341 17.243 69.5956 17.0859 69.5956C16.9256 69.5956 16.7995 69.5447 16.7075 69.443V70.079H16.4817V68.2504H16.688L16.699 68.3969C16.7909 68.2829 16.9187 68.226 17.0823 68.226C17.241 68.226 17.3663 68.2858 17.4583 68.4054C17.551 68.525 17.5974 68.6914 17.5974 68.9047V68.9254ZM17.3716 68.8998C17.3716 68.7509 17.3398 68.6333 17.2764 68.547C17.2129 68.4607 17.1258 68.4176 17.0151 68.4176C16.8784 68.4176 16.7759 68.4782 16.7075 68.5995V69.2306C16.7751 69.351 16.8784 69.4113 17.0176 69.4113C17.1258 69.4113 17.2117 69.3685 17.2751 69.2831C17.3394 69.1968 17.3716 69.0691 17.3716 68.8998ZM19.0012 68.9254C19.0012 69.1264 18.9552 69.2884 18.8633 69.4113C18.7713 69.5341 18.6468 69.5956 18.4897 69.5956C18.3294 69.5956 18.2033 69.5447 18.1113 69.443V70.079H17.8855V68.2504H18.0918L18.1028 68.3969C18.1947 68.2829 18.3225 68.226 18.4861 68.226C18.6448 68.226 18.7701 68.2858 18.8621 68.4054C18.9548 68.525 19.0012 68.6914 19.0012 68.9047V68.9254ZM18.7754 68.8998C18.7754 68.7509 18.7437 68.6333 18.6802 68.547C18.6167 68.4607 18.5296 68.4176 18.4189 68.4176C18.2822 68.4176 18.1797 68.4782 18.1113 68.5995V69.2306C18.1789 69.351 18.2822 69.4113 18.4214 69.4113C18.5296 69.4113 18.6155 69.3685 18.679 69.2831C18.7432 69.1968 18.7754 69.0691 18.7754 68.8998ZM21.3108 69.5712H21.0752L20.1804 68.2015V69.5712H19.9448V67.7938H20.1804L21.0776 69.1696V67.7938H21.3108V69.5712ZM22.5071 69.5712C22.4941 69.5451 22.4835 69.4987 22.4753 69.432C22.3704 69.5411 22.245 69.5956 22.0994 69.5956C21.9692 69.5956 21.8621 69.559 21.7783 69.4857C21.6953 69.4117 21.6538 69.3181 21.6538 69.205C21.6538 69.0674 21.7059 68.9608 21.8101 68.8851C21.915 68.8086 22.0623 68.7704 22.252 68.7704H22.4717V68.6666C22.4717 68.5877 22.4481 68.525 22.4009 68.4786C22.3537 68.4314 22.2841 68.4078 22.1921 68.4078C22.1116 68.4078 22.044 68.4282 21.9895 68.4689C21.935 68.5096 21.9077 68.5588 21.9077 68.6166H21.6807C21.6807 68.5507 21.7039 68.4872 21.7502 68.4261C21.7974 68.3643 21.8609 68.3155 21.9407 68.2797C22.0212 68.2439 22.1095 68.226 22.2056 68.226C22.3577 68.226 22.477 68.2642 22.5632 68.3407C22.6495 68.4164 22.6943 68.521 22.6975 68.6544V69.2623C22.6975 69.3836 22.713 69.48 22.7439 69.5516V69.5712H22.5071ZM22.1323 69.399C22.2031 69.399 22.2703 69.3807 22.3337 69.3441C22.3972 69.3075 22.4432 69.2599 22.4717 69.2013V68.9303H22.2947C22.018 68.9303 21.8796 69.0113 21.8796 69.1732C21.8796 69.244 21.9032 69.2994 21.9504 69.3392C21.9976 69.3791 22.0583 69.399 22.1323 69.399ZM23.2639 68.2504L23.27 68.3969C23.3669 68.2829 23.4975 68.226 23.6619 68.226C23.8466 68.226 23.9723 68.2968 24.0391 68.4384C24.083 68.3749 24.14 68.3236 24.21 68.2845C24.2808 68.2455 24.3642 68.226 24.4602 68.226C24.7499 68.226 24.8972 68.3794 24.9021 68.6862V69.5712H24.6763V68.6996C24.6763 68.6052 24.6547 68.5348 24.6116 68.4884C24.5684 68.4412 24.496 68.4176 24.3943 68.4176C24.3105 68.4176 24.2409 68.4428 24.1855 68.4933C24.1302 68.5429 24.0981 68.6101 24.0891 68.6947V69.5712H23.8621V68.7057C23.8621 68.5136 23.7681 68.4176 23.5801 68.4176C23.432 68.4176 23.3306 68.4807 23.2761 68.6068V69.5712H23.0503V68.2504H23.2639ZM25.792 69.5956C25.613 69.5956 25.4673 69.537 25.355 69.4198C25.2427 69.3018 25.1865 69.1443 25.1865 68.9474V68.9059C25.1865 68.7749 25.2113 68.6581 25.261 68.5555C25.3114 68.4522 25.3814 68.3716 25.4709 68.3138C25.5613 68.2552 25.6589 68.226 25.7639 68.226C25.9356 68.226 26.0691 68.2825 26.1643 68.3956C26.2595 68.5087 26.3071 68.6707 26.3071 68.8815V68.9755H25.4124C25.4156 69.1057 25.4535 69.2111 25.5259 69.2916C25.5991 69.3714 25.6919 69.4113 25.8042 69.4113C25.884 69.4113 25.9515 69.395 26.0068 69.3624C26.0622 69.3299 26.1106 69.2867 26.1521 69.233L26.29 69.3405C26.1794 69.5105 26.0133 69.5956 25.792 69.5956ZM25.7639 68.4115C25.6728 68.4115 25.5963 68.4449 25.5344 68.5116C25.4726 68.5775 25.4343 68.6703 25.4197 68.7899H26.0813V68.7728C26.0748 68.6581 26.0439 68.5694 25.9885 68.5067C25.9332 68.4432 25.8583 68.4115 25.7639 68.4115Z" fill="#898989"/>
<rect x="3.9585" y="64.7654" width="7.14744" height="7.14744" rx="1" fill="#1854D1"/>
<path d="M5.14282 68.3391H7.53789V70.7216L5.14282 68.3391Z" fill="white"/>
<path d="M7.5376 65.957H9.93267V68.3395L7.5376 65.957Z" fill="white"/>
<path d="M5.14282 65.957H7.53789V68.3395L5.14282 65.957Z" fill="white"/>
<path d="M7.5376 68.3391H9.93267V70.7216L7.5376 68.3391Z" fill="white"/>
<rect y="21" width="86" height="35" rx="3" fill="#EBEBEB"/>
<rect x="5" y="36" width="76" height="15" fill="#CECECE"/>
<path d="M47.7552 40.2448C47.5921 40.0816 47.396 40 47.1667 40H38.8333C38.6042 40 38.4081 40.0816 38.2448 40.2448C38.0816 40.408 38 40.6041 38 40.8333V47.1666C38 47.3959 38.0816 47.592 38.2448 47.7552C38.4081 47.9184 38.6042 48 38.8333 48H47.1668C47.396 48 47.5921 47.9184 47.7553 47.7552C47.9185 47.592 48.0002 47.3959 48.0002 47.1666V40.8333C48.0002 40.6041 47.9185 40.408 47.7552 40.2448ZM47.3333 47.1666C47.3333 47.2118 47.3169 47.2508 47.284 47.2839C47.2509 47.3167 47.2119 47.3332 47.1667 47.3332H38.8333C38.7882 47.3332 38.7492 47.3167 38.7162 47.2839C38.6832 47.2508 38.6667 47.2118 38.6667 47.1666V40.8332C38.6667 40.7881 38.6831 40.7491 38.7162 40.716C38.7492 40.6831 38.7882 40.6666 38.8333 40.6666H47.1668C47.2119 40.6666 47.251 40.6831 47.284 40.716C47.3168 40.7491 47.3333 40.7881 47.3333 40.8332V47.1666Z" fill="white"/>
<path d="M40.3334 43.3335C40.6113 43.3335 40.8474 43.2363 41.0418 43.0418C41.2362 42.8473 41.3335 42.6113 41.3335 42.3335C41.3335 42.0557 41.2362 41.8196 41.0418 41.6251C40.8474 41.4307 40.6112 41.3335 40.3334 41.3335C40.0557 41.3335 39.8196 41.4307 39.6251 41.6251C39.4307 41.8196 39.3335 42.0557 39.3335 42.3335C39.3335 42.6113 39.4307 42.8474 39.6251 43.0418C39.8196 43.2362 40.0557 43.3335 40.3334 43.3335Z" fill="white"/>
<path d="M41.8335 44.8329L41.0001 43.9997L39.3335 45.6663V46.6663H46.6669V44.333L44.5002 42.1663L41.8335 44.8329Z" fill="white"/>
<path d="M77.5344 30.0129H77.2414L76.6711 29.0774V30.0129H76.3782V28.5911H76.6711L77.2424 29.5286V28.5911H77.5344V30.0129ZM78.9582 29.3342C78.9582 29.4742 78.9335 29.5969 78.884 29.7024C78.8345 29.8079 78.7636 29.8892 78.6711 29.9465C78.5793 30.0038 78.4739 30.0325 78.3547 30.0325C78.2369 30.0325 78.1317 30.0042 78.0393 29.9475C77.9468 29.8909 77.8752 29.8101 77.8244 29.7053C77.7737 29.5999 77.7479 29.4788 77.7473 29.342V29.2717C77.7473 29.1318 77.7724 29.0087 77.8225 28.9026C77.8733 28.7958 77.9446 28.7141 78.0364 28.6575C78.1288 28.6002 78.2343 28.5715 78.3528 28.5715C78.4713 28.5715 78.5764 28.6002 78.6682 28.6575C78.7606 28.7141 78.8319 28.7958 78.8821 28.9026C78.9328 29.0087 78.9582 29.1314 78.9582 29.2708V29.3342ZM78.6614 29.2698C78.6614 29.1207 78.6347 29.0074 78.5813 28.9299C78.5279 28.8525 78.4517 28.8137 78.3528 28.8137C78.2545 28.8137 78.1786 28.8521 78.1252 28.929C78.0718 29.0051 78.0448 29.1171 78.0442 29.2649V29.3342C78.0442 29.4794 78.0709 29.592 78.1242 29.6721C78.1776 29.7522 78.2545 29.7922 78.3547 29.7922C78.453 29.7922 78.5285 29.7538 78.5813 29.677C78.634 29.5995 78.6607 29.4869 78.6614 29.3391V29.2698ZM80.2785 29.6028L80.4699 28.5911H80.7619L80.4465 30.0129H80.1516L79.9201 29.0618L79.6887 30.0129H79.3938L79.0783 28.5911H79.3703L79.5627 29.6008L79.7971 28.5911H80.0451L80.2785 29.6028Z" fill="#898989"/>
<path d="M15.8677 30.3802H15.123L14.9558 30.8441H14.7141L15.3928 29.0668H15.5979L16.2778 30.8441H16.0374L15.8677 30.3802ZM15.1938 30.1874H15.7981L15.4954 29.3561L15.1938 30.1874ZM17.5974 30.1984C17.5974 30.3994 17.5514 30.5613 17.4595 30.6842C17.3675 30.8071 17.243 30.8685 17.0859 30.8685C16.9256 30.8685 16.7995 30.8177 16.7075 30.7159V31.3519H16.4817V29.5233H16.688L16.699 29.6698C16.7909 29.5559 16.9187 29.4989 17.0823 29.4989C17.241 29.4989 17.3663 29.5587 17.4583 29.6783C17.551 29.798 17.5974 29.9644 17.5974 30.1776V30.1984ZM17.3716 30.1727C17.3716 30.0238 17.3398 29.9062 17.2764 29.8199C17.2129 29.7337 17.1258 29.6906 17.0151 29.6906C16.8784 29.6906 16.7759 29.7512 16.7075 29.8724V30.5035C16.7751 30.624 16.8784 30.6842 17.0176 30.6842C17.1258 30.6842 17.2117 30.6415 17.2751 30.556C17.3394 30.4698 17.3716 30.342 17.3716 30.1727ZM19.0012 30.1984C19.0012 30.3994 18.9552 30.5613 18.8633 30.6842C18.7713 30.8071 18.6468 30.8685 18.4897 30.8685C18.3294 30.8685 18.2033 30.8177 18.1113 30.7159V31.3519H17.8855V29.5233H18.0918L18.1028 29.6698C18.1947 29.5559 18.3225 29.4989 18.4861 29.4989C18.6448 29.4989 18.7701 29.5587 18.8621 29.6783C18.9548 29.798 19.0012 29.9644 19.0012 30.1776V30.1984ZM18.7754 30.1727C18.7754 30.0238 18.7437 29.9062 18.6802 29.8199C18.6167 29.7337 18.5296 29.6906 18.4189 29.6906C18.2822 29.6906 18.1797 29.7512 18.1113 29.8724V30.5035C18.1789 30.624 18.2822 30.6842 18.4214 30.6842C18.5296 30.6842 18.6155 30.6415 18.679 30.556C18.7432 30.4698 18.7754 30.342 18.7754 30.1727ZM21.3108 30.8441H21.0752L20.1804 29.4745V30.8441H19.9448V29.0668H20.1804L21.0776 30.4425V29.0668H21.3108V30.8441ZM22.5071 30.8441C22.4941 30.8181 22.4835 30.7717 22.4753 30.705C22.3704 30.814 22.245 30.8685 22.0994 30.8685C21.9692 30.8685 21.8621 30.8319 21.7783 30.7587C21.6953 30.6846 21.6538 30.591 21.6538 30.4779C21.6538 30.3404 21.7059 30.2338 21.8101 30.1581C21.915 30.0816 22.0623 30.0433 22.252 30.0433H22.4717V29.9396C22.4717 29.8606 22.4481 29.798 22.4009 29.7516C22.3537 29.7044 22.2841 29.6808 22.1921 29.6808C22.1116 29.6808 22.044 29.7011 21.9895 29.7418C21.935 29.7825 21.9077 29.8317 21.9077 29.8895H21.6807C21.6807 29.8236 21.7039 29.7601 21.7502 29.6991C21.7974 29.6372 21.8609 29.5884 21.9407 29.5526C22.0212 29.5168 22.1095 29.4989 22.2056 29.4989C22.3577 29.4989 22.477 29.5372 22.5632 29.6136C22.6495 29.6893 22.6943 29.7939 22.6975 29.9274V30.5353C22.6975 30.6565 22.713 30.753 22.7439 30.8246V30.8441H22.5071ZM22.1323 30.672C22.2031 30.672 22.2703 30.6537 22.3337 30.6171C22.3972 30.5804 22.4432 30.5328 22.4717 30.4742V30.2032H22.2947C22.018 30.2032 21.8796 30.2842 21.8796 30.4462C21.8796 30.517 21.9032 30.5723 21.9504 30.6122C21.9976 30.6521 22.0583 30.672 22.1323 30.672ZM23.2639 29.5233L23.27 29.6698C23.3669 29.5559 23.4975 29.4989 23.6619 29.4989C23.8466 29.4989 23.9723 29.5697 24.0391 29.7113C24.083 29.6478 24.14 29.5966 24.21 29.5575C24.2808 29.5184 24.3642 29.4989 24.4602 29.4989C24.7499 29.4989 24.8972 29.6523 24.9021 29.9591V30.8441H24.6763V29.9725C24.6763 29.8781 24.6547 29.8077 24.6116 29.7614C24.5684 29.7142 24.496 29.6906 24.3943 29.6906C24.3105 29.6906 24.2409 29.7158 24.1855 29.7662C24.1302 29.8159 24.0981 29.883 24.0891 29.9677V30.8441H23.8621V29.9786C23.8621 29.7866 23.7681 29.6906 23.5801 29.6906C23.432 29.6906 23.3306 29.7536 23.2761 29.8798V30.8441H23.0503V29.5233H23.2639ZM25.792 30.8685C25.613 30.8685 25.4673 30.8099 25.355 30.6927C25.2427 30.5747 25.1865 30.4173 25.1865 30.2203V30.1788C25.1865 30.0478 25.2113 29.931 25.261 29.8285C25.3114 29.7251 25.3814 29.6446 25.4709 29.5868C25.5613 29.5282 25.6589 29.4989 25.7639 29.4989C25.9356 29.4989 26.0691 29.5555 26.1643 29.6686C26.2595 29.7817 26.3071 29.9436 26.3071 30.1544V30.2484H25.4124C25.4156 30.3786 25.4535 30.484 25.5259 30.5646C25.5991 30.6443 25.6919 30.6842 25.8042 30.6842C25.884 30.6842 25.9515 30.6679 26.0068 30.6354C26.0622 30.6028 26.1106 30.5597 26.1521 30.506L26.29 30.6134C26.1794 30.7835 26.0133 30.8685 25.792 30.8685ZM25.7639 29.6844C25.6728 29.6844 25.5963 29.7178 25.5344 29.7845C25.4726 29.8505 25.4343 29.9432 25.4197 30.0629H26.0813V30.0458C26.0748 29.931 26.0439 29.8423 25.9885 29.7797C25.9332 29.7162 25.8583 29.6844 25.7639 29.6844Z" fill="#898989"/>
<rect x="3.9585" y="26.0394" width="7.14744" height="7.14744" rx="1" fill="#1854D1"/>
<path d="M5.14282 29.6136H7.53789V31.9961L5.14282 29.6136Z" fill="white"/>
<path d="M7.5376 27.2314H9.93267V29.6139L7.5376 27.2314Z" fill="white"/>
<path d="M5.14282 27.2314H7.53789V29.6139L5.14282 27.2314Z" fill="white"/>
<path d="M7.5376 29.6136H9.93267V31.9961L7.5376 29.6136Z" fill="white"/>
<line x1="90.25" y1="45.7013" x2="90.25" y2="84.2727" stroke="black" stroke-width="0.5" stroke-dasharray="1 1"/>
<rect x="90.3789" y="83.1039" width="7.14744" height="7.14744" rx="1" transform="rotate(45 90.3789 83.1039)" fill="#1854D1"/>
<path d="M91.6829 89.4415H89.5867V89.1493L90.6942 87.9188C90.8582 87.7328 90.971 87.5819 91.0325 87.4662C91.0955 87.349 91.127 87.2281 91.127 87.1036C91.127 86.9366 91.0765 86.7997 90.9754 86.6927C90.8743 86.5858 90.7396 86.5323 90.5711 86.5323C90.369 86.5323 90.2115 86.5902 90.0987 86.7059C89.9874 86.8202 89.9317 86.9799 89.9317 87.1849H89.5252C89.5252 86.8905 89.6197 86.6525 89.8087 86.4708C89.9991 86.2892 90.2532 86.1984 90.5711 86.1984C90.8685 86.1984 91.1036 86.2767 91.2764 86.4335C91.4493 86.5887 91.5357 86.796 91.5357 87.0553C91.5357 87.3702 91.335 87.7452 90.9337 88.1803L90.0767 89.1097H91.6829V89.4415Z" fill="white"/>
<rect x="90.3789" y="36.3506" width="7.14744" height="7.14744" rx="1" transform="rotate(45 90.3789 36.3506)" fill="#1854D1"/>
<path d="M90.9227 42.6884H90.514V39.9791L89.6944 40.2802V39.911L90.859 39.4738H90.9227V42.6884Z" fill="white"/>
</svg>
