<svg width="86" height="143" viewBox="0 0 86 143" fill="none" xmlns="http://www.w3.org/2000/svg">
<path d="M74.6761 133.715C74.6761 135.213 74.0752 136.649 73.0054 137.709C71.9357 138.768 70.4846 139.364 68.971 139.366H17.1506C15.6361 139.366 14.1835 138.77 13.1126 137.711C12.0416 136.651 11.4399 135.214 11.4399 133.715V9.16358C11.4407 7.66523 12.0426 6.22845 13.1134 5.16895C14.1842 4.10946 15.6363 3.51392 17.1506 3.51318H25.1266C25.4689 3.51464 25.7967 3.64982 26.0387 3.8893C26.2808 4.12878 26.4174 4.45317 26.4189 4.79184V5.41598C26.4196 6.20679 26.7374 6.96501 27.3026 7.5242C27.8677 8.08339 28.634 8.39786 29.4333 8.39859H56.3059C57.1052 8.39786 57.8715 8.08339 58.4366 7.5242C59.0018 6.96501 59.3196 6.20679 59.3203 5.41598V4.78908C59.3218 4.45066 59.4585 4.12656 59.7006 3.88752C59.9427 3.64848 60.2706 3.51391 60.6126 3.51318H68.971C70.4853 3.51392 71.9374 4.10946 73.0082 5.16895C74.079 6.22845 74.6809 7.66523 74.6816 9.16358L74.6761 133.715Z" fill="white"/>
<path d="M54.7722 139.366L16.9954 3.51889C16.3935 3.47292 14.8287 3.68439 13.3843 4.89805C11.9399 6.11171 11.4862 7.97816 11.4399 8.75969V133.849C11.4399 137.931 15.2361 139.228 17.1342 139.366H54.7722Z" fill="#FAFAFA"/>
<path d="M68.4136 -0.000238004H17.7107C15.1158 -0.000238004 12.6271 1.02916 10.7922 2.8615C8.95735 4.69384 7.92651 7.17903 7.92651 9.77034L7.92651 133.111C7.92724 135.702 8.95839 138.187 10.7932 140.018C12.628 141.85 15.1163 142.879 17.7107 142.879H68.4273C71.0213 142.878 73.5088 141.849 75.3431 140.017C77.1773 138.186 78.2081 135.702 78.2088 133.111V9.77034C78.2088 8.48633 77.9553 7.21491 77.463 6.02877C76.9706 4.84264 76.2489 3.76505 75.3392 2.85763C74.4295 1.9502 73.3496 1.23073 72.1612 0.740358C70.9729 0.249985 69.6994 -0.00167708 68.4136 -0.000238004ZM50.5367 4.53327C50.7563 4.53327 50.971 4.5983 51.1535 4.72013C51.3361 4.84195 51.4784 5.01512 51.5625 5.21771C51.6465 5.42031 51.6685 5.64324 51.6256 5.85831C51.5828 6.07339 51.4771 6.27094 51.3218 6.426C51.1665 6.58106 50.9687 6.68666 50.7533 6.72944C50.5379 6.77222 50.3147 6.75027 50.1118 6.66635C49.9089 6.58243 49.7355 6.44032 49.6135 6.25799C49.4915 6.07566 49.4264 5.86129 49.4264 5.64201C49.4246 5.4959 49.452 5.35089 49.5072 5.21555C49.5623 5.0802 49.644 4.95724 49.7475 4.85392C49.851 4.75059 49.9741 4.66899 50.1096 4.61392C50.2452 4.55885 50.3904 4.53143 50.5367 4.53327ZM39.2063 5.27243H46.6082C46.6678 5.26768 46.7277 5.27531 46.7842 5.29482C46.8407 5.31434 46.8926 5.34532 46.9365 5.38582C46.9804 5.42633 47.0155 5.47547 47.0394 5.53016C47.0634 5.58485 47.0758 5.6439 47.0758 5.7036C47.0758 5.7633 47.0634 5.82236 47.0394 5.87705C47.0155 5.93174 46.9804 5.98088 46.9365 6.02138C46.8926 6.06188 46.8407 6.09287 46.7842 6.11238C46.7277 6.1319 46.6678 6.13953 46.6082 6.13478H39.2063C39.1467 6.13953 39.0868 6.1319 39.0303 6.11238C38.9738 6.09287 38.922 6.06188 38.878 6.02138C38.8341 5.98088 38.7991 5.93174 38.7751 5.87705C38.7511 5.82236 38.7388 5.7633 38.7388 5.7036C38.7388 5.6439 38.7511 5.58485 38.7751 5.53016C38.7991 5.47547 38.8341 5.42633 38.878 5.38582C38.922 5.34532 38.9738 5.31434 39.0303 5.29482C39.0868 5.27531 39.1467 5.26768 39.2063 5.27243ZM74.1158 133.174C74.1158 134.659 73.5256 136.083 72.4749 137.133C71.4242 138.183 69.999 138.774 68.5123 138.775H17.6148C16.1272 138.775 14.7005 138.185 13.6486 137.135C12.5967 136.084 12.0058 134.66 12.0058 133.174V9.70738C12.0065 8.22208 12.5977 6.79782 13.6494 5.74755C14.7011 4.69728 16.1274 4.10693 17.6148 4.1062H24.2984C24.6346 4.10764 24.9566 4.24164 25.1943 4.47904C25.432 4.71643 25.5662 5.038 25.5677 5.37372V5.99242C25.5684 6.77635 25.8806 7.52796 26.4357 8.08228C26.9908 8.6366 27.7434 8.94833 28.5284 8.94906H57.2231C58.0081 8.94833 58.7607 8.6366 59.3158 8.08228C59.8709 7.52796 60.1831 6.77635 60.1838 5.99242V5.37098C60.1853 5.03551 60.3195 4.71423 60.5573 4.47728C60.7952 4.24032 61.1172 4.10692 61.4531 4.1062H68.5123C69.9997 4.10693 71.4259 4.69728 72.4777 5.74755C73.5294 6.79782 74.1206 8.22208 74.1213 9.70738L74.1158 133.174Z" fill="#E0E0E0"/>
<ellipse cx="46.8549" cy="134.965" rx="1.09657" ry="1.09505" fill="#F0F0F0"/>
<ellipse cx="43.017" cy="134.965" rx="1.09658" ry="1.09505" fill="#F0F0F0"/>
<ellipse cx="39.1789" cy="134.965" rx="1.09658" ry="1.09505" fill="#F0F0F0"/>
<rect x="30.6802" y="127.847" width="24.9471" height="1.91633" rx="0.958165" fill="#F0F0F0"/>
<rect y="39" width="86" height="66" rx="3" fill="#EBEBEB"/>
<rect x="26.5" y="95.5" width="33" height="5" rx="2.5" fill="#EEEEEE" stroke="#C9C9C9"/>
<rect x="4.25" y="53.25" width="76.5" height="39.5" rx="0.75" fill="#CECECE" stroke="#CECECE" stroke-width="0.5"/>
<circle cx="42" cy="73" r="10" fill="white"/>
<path d="M38.7998 78.2002V68.2002L47.5998 73.2002L38.7998 78.2002Z" fill="#CECECE"/>
<g clip-path="url(#clip0)">
<path d="M79.2252 47.5027L78.057 46.3345C77.981 46.2585 77.981 46.1357 78.057 46.0597C78.133 45.9837 78.2559 45.9837 78.3318 46.0597L79.5 47.2278L80.6682 46.0597C80.7442 45.9837 80.867 45.9837 80.943 46.0597C81.019 46.1357 81.019 46.2585 80.943 46.3345L79.7748 47.5027L80.943 48.6709C81.019 48.7468 81.019 48.8697 80.943 48.9457C80.9051 48.9836 80.8553 49.0026 80.8056 49.0026C80.7558 49.0026 80.7061 48.9836 80.6682 48.9457L79.5 47.7775L78.3318 48.9457C78.2939 48.9836 78.2442 49.0026 78.1944 49.0026C78.1447 49.0026 78.0949 48.9836 78.057 48.9457C77.981 48.8697 77.981 48.7468 78.057 48.6709L79.2252 47.5027Z" fill="#898989"/>
</g>
<defs>
<clipPath id="clip0">
<rect width="3" height="3" fill="white" transform="matrix(-1 0 0 1 81 46)"/>
</clipPath>
</defs>
</svg>
