<svg width="86" height="143" viewBox="0 0 86 143" fill="none" xmlns="http://www.w3.org/2000/svg">
<path d="M74.6761 133.715C74.6761 135.213 74.0752 136.649 73.0054 137.709C71.9357 138.768 70.4846 139.364 68.971 139.366H17.1506C15.6361 139.366 14.1835 138.77 13.1126 137.711C12.0416 136.651 11.4399 135.214 11.4399 133.715V9.16358C11.4407 7.66523 12.0426 6.22845 13.1134 5.16895C14.1842 4.10946 15.6363 3.51392 17.1506 3.51318H25.1266C25.4689 3.51464 25.7967 3.64982 26.0387 3.8893C26.2808 4.12878 26.4174 4.45317 26.4189 4.79184V5.41598C26.4196 6.20679 26.7374 6.96501 27.3026 7.5242C27.8677 8.08339 28.634 8.39786 29.4333 8.39859H56.3059C57.1052 8.39786 57.8715 8.08339 58.4366 7.5242C59.0018 6.96501 59.3196 6.20679 59.3203 5.41598V4.78908C59.3218 4.45066 59.4585 4.12656 59.7006 3.88752C59.9427 3.64848 60.2706 3.51391 60.6126 3.51318H68.971C70.4853 3.51392 71.9374 4.10946 73.0082 5.16895C74.079 6.22845 74.6809 7.66523 74.6816 9.16358L74.6761 133.715Z" fill="white"/>
<path d="M54.7722 139.366L16.9954 3.51889C16.3935 3.47292 14.8287 3.68439 13.3843 4.89805C11.9399 6.11171 11.4862 7.97816 11.4399 8.75969V133.849C11.4399 137.931 15.2361 139.228 17.1342 139.366H54.7722Z" fill="#FAFAFA"/>
<path d="M68.4136 -0.000238004H17.7107C15.1158 -0.000238004 12.6271 1.02916 10.7922 2.8615C8.95735 4.69384 7.92651 7.17903 7.92651 9.77034L7.92651 133.111C7.92724 135.702 8.95839 138.187 10.7932 140.018C12.628 141.85 15.1163 142.879 17.7107 142.879H68.4273C71.0213 142.878 73.5088 141.849 75.3431 140.017C77.1773 138.186 78.2081 135.702 78.2088 133.111V9.77034C78.2088 8.48633 77.9553 7.21491 77.463 6.02877C76.9706 4.84264 76.2489 3.76505 75.3392 2.85763C74.4295 1.9502 73.3496 1.23073 72.1612 0.740358C70.9729 0.249985 69.6994 -0.00167708 68.4136 -0.000238004ZM50.5367 4.53327C50.7563 4.53327 50.971 4.5983 51.1535 4.72013C51.3361 4.84195 51.4784 5.01512 51.5625 5.21771C51.6465 5.42031 51.6685 5.64324 51.6256 5.85831C51.5828 6.07339 51.4771 6.27094 51.3218 6.426C51.1665 6.58106 50.9687 6.68666 50.7533 6.72944C50.5379 6.77222 50.3147 6.75027 50.1118 6.66635C49.9089 6.58243 49.7355 6.44032 49.6135 6.25799C49.4915 6.07566 49.4264 5.86129 49.4264 5.64201C49.4246 5.4959 49.452 5.35089 49.5072 5.21555C49.5623 5.0802 49.644 4.95724 49.7475 4.85392C49.851 4.75059 49.9741 4.66899 50.1096 4.61392C50.2452 4.55885 50.3904 4.53143 50.5367 4.53327ZM39.2063 5.27243H46.6082C46.6678 5.26768 46.7277 5.27531 46.7842 5.29482C46.8407 5.31434 46.8926 5.34532 46.9365 5.38582C46.9804 5.42633 47.0155 5.47547 47.0394 5.53016C47.0634 5.58485 47.0758 5.6439 47.0758 5.7036C47.0758 5.7633 47.0634 5.82236 47.0394 5.87705C47.0155 5.93174 46.9804 5.98088 46.9365 6.02138C46.8926 6.06188 46.8407 6.09287 46.7842 6.11238C46.7277 6.1319 46.6678 6.13953 46.6082 6.13478H39.2063C39.1467 6.13953 39.0868 6.1319 39.0303 6.11238C38.9738 6.09287 38.922 6.06188 38.878 6.02138C38.8341 5.98088 38.7991 5.93174 38.7751 5.87705C38.7511 5.82236 38.7388 5.7633 38.7388 5.7036C38.7388 5.6439 38.7511 5.58485 38.7751 5.53016C38.7991 5.47547 38.8341 5.42633 38.878 5.38582C38.922 5.34532 38.9738 5.31434 39.0303 5.29482C39.0868 5.27531 39.1467 5.26768 39.2063 5.27243ZM74.1158 133.174C74.1158 134.659 73.5256 136.083 72.4749 137.133C71.4242 138.183 69.999 138.774 68.5123 138.775H17.6148C16.1272 138.775 14.7005 138.185 13.6486 137.135C12.5967 136.084 12.0058 134.66 12.0058 133.174V9.70738C12.0065 8.22208 12.5977 6.79782 13.6494 5.74755C14.7011 4.69728 16.1274 4.10693 17.6148 4.1062H24.2984C24.6346 4.10764 24.9566 4.24164 25.1943 4.47904C25.432 4.71643 25.5662 5.038 25.5677 5.37372V5.99242C25.5684 6.77635 25.8806 7.52796 26.4357 8.08228C26.9908 8.6366 27.7434 8.94833 28.5284 8.94906H57.2231C58.0081 8.94833 58.7607 8.6366 59.3158 8.08228C59.8709 7.52796 60.1831 6.77635 60.1838 5.99242V5.37098C60.1853 5.03551 60.3195 4.71423 60.5573 4.47728C60.7952 4.24032 61.1172 4.10692 61.4531 4.1062H68.5123C69.9997 4.10693 71.4259 4.69728 72.4777 5.74755C73.5294 6.79782 74.1206 8.22208 74.1213 9.70738L74.1158 133.174Z" fill="#E0E0E0"/>
<ellipse cx="46.8549" cy="134.965" rx="1.09657" ry="1.09505" fill="#F0F0F0"/>
<ellipse cx="43.017" cy="134.965" rx="1.09658" ry="1.09505" fill="#F0F0F0"/>
<ellipse cx="39.1789" cy="134.965" rx="1.09658" ry="1.09505" fill="#F0F0F0"/>
<rect x="30.6802" y="127.847" width="24.9471" height="1.91633" rx="0.958165" fill="#F0F0F0"/>
<rect y="39" width="86" height="66" rx="3" fill="#EBEBEB"/>
<rect x="32.0378" y="97.0684" width="15.0565" height="3.34274" rx="1.67137" fill="#EEEEEE" stroke="#CECECE"/>
<rect x="3.92505" y="97.0684" width="15.0565" height="3.34274" rx="1.67137" fill="#EEEEEE" stroke="#CECECE"/>
<rect x="4.41333" y="67.1074" width="76.1243" height="25.7651" fill="#CECECE"/>
<path d="M49.144 74.4926C48.9051 74.2537 48.6181 74.1343 48.2824 74.1343H36.083C35.7475 74.1343 35.4604 74.2537 35.2213 74.4926C34.9824 74.7315 34.863 75.0186 34.863 75.3541V84.6257C34.863 84.9613 34.9824 85.2484 35.2213 85.4873C35.4604 85.7262 35.7475 85.8457 36.083 85.8457H48.2826C48.6181 85.8457 48.9052 85.7262 49.1441 85.4873C49.383 85.2485 49.5026 84.9613 49.5026 84.6257V75.3541C49.5026 75.0186 49.383 74.7315 49.144 74.4926ZM48.5264 84.6257C48.5264 84.6919 48.5024 84.7489 48.4541 84.7973C48.4057 84.8454 48.3485 84.8695 48.2824 84.8695H36.083C36.0169 84.8695 35.9597 84.8454 35.9115 84.7973C35.8632 84.7489 35.839 84.6919 35.839 84.6257V75.354C35.839 75.288 35.8631 75.2309 35.9115 75.1825C35.9598 75.1344 36.017 75.1102 36.083 75.1102H48.2826C48.3486 75.1102 48.4058 75.1344 48.4541 75.1825C48.5022 75.2309 48.5264 75.288 48.5264 75.354V84.6257Z" fill="white"/>
<path d="M38.2788 79.014C38.6855 79.014 39.0311 78.8717 39.3158 78.587C39.6004 78.3023 39.7428 77.9567 39.7428 77.5501C39.7428 77.1434 39.6003 76.7978 39.3158 76.5131C39.0311 76.2285 38.6855 76.0862 38.2788 76.0862C37.8721 76.0862 37.5265 76.2285 37.2419 76.5131C36.9573 76.7978 36.8149 77.1434 36.8149 77.5501C36.8149 77.9567 36.9572 78.3024 37.2419 78.587C37.5265 78.8716 37.8721 79.014 38.2788 79.014Z" fill="white"/>
<path d="M40.4743 81.2098L39.2543 79.99L36.8145 82.4298V83.8938H47.55V80.478L44.3782 77.306L40.4743 81.2098Z" fill="white"/>
<rect x="4.41333" y="62.4229" width="58.5571" height="2.34229" rx="1.17114" fill="#CECECE"/>
<rect x="4.41333" y="56.5671" width="25.7651" height="2.34229" rx="1.17114" fill="#B5B5B5"/>
<rect x="68.8262" y="53.0537" width="11.7114" height="11.7114" rx="1" fill="#CECECE"/>
<path d="M78.3089 55.5752C78.1895 55.4557 78.046 55.396 77.8782 55.396H71.7784C71.6107 55.396 71.4671 55.4557 71.3476 55.5752C71.2282 55.6946 71.1685 55.8382 71.1685 56.0059V60.6417C71.1685 60.8095 71.2282 60.9531 71.3476 61.0725C71.4671 61.192 71.6107 61.2517 71.7784 61.2517H77.8783C78.046 61.2517 78.1895 61.192 78.309 61.0725C78.4284 60.9531 78.4882 60.8095 78.4882 60.6417V56.0059C78.4882 55.8382 78.4284 55.6946 78.3089 55.5752ZM78.0001 60.6417C78.0001 60.6748 77.9881 60.7033 77.964 60.7275C77.9398 60.7516 77.9112 60.7636 77.8782 60.7636H71.7784C71.7454 60.7636 71.7168 60.7516 71.6927 60.7275C71.6685 60.7033 71.6565 60.6748 71.6565 60.6417V56.0059C71.6565 55.9728 71.6685 55.9443 71.6927 55.9201C71.7168 55.896 71.7454 55.884 71.7784 55.884H77.8783C77.9112 55.884 77.9398 55.896 77.964 55.9201C77.988 55.9443 78.0001 55.9728 78.0001 56.0059V60.6417Z" fill="white"/>
<path d="M72.876 57.8358C73.0793 57.8358 73.2521 57.7647 73.3945 57.6224C73.5368 57.48 73.608 57.3072 73.608 57.1039C73.608 56.9006 73.5367 56.7278 73.3945 56.5854C73.2521 56.4431 73.0793 56.3719 72.876 56.3719C72.6726 56.3719 72.4998 56.4431 72.3575 56.5854C72.2152 56.7278 72.144 56.9006 72.144 57.1039C72.144 57.3072 72.2152 57.4801 72.3575 57.6224C72.4998 57.7647 72.6726 57.8358 72.876 57.8358Z" fill="white"/>
<path d="M73.974 58.9338L73.364 58.3239L72.144 59.5438V60.2758H77.5118V58.5679L75.9259 56.9819L73.974 58.9338Z" fill="white"/>
<path d="M77.4228 48.0269H77.1298L76.5595 47.0913V48.0269H76.2666V46.605H76.5595L77.1308 47.5425V46.605H77.4228V48.0269ZM78.8466 47.3481C78.8466 47.4881 78.8219 47.6108 78.7724 47.7163C78.7229 47.8218 78.652 47.9032 78.5595 47.9604C78.4677 48.0177 78.3623 48.0464 78.2431 48.0464C78.1253 48.0464 78.0201 48.0181 77.9277 47.9614C77.8352 47.9048 77.7636 47.8241 77.7128 47.7192C77.6621 47.6138 77.6363 47.4927 77.6357 47.356V47.2856C77.6357 47.1457 77.6608 47.0226 77.7109 46.9165C77.7617 46.8097 77.833 46.728 77.9248 46.6714C78.0172 46.6141 78.1227 46.5854 78.2412 46.5854C78.3597 46.5854 78.4648 46.6141 78.5566 46.6714C78.649 46.728 78.7203 46.8097 78.7705 46.9165C78.8212 47.0226 78.8466 47.1453 78.8466 47.2847V47.3481ZM78.5498 47.2837C78.5498 47.1346 78.5231 47.0213 78.4697 46.9438C78.4163 46.8664 78.3401 46.8276 78.2412 46.8276C78.1429 46.8276 78.067 46.866 78.0136 46.9429C77.9602 47.019 77.9332 47.131 77.9326 47.2788V47.3481C77.9326 47.4933 77.9593 47.606 78.0126 47.686C78.066 47.7661 78.1429 47.8062 78.2431 47.8062C78.3414 47.8062 78.4169 47.7677 78.4697 47.6909C78.5224 47.6134 78.5491 47.5008 78.5498 47.353V47.2837ZM80.1669 47.6167L80.3584 46.605H80.6503L80.3349 48.0269H80.04L79.8085 47.0757L79.5771 48.0269H79.2822L78.9668 46.605H79.2587L79.4511 47.6147L79.6855 46.605H79.9335L80.1669 47.6167Z" fill="#898989"/>
<path d="M15.6255 48.3918H14.8809L14.7136 48.8557H14.4719L15.1506 47.0784H15.3557L16.0356 48.8557H15.7952L15.6255 48.3918ZM14.9517 48.199H15.5559L15.2532 47.3677L14.9517 48.199ZM17.3552 48.21C17.3552 48.411 17.3092 48.5729 17.2173 48.6958C17.1253 48.8187 17.0008 48.8801 16.8438 48.8801C16.6834 48.8801 16.5573 48.8293 16.4653 48.7275V49.3635H16.2395V47.5349H16.4458L16.4568 47.6814C16.5487 47.5675 16.6765 47.5105 16.8401 47.5105C16.9988 47.5105 17.1241 47.5703 17.2161 47.6899C17.3088 47.8096 17.3552 47.976 17.3552 48.1892V48.21ZM17.1294 48.1843C17.1294 48.0354 17.0977 47.9178 17.0342 47.8315C16.9707 47.7453 16.8836 47.7021 16.7729 47.7021C16.6362 47.7021 16.5337 47.7628 16.4653 47.884V48.5151C16.5329 48.6356 16.6362 48.6958 16.7754 48.6958C16.8836 48.6958 16.9695 48.6531 17.033 48.5676C17.0972 48.4814 17.1294 48.3536 17.1294 48.1843ZM18.759 48.21C18.759 48.411 18.7131 48.5729 18.6211 48.6958C18.5291 48.8187 18.4046 48.8801 18.2476 48.8801C18.0872 48.8801 17.9611 48.8293 17.8691 48.7275V49.3635H17.6433V47.5349H17.8496L17.8606 47.6814C17.9526 47.5675 18.0803 47.5105 18.2439 47.5105C18.4026 47.5105 18.5279 47.5703 18.6199 47.6899C18.7126 47.8096 18.759 47.976 18.759 48.1892V48.21ZM18.5332 48.1843C18.5332 48.0354 18.5015 47.9178 18.438 47.8315C18.3745 47.7453 18.2874 47.7021 18.1768 47.7021C18.04 47.7021 17.9375 47.7628 17.8691 47.884V48.5151C17.9367 48.6356 18.04 48.6958 18.1792 48.6958C18.2874 48.6958 18.3733 48.6531 18.4368 48.5676C18.5011 48.4814 18.5332 48.3536 18.5332 48.1843ZM21.0686 48.8557H20.833L19.9382 47.4861V48.8557H19.7026V47.0784H19.9382L20.8354 48.4541V47.0784H21.0686V48.8557ZM22.2649 48.8557C22.2519 48.8297 22.2413 48.7833 22.2332 48.7166C22.1282 48.8256 22.0028 48.8801 21.8572 48.8801C21.727 48.8801 21.62 48.8435 21.5361 48.7703C21.4531 48.6962 21.4116 48.6026 21.4116 48.4895C21.4116 48.352 21.4637 48.2454 21.5679 48.1697C21.6729 48.0932 21.8201 48.0549 22.0098 48.0549H22.2295V47.9512C22.2295 47.8722 22.2059 47.8096 22.1587 47.7632C22.1115 47.716 22.0419 47.6924 21.95 47.6924C21.8694 47.6924 21.8018 47.7127 21.7473 47.7534C21.6928 47.7941 21.6655 47.8433 21.6655 47.9011H21.4385C21.4385 47.8352 21.4617 47.7717 21.5081 47.7107C21.5553 47.6488 21.6187 47.6 21.6985 47.5642C21.7791 47.5284 21.8674 47.5105 21.9634 47.5105C22.1156 47.5105 22.2348 47.5487 22.321 47.6252C22.4073 47.7009 22.4521 47.8055 22.4553 47.939V48.5469C22.4553 48.6681 22.4708 48.7646 22.5017 48.8362V48.8557H22.2649ZM21.8901 48.6836C21.9609 48.6836 22.0281 48.6653 22.0916 48.6287C22.155 48.592 22.201 48.5444 22.2295 48.4858V48.2148H22.0525C21.7758 48.2148 21.6375 48.2958 21.6375 48.4578C21.6375 48.5286 21.6611 48.5839 21.7083 48.6238C21.7555 48.6637 21.8161 48.6836 21.8901 48.6836ZM23.0217 47.5349L23.0278 47.6814C23.1247 47.5675 23.2553 47.5105 23.4197 47.5105C23.6044 47.5105 23.7301 47.5813 23.7969 47.7229C23.8408 47.6594 23.8978 47.6082 23.9678 47.5691C24.0386 47.53 24.122 47.5105 24.218 47.5105C24.5077 47.5105 24.655 47.6639 24.6599 47.9707V48.8557H24.4341V47.9841C24.4341 47.8897 24.4125 47.8193 24.3694 47.7729C24.3263 47.7257 24.2538 47.7021 24.1521 47.7021C24.0683 47.7021 23.9987 47.7274 23.9434 47.7778C23.888 47.8275 23.8559 47.8946 23.8469 47.9792V48.8557H23.6199V47.9902C23.6199 47.7982 23.5259 47.7021 23.3379 47.7021C23.1898 47.7021 23.0885 47.7652 23.0339 47.8914V48.8557H22.8081V47.5349H23.0217ZM25.5498 48.8801C25.3708 48.8801 25.2251 48.8215 25.1128 48.7043C25.0005 48.5863 24.9443 48.4289 24.9443 48.2319V48.1904C24.9443 48.0594 24.9692 47.9426 25.0188 47.8401C25.0693 47.7367 25.1392 47.6562 25.2288 47.5984C25.3191 47.5398 25.4167 47.5105 25.5217 47.5105C25.6934 47.5105 25.8269 47.5671 25.9221 47.6802C26.0173 47.7933 26.0649 47.9552 26.0649 48.166V48.26H25.1702C25.1734 48.3902 25.2113 48.4956 25.2837 48.5762C25.3569 48.6559 25.4497 48.6958 25.562 48.6958C25.6418 48.6958 25.7093 48.6795 25.7646 48.647C25.82 48.6144 25.8684 48.5713 25.9099 48.5176L26.0479 48.625C25.9372 48.7951 25.7712 48.8801 25.5498 48.8801ZM25.5217 47.696C25.4306 47.696 25.3541 47.7294 25.2922 47.7961C25.2304 47.8621 25.1921 47.9548 25.1775 48.0745H25.8391V48.0574C25.8326 47.9426 25.8017 47.8539 25.7463 47.7913C25.691 47.7278 25.6161 47.696 25.5217 47.696Z" fill="#898989"/>
<rect x="3.69556" y="44.0488" width="7.16157" height="7.16157" rx="1" fill="#1854D1"/>
<path d="M4.88257 47.6296H7.28237V50.0168L4.88257 47.6296Z" fill="white"/>
<path d="M7.28271 45.2424H9.68252V47.6296L7.28271 45.2424Z" fill="white"/>
<path d="M4.88257 45.2424H7.28237V47.6296L4.88257 45.2424Z" fill="white"/>
<path d="M7.28271 47.6296H9.68252V50.0168L7.28271 47.6296Z" fill="white"/>
</svg>
