<svg width="88" height="144" viewBox="0 0 88 144" fill="none" xmlns="http://www.w3.org/2000/svg">
<path d="M75.7039 134C75.7039 135.498 75.1029 136.934 74.0329 137.994C72.9629 139.054 71.5115 139.65 69.9976 139.651H18.1665C16.6516 139.651 15.1987 139.056 14.1276 137.996C13.0564 136.936 12.4546 135.499 12.4546 134V9.42208C12.4553 7.92341 13.0574 6.48634 14.1284 5.42662C15.1994 4.36691 16.6518 3.77124 18.1665 3.77051H26.1441C26.4864 3.77196 26.8143 3.90717 27.0564 4.1467C27.2985 4.38623 27.4352 4.71069 27.4366 5.04943V5.6737C27.4374 6.46468 27.7553 7.22305 28.3205 7.78236C28.8858 8.34167 29.6523 8.6562 30.4517 8.65694H57.3299C58.1293 8.6562 58.8958 8.34167 59.4611 7.78236C60.0263 7.22305 60.3442 6.46468 60.345 5.6737V5.04667C60.3464 4.70818 60.4832 4.38401 60.7253 4.14492C60.9675 3.90583 61.2954 3.77123 61.6375 3.77051H69.9976C71.5123 3.77124 72.9647 4.36691 74.0357 5.42662C75.1067 6.48634 75.7087 7.92341 75.7095 9.42208L75.7039 134Z" fill="white"/>
<path d="M55.7959 139.651L18.0112 3.77622C17.4092 3.73024 15.8441 3.94175 14.3994 5.15566C12.9547 6.36957 12.5009 8.23642 12.4546 9.0181V134.134C12.4546 138.217 16.2516 139.513 18.1501 139.651H55.7959Z" fill="#FAFAFA"/>
<path d="M69.4401 0.256354H18.7267C16.1312 0.256354 13.642 1.28597 11.8068 3.11869C9.97148 4.95141 8.94043 7.43711 8.94043 10.029L8.94043 133.396C8.94116 135.987 9.97252 138.472 11.8077 140.304C13.6429 142.136 16.1317 143.166 18.7267 143.166H69.4538C72.0484 143.165 74.5364 142.135 76.371 140.303C78.2056 138.471 79.2366 135.987 79.2373 133.396V10.029C79.2373 8.74469 78.9839 7.47301 78.4914 6.28662C77.9989 5.10024 77.277 4.02243 76.3671 3.11481C75.4572 2.2072 74.3771 1.48758 73.1885 0.997104C72 0.506629 70.7262 0.254914 69.4401 0.256354ZM51.5595 4.79081C51.7791 4.79081 51.9938 4.85585 52.1765 4.9777C52.3591 5.09956 52.5014 5.27275 52.5855 5.47539C52.6695 5.67803 52.6915 5.90101 52.6487 6.11612C52.6058 6.33124 52.5 6.52884 52.3447 6.68393C52.1894 6.83903 51.9916 6.94465 51.7761 6.98744C51.5607 7.03023 51.3374 7.00826 51.1345 6.92433C50.9316 6.84039 50.7582 6.69825 50.6361 6.51589C50.5141 6.33352 50.449 6.11911 50.449 5.89978C50.4471 5.75363 50.4746 5.6086 50.5298 5.47323C50.5849 5.33785 50.6666 5.21486 50.7701 5.11152C50.8736 5.00817 50.9968 4.92656 51.1323 4.87148C51.2679 4.8164 51.4131 4.78897 51.5595 4.79081ZM40.2268 5.53012H47.6302C47.6898 5.52537 47.7497 5.533 47.8063 5.55252C47.8628 5.57204 47.9146 5.60303 47.9585 5.64354C48.0025 5.68405 48.0375 5.7332 48.0615 5.7879C48.0855 5.84261 48.0979 5.90167 48.0979 5.96138C48.0979 6.0211 48.0855 6.08016 48.0615 6.13487C48.0375 6.18957 48.0025 6.23872 47.9585 6.27923C47.9146 6.31974 47.8628 6.35073 47.8063 6.37025C47.7497 6.38977 47.6898 6.3974 47.6302 6.39265H40.2268C40.1672 6.3974 40.1072 6.38977 40.0507 6.37025C39.9942 6.35073 39.9423 6.31974 39.8984 6.27923C39.8545 6.23872 39.8194 6.18957 39.7954 6.13487C39.7715 6.08016 39.7591 6.0211 39.7591 5.96138C39.7591 5.90167 39.7715 5.84261 39.7954 5.7879C39.8194 5.7332 39.8545 5.68405 39.8984 5.64354C39.9423 5.60303 39.9942 5.57204 40.0507 5.55252C40.1072 5.533 40.1672 5.52537 40.2268 5.53012ZM75.1435 133.459C75.1435 134.944 74.5532 136.368 73.5023 137.418C72.4514 138.469 71.0258 139.06 69.5389 139.061H18.6307C17.1428 139.061 15.7158 138.471 14.6637 137.42C13.6116 136.369 13.0205 134.944 13.0205 133.459V9.966C13.0213 8.48038 13.6126 7.05583 14.6645 6.00534C15.7165 4.95485 17.143 4.36437 18.6307 4.36365H25.3157C25.652 4.36509 25.9741 4.49912 26.2118 4.73657C26.4496 4.97401 26.5838 5.29564 26.5853 5.63143V6.25026C26.586 7.03435 26.8982 7.78612 27.4534 8.34056C28.0086 8.89499 28.7615 9.20679 29.5466 9.20751H58.2473C59.0324 9.20679 59.7853 8.89499 60.3405 8.34056C60.8957 7.78612 61.2079 7.03435 61.2086 6.25026V5.62869C61.2101 5.29315 61.3444 4.97181 61.5822 4.7348C61.8201 4.49779 62.1422 4.36437 62.4782 4.36365H69.5389C71.0265 4.36437 72.4531 4.95485 73.505 6.00534C74.557 7.05583 75.1483 8.48038 75.149 9.966L75.1435 133.459Z" fill="#E0E0E0"/>
<ellipse cx="47.8768" cy="135.249" rx="1.0968" ry="1.09528" fill="#F0F0F0"/>
<ellipse cx="44.0383" cy="135.249" rx="1.0968" ry="1.09528" fill="#F0F0F0"/>
<ellipse cx="40.1993" cy="135.249" rx="1.0968" ry="1.09528" fill="#F0F0F0"/>
<rect x="31.699" y="128.13" width="24.9523" height="1.91673" rx="0.958365" fill="#F0F0F0"/>
<rect x="0.990723" y="45.019" width="85.8525" height="41.3604" rx="2.75" fill="#EBEBEB" stroke="#1854D1" stroke-width="0.5"/>
<rect x="33.0396" y="79.4106" width="15.0566" height="3.34277" rx="1.67139" fill="#EEEEEE" stroke="#1854D1"/>
<rect x="4.92627" y="79.4106" width="15.0566" height="3.34277" rx="1.67139" fill="#EEEEEE" stroke="#1854D1"/>
<rect x="5.42627" y="72.8823" width="48.0269" height="2.34277" rx="1.17139" fill="#1854D1"/>
<rect x="5.42627" y="68.1968" width="58.5693" height="2.34277" rx="1.17139" fill="#1854D1"/>
<rect x="5.42627" y="62.3398" width="25.7705" height="2.34277" rx="1.17139" fill="#1854D1"/>
<rect x="69.8525" y="58.8257" width="11.7139" height="11.7139" rx="1" fill="#1854D1"/>
<path d="M79.3373 61.3477C79.2178 61.2282 79.0743 61.1685 78.9064 61.1685H72.8054C72.6376 61.1685 72.4941 61.2282 72.3745 61.3477C72.255 61.4671 72.1953 61.6107 72.1953 61.7785V66.4153C72.1953 66.5831 72.255 66.7267 72.3745 66.8462C72.4941 66.9657 72.6376 67.0254 72.8054 67.0254H78.9065C79.0743 67.0254 79.2179 66.9657 79.3373 66.8462C79.4568 66.7267 79.5166 66.5831 79.5166 66.4153V61.7785C79.5166 61.6107 79.4568 61.4671 79.3373 61.3477ZM79.0284 66.4153C79.0284 66.4484 79.0164 66.4769 78.9922 66.5011C78.9681 66.5251 78.9395 66.5372 78.9064 66.5372H72.8054C72.7724 66.5372 72.7438 66.5251 72.7196 66.5011C72.6955 66.4769 72.6834 66.4484 72.6834 66.4153V61.7785C72.6834 61.7454 72.6955 61.7169 72.7196 61.6927C72.7438 61.6686 72.7724 61.6565 72.8054 61.6565H78.9065C78.9395 61.6565 78.9681 61.6686 78.9922 61.6927C79.0163 61.7169 79.0284 61.7454 79.0284 61.7785V66.4153Z" fill="white"/>
<path d="M73.9032 63.6089C74.1066 63.6089 74.2795 63.5377 74.4218 63.3953C74.5642 63.253 74.6354 63.0801 74.6354 62.8768C74.6354 62.6734 74.5641 62.5005 74.4218 62.3582C74.2795 62.2158 74.1066 62.1447 73.9032 62.1447C73.6999 62.1447 73.527 62.2158 73.3846 62.3582C73.2423 62.5005 73.1711 62.6734 73.1711 62.8768C73.1711 63.0801 73.2423 63.253 73.3846 63.3953C73.527 63.5377 73.6999 63.6089 73.9032 63.6089Z" fill="white"/>
<path d="M75.0014 64.7069L74.3913 64.0969L73.1711 65.3171V66.0492H78.54V64.3409L76.9538 62.7546L75.0014 64.7069Z" fill="white"/>
<path d="M78.4414 53.7974H78.1484L77.5781 52.8618V53.7974H77.2851V52.3755H77.5781L78.1494 53.313V52.3755H78.4414V53.7974ZM79.8652 53.1187C79.8652 53.2586 79.8405 53.3813 79.791 53.4868C79.7415 53.5923 79.6706 53.6737 79.5781 53.731C79.4863 53.7882 79.3808 53.8169 79.2617 53.8169C79.1439 53.8169 79.0387 53.7886 78.9463 53.7319C78.8538 53.6753 78.7822 53.5946 78.7314 53.4897C78.6806 53.3843 78.6549 53.2632 78.6543 53.1265V53.0562C78.6543 52.9162 78.6793 52.7931 78.7295 52.687C78.7803 52.5802 78.8515 52.4985 78.9433 52.4419C79.0358 52.3846 79.1413 52.356 79.2597 52.356C79.3782 52.356 79.4834 52.3846 79.5752 52.4419C79.6676 52.4985 79.7389 52.5802 79.789 52.687C79.8398 52.7931 79.8652 52.9159 79.8652 53.0552V53.1187ZM79.5683 53.0542C79.5683 52.9051 79.5416 52.7918 79.4883 52.7144C79.4349 52.6369 79.3587 52.5981 79.2597 52.5981C79.1614 52.5981 79.0856 52.6366 79.0322 52.7134C78.9788 52.7896 78.9518 52.9015 78.9512 53.0493V53.1187C78.9512 53.2638 78.9778 53.3765 79.0312 53.4565C79.0846 53.5366 79.1614 53.5767 79.2617 53.5767C79.36 53.5767 79.4355 53.5382 79.4883 53.4614C79.541 53.384 79.5677 53.2713 79.5683 53.1235V53.0542ZM81.1855 53.3872L81.3769 52.3755H81.6689L81.3535 53.7974H81.0586L80.8271 52.8462L80.5957 53.7974H80.3008L79.9853 52.3755H80.2773L80.4697 53.3853L80.7041 52.3755H80.9521L81.1855 53.3872Z" fill="#1854D1"/>
<path d="M16.6406 54.1621H15.896L15.7288 54.626H15.4871L16.1658 52.8486H16.3708L17.0508 54.626H16.8103L16.6406 54.1621ZM15.9668 53.9692H16.571L16.2683 53.1379L15.9668 53.9692ZM18.3704 53.9802C18.3704 54.1812 18.3244 54.3432 18.2324 54.4661C18.1405 54.5889 18.016 54.6504 17.8589 54.6504C17.6986 54.6504 17.5724 54.5995 17.4805 54.4978V55.1338H17.2546V53.3052H17.4609L17.4719 53.4517C17.5639 53.3377 17.6917 53.2808 17.8552 53.2808C18.0139 53.2808 18.1392 53.3406 18.2312 53.4602C18.324 53.5798 18.3704 53.7463 18.3704 53.9595V53.9802ZM18.1445 53.9546C18.1445 53.8057 18.1128 53.6881 18.0493 53.6018C17.9858 53.5155 17.8988 53.4724 17.7881 53.4724C17.6514 53.4724 17.5488 53.533 17.4805 53.6543V54.2854C17.548 54.4058 17.6514 54.4661 17.7905 54.4661C17.8988 54.4661 17.9846 54.4233 18.0481 54.3379C18.1124 54.2516 18.1445 54.1239 18.1445 53.9546ZM19.7742 53.9802C19.7742 54.1812 19.7282 54.3432 19.6362 54.4661C19.5443 54.5889 19.4198 54.6504 19.2627 54.6504C19.1024 54.6504 18.9762 54.5995 18.8843 54.4978V55.1338H18.6584V53.3052H18.8647L18.8757 53.4517C18.9677 53.3377 19.0955 53.2808 19.259 53.2808C19.4177 53.2808 19.5431 53.3406 19.635 53.4602C19.7278 53.5798 19.7742 53.7463 19.7742 53.9595V53.9802ZM19.5483 53.9546C19.5483 53.8057 19.5166 53.6881 19.4531 53.6018C19.3896 53.5155 19.3026 53.4724 19.1919 53.4724C19.0552 53.4724 18.9526 53.533 18.8843 53.6543V54.2854C18.9518 54.4058 19.0552 54.4661 19.1943 54.4661C19.3026 54.4661 19.3884 54.4233 19.4519 54.3379C19.5162 54.2516 19.5483 54.1239 19.5483 53.9546ZM22.0837 54.626H21.8481L20.9534 53.2563V54.626H20.7178V52.8486H20.9534L21.8506 54.2244V52.8486H22.0837V54.626ZM23.28 54.626C23.267 54.5999 23.2564 54.5535 23.2483 54.4868C23.1433 54.5959 23.018 54.6504 22.8723 54.6504C22.7421 54.6504 22.6351 54.6138 22.5513 54.5405C22.4683 54.4665 22.4268 54.3729 22.4268 54.2598C22.4268 54.1222 22.4788 54.0156 22.583 53.9399C22.688 53.8634 22.8353 53.8252 23.0249 53.8252H23.2446V53.7214C23.2446 53.6425 23.221 53.5798 23.1738 53.5334C23.1266 53.4862 23.057 53.4626 22.9651 53.4626C22.8845 53.4626 22.817 53.483 22.7625 53.5237C22.7079 53.5644 22.6807 53.6136 22.6807 53.6714H22.4536C22.4536 53.6055 22.4768 53.542 22.5232 53.481C22.5704 53.4191 22.6339 53.3703 22.7136 53.3345C22.7942 53.2987 22.8825 53.2808 22.9785 53.2808C23.1307 53.2808 23.2499 53.319 23.3362 53.3955C23.4224 53.4712 23.4672 53.5758 23.4705 53.7092V54.3171C23.4705 54.4384 23.4859 54.5348 23.5168 54.6064V54.626H23.28ZM22.9053 54.4539C22.9761 54.4539 23.0432 54.4355 23.1067 54.3989C23.1702 54.3623 23.2161 54.3147 23.2446 54.2561V53.9851H23.0676C22.7909 53.9851 22.6526 54.0661 22.6526 54.228C22.6526 54.2988 22.6762 54.3542 22.7234 54.394C22.7706 54.4339 22.8312 54.4539 22.9053 54.4539ZM24.0369 53.3052L24.043 53.4517C24.1398 53.3377 24.2704 53.2808 24.4348 53.2808C24.6195 53.2808 24.7453 53.3516 24.812 53.4932C24.856 53.4297 24.9129 53.3784 24.9829 53.3394C25.0537 53.3003 25.1371 53.2808 25.2332 53.2808C25.5229 53.2808 25.6702 53.4342 25.675 53.741V54.626H25.4492V53.7544C25.4492 53.66 25.4277 53.5896 25.3845 53.5432C25.3414 53.496 25.269 53.4724 25.1672 53.4724C25.0834 53.4724 25.0138 53.4976 24.9585 53.5481C24.9032 53.5977 24.871 53.6649 24.8621 53.7495V54.626H24.635V53.7605C24.635 53.5684 24.541 53.4724 24.353 53.4724C24.2049 53.4724 24.1036 53.5355 24.0491 53.6616V54.626H23.8232V53.3052H24.0369ZM26.5649 54.6504C26.3859 54.6504 26.2402 54.5918 26.1279 54.4746C26.0156 54.3566 25.9595 54.1991 25.9595 54.0022V53.9607C25.9595 53.8297 25.9843 53.7129 26.0339 53.6104C26.0844 53.507 26.1544 53.4264 26.2439 53.3687C26.3342 53.3101 26.4319 53.2808 26.5369 53.2808C26.7086 53.2808 26.842 53.3373 26.9373 53.4504C27.0325 53.5636 27.0801 53.7255 27.0801 53.9363V54.0303H26.1853C26.1886 54.1605 26.2264 54.2659 26.2988 54.3464C26.3721 54.4262 26.4648 54.4661 26.5771 54.4661C26.6569 54.4661 26.7244 54.4498 26.7798 54.4172C26.8351 54.3847 26.8835 54.3416 26.925 54.2878L27.063 54.3953C26.9523 54.5653 26.7863 54.6504 26.5649 54.6504ZM26.5369 53.4663C26.4457 53.4663 26.3692 53.4997 26.3074 53.5664C26.2455 53.6323 26.2073 53.7251 26.1926 53.8447H26.8542V53.8276C26.8477 53.7129 26.8168 53.6242 26.7615 53.5615C26.7061 53.498 26.6313 53.4663 26.5369 53.4663Z" fill="#1854D1"/>
<rect x="4.7085" y="49.819" width="7.16307" height="7.16307" rx="1" fill="#1854D1"/>
<path d="M5.89587 53.4005H8.29618V55.7882L5.89587 53.4005Z" fill="white"/>
<path d="M8.29639 51.0128H10.6967V53.4005L8.29639 51.0128Z" fill="white"/>
<path d="M5.89587 51.0128H8.29618V53.4005L5.89587 51.0128Z" fill="white"/>
<path d="M8.29639 53.4005H10.6967V55.7882L8.29639 53.4005Z" fill="white"/>
</svg>
