<svg width="86" height="144" viewBox="0 0 86 144" fill="none" xmlns="http://www.w3.org/2000/svg">
<path d="M74.7039 133.999C74.7039 135.497 74.1029 136.934 73.0329 137.994C71.9629 139.053 70.5115 139.649 68.9976 139.651H17.1665C15.6516 139.651 14.1987 139.055 13.1276 137.996C12.0564 136.936 11.4546 135.498 11.4546 133.999V9.42159C11.4553 7.92293 12.0574 6.48585 13.1284 5.42614C14.1994 4.36642 15.6518 3.77075 17.1665 3.77002H25.1441C25.4864 3.77147 25.8143 3.90668 26.0564 4.14621C26.2985 4.38574 26.4352 4.7102 26.4366 5.04894V5.67321C26.4374 6.46419 26.7553 7.22256 27.3205 7.78187C27.8858 8.34118 28.6523 8.65572 29.4517 8.65645H56.3299C57.1293 8.65572 57.8958 8.34118 58.4611 7.78187C59.0263 7.22256 59.3442 6.46419 59.345 5.67321V5.04618C59.3464 4.70769 59.4832 4.38353 59.7253 4.14443C59.9675 3.90534 60.2954 3.77075 60.6375 3.77002H68.9976C70.5123 3.77075 71.9647 4.36642 73.0357 5.42614C74.1067 6.48585 74.7087 7.92293 74.7095 9.42159L74.7039 133.999Z" fill="white"/>
<path d="M54.7959 139.651L17.0112 3.77573C16.4092 3.72975 14.8441 3.94126 13.3994 5.15517C11.9547 6.36908 11.5009 8.23593 11.4546 9.01761V134.133C11.4546 138.216 15.2516 139.513 17.1501 139.651H54.7959Z" fill="#FAFAFA"/>
<path d="M68.4401 0.255866H17.7267C15.1312 0.255866 12.642 1.28548 10.8068 3.1182C8.97148 4.95092 7.94043 7.43663 7.94043 10.0285L7.94043 133.395C7.94116 135.987 8.97252 138.472 10.8077 140.304C12.6429 142.136 15.1317 143.165 17.7267 143.165H68.4538C71.0484 143.164 73.5364 142.135 75.371 140.303C77.2056 138.471 78.2366 135.986 78.2373 133.395V10.0285C78.2373 8.7442 77.9839 7.47252 77.4914 6.28613C76.9989 5.09975 76.277 4.02194 75.3671 3.11432C74.4572 2.20671 73.3771 1.48709 72.1885 0.996616C71 0.50614 69.7262 0.254426 68.4401 0.255866ZM50.5595 4.79032C50.7791 4.79032 50.9938 4.85536 51.1765 4.97721C51.3591 5.09907 51.5014 5.27227 51.5855 5.4749C51.6695 5.67754 51.6915 5.90052 51.6487 6.11564C51.6058 6.33076 51.5 6.52835 51.3447 6.68345C51.1894 6.83854 50.9916 6.94416 50.7761 6.98695C50.5607 7.02974 50.3374 7.00778 50.1345 6.92384C49.9316 6.83991 49.7582 6.69777 49.6361 6.5154C49.5141 6.33303 49.449 6.11862 49.449 5.89929C49.4471 5.75315 49.4746 5.60811 49.5298 5.47274C49.5849 5.33736 49.6666 5.21438 49.7701 5.11103C49.8736 5.00768 49.9968 4.92607 50.1323 4.87099C50.2679 4.81591 50.4131 4.78848 50.5595 4.79032ZM39.2268 5.52963H46.6302C46.6898 5.52488 46.7497 5.53251 46.8063 5.55203C46.8628 5.57155 46.9146 5.60254 46.9585 5.64305C47.0025 5.68356 47.0375 5.73271 47.0615 5.78742C47.0855 5.84212 47.0979 5.90118 47.0979 5.9609C47.0979 6.02061 47.0855 6.07968 47.0615 6.13438C47.0375 6.18908 47.0025 6.23823 46.9585 6.27874C46.9146 6.31925 46.8628 6.35024 46.8063 6.36976C46.7497 6.38928 46.6898 6.39691 46.6302 6.39216H39.2268C39.1672 6.39691 39.1072 6.38928 39.0507 6.36976C38.9942 6.35024 38.9423 6.31925 38.8984 6.27874C38.8545 6.23823 38.8194 6.18908 38.7954 6.13438C38.7715 6.07968 38.7591 6.02061 38.7591 5.9609C38.7591 5.90118 38.7715 5.84212 38.7954 5.78742C38.8194 5.73271 38.8545 5.68356 38.8984 5.64305C38.9423 5.60254 38.9942 5.57155 39.0507 5.55203C39.1072 5.53251 39.1672 5.52488 39.2268 5.52963ZM74.1435 133.458C74.1435 134.943 73.5532 136.367 72.5023 137.418C71.4514 138.468 70.0258 139.059 68.5389 139.06H17.6307C16.1428 139.06 14.7158 138.47 13.6637 137.42C12.6116 136.369 12.0205 134.944 12.0205 133.458V9.96551C12.0213 8.47989 12.6126 7.05534 13.6645 6.00485C14.7165 4.95436 16.143 4.36388 17.6307 4.36316H24.3157C24.652 4.3646 24.9741 4.49863 25.2118 4.73608C25.4496 4.97352 25.5838 5.29515 25.5853 5.63094V6.24978C25.586 7.03386 25.8982 7.78563 26.4534 8.34007C27.0086 8.8945 27.7615 9.2063 28.5466 9.20703H57.2473C58.0324 9.2063 58.7853 8.8945 59.3405 8.34007C59.8957 7.78563 60.2079 7.03386 60.2086 6.24978V5.62821C60.2101 5.29267 60.3444 4.97132 60.5822 4.73431C60.8201 4.4973 61.1422 4.36388 61.4782 4.36316H68.5389C70.0265 4.36388 71.4531 4.95436 72.505 6.00485C73.557 7.05534 74.1483 8.47989 74.149 9.96551L74.1435 133.458Z" fill="#E0E0E0"/>
<ellipse cx="46.8768" cy="135.249" rx="1.0968" ry="1.09528" fill="#F0F0F0"/>
<ellipse cx="43.0382" cy="135.249" rx="1.0968" ry="1.09528" fill="#F0F0F0"/>
<ellipse cx="39.1993" cy="135.249" rx="1.0968" ry="1.09528" fill="#F0F0F0"/>
<rect x="30.699" y="128.13" width="24.9523" height="1.91673" rx="0.958365" fill="#F0F0F0"/>
<rect y="15" width="86" height="118" rx="3" fill="#EBEBEB"/>
<rect x="26.5" y="119.5" width="33" height="5" rx="2.5" fill="#EEEEEE" stroke="#C9C9C9"/>
<circle cx="50.5" cy="114.5" r="1.25" stroke="#C4C4C4" stroke-width="0.5"/>
<circle cx="45.5" cy="114.5" r="1.25" stroke="#C4C4C4" stroke-width="0.5"/>
<circle cx="40.5" cy="114.5" r="1.25" stroke="#C4C4C4" stroke-width="0.5"/>
<circle cx="35.5" cy="114.5" r="1.5" fill="#C4C4C4"/>
<rect x="4" y="108" width="64" height="2" rx="1" fill="#CECECE"/>
<rect x="4" y="103" width="77" height="2" rx="1" fill="#CECECE"/>
<rect x="4" y="98" width="77" height="2" rx="1" fill="#CECECE"/>
<rect x="4" y="92" width="25.7705" height="2.34277" rx="1.17139" fill="#B5B5B5"/>
<rect x="4.25" y="35.25" width="76.5" height="51.5" rx="0.75" stroke="#CECECE" stroke-width="0.5"/>
<path d="M52.9493 52.5507C52.5821 52.1836 52.1409 52 51.6251 52H32.875C32.3594 52 31.9181 52.1835 31.5507 52.5507C31.1835 52.9179 31 53.3592 31 53.8749V68.1249C31 68.6407 31.1835 69.082 31.5507 69.4492C31.9181 69.8164 32.3594 70 32.875 70H51.6254C52.1409 70 52.5822 69.8164 52.9494 69.4492C53.3166 69.0821 53.5004 68.6407 53.5004 68.1249V53.8749C53.5004 53.3592 53.3166 52.9179 52.9493 52.5507ZM52 68.1249C52 68.2266 51.9631 68.3142 51.8889 68.3887C51.8146 68.4626 51.7267 68.4997 51.6251 68.4997H32.875C32.7735 68.4997 32.6856 68.4626 32.6114 68.3887C32.5372 68.3143 32.5001 68.2266 32.5001 68.1249V53.8747C32.5001 53.7732 32.5371 53.6855 32.6114 53.6111C32.6856 53.5371 32.7736 53.4999 32.875 53.4999H51.6254C51.7268 53.4999 51.8147 53.5371 51.8889 53.6111C51.9628 53.6855 52 53.7732 52 53.8747V68.1249Z" fill="#CECECE"/>
<path d="M36.2504 59.5004C36.8755 59.5004 37.4067 59.2817 37.8442 58.8442C38.2817 58.4066 38.5004 57.8755 38.5004 57.2505C38.5004 56.6254 38.2815 56.0942 37.8442 55.6566C37.4067 55.2193 36.8754 55.0005 36.2504 55.0005C35.6254 55.0005 35.0942 55.2193 34.6566 55.6566C34.2193 56.0942 34.0005 56.6254 34.0005 57.2505C34.0005 57.8755 34.2191 58.4068 34.6566 58.8442C35.0942 59.2816 35.6254 59.5004 36.2504 59.5004Z" fill="#CECECE"/>
<path d="M39.6238 62.875L37.7487 61.0001L33.9988 64.7501V67.0002H50.4989V61.7501L45.6239 56.875L39.6238 62.875Z" fill="#CECECE"/>
<g clip-path="url(#clip0)">
<path d="M79.2252 23.5027L78.057 22.3345C77.981 22.2585 77.981 22.1357 78.057 22.0597C78.133 21.9837 78.2559 21.9837 78.3318 22.0597L79.5 23.2278L80.6682 22.0597C80.7442 21.9837 80.867 21.9837 80.943 22.0597C81.019 22.1357 81.019 22.2585 80.943 22.3345L79.7748 23.5027L80.943 24.6709C81.019 24.7468 81.019 24.8697 80.943 24.9457C80.9051 24.9836 80.8553 25.0026 80.8056 25.0026C80.7558 25.0026 80.7061 24.9836 80.6682 24.9457L79.5 23.7775L78.3318 24.9457C78.2939 24.9836 78.2442 25.0026 78.1944 25.0026C78.1447 25.0026 78.0949 24.9836 78.057 24.9457C77.981 24.8697 77.981 24.7468 78.057 24.6709L79.2252 23.5027Z" fill="#898989"/>
</g>
<defs>
<clipPath id="clip0">
<rect width="3" height="3" fill="white" transform="matrix(-1 0 0 1 81 22)"/>
</clipPath>
</defs>
</svg>
