<svg width="40" height="40" viewBox="0 0 40 40" fill="none" xmlns="http://www.w3.org/2000/svg">
<circle cx="20" cy="20" r="20" fill="url(#paint0_linear)"/>
<path opacity="0.3" d="M15.5 28.4995L15.5 11.5007H24.4902L24.4902 28.4995H15.5Z" fill="white"/>
<path d="M29.871 16.4644C31.0872 19.8726 30.5003 23.7688 28.0962 26.6821L29.1568 27.7427C33.152 23.0263 32.9328 15.9623 28.4851 11.5146L27.9972 11.0691L27.9972 16.4573L29.871 16.4644ZM25.9961 11.5005C25.9961 10.6661 25.3243 9.99434 24.497 10.0014L15.5026 10.0014C14.6682 10.0014 13.9965 10.6732 14.0035 11.5005L14.0035 28.4993C14.0035 29.3337 14.6753 30.0055 15.5026 29.9984L24.497 29.9984C25.3314 29.9984 26.0031 29.3266 25.9961 28.4993L25.9961 11.5005ZM15.5026 28.4993L15.5026 11.5005L24.497 11.5005L24.497 28.4993L15.5026 28.4993ZM10.1286 23.5354C8.9053 20.1343 9.49927 16.231 11.9034 13.3177L10.8428 12.2571C6.84762 16.9735 7.06682 24.0375 11.5145 28.4852L12.0024 28.9307V23.5425L10.1286 23.5354Z" fill="white"/>
<defs>
<linearGradient id="paint0_linear" x1="0" y1="0" x2="40" y2="40" gradientUnits="userSpaceOnUse">
<stop stop-color="#43CBFF"/>
<stop offset="1" stop-color="#9708CC"/>
</linearGradient>
</defs>
</svg>
