<svg width="40" height="40" viewBox="0 0 40 40" fill="none" xmlns="http://www.w3.org/2000/svg">
<circle cx="20" cy="20" r="20" fill="url(#paint0_linear)"/>
<circle opacity="0.3" cx="20" cy="20" r="8" fill="white"/>
<path d="M12.2598 26.32L13.6898 24.89C12.8298 23.79 12.2498 22.46 12.0698 21H10.0498C10.2498 23.01 11.0498 24.84 12.2598 26.32ZM15.0998 13.69C16.2098 12.83 17.5398 12.25 18.9998 12.07V10.05C16.9898 10.25 15.1598 11.05 13.6798 12.26L15.0998 13.69ZM10.0498 19H12.0698C12.2498 17.54 12.8298 16.21 13.6898 15.1L12.2598 13.68C11.0498 15.16 10.2498 16.99 10.0498 19ZM21.0498 10.05V12.07C24.9698 12.59 27.9998 15.95 27.9998 20C27.9998 24.05 24.9698 27.41 21.0498 27.93V29.9501C26.0798 29.42 29.9998 25.16 29.9998 20C29.9998 14.84 26.0798 10.58 21.0498 10.05ZM23.9998 20L21.0498 17.79L17.9998 15.5V24.5L21.0498 22.21L23.9998 20ZM13.6798 27.74C15.1598 28.9501 16.9998 29.75 18.9998 29.9501V27.93C17.5398 27.75 16.2098 27.17 15.0998 26.31L13.6798 27.74Z" fill="white"/>
<defs>
<linearGradient id="paint0_linear" x1="0" y1="0" x2="40" y2="40" gradientUnits="userSpaceOnUse">
<stop stop-color="#FF8743"/>
<stop offset="1" stop-color="#CC084F"/>
</linearGradient>
</defs>
</svg>
