<svg width="68" height="100" viewBox="0 0 68 100" fill="none" xmlns="http://www.w3.org/2000/svg">
<path d="M50.6712 0H8.77938C6.45203 0.00270798 4.22081 0.937004 2.57512 2.59793C0.929426 4.25885 0.00365971 6.51077 0.000976562 8.85967V91.1403C0.00365971 93.4892 0.929426 95.7411 2.57512 97.4021C4.22081 99.063 6.45203 99.9973 8.77938 100H50.6723C52.9997 99.9973 55.2309 99.063 56.8766 97.4021C58.5223 95.7411 59.448 93.4892 59.4507 91.1403V8.85967C59.448 6.51059 58.5221 4.25852 56.8762 2.59757C55.2303 0.936614 52.9987 0.00243721 50.6712 0Z" fill="#3B97D3"/>
<path d="M59.4505 91.1403V8.85967C59.4478 6.51077 58.5221 4.25885 56.8764 2.59793C55.2307 0.937004 52.9994 0.00270798 50.672 0H29.7261V100H50.672C52.9994 99.9973 55.2307 99.063 56.8764 97.4021C58.5221 95.7411 59.4478 93.4892 59.4505 91.1403Z" fill="#285680"/>
<path d="M50.3286 5.85974H47.0125V9.20655C47.0125 11.6488 46.0512 13.9911 44.3401 15.718C42.629 17.4449 40.3083 18.4151 37.8884 18.4151H21.5552C19.1353 18.4151 16.8146 17.4449 15.1035 15.718C13.3924 13.9911 12.431 11.6488 12.431 9.20655V5.85974H9.11493C8.23569 5.86055 7.39275 6.21342 6.77104 6.8409C6.14932 7.46837 5.79963 8.31917 5.79883 9.20655V90.7976C5.79963 91.685 6.14932 92.5358 6.77104 93.1632C7.39275 93.7907 8.23569 94.1436 9.11493 94.1444H50.3215C51.2007 94.1436 52.0438 93.7907 52.6655 93.1632C53.2872 92.5358 53.6368 91.685 53.6376 90.7976V9.20655C53.6368 8.31917 53.2872 7.46837 52.6655 6.8409C52.0438 6.21342 51.2007 5.86055 50.3215 5.85974H50.3286Z" fill="#ECF0F1"/>
<path d="M53.6445 90.7976V9.20655C53.6437 8.31917 53.2941 7.46837 52.6724 6.8409C52.0507 6.21342 51.2076 5.86055 50.3284 5.85974H47.0133V9.20655C47.0133 11.6488 46.0521 13.9911 44.3409 15.718C42.6298 17.4449 40.309 18.4151 37.8892 18.4151H29.7222V94.1444H50.3254C51.2052 94.1444 52.0489 93.7919 52.6713 93.1643C53.2937 92.5368 53.6437 91.6855 53.6445 90.7976Z" fill="#E0E0E0"/>
<path d="M63.7419 31.3184H21.1495C18.7979 31.3184 16.8916 33.2423 16.8916 35.6157V72.8715C16.8916 75.2449 18.7979 77.1689 21.1495 77.1689H63.7419C66.0935 77.1689 67.9998 75.2449 67.9998 72.8715V35.6157C67.9998 33.2423 66.0935 31.3184 63.7419 31.3184Z" fill="#E64C3C"/>
<path d="M16.8877 62.8403V72.8674C16.8877 74.0072 17.3362 75.1002 18.1348 75.9061C18.9333 76.712 20.0163 77.1648 21.1456 77.1648H63.7359C64.8652 77.1648 65.9482 76.712 66.7467 75.9061C67.5452 75.1002 67.9939 74.0072 67.9939 72.8674V62.8403H16.8877Z" fill="#35495E"/>
<path d="M48.6233 49.5155L39.9361 55.32C39.6257 55.529 39.265 55.6494 38.8924 55.6685C38.5197 55.6876 38.149 55.6047 37.8192 55.4286C37.4894 55.2525 37.2128 54.9897 37.0189 54.668C36.8249 54.3463 36.7207 53.9776 36.7173 53.6011V41.9942C36.7207 41.6176 36.8249 41.249 37.0189 40.9273C37.2128 40.6056 37.4894 40.3428 37.8192 40.1667C38.149 39.9905 38.5197 39.9077 38.8924 39.9268C39.265 39.9459 39.6257 40.0663 39.9361 40.2753L48.6233 46.0767C48.9041 46.2651 49.1344 46.5207 49.2938 46.8207C49.4531 47.1206 49.5364 47.4557 49.5364 47.7961C49.5364 48.1365 49.4531 48.4715 49.2938 48.7715C49.1344 49.0715 48.9041 49.3271 48.6233 49.5155Z" fill="#ECF0F1"/>
<path d="M60.9013 71.4381H23.9901C23.6137 71.4381 23.2527 71.2872 22.9865 71.0186C22.7203 70.7499 22.5708 70.3856 22.5708 70.0057C22.5708 69.6258 22.7203 69.2614 22.9865 68.9928C23.2527 68.7241 23.6137 68.5732 23.9901 68.5732H60.9013C61.2777 68.5732 61.6386 68.7241 61.9048 68.9928C62.171 69.2614 62.3205 69.6258 62.3205 70.0057C62.3205 70.3856 62.171 70.7499 61.9048 71.0186C61.6386 71.2872 61.2777 71.4381 60.9013 71.4381Z" fill="#2C3E50"/>
<path d="M28.2484 72.8715C27.872 72.8715 27.511 72.7206 27.2448 72.4519C26.9786 72.1833 26.8291 71.819 26.8291 71.439V68.5742C26.8291 68.1943 26.9786 67.8299 27.2448 67.5613C27.511 67.2926 27.872 67.1417 28.2484 67.1417C28.6249 67.1417 28.9859 67.2926 29.2521 67.5613C29.5182 67.8299 29.6678 68.1943 29.6678 68.5742V71.439C29.6678 71.819 29.5182 72.1833 29.2521 72.4519C28.9859 72.7206 28.6249 72.8715 28.2484 72.8715Z" fill="#ECF0F1"/>
</svg>
