<svg width="16" height="17" viewBox="0 0 16 17" fill="none" xmlns="http://www.w3.org/2000/svg">
<path d="M11.5556 5.33721H9.28889V2.67054H6.71111V5.33721H4.44444L8 8.89277L11.5556 5.33721ZM14.2222 0.00387573H1.76889C0.782222 0.00387573 0 0.803876 0 1.78165V14.2261C0 15.2039 0.782222 16.0039 1.76889 16.0039H14.2222C15.2 16.0039 16 15.2039 16 14.2261V1.78165C16 0.803876 15.2 0.00387573 14.2222 0.00387573ZM14.2222 14.2261H1.77778V11.5594H4.94222C5.55556 12.6172 6.69333 13.3372 8.00889 13.3372C9.32444 13.3372 10.4533 12.6172 11.0756 11.5594H14.2222V14.2261ZM14.2222 9.78165H9.78667C9.78667 10.7594 8.98667 11.5594 8.00889 11.5594C7.03111 11.5594 6.23111 10.7594 6.23111 9.78165H1.77778L1.76889 1.78165H14.2222V9.78165Z" fill="#1975FF"/>
</svg>
