<svg width="14" height="15" viewBox="0 0 14 15" fill="none" xmlns="http://www.w3.org/2000/svg">
<path d="M6.33134 10.0224H7.67581V11.4002H6.33134V10.0224ZM7.00358 0.37793C3.29285 0.37793 0.28125 3.46415 0.28125 7.26682C0.28125 11.0695 3.29285 14.1557 7.00358 14.1557C10.7143 14.1557 13.7259 11.0695 13.7259 7.26682C13.7259 3.46415 10.7143 0.37793 7.00358 0.37793ZM7.00358 12.7779C4.03903 12.7779 1.62572 10.3048 1.62572 7.26682C1.62572 4.22882 4.03903 1.75571 7.00358 1.75571C9.96812 1.75571 12.3814 4.22882 12.3814 7.26682C12.3814 10.3048 9.96812 12.7779 7.00358 12.7779ZM7.00358 3.13349C5.51794 3.13349 4.31464 4.3666 4.31464 5.88904H5.65911C5.65911 5.13126 6.26412 4.51126 7.00358 4.51126C7.74303 4.51126 8.34804 5.13126 8.34804 5.88904C8.34804 7.26682 6.33134 7.0946 6.33134 9.33348H7.67581C7.67581 7.78348 9.6925 7.61126 9.6925 5.88904C9.6925 4.3666 8.48921 3.13349 7.00358 3.13349Z" fill="#1854D1"/>
</svg>
