<svg width="179" height="148" viewBox="0 0 179 148" fill="none" xmlns="http://www.w3.org/2000/svg">
<g opacity="0.7">
<path opacity="0.7" d="M113.104 66.6177C113.12 61.9351 111.991 57.3186 109.815 53.1647C108.782 51.214 107.84 50.0013 107.106 49.2576C106.83 48.9663 106.469 48.768 106.073 48.6905C105.678 48.613 105.268 48.6601 104.901 48.8252C104.607 48.928 104.342 49.0979 104.127 49.321C103.146 50.33 102.26 51.6637 101.486 53.084C99.1966 57.3349 98.0084 62.085 98.0285 66.906V69.8003H96.1595V36.1678C96.1595 29.1185 94.571 22.1633 91.4599 15.9884C89.9857 13.0652 88.641 11.2491 87.6059 10.1325C87.3551 9.84864 87.0463 9.62121 86.6999 9.4654C86.3536 9.3096 85.9778 9.229 85.5976 9.229C85.2174 9.229 84.8416 9.3096 84.4953 9.4654C84.149 9.62121 83.8401 9.84864 83.5894 10.1325C82.1886 11.645 80.9252 13.6437 79.8204 15.7693C76.5488 22.071 74.8868 29.2223 74.8868 36.4811V69.8003H73.2713V66.7676C73.2913 61.9467 72.1031 57.1966 69.8139 52.9456C69.04 51.5273 68.1538 50.1935 67.1729 49.1826C66.8906 48.8872 66.521 48.6886 66.1177 48.6153C65.7143 48.5421 65.2979 48.5981 64.9286 48.7752L64.9963 48.8117C64.7594 48.9157 64.5452 49.0645 64.3656 49.2499C63.6401 49.9936 62.6978 51.2063 61.6569 53.157C59.4809 57.311 58.3523 61.9274 58.3678 66.61V116.893H64.1334L63.5046 121.027V133.387H68.2177V121.027L67.5889 116.893H73.2713V71.1014H74.8868V116.688H79.4915L78.8298 121.025V133.387H83.5448V121.027L82.8832 116.69H89.0879L88.4262 121.027V133.387H93.1413V121.027L92.4796 116.69H96.1556V71.1014H98.0246V116.963H99.5395V116.893H104.549L103.92 121.027V133.387H108.635V121.027L108.006 116.893H113.104V66.6177Z" fill="url(#paint0_linear_5901:12685)"/>
</g>
<path d="M69.156 118.617H64.6925L65.4896 113.233H68.3589L69.156 118.617Z" fill="#535461"/>
<g opacity="0.1">
<path opacity="0.1" d="M65.2671 115.371H68.5813L68.3588 113.866H65.4896L65.2671 115.371Z" fill="black"/>
</g>
<path d="M107.418 118.617H102.954L103.751 113.233H106.621L107.418 118.617Z" fill="#535461"/>
<g opacity="0.1">
<path opacity="0.1" d="M103.529 115.371H106.843L106.621 113.866H103.751L103.529 115.371Z" fill="black"/>
</g>
<path d="M83.6648 118.617H79.1993L79.9965 113.233H82.8676L83.6648 118.617Z" fill="#535461"/>
<g opacity="0.1">
<path opacity="0.1" d="M79.7739 115.371H83.0901L82.8676 113.866H79.9964L79.7739 115.371Z" fill="black"/>
</g>
<path d="M92.7503 118.617H88.2869L89.084 113.233H91.9532L92.7503 118.617Z" fill="#535461"/>
<g opacity="0.1">
<path opacity="0.1" d="M88.8616 115.371H92.1777L91.9533 113.866H89.0841L88.8616 115.371Z" fill="black"/>
</g>
<path d="M101.041 68.7334H69.156V69.9999H101.041V68.7334Z" fill="#535461"/>
<path d="M105.971 48.721C105.802 48.5363 105.597 48.3886 105.367 48.2875C105.138 48.1865 104.89 48.1343 104.639 48.1343C104.388 48.1343 104.139 48.1865 103.91 48.2875C103.681 48.3886 103.475 48.5363 103.306 48.721C102.378 49.7031 101.54 51.0022 100.807 52.3841C98.6369 56.5395 97.5142 61.1559 97.5351 65.837V114.593H111.645V65.6352C111.663 61.0824 110.595 56.5901 108.528 52.5263C107.549 50.6275 106.657 49.4455 105.971 48.721Z" fill="#E0E0E0"/>
<path d="M65.5089 48.721C65.6774 48.5363 65.883 48.3886 66.1124 48.2875C66.3419 48.1865 66.5901 48.1343 66.841 48.1343C67.092 48.1343 67.3402 48.1865 67.5696 48.2875C67.799 48.3886 68.0046 48.5363 68.1731 48.721C69.1018 49.7031 69.9395 51.0022 70.6728 52.3841C72.8427 56.5395 73.9654 61.1559 73.9445 65.837V114.593H59.8304V65.6352C59.8127 61.0824 60.8808 56.5901 62.9473 52.5263C63.9244 50.6275 64.8163 49.4455 65.5089 48.721Z" fill="#E0E0E0"/>
<path d="M59.9098 66.6753L63.2569 66.6907V70.7919H59.9098V66.6753Z" fill="#535461"/>
<path d="M70.5916 66.6753L73.9387 66.6907V70.7919H70.5916V66.6753Z" fill="#535461"/>
<path d="M97.5331 66.6753L100.882 66.6907V70.7919H97.5331V66.6753Z" fill="#535461"/>
<path d="M108.215 66.6753L111.564 66.6907V70.7919H108.215V66.6753Z" fill="#535461"/>
<g opacity="0.1">
<path opacity="0.1" d="M70.667 52.321C69.9357 50.9392 69.096 49.64 68.1673 48.6579C67.9049 48.37 67.5548 48.1753 67.1705 48.1035C66.7863 48.0316 66.3889 48.0866 66.0391 48.2601C66.2407 48.36 66.4228 48.4947 66.5769 48.6579C67.5056 49.64 68.3434 50.9392 69.0766 52.321C71.2465 56.4765 72.3692 61.0928 72.3483 65.774V114.526H73.9426V65.7797C73.9632 61.0963 72.8392 56.4778 70.667 52.321Z" fill="black"/>
</g>
<g opacity="0.1">
<path opacity="0.1" d="M102.076 52.455C102.807 51.0732 103.647 49.774 104.576 48.7919C104.749 48.6061 104.959 48.457 105.193 48.3537C104.848 48.2037 104.464 48.1653 104.096 48.2439C103.728 48.3226 103.394 48.5143 103.142 48.7919C102.213 49.774 101.375 51.0732 100.642 52.455C98.4723 56.6105 97.3496 61.2268 97.3705 65.908V114.66H98.8061V65.9156C98.7834 61.232 99.9054 56.6129 102.076 52.455Z" fill="black"/>
</g>
<path d="M69.156 118.617H64.6925V130.651H69.156V118.617Z" fill="url(#paint1_linear_5901:12685)"/>
<path d="M83.6628 118.617H79.1993V130.651H83.6628V118.617Z" fill="url(#paint2_linear_5901:12685)"/>
<path d="M92.7503 118.617H88.2869V130.651H92.7503V118.617Z" fill="url(#paint3_linear_5901:12685)"/>
<path d="M107.418 118.617H102.954V130.651H107.418V118.617Z" fill="url(#paint4_linear_5901:12685)"/>
<path d="M87.5072 10.4957C87.274 10.2204 86.983 9.99904 86.6546 9.84721C86.3263 9.69537 85.9685 9.6167 85.6063 9.6167C85.2441 9.6167 84.8863 9.69537 84.5579 9.84721C84.2295 9.99904 83.9386 10.2204 83.7054 10.4957C82.3801 11.9678 81.1902 13.9146 80.1377 15.9864C77.0421 22.1248 75.4672 29.0915 75.4672 36.1562V114.393H95.6061V35.8411C95.6061 28.9762 94.1028 22.1959 91.1561 16.1978C89.7612 13.3515 88.4881 11.5834 87.5072 10.4957Z" fill="#EEEEEE"/>
<path d="M88.523 19.186H82.2718C81.0964 19.186 80.1436 20.1325 80.1436 21.3001V21.8555C80.1436 23.023 81.0964 23.9695 82.2718 23.9695H88.523C89.6984 23.9695 90.6512 23.023 90.6512 21.8555V21.3001C90.6512 20.1325 89.6984 19.186 88.523 19.186Z" fill="#6C63FF"/>
<g opacity="0.7">
<path opacity="0.7" d="M132.452 129.337C131.791 125.379 129.653 121.813 126.464 119.352C123.274 116.89 119.268 115.712 115.244 116.053C111.22 116.394 107.473 118.229 104.75 121.192C102.026 124.155 100.527 128.029 100.551 132.041C100.551 132.119 100.551 132.196 100.551 132.275C99.9573 132.365 99.3693 132.49 98.7906 132.65C98.0495 129.718 96.409 127.088 94.0963 125.123C91.7835 123.158 88.913 121.956 85.8822 121.684C82.8514 121.411 79.8103 122.081 77.1799 123.602C74.5496 125.122 72.4602 127.417 71.201 130.169C69.9031 129.671 68.54 129.362 67.1535 129.25C66.9324 128.003 66.5615 126.787 66.0487 125.627C65.8081 121.969 64.1878 118.536 61.5113 116.012C58.8348 113.488 55.2987 112.06 51.6086 112.011C47.9184 111.963 44.3455 113.298 41.6027 115.75C38.8598 118.203 37.1487 121.593 36.8107 125.243C36.051 126.841 35.5658 128.554 35.3751 130.311C32.0166 131.699 29.2965 134.276 27.7419 137.543C26.1873 140.809 25.909 144.533 26.9608 147.992H144.513C145.126 145.975 145.291 143.849 144.997 141.762C144.703 139.675 143.957 137.676 142.811 135.903C141.665 134.13 140.145 132.625 138.356 131.491C136.568 130.357 134.553 129.622 132.452 129.337Z" fill="url(#paint5_linear_5901:12685)"/>
</g>
<path d="M52.7628 140.714C60.545 140.714 66.8537 134.448 66.8537 126.718C66.8537 118.987 60.545 112.721 52.7628 112.721C44.9807 112.721 38.672 118.987 38.672 126.718C38.672 134.448 44.9807 140.714 52.7628 140.714Z" fill="url(#paint6_linear_5901:12685)"/>
<path d="M52.6931 147.293C61.2147 147.293 68.1228 140.431 68.1228 131.966C68.1228 123.501 61.2147 116.639 52.6931 116.639C44.1715 116.639 37.2634 123.501 37.2634 131.966C37.2634 140.431 44.1715 147.293 52.6931 147.293Z" fill="url(#paint7_linear_5901:12685)"/>
<path d="M115.399 147.293C123.92 147.293 130.828 140.431 130.828 131.966C130.828 123.501 123.92 116.639 115.399 116.639C106.877 116.639 99.969 123.501 99.969 131.966C99.969 140.431 106.877 147.293 115.399 147.293Z" fill="url(#paint8_linear_5901:12685)"/>
<path d="M114.623 147.293C122.405 147.293 128.714 141.026 128.714 133.296C128.714 125.565 122.405 119.299 114.623 119.299C106.841 119.299 100.532 125.565 100.532 133.296C100.532 141.026 106.841 147.293 114.623 147.293Z" fill="url(#paint9_linear_5901:12685)"/>
<path d="M98.6998 135.956C98.702 138.17 98.1749 140.352 97.1617 142.323C96.1486 144.295 94.6784 145.999 92.8723 147.295H76.3436C74.3873 145.891 72.8268 144.011 71.8117 141.835C70.7966 139.66 70.3608 137.262 70.5461 134.871C70.7315 132.481 71.5317 130.177 72.8702 128.182C74.2087 126.187 76.0405 124.566 78.1903 123.476C80.34 122.385 82.7357 121.861 85.1477 121.954C87.5597 122.047 89.9073 122.754 91.9655 124.007C94.0237 125.259 95.7237 127.016 96.9025 129.108C98.0813 131.201 98.6995 133.558 98.6978 135.956H98.6998Z" fill="url(#paint10_linear_5901:12685)"/>
<path d="M116.174 146.034C116.174 146.453 116.156 146.867 116.118 147.277C116.12 147.283 116.12 147.289 116.118 147.295H88.0489C88.0102 146.88 87.9908 146.459 87.9908 146.036C87.9884 142.687 89.1964 139.448 91.3949 136.908C93.5935 134.369 96.6367 132.698 99.9709 132.199C100.668 132.095 101.371 132.042 102.076 132.041C102.436 132.041 102.794 132.054 103.148 132.079C105.673 132.271 108.1 133.135 110.174 134.581C112.247 136.026 113.89 137.999 114.93 140.293C114.988 140.42 115.045 140.549 115.097 140.678C115.808 142.375 116.175 144.195 116.174 146.034Z" fill="url(#paint11_linear_5901:12685)"/>
<path d="M142.806 143.234C142.808 144.609 142.605 145.977 142.203 147.293H115.232C114.58 145.141 114.456 142.865 114.87 140.655C114.894 140.534 114.917 140.411 114.944 140.292C115.623 137.163 117.361 134.359 119.868 132.348C122.375 130.337 125.501 129.239 128.723 129.239C129.166 129.239 129.602 129.258 130.033 129.301C130.227 129.316 130.42 129.339 130.614 129.364C133.991 129.821 137.087 131.477 139.329 134.028C141.571 136.578 142.806 139.849 142.806 143.234Z" fill="url(#paint12_linear_5901:12685)"/>
<path d="M56.2472 147.295C56.2937 147.149 56.3343 147.003 56.3749 146.855C57.0164 144.472 57.0129 141.963 56.3647 139.581C55.7166 137.2 54.4468 135.031 52.6838 133.294C50.9209 131.556 48.7273 130.312 46.3249 129.687C43.9226 129.062 41.3967 129.079 39.0027 129.735C38.4422 129.888 37.8922 130.076 37.3563 130.3C34.1292 131.634 31.5156 134.11 30.0221 137.249C28.5286 140.388 28.2616 143.966 29.2728 147.289H56.2472V147.295Z" fill="url(#paint13_linear_5901:12685)"/>
<g opacity="0.7">
<path opacity="0.7" d="M137.451 118.507C138.879 118.507 140.036 117.358 140.036 115.94C140.036 114.522 138.879 113.372 137.451 113.372C136.023 113.372 134.866 114.522 134.866 115.94C134.866 117.358 136.023 118.507 137.451 118.507Z" fill="url(#paint14_linear_5901:12685)"/>
</g>
<path d="M137.451 118.319C138.774 118.319 139.846 117.254 139.846 115.94C139.846 114.626 138.774 113.561 137.451 113.561C136.128 113.561 135.056 114.626 135.056 115.94C135.056 117.254 136.128 118.319 137.451 118.319Z" fill="url(#paint15_linear_5901:12685)"/>
<g opacity="0.7">
<path opacity="0.7" d="M149.288 143.514C150.845 143.514 152.107 142.26 152.107 140.714C152.107 139.167 150.845 137.914 149.288 137.914C147.731 137.914 146.469 139.167 146.469 140.714C146.469 142.26 147.731 143.514 149.288 143.514Z" fill="url(#paint16_linear_5901:12685)"/>
</g>
<path d="M149.288 143.374C150.767 143.374 151.966 142.184 151.966 140.715C151.966 139.246 150.767 138.055 149.288 138.055C147.809 138.055 146.61 139.246 146.61 140.715C146.61 142.184 147.809 143.374 149.288 143.374Z" fill="url(#paint17_linear_5901:12685)"/>
<g opacity="0.7">
<path opacity="0.7" d="M28.6674 127.834C30.3781 127.834 31.7649 126.457 31.7649 124.758C31.7649 123.058 30.3781 121.681 28.6674 121.681C26.9566 121.681 25.5698 123.058 25.5698 124.758C25.5698 126.457 26.9566 127.834 28.6674 127.834Z" fill="url(#paint18_linear_5901:12685)"/>
</g>
<path d="M28.6674 127.695C30.3011 127.695 31.6256 126.38 31.6256 124.757C31.6256 123.134 30.3011 121.818 28.6674 121.818C27.0336 121.818 25.7091 123.134 25.7091 124.757C25.7091 126.38 27.0336 127.695 28.6674 127.695Z" fill="url(#paint19_linear_5901:12685)"/>
<g opacity="0.4">
<path opacity="0.4" d="M145.362 3.3576C144.676 2.45637 143.815 1.69985 142.832 1.1321C141.703 0.487843 140.44 0.109771 139.141 0.0270549C137.842 -0.0556609 136.541 0.159192 135.339 0.655034C134.137 1.15088 133.066 1.91445 132.208 2.88684C131.35 3.85922 130.728 5.01442 130.391 6.2633C130.053 7.51217 130.009 8.82133 130.262 10.0898C130.515 11.3582 131.058 12.552 131.849 13.579C132.639 14.606 133.657 15.4388 134.824 16.0131C135.99 16.5874 137.273 16.8878 138.575 16.8913C138.755 16.8913 138.935 16.8913 139.113 16.874C140.645 16.778 142.121 16.2718 143.386 15.4091C144.652 14.5463 145.658 13.3593 146.298 11.9741C146.939 10.5889 147.19 9.05726 147.024 7.54183C146.859 6.02639 146.283 4.58377 145.358 3.36721L145.362 3.3576Z" fill="url(#paint20_linear_5901:12685)"/>
</g>
<path opacity="0.2" d="M146.61 8.44102C146.61 10.4694 145.833 12.4217 144.435 13.9008C143.038 15.3799 141.126 16.2747 139.088 16.4033C138.92 16.4148 138.749 16.4206 138.579 16.4206C137.348 16.4198 136.133 16.1378 135.028 15.5963C133.924 15.0547 132.96 14.2682 132.211 13.2975C131.461 12.3267 130.947 11.1978 130.707 9.998C130.467 8.79818 130.508 7.5596 130.826 6.378C131.145 5.19641 131.733 4.10346 132.545 3.18365C133.357 2.26384 134.371 1.54181 135.508 1.07339C136.646 0.604963 137.877 0.402689 139.106 0.482205C140.335 0.56172 141.529 0.920894 142.596 1.53196C143.526 2.06871 144.34 2.78409 144.989 3.63639C146.043 5.01894 146.613 6.70653 146.61 8.44102Z" fill="#6C63FF"/>
<path opacity="0.05" d="M136.602 3.38017C136.187 3.55795 135.786 3.76742 135.404 4.00669C135.149 4.14734 134.93 4.34465 134.764 4.58325C134.683 4.70291 134.638 4.84326 134.635 4.98745C134.633 5.13165 134.672 5.27357 134.748 5.39619C134.942 5.66141 135.329 5.70369 135.652 5.72098C135.949 5.78363 136.257 5.76682 136.545 5.67227C136.834 5.57773 137.091 5.40883 137.292 5.18286L137.983 4.56018C138.223 4.34494 138.486 4.04705 138.382 3.7434C138.302 3.51085 138.039 3.39746 137.801 3.35903C137.208 3.24297 136.592 3.35053 136.074 3.66076" fill="#F55F44"/>
<path opacity="0.05" d="M133.717 12.0098C133.95 12.0098 134.139 11.8222 134.139 11.5908C134.139 11.3595 133.95 11.1719 133.717 11.1719C133.484 11.1719 133.295 11.3595 133.295 11.5908C133.295 11.8222 133.484 12.0098 133.717 12.0098Z" fill="#F55F44"/>
<path opacity="0.05" d="M142.313 10.4704C143.169 10.4704 143.863 9.7812 143.863 8.93101C143.863 8.08082 143.169 7.3916 142.313 7.3916C141.457 7.3916 140.763 8.08082 140.763 8.93101C140.763 9.7812 141.457 10.4704 142.313 10.4704Z" fill="#F55F44"/>
<path opacity="0.05" d="M144.991 3.63406C144.985 4.03629 144.863 4.42832 144.639 4.76354C144.415 5.09876 144.099 5.36307 143.728 5.52504C143.357 5.68702 142.947 5.73986 142.547 5.67727C142.147 5.61468 141.774 5.4393 141.471 5.17198C141.169 4.90466 140.95 4.55664 140.84 4.16929C140.731 3.78194 140.736 3.37156 140.854 2.98692C140.973 2.60229 141.2 2.25958 141.509 1.99954C141.818 1.7395 142.196 1.57307 142.598 1.52002C143.529 2.05959 144.343 2.7783 144.991 3.63406Z" fill="#F55F44"/>
<path opacity="0.05" d="M145.146 13.0358C144.455 14.0124 143.552 14.822 142.503 15.4049C141.454 15.9877 140.287 16.3288 139.088 16.4029C139.078 16.2934 139.072 16.1819 139.072 16.0704C139.073 15.3702 139.269 14.6837 139.639 14.0877C140.009 13.4916 140.538 13.0094 141.168 12.6947C141.798 12.38 142.503 12.2453 143.205 12.3055C143.908 12.3657 144.579 12.6186 145.146 13.0358Z" fill="#F55F44"/>
<path opacity="0.25" d="M139.846 67.2303C140.391 67.2303 140.833 66.7915 140.833 66.2502C140.833 65.7088 140.391 65.27 139.846 65.27C139.301 65.27 138.86 65.7088 138.86 66.2502C138.86 66.7915 139.301 67.2303 139.846 67.2303Z" fill="#535461"/>
<path opacity="0.25" d="M8.28275 92.9832C8.8277 92.9832 9.26947 92.5444 9.26947 92.0031C9.26947 91.4618 8.8277 91.0229 8.28275 91.0229C7.73779 91.0229 7.29602 91.4618 7.29602 92.0031C7.29602 92.5444 7.73779 92.9832 8.28275 92.9832Z" fill="#535461"/>
<path opacity="0.25" d="M177.961 98.5565C178.506 98.5565 178.948 98.1177 178.948 97.5763C178.948 97.035 178.506 96.5962 177.961 96.5962C177.416 96.5962 176.974 97.035 176.974 97.5763C176.974 98.1177 177.416 98.5565 177.961 98.5565Z" fill="#535461"/>
<path opacity="0.25" d="M55.8623 52.1131C56.4073 52.1131 56.8491 51.6743 56.8491 51.133C56.8491 50.5917 56.4073 50.1528 55.8623 50.1528C55.3174 50.1528 54.8756 50.5917 54.8756 51.133C54.8756 51.6743 55.3174 52.1131 55.8623 52.1131Z" fill="#535461"/>
<path opacity="0.25" d="M52.6216 29.577C53.1666 29.577 53.6083 29.1382 53.6083 28.5968C53.6083 28.0555 53.1666 27.6167 52.6216 27.6167C52.0767 27.6167 51.6349 28.0555 51.6349 28.5968C51.6349 29.1382 52.0767 29.577 52.6216 29.577Z" fill="#535461"/>
<path opacity="0.25" d="M24.7204 74.2274C25.2653 74.2274 25.7071 73.7886 25.7071 73.2472C25.7071 72.7059 25.2653 72.2671 24.7204 72.2671C24.1754 72.2671 23.7336 72.7059 23.7336 73.2472C23.7336 73.7886 24.1754 74.2274 24.7204 74.2274Z" fill="#535461"/>
<path opacity="0.25" d="M164.296 74.3989H163.417V73.5283H163.06V74.3989H162.181V74.7564H163.06V75.627H163.417V74.7564H164.296V74.3989Z" fill="#535461"/>
<path opacity="0.25" d="M179 44.2256H178.122V43.355H177.764V44.2256H176.885V44.583H177.764V45.4536H178.122V44.583H179V44.2256Z" fill="#535461"/>
<path opacity="0.25" d="M116.385 27.3691H115.507V26.4966H115.149V27.3691H114.271V27.7246H115.149V28.5972H115.507V27.7246H116.385V27.3691Z" fill="#535461"/>
<path opacity="0.25" d="M154.713 69.5005H153.835V68.6299H153.477V69.5005H152.6V69.8579H153.477V70.7285H153.835V69.8579H154.713V69.5005Z" fill="#535461"/>
<path opacity="0.25" d="M122.584 98.4736H121.708V97.603H121.35V98.4736H120.472V98.8311H121.35V99.7017H121.708V98.8311H122.584V98.4736Z" fill="#535461"/>
<path opacity="0.25" d="M32.6839 38.706H31.8055V37.8354H31.4476V38.706H30.5692V39.0616H31.4476V39.9341H31.8055V39.0616H32.6839V38.706Z" fill="#535461"/>
<path opacity="0.25" d="M2.11469 50.0449H1.23631V49.1743H0.87838V50.0449H0V50.4005H0.87838V51.273H1.23631V50.4005H2.11469V50.0449Z" fill="#535461"/>
<path opacity="0.25" d="M44.8012 85.7378H43.9229V84.8652H43.5649V85.7378H42.6885V86.0933H43.5649V86.9658H43.9229V86.0933H44.8012V85.7378Z" fill="#535461"/>
<path d="M149.288 143.374C150.767 143.374 151.966 142.184 151.966 140.715C151.966 139.246 150.767 138.055 149.288 138.055C147.809 138.055 146.61 139.246 146.61 140.715C146.61 142.184 147.809 143.374 149.288 143.374Z" fill="url(#paint21_linear_5901:12685)"/>
<g opacity="0.4">
<path opacity="0.4" d="M52.0373 66.9421C51.7104 66.5125 51.3007 66.1519 50.832 65.8812C50.2944 65.5704 49.692 65.3869 49.0715 65.3448C48.451 65.3027 47.829 65.4032 47.254 65.6386C46.6789 65.8739 46.1662 66.2378 45.7556 66.7018C45.345 67.1659 45.0476 67.7177 44.8865 68.3145C44.7253 68.9112 44.7048 69.5368 44.8265 70.1427C44.9482 70.7485 45.2089 71.3184 45.5882 71.808C45.9675 72.2976 46.4553 72.6938 47.0138 72.9658C47.5722 73.2379 48.1862 73.3784 48.8082 73.3765C48.8933 73.3765 48.9804 73.3765 49.0636 73.3765C49.7927 73.3302 50.4955 73.0887 51.0976 72.6777C51.6997 72.2667 52.1786 71.7015 52.4834 71.042C52.7883 70.3825 52.9078 69.6534 52.8293 68.9319C52.7507 68.2104 52.4771 67.5235 52.0373 66.944V66.9421Z" fill="url(#paint22_linear_5901:12685)"/>
</g>
<path opacity="0.2" d="M52.6313 69.3633C52.6312 70.3294 52.2607 71.2592 51.5951 71.9636C50.9295 72.668 50.0187 73.0941 49.0481 73.1552C48.9688 73.1552 48.8875 73.1552 48.8062 73.1552C48.2198 73.1546 47.6414 73.0201 47.1157 72.762C46.59 72.504 46.131 72.1293 45.7743 71.667C45.4175 71.2047 45.1726 70.6671 45.0584 70.0958C44.9442 69.5244 44.9637 68.9347 45.1155 68.372C45.2673 67.8094 45.5473 67.289 45.9339 66.851C46.3205 66.413 46.8032 66.0691 47.3449 65.846C47.8866 65.6228 48.4727 65.5264 49.0578 65.5641C49.643 65.6019 50.2116 65.7727 50.7197 66.0635C51.1625 66.3191 51.5499 66.6594 51.8593 67.0648C52.3635 67.7261 52.6348 68.5338 52.6313 69.3633Z" fill="#6C63FF"/>
<path opacity="0.1" d="M47.8639 66.9537C47.6629 67.0378 47.4688 67.1374 47.2835 67.2516C47.1621 67.3175 47.0575 67.4102 46.9778 67.5226C46.941 67.58 46.9214 67.6467 46.9214 67.7148C46.9214 67.7829 46.941 67.8496 46.9778 67.907C47.0341 67.9618 47.1015 68.0039 47.1757 68.0304C47.2498 68.057 47.3288 68.0673 47.4073 68.0607C47.5476 68.0892 47.6929 68.0806 47.8287 68.0358C47.9645 67.9909 48.0861 67.9114 48.1812 67.8051L48.5101 67.5092C48.6243 67.4054 48.75 67.2651 48.7036 67.1248C48.6777 67.0717 48.6384 67.0261 48.5896 66.9925C48.5408 66.9588 48.4841 66.9382 48.425 66.9326C48.1424 66.8777 47.8493 66.929 47.6027 67.0767" fill="#F55F44"/>
<path opacity="0.1" d="M46.4903 71.0628C46.6014 71.0628 46.6915 70.9733 46.6915 70.863C46.6915 70.7526 46.6014 70.6631 46.4903 70.6631C46.3791 70.6631 46.2891 70.7526 46.2891 70.863C46.2891 70.9733 46.3791 71.0628 46.4903 71.0628Z" fill="#F55F44"/>
<path opacity="0.1" d="M50.5843 70.3306C50.9925 70.3306 51.3234 70.0019 51.3234 69.5965C51.3234 69.191 50.9925 68.8623 50.5843 68.8623C50.1761 68.8623 49.8452 69.191 49.8452 69.5965C49.8452 70.0019 50.1761 70.3306 50.5843 70.3306Z" fill="#F55F44"/>
<path opacity="0.1" d="M51.8592 67.0823C51.8568 67.2737 51.799 67.4605 51.6928 67.6202C51.5867 67.78 51.4365 67.9061 51.2602 67.9836C51.084 68.061 50.889 68.0865 50.6986 68.0571C50.5081 68.0277 50.3302 67.9445 50.186 67.8175C50.0417 67.6905 49.9372 67.5251 49.8849 67.3408C49.8326 67.1565 49.8347 66.9612 49.8909 66.7781C49.9471 66.595 50.0551 66.4317 50.2021 66.3078C50.349 66.1839 50.5286 66.1045 50.7197 66.0791C51.1627 66.3352 51.55 66.6762 51.8592 67.0823Z" fill="#F55F44"/>
<path opacity="0.1" d="M51.9348 71.5527C51.6059 72.018 51.1759 72.4038 50.6765 72.6816C50.1771 72.9594 49.6213 73.122 49.0501 73.1575C49.0501 73.1056 49.0501 73.0518 49.0501 72.998C49.049 72.6629 49.142 72.3341 49.3188 72.0487C49.4955 71.7633 49.7489 71.5326 50.0504 71.3824C50.352 71.2322 50.6898 71.1686 51.0257 71.1987C51.3617 71.2288 51.6825 71.3514 51.9522 71.5527H51.9348Z" fill="#F55F44"/>
<g opacity="0.1">
<path opacity="0.1" d="M95.4977 38.8311H75.5697V39.5998H95.4977V38.8311Z" fill="black"/>
</g>
<defs>
<linearGradient id="paint0_linear_5901:12685" x1="85.7369" y1="133.387" x2="85.7369" y2="9.23498" gradientUnits="userSpaceOnUse">
<stop stop-color="#808080" stop-opacity="0.25"/>
<stop offset="0.54" stop-color="#808080" stop-opacity="0.12"/>
<stop offset="1" stop-color="#808080" stop-opacity="0.1"/>
</linearGradient>
<linearGradient id="paint1_linear_5901:12685" x1="66.9233" y1="118.617" x2="66.9233" y2="130.653" gradientUnits="userSpaceOnUse">
<stop stop-color="#E0E0E0"/>
<stop offset="0.31" stop-color="#FCCC63"/>
<stop offset="0.77" stop-color="#F55F44"/>
</linearGradient>
<linearGradient id="paint2_linear_5901:12685" x1="1957.84" y1="7546.4" x2="1957.84" y2="8300.13" gradientUnits="userSpaceOnUse">
<stop stop-color="#E0E0E0"/>
<stop offset="0.31" stop-color="#FCCC63"/>
<stop offset="0.77" stop-color="#F55F44"/>
</linearGradient>
<linearGradient id="paint3_linear_5901:12685" x1="2176.56" y1="7546.4" x2="2176.56" y2="8300.13" gradientUnits="userSpaceOnUse">
<stop stop-color="#E0E0E0"/>
<stop offset="0.31" stop-color="#FCCC63"/>
<stop offset="0.77" stop-color="#F55F44"/>
</linearGradient>
<linearGradient id="paint4_linear_5901:12685" x1="2529.62" y1="7546.4" x2="2529.62" y2="8300.13" gradientUnits="userSpaceOnUse">
<stop stop-color="#E0E0E0"/>
<stop offset="0.31" stop-color="#FCCC63"/>
<stop offset="0.77" stop-color="#F55F44"/>
</linearGradient>
<linearGradient id="paint5_linear_5901:12685" x1="68998.4" y1="30159" x2="68998.4" y2="23421" gradientUnits="userSpaceOnUse">
<stop stop-color="#808080" stop-opacity="0.25"/>
<stop offset="0.54" stop-color="#808080" stop-opacity="0.12"/>
<stop offset="1" stop-color="#808080" stop-opacity="0.1"/>
</linearGradient>
<linearGradient id="paint6_linear_5901:12685" x1="52.7628" y1="112.721" x2="52.7628" y2="140.714" gradientUnits="userSpaceOnUse">
<stop stop-color="#F2F2F2"/>
<stop offset="0.31" stop-color="#E6E6E6"/>
<stop offset="0.77" stop-color="#CCCCCC"/>
</linearGradient>
<linearGradient id="paint7_linear_5901:12685" x1="8441.82" y1="18720.6" x2="8441.82" y2="23609.8" gradientUnits="userSpaceOnUse">
<stop stop-color="#F2F2F2"/>
<stop offset="0.31" stop-color="#E6E6E6"/>
<stop offset="0.77" stop-color="#CCCCCC"/>
</linearGradient>
<linearGradient id="paint8_linear_5901:12685" x1="18506.1" y1="18720.6" x2="18506.1" y2="23609.8" gradientUnits="userSpaceOnUse">
<stop stop-color="#F2F2F2"/>
<stop offset="0.31" stop-color="#E6E6E6"/>
<stop offset="0.77" stop-color="#CCCCCC"/>
</linearGradient>
<linearGradient id="paint9_linear_5901:12685" x1="16796.5" y1="17496.4" x2="16796.5" y2="21574" gradientUnits="userSpaceOnUse">
<stop stop-color="#F2F2F2"/>
<stop offset="0.31" stop-color="#E6E6E6"/>
<stop offset="0.77" stop-color="#CCCCCC"/>
</linearGradient>
<linearGradient id="paint10_linear_5901:12685" x1="16274.9" y1="17856.2" x2="16274.9" y2="21198.2" gradientUnits="userSpaceOnUse">
<stop stop-color="#F2F2F2"/>
<stop offset="0.31" stop-color="#E6E6E6"/>
<stop offset="0.77" stop-color="#CCCCCC"/>
</linearGradient>
<linearGradient id="paint11_linear_5901:12685" x1="18830.9" y1="11602.5" x2="18830.9" y2="12813.5" gradientUnits="userSpaceOnUse">
<stop stop-color="#F2F2F2"/>
<stop offset="0.31" stop-color="#E6E6E6"/>
<stop offset="0.77" stop-color="#CCCCCC"/>
</linearGradient>
<linearGradient id="paint12_linear_5901:12685" x1="22731" y1="13442.4" x2="22731" y2="15138.7" gradientUnits="userSpaceOnUse">
<stop stop-color="#F2F2F2"/>
<stop offset="0.31" stop-color="#E6E6E6"/>
<stop offset="0.77" stop-color="#CCCCCC"/>
</linearGradient>
<linearGradient id="paint13_linear_5901:12685" x1="10130.1" y1="13450.1" x2="10130.1" y2="15147.4" gradientUnits="userSpaceOnUse">
<stop stop-color="#F2F2F2"/>
<stop offset="0.31" stop-color="#E6E6E6"/>
<stop offset="0.77" stop-color="#CCCCCC"/>
</linearGradient>
<linearGradient id="paint14_linear_5901:12685" x1="3807.55" y1="3279.89" x2="3807.55" y2="3142.68" gradientUnits="userSpaceOnUse">
<stop stop-color="#808080" stop-opacity="0.25"/>
<stop offset="0.54" stop-color="#808080" stop-opacity="0.12"/>
<stop offset="1" stop-color="#808080" stop-opacity="0.1"/>
</linearGradient>
<linearGradient id="paint15_linear_5901:12685" x1="3538.34" y1="2925.32" x2="3538.34" y2="3043.14" gradientUnits="userSpaceOnUse">
<stop stop-color="#F2F2F2"/>
<stop offset="0.31" stop-color="#E6E6E6"/>
<stop offset="0.77" stop-color="#CCCCCC"/>
</linearGradient>
<linearGradient id="paint16_linear_5901:12685" x1="4496.72" y1="4319.93" x2="4496.72" y2="4156.8" gradientUnits="userSpaceOnUse">
<stop stop-color="#808080" stop-opacity="0.25"/>
<stop offset="0.54" stop-color="#808080" stop-opacity="0.12"/>
<stop offset="1" stop-color="#808080" stop-opacity="0.1"/>
</linearGradient>
<linearGradient id="paint17_linear_5901:12685" x1="149.288" y1="138.055" x2="149.288" y2="143.374" gradientUnits="userSpaceOnUse">
<stop stop-color="#F2F2F2"/>
<stop offset="0.31" stop-color="#E0E0E0"/>
<stop offset="0.77" stop-color="#B3B3B3"/>
</linearGradient>
<linearGradient id="paint18_linear_5901:12685" x1="943.497" y1="4214.92" x2="943.497" y2="4017.88" gradientUnits="userSpaceOnUse">
<stop stop-color="#808080" stop-opacity="0.25"/>
<stop offset="0.54" stop-color="#808080" stop-opacity="0.12"/>
<stop offset="1" stop-color="#808080" stop-opacity="0.1"/>
</linearGradient>
<linearGradient id="paint19_linear_5901:12685" x1="902.356" y1="3847.03" x2="902.356" y2="4026.81" gradientUnits="userSpaceOnUse">
<stop stop-color="#F2F2F2"/>
<stop offset="0.31" stop-color="#E6E6E6"/>
<stop offset="0.77" stop-color="#CCCCCC"/>
</linearGradient>
<linearGradient id="paint20_linear_5901:12685" x1="14619.7" y1="2579.34" x2="14619.7" y2="1096.46" gradientUnits="userSpaceOnUse">
<stop stop-color="#808080" stop-opacity="0.25"/>
<stop offset="0.54" stop-color="#808080" stop-opacity="0.12"/>
<stop offset="1" stop-color="#808080" stop-opacity="0.1"/>
</linearGradient>
<linearGradient id="paint21_linear_5901:12685" x1="4278.9" y1="3959.41" x2="4278.9" y2="4106.66" gradientUnits="userSpaceOnUse">
<stop stop-color="#F2F2F2"/>
<stop offset="0.31" stop-color="#E6E6E6"/>
<stop offset="0.77" stop-color="#CCCCCC"/>
</linearGradient>
<linearGradient id="paint22_linear_5901:12685" x1="3202.81" y1="3657.99" x2="3202.81" y2="3321.56" gradientUnits="userSpaceOnUse">
<stop stop-color="#808080" stop-opacity="0.25"/>
<stop offset="0.54" stop-color="#808080" stop-opacity="0.12"/>
<stop offset="1" stop-color="#808080" stop-opacity="0.1"/>
</linearGradient>
</defs>
</svg>
