<svg width="35" height="25" viewBox="0 0 35 25" fill="none" xmlns="http://www.w3.org/2000/svg">
<path d="M28.292 6.33366L22.1253 12.5003H26.7503C26.7503 17.6032 22.6032 21.7503 17.5003 21.7503C15.9432 21.7503 14.4632 21.3649 13.1837 20.6712L10.9328 22.922C12.8291 24.1245 15.0799 24.8337 17.5003 24.8337C24.3145 24.8337 29.8337 19.3145 29.8337 12.5003H34.4587L28.292 6.33366ZM8.25032 12.5003C8.25032 7.39741 12.3974 3.25033 17.5003 3.25033C19.0574 3.25033 20.5374 3.63574 21.817 4.32949L24.0678 2.07866C22.1716 0.876159 19.9207 0.166992 17.5003 0.166992C10.6862 0.166992 5.16699 5.68616 5.16699 12.5003H0.541992L6.70866 18.667L12.8753 12.5003H8.25032Z" fill="white"/>
</svg>
