<svg width="18" height="18" viewBox="0 0 18 18" fill="none" xmlns="http://www.w3.org/2000/svg">
<rect width="18" height="18" rx="3" fill="#F3F3F3"/>
<path d="M9.00008 6.33341C9.73341 6.33341 10.3334 5.73341 10.3334 5.00008C10.3334 4.26675 9.73341 3.66675 9.00008 3.66675C8.26675 3.66675 7.66675 4.26675 7.66675 5.00008C7.66675 5.73341 8.26675 6.33341 9.00008 6.33341ZM9.00008 7.66675C8.26675 7.66675 7.66675 8.26675 7.66675 9.00008C7.66675 9.73341 8.26675 10.3334 9.00008 10.3334C9.73341 10.3334 10.3334 9.73341 10.3334 9.00008C10.3334 8.26675 9.73341 7.66675 9.00008 7.66675ZM9.00008 11.6667C8.26675 11.6667 7.66675 12.2667 7.66675 13.0001C7.66675 13.7334 8.26675 14.3334 9.00008 14.3334C9.73341 14.3334 10.3334 13.7334 10.3334 13.0001C10.3334 12.2667 9.73341 11.6667 9.00008 11.6667Z" fill="#1854D1"/>
</svg>
