<svg width="17" height="16" viewBox="0 0 17 16" fill="none" xmlns="http://www.w3.org/2000/svg">
<path opacity="0.3" d="M3.91553 11.5299V12.1539H4.53954L10.6848 6.00866L10.0607 5.38464L3.91553 11.5299Z" fill="#FAFAFA"/>
<path d="M3.06934 10.7083V13H5.36068L12.1186 6.24111L9.82729 3.94944L3.06934 10.7083ZM4.85353 11.7778H4.29139V11.2156L9.82729 5.67889L10.3894 6.24111L4.85353 11.7778ZM13.8906 3.60722L12.4608 2.17722C12.3386 2.055 12.1858 2 12.027 2C11.8681 2 11.7154 2.06111 11.5993 2.17722L10.4811 3.29556L12.7724 5.58722L13.8906 4.46889C14.1289 4.23056 14.1289 3.84556 13.8906 3.60722Z" fill="#D0D4DB"/>
</svg>
