<svg width="14" height="14" viewBox="0 0 14 14" fill="none" xmlns="http://www.w3.org/2000/svg">
<path opacity="0.3" d="M5.25 5.8335C5.73325 5.8335 6.125 5.44175 6.125 4.9585C6.125 4.47525 5.73325 4.0835 5.25 4.0835C4.76675 4.0835 4.375 4.47525 4.375 4.9585C4.375 5.44175 4.76675 5.8335 5.25 5.8335Z" fill="#1854D1" fill-opacity="0.5"/>
<path opacity="0.3" d="M2.53174 9.91667H7.9684C7.4784 9.57833 6.29424 9.1875 5.25007 9.1875C4.2059 9.1875 3.02174 9.57833 2.53174 9.91667Z" fill="#1854D1" fill-opacity="0.5"/>
<path d="M5.24984 6.99984C6.37567 6.99984 7.2915 6.084 7.2915 4.95817C7.2915 3.83234 6.37567 2.9165 5.24984 2.9165C4.124 2.9165 3.20817 3.83234 3.20817 4.95817C3.20817 6.084 4.124 6.99984 5.24984 6.99984ZM5.24984 4.08317C5.734 4.08317 6.12484 4.474 6.12484 4.95817C6.12484 5.44234 5.734 5.83317 5.24984 5.83317C4.76567 5.83317 4.37484 5.44234 4.37484 4.95817C4.37484 4.474 4.76567 4.08317 5.24984 4.08317ZM5.24984 8.02067C3.88484 8.02067 1.1665 8.70317 1.1665 10.0623V11.0832H9.33317V10.0623C9.33317 8.70317 6.61484 8.02067 5.24984 8.02067ZM2.5315 9.9165C3.0215 9.57817 4.20567 9.18734 5.24984 9.18734C6.294 9.18734 7.47817 9.57817 7.96817 9.9165H2.5315ZM9.35651 8.05567C10.0332 8.54567 10.4998 9.19901 10.4998 10.0623V11.0832H12.8332V10.0623C12.8332 8.88401 10.7915 8.21317 9.35651 8.05567ZM8.74984 6.99984C9.87567 6.99984 10.7915 6.084 10.7915 4.95817C10.7915 3.83234 9.87567 2.9165 8.74984 2.9165C8.43484 2.9165 8.14317 2.99234 7.87484 3.12067C8.24234 3.63984 8.45817 4.27567 8.45817 4.95817C8.45817 5.64067 8.24234 6.2765 7.87484 6.79567C8.14317 6.924 8.43484 6.99984 8.74984 6.99984Z" fill="#1854D1" fill-opacity="0.5"/>
</svg>
