<svg width="400" height="254" viewBox="0 0 400 254" fill="none" xmlns="http://www.w3.org/2000/svg">
<g clip-path="url(#clip0_1083_1734)">
<path d="M137.78 237.772L125.534 244.857L137.607 241.954C137.514 242.947 137.387 243.923 137.218 244.878C137.172 245.143 137.121 245.404 137.066 245.665C136.654 247.858 135.906 249.975 134.849 251.943C134.647 252.304 134.444 252.658 134.233 252.999C134.03 253.344 133.819 253.676 133.604 254H101.143C100.873 253.676 100.615 253.339 100.379 252.999C98.0644 249.753 97.1269 245.728 97.7694 241.798C97.8874 240.999 98.0566 240.208 98.276 239.43C98.4888 238.634 98.7468 237.852 99.0488 237.086C99.5761 235.733 100.198 234.418 100.911 233.152C102.398 230.485 104.716 228.078 107.448 225.94C108.771 224.912 110.149 223.957 111.578 223.079C111.848 222.907 112.123 222.739 112.401 222.574C112.828 222.322 113.254 222.074 113.685 221.834C114.542 221.346 115.408 220.883 116.273 220.446C116.501 220.328 116.725 220.214 116.949 220.105C118.828 219.171 120.699 218.333 122.481 217.597C122.705 217.505 122.933 217.412 123.156 217.324C126.701 215.879 130.328 214.641 134.017 213.617C134.017 213.617 134.03 213.65 134.051 213.722C134.106 213.916 134.246 214.383 134.435 215.073C134.963 216.987 135.892 220.639 136.64 225.048C136.682 225.288 136.72 225.532 136.762 225.776C137.387 229.506 137.732 233.276 137.797 237.057C137.801 237.292 137.801 237.524 137.801 237.759L137.78 237.772Z" fill="#F2F2F2"/>
<path d="M134.913 213.188C134.908 213.2 134.866 213.406 134.769 213.785C134.689 214.101 134.579 214.534 134.435 215.073C133.941 216.953 133.063 220.105 131.813 223.9C131.741 224.119 131.665 224.346 131.589 224.573C130.719 227.169 129.685 230.039 128.49 232.988C128.19 233.729 127.89 234.456 127.582 235.167C127.489 235.39 127.396 235.609 127.299 235.824C125.99 238.845 124.643 241.609 123.258 244.117L122.907 244.744C121.298 247.653 119.434 250.415 117.338 252.999C117.055 253.344 116.767 253.676 116.476 254H115.496C115.792 253.676 116.088 253.34 116.375 252.999C118.591 250.326 120.552 247.452 122.232 244.415C122.35 244.209 122.468 244.003 122.582 243.793C124.073 241.096 125.428 238.277 126.64 235.483C126.737 235.268 126.83 235.05 126.923 234.827C128.507 231.133 129.837 227.501 130.909 224.304C130.986 224.077 131.062 223.849 131.133 223.626C132.696 218.906 133.675 215.203 134.051 213.722C134.102 213.503 134.144 213.331 134.174 213.213C134.203 213.104 134.216 213.04 134.22 213.028L134.562 213.108H134.566L134.913 213.188Z" fill="white"/>
<path d="M137.286 225.103C137.071 225.091 136.855 225.07 136.64 225.049C134.987 224.878 133.365 224.491 131.813 223.9C131.589 223.812 131.361 223.723 131.133 223.626C130.516 223.362 129.912 223.066 129.326 222.739C126.9 221.401 124.794 219.553 123.156 217.324C123.102 217.252 123.047 217.176 122.996 217.105C122.776 217.197 122.553 217.29 122.325 217.383C122.375 217.454 122.426 217.526 122.481 217.597C124.19 219.976 126.41 221.945 128.98 223.361C129.606 223.709 130.25 224.024 130.909 224.304C131.133 224.396 131.361 224.489 131.589 224.573C133.252 225.204 134.992 225.609 136.762 225.776C136.973 225.797 137.189 225.814 137.4 225.827C137.362 225.579 137.324 225.339 137.286 225.103Z" fill="white"/>
<path d="M137.797 237.057C134.282 237.376 130.747 236.723 127.582 235.167C127.358 235.062 127.139 234.949 126.923 234.827C126.855 234.796 126.789 234.761 126.725 234.721C124.045 233.237 121.759 231.136 120.059 228.594C118.358 226.051 117.292 223.141 116.949 220.105C116.941 220.033 116.932 219.957 116.924 219.886C116.696 220.004 116.468 220.117 116.244 220.235C116.252 220.307 116.261 220.374 116.273 220.446C116.664 223.546 117.782 226.51 119.538 229.099C121.294 231.688 123.637 233.827 126.379 235.344C126.463 235.39 126.552 235.441 126.64 235.483C126.86 235.601 127.079 235.714 127.299 235.824C130.549 237.412 134.173 238.086 137.78 237.772C137.97 237.755 138.16 237.734 138.35 237.713C138.35 237.473 138.354 237.238 138.354 236.998C138.168 237.019 137.983 237.04 137.797 237.057Z" fill="white"/>
<path d="M137.218 244.878C133.417 246.121 129.32 246.152 125.5 244.967C124.735 244.731 123.986 244.447 123.258 244.117C123.03 244.016 122.806 243.906 122.582 243.793C122.342 243.675 122.105 243.549 121.873 243.422C118.714 241.671 116.114 239.069 114.367 235.916C112.621 232.762 111.799 229.183 111.996 225.587C112.047 224.573 112.183 223.566 112.401 222.575C112.414 222.507 112.427 222.44 112.444 222.373C112.165 222.545 111.886 222.718 111.612 222.894C111.599 222.957 111.586 223.016 111.578 223.079C111.33 224.438 111.227 225.819 111.269 227.199C111.363 230.651 112.357 234.021 114.155 236.974C115.953 239.927 118.492 242.363 121.522 244.041C121.759 244.171 121.995 244.298 122.232 244.415C122.456 244.529 122.684 244.638 122.907 244.744C127.354 246.772 132.393 247.1 137.066 245.665C137.222 245.623 137.379 245.573 137.535 245.522C137.598 245.253 137.653 244.983 137.704 244.714C137.543 244.773 137.383 244.828 137.218 244.878Z" fill="white"/>
<path d="M108.208 103.722H84.5606V127.284H108.208V103.722Z" fill="#9E616A"/>
<path d="M69.813 244.543L74.4724 244.543L76.6885 226.637L69.8122 226.638L69.813 244.543Z" fill="#9E616A"/>
<path d="M82.6012 249.776L75.6 244.958V241.815L74.806 241.861L69.8148 242.16L68.2354 242.253L67.336 252.999L67.3065 253.356H70.6129L70.6804 252.999L71.2041 250.247L72.5427 252.999L72.7159 253.356H81.4822C82.0042 253.355 82.5045 253.148 82.874 252.781C83.2435 252.414 83.4521 251.916 83.4542 251.396C83.4545 251.077 83.377 250.763 83.2284 250.481C83.0798 250.199 82.8645 249.957 82.6012 249.776Z" fill="#2F2E41"/>
<path d="M97.0612 241.596L101.539 242.879L108.637 226.281L102.028 224.387L97.0612 241.596Z" fill="#9E616A"/>
<path d="M107.9 250.15L102.507 243.591L103.381 240.57L102.604 240.397L98.2761 239.43L97.7228 239.308L96.1816 238.963L92.2079 249.376L95.3834 250.289L96.815 247.462L97.402 250.865L99.4035 251.438L104.847 252.999L105.831 253.281C106.234 253.397 106.665 253.382 107.06 253.237C107.454 253.092 107.792 252.825 108.023 252.475C108.255 252.125 108.367 251.711 108.345 251.293C108.323 250.874 108.167 250.474 107.9 250.15V250.15Z" fill="#2F2E41"/>
<path d="M398.619 0H151.816C151.45 0.00111367 151.098 0.147002 150.84 0.405691C150.581 0.664379 150.435 1.01476 150.435 1.38005V9.4794C150.435 9.84469 150.581 10.1951 150.84 10.4538C151.098 10.7125 151.45 10.8583 151.816 10.8594H398.619C398.986 10.8584 399.337 10.7125 399.596 10.4538C399.855 10.1951 400 9.8447 400 9.4794V1.38005C400 1.01475 399.855 0.664349 399.596 0.405652C399.337 0.146956 398.986 0.00107595 398.619 0Z" fill="#E4E4E4"/>
<path d="M158.458 6.98973C159.542 6.98973 160.421 6.1142 160.421 5.03417C160.421 3.95415 159.542 3.07861 158.458 3.07861C157.374 3.07861 156.495 3.95415 156.495 5.03417C156.495 6.1142 157.374 6.98973 158.458 6.98973Z" fill="white"/>
<path d="M165.908 6.98973C166.992 6.98973 167.87 6.1142 167.87 5.03417C167.87 3.95415 166.992 3.07861 165.908 3.07861C164.824 3.07861 163.945 3.95415 163.945 5.03417C163.945 6.1142 164.824 6.98973 165.908 6.98973Z" fill="white"/>
<path d="M173.358 6.98973C174.442 6.98973 175.32 6.1142 175.32 5.03417C175.32 3.95415 174.442 3.07861 173.358 3.07861C172.274 3.07861 171.395 3.95415 171.395 5.03417C171.395 6.1142 172.274 6.98973 173.358 6.98973Z" fill="white"/>
<path d="M391.318 2.42358H382.742C382.573 2.42358 382.411 2.4903 382.292 2.60905C382.173 2.72781 382.106 2.88887 382.106 3.05681C382.106 3.22475 382.173 3.38581 382.292 3.50456C382.411 3.62332 382.573 3.69003 382.742 3.69003H391.318C391.487 3.69003 391.648 3.62332 391.767 3.50456C391.887 3.38581 391.953 3.22475 391.953 3.05681C391.953 2.88887 391.887 2.72781 391.767 2.60905C391.648 2.4903 391.487 2.42358 391.318 2.42358Z" fill="white"/>
<path d="M391.318 4.79639H382.742C382.658 4.79639 382.575 4.81277 382.498 4.84459C382.421 4.87641 382.351 4.92306 382.292 4.98186C382.233 5.04066 382.186 5.11046 382.154 5.18729C382.122 5.26411 382.106 5.34646 382.106 5.42961C382.106 5.51277 382.122 5.59511 382.154 5.67194C382.186 5.74876 382.233 5.81857 382.292 5.87737C382.351 5.93617 382.421 5.98281 382.498 6.01463C382.575 6.04646 382.658 6.06284 382.742 6.06284H391.318C391.401 6.06284 391.484 6.04646 391.561 6.01463C391.638 5.98281 391.708 5.93617 391.767 5.87737C391.826 5.81857 391.873 5.74876 391.905 5.67194C391.937 5.59511 391.953 5.51277 391.953 5.42961C391.953 5.34646 391.937 5.26411 391.905 5.18729C391.873 5.11046 391.826 5.04066 391.767 4.98186C391.708 4.92306 391.638 4.87641 391.561 4.84459C391.484 4.81277 391.401 4.79639 391.318 4.79639Z" fill="white"/>
<path d="M391.318 7.16943H382.742C382.573 7.16943 382.411 7.23614 382.292 7.3549C382.173 7.47365 382.106 7.63471 382.106 7.80265C382.106 7.97059 382.173 8.13165 382.292 8.25041C382.411 8.36916 382.573 8.43588 382.742 8.43588H391.318C391.487 8.43588 391.648 8.36916 391.767 8.25041C391.887 8.13165 391.953 7.97059 391.953 7.80265C391.953 7.63471 391.887 7.47365 391.767 7.3549C391.648 7.23614 391.487 7.16943 391.318 7.16943Z" fill="white"/>
<path d="M390.343 34.2866H326.398C325.952 34.2877 325.525 34.4645 325.21 34.7783C324.895 35.0921 324.718 35.5174 324.717 35.9612V61.816C324.718 62.2598 324.895 62.6851 325.21 62.9989C325.525 63.3127 325.952 63.4895 326.398 63.4906H390.343C390.788 63.4902 391.215 63.3136 391.53 62.9996C391.846 62.6857 392.023 62.26 392.023 61.816V35.9612C392.023 35.5172 391.846 35.0915 391.53 34.7776C391.215 34.4636 390.788 34.287 390.343 34.2866Z" fill="#E4E4E4"/>
<path d="M384.253 71.8718H332.487C331.952 71.8718 331.439 72.0835 331.061 72.4603C330.683 72.8371 330.47 73.3481 330.47 73.8809C330.47 74.4137 330.683 74.9247 331.061 75.3015C331.439 75.6783 331.952 75.89 332.487 75.89H384.253C386.88 75.9278 386.855 71.834 384.253 71.8718Z" fill="#E4E4E4"/>
<path d="M384.253 81.0818H332.487C331.952 81.0818 331.439 81.2935 331.061 81.6703C330.683 82.047 330.47 82.558 330.47 83.0909C330.47 83.6237 330.683 84.1347 331.061 84.5115C331.439 84.8883 331.952 85.0999 332.487 85.0999H384.253C386.88 85.1378 386.855 81.0439 384.253 81.0818Z" fill="#E4E4E4"/>
<path d="M384.253 90.292H332.487C331.952 90.292 331.439 90.5037 331.061 90.8804C330.683 91.2572 330.47 91.7682 330.47 92.3011C330.47 92.8339 330.683 93.3449 331.061 93.7217C331.439 94.0985 331.952 94.3101 332.487 94.3101H384.253C386.88 94.348 386.855 90.2541 384.253 90.292Z" fill="#E4E4E4"/>
<path d="M306.31 34.2866H242.365C241.919 34.2877 241.493 34.4645 241.178 34.7783C240.863 35.0921 240.685 35.5174 240.684 35.9612V61.816C240.685 62.2598 240.863 62.6851 241.178 62.9989C241.493 63.3127 241.919 63.4895 242.365 63.4906H306.31C306.755 63.4902 307.183 63.3136 307.498 62.9996C307.813 62.6857 307.99 62.26 307.99 61.816V35.9612C307.99 35.5172 307.813 35.0915 307.498 34.7776C307.183 34.4636 306.755 34.287 306.31 34.2866Z" fill="#E4E4E4"/>
<path d="M300.221 71.8718H248.454C247.919 71.8718 247.406 72.0835 247.028 72.4603C246.65 72.8371 246.438 73.3481 246.438 73.8809C246.438 74.4137 246.65 74.9247 247.028 75.3015C247.406 75.6783 247.919 75.89 248.454 75.89H300.221C302.847 75.9278 302.822 71.834 300.221 71.8718Z" fill="#E4E4E4"/>
<path d="M300.221 81.0818H248.454C247.919 81.0818 247.406 81.2935 247.028 81.6703C246.65 82.047 246.438 82.558 246.438 83.0909C246.438 83.6237 246.65 84.1347 247.028 84.5115C247.406 84.8883 247.919 85.0999 248.454 85.0999H300.221C302.847 85.1378 302.822 81.0439 300.221 81.0818Z" fill="#E4E4E4"/>
<path d="M300.221 90.292H248.454C247.919 90.292 247.406 90.5037 247.028 90.8804C246.65 91.2572 246.438 91.7682 246.438 92.3011C246.438 92.8339 246.65 93.3449 247.028 93.7217C247.406 94.0985 247.919 94.3101 248.454 94.3101H300.221C302.847 94.348 302.822 90.2541 300.221 90.292Z" fill="#E4E4E4"/>
<path d="M145.967 83.1845C145.885 83.4237 145.826 83.6698 145.788 83.9197L119.605 79.3085L97.0527 67.1913C95.634 66.4289 93.9779 66.231 92.4185 66.6374C90.8592 67.0439 89.5125 68.0244 88.6501 69.3812C87.7878 70.738 87.4739 72.3702 87.7718 73.9485C88.0697 75.5269 88.9573 76.9339 90.2555 77.8858H90.2555C94.4622 80.971 99.1261 83.3835 104.079 85.0366L120.429 90.4934L149.069 88.6644C149.864 88.8353 150.692 88.7737 151.453 88.4868C152.214 88.1999 152.875 87.7001 153.358 87.0474C153.84 86.3947 154.123 85.617 154.173 84.8079C154.222 83.9988 154.036 83.1926 153.636 82.4865C153.236 81.7804 152.64 81.2045 151.92 80.8279C151.199 80.4513 150.385 80.2902 149.575 80.3639C148.765 80.4377 147.993 80.7431 147.353 81.2435C146.713 81.7439 146.232 82.4179 145.967 83.1845Z" fill="#9E616A"/>
<path d="M210.369 83.2656H128.862C128.293 83.2664 127.748 83.4918 127.346 83.8925C126.943 84.2932 126.717 84.8364 126.716 85.403V118.352C126.717 118.918 126.943 119.461 127.346 119.862C127.748 120.263 128.293 120.488 128.862 120.489H210.369C210.937 120.487 211.481 120.261 211.883 119.861C212.284 119.46 212.509 118.918 212.51 118.352V85.403C212.509 84.8371 212.284 84.2944 211.883 83.8938C211.481 83.4932 210.937 83.2673 210.369 83.2656Z" fill="#1854D1"/>
<path d="M202.607 131.172H136.623C135.941 131.172 135.287 131.442 134.804 131.922C134.322 132.403 134.051 133.054 134.051 133.734C134.051 134.414 134.322 135.065 134.804 135.546C135.287 136.026 135.941 136.296 136.623 136.296H202.607C205.956 136.343 205.922 131.125 202.607 131.172Z" fill="#1854D1"/>
<path d="M202.607 142.91H136.623C135.941 142.91 135.287 143.18 134.804 143.661C134.322 144.141 134.051 144.793 134.051 145.473C134.051 146.152 134.322 146.804 134.804 147.285C135.287 147.765 135.941 148.035 136.623 148.035H202.607C205.956 148.081 205.922 142.864 202.607 142.91Z" fill="#1854D1"/>
<path d="M202.607 154.654H136.623C136.285 154.654 135.951 154.72 135.64 154.848C135.328 154.977 135.045 155.166 134.806 155.403C134.567 155.641 134.378 155.923 134.249 156.234C134.12 156.545 134.053 156.878 134.053 157.214C134.053 157.55 134.12 157.883 134.249 158.193C134.378 158.504 134.567 158.786 134.806 159.024C135.045 159.262 135.328 159.45 135.64 159.579C135.951 159.708 136.285 159.774 136.623 159.774H202.607C205.956 159.82 205.922 154.607 202.607 154.654Z" fill="#1854D1"/>
<path d="M108.679 55.4952C112.004 49.4336 109.768 41.8336 103.685 38.5201C97.6012 35.2066 89.9736 37.4343 86.648 43.4958C83.3224 49.5573 85.5582 57.1573 91.6418 60.4709C97.7254 63.7844 105.353 61.5567 108.679 55.4952Z" fill="#9E616A"/>
<path d="M99.7625 34.2991H91.653C86.3367 34.2991 82.0269 39.13 82.0269 45.0894C78.0153 49.1028 79.2192 54.1308 82.4022 59.5438C88.1466 60.2558 93.7652 61.7532 99.0993 63.9935L99.8563 60.7729L101.349 65.0144C102.677 65.6554 103.994 66.3564 105.299 67.1172C103.776 59.9851 103.148 52.8696 104.194 47.3422H106.941V44.3473L107.874 47.3422H112.853C112.853 45.6293 112.514 43.9333 111.857 42.3508C111.199 40.7683 110.234 39.3305 109.019 38.1193C107.803 36.9081 106.36 35.9474 104.772 35.2919C103.184 34.6364 101.482 34.2991 99.7625 34.2991Z" fill="#2F2E41"/>
<path d="M98.9179 65.4343L83.7349 64.7783L83.3266 66.324C79.9674 79.0399 79.4486 92.3351 81.8068 105.272C82.2577 105.695 82.5871 106.231 82.7612 106.823C82.9352 107.415 82.9475 108.043 82.7968 108.641L82.5787 109.507L82.5989 109.539C83.3148 110.665 83.5576 112.026 83.2751 113.328L84.0345 117.494L108.63 106.667L114.12 87.7338L98.9179 65.4343Z" fill="#CACACA"/>
<path d="M136.545 105.34C136.375 105.527 136.222 105.729 136.087 105.943L113.917 91.3191L98.077 71.2519C97.0806 69.9895 95.6408 69.1505 94.0481 68.9042C92.4553 68.6579 90.828 69.0226 89.4945 69.9247C88.161 70.8268 87.2204 72.1992 86.8625 73.7651C86.5046 75.331 86.756 76.9739 87.566 78.3624C90.1907 82.8621 93.5036 86.9265 97.3853 90.4089L110.2 101.905L137.199 111.597C137.86 112.07 138.644 112.342 139.457 112.381C140.269 112.42 141.076 112.224 141.779 111.817C142.483 111.41 143.054 110.809 143.422 110.086C143.791 109.364 143.943 108.55 143.858 107.744C143.774 106.938 143.458 106.173 142.948 105.541C142.438 104.91 141.755 104.439 140.982 104.185C140.21 103.931 139.38 103.905 138.593 104.11C137.806 104.314 137.095 104.741 136.545 105.34L136.545 105.34Z" fill="#9E616A"/>
<path d="M184.759 63.3916C182.36 63.3916 180.013 62.6825 178.018 61.354C176.023 60.0255 174.467 58.1372 173.549 55.928C172.63 53.7188 172.39 51.2878 172.858 48.9425C173.327 46.5973 174.482 44.443 176.179 42.7521C177.876 41.0613 180.038 39.9098 182.392 39.4433C184.746 38.9767 187.186 39.2162 189.403 40.1313C191.62 41.0463 193.515 42.596 194.849 44.5842C196.182 46.5725 196.894 48.91 196.894 51.3012C196.894 54.5078 195.615 57.583 193.34 59.8504C191.064 62.1178 187.978 63.3916 184.759 63.3916Z" fill="#E4E4E4"/>
<path d="M189.547 50.1087H185.956V46.5308C185.956 46.2145 185.83 45.9111 185.606 45.6875C185.381 45.4638 185.077 45.3381 184.759 45.3381C184.442 45.3381 184.138 45.4638 183.913 45.6875C183.689 45.9111 183.562 46.2145 183.562 46.5308V50.1087H179.972C179.654 50.1093 179.351 50.2352 179.127 50.4588C178.903 50.6824 178.777 50.9854 178.777 51.3013C178.777 51.6172 178.903 51.9203 179.127 52.1439C179.351 52.3675 179.654 52.4934 179.972 52.494H183.562V56.0719C183.562 56.3882 183.689 56.6915 183.913 56.9152C184.138 57.1389 184.442 57.2645 184.759 57.2645C185.077 57.2645 185.381 57.1389 185.606 56.9152C185.83 56.6915 185.956 56.3882 185.956 56.0719V52.494H189.547C189.705 52.4942 189.861 52.4636 190.006 52.4038C190.152 52.344 190.284 52.2562 190.395 52.1454C190.507 52.0347 190.595 51.9031 190.655 51.7582C190.715 51.6134 190.747 51.4581 190.747 51.3013C190.747 51.1445 190.715 50.9892 190.655 50.8444C190.595 50.6996 190.507 50.568 190.395 50.4572C190.284 50.3464 190.152 50.2586 190.006 50.1988C189.861 50.139 189.705 50.1084 189.547 50.1087Z" fill="white"/>
<path d="M124.25 198.364C124.644 197.328 124.79 196.214 124.675 195.112C124.559 194.01 124.187 192.949 123.587 192.016L112.853 136.54L108.63 115.503H83.2937C83.2937 115.503 67.4584 132.964 70.8366 155.264L69.891 186.668C68.9942 188.822 68.7728 191.196 69.2562 193.478L69.6325 195.255L69.4873 195.522C68.796 196.797 68.4246 198.219 68.4049 199.668C68.3851 201.117 68.7176 202.549 69.3739 203.841L68.303 239.413L75.9039 238.992L87.0942 197.549L94.484 160.313L106.941 189.134L107.363 195.866L107.158 201.8L97.44 236.468L105.674 239.623L124.25 198.364Z" fill="#2F2E41"/>
<path d="M185.417 253.653C185.416 253.745 185.32 253.833 185.15 253.898C184.979 253.963 184.748 254 184.507 254H-149.785C-150.026 254 -150.257 253.963 -150.428 253.898C-150.599 253.833 -150.694 253.745 -150.694 253.653C-150.694 253.561 -150.599 253.473 -150.428 253.408C-150.257 253.343 -150.026 253.306 -149.785 253.306H184.507C184.627 253.306 184.745 253.315 184.856 253.332C184.966 253.35 185.066 253.375 185.151 253.407C185.236 253.44 185.303 253.478 185.348 253.52C185.394 253.562 185.417 253.607 185.417 253.653Z" fill="#CACACA"/>
</g>
<defs>
<clipPath id="clip0_1083_1734">
<rect width="400" height="254" fill="white"/>
</clipPath>
</defs>
</svg>
