<svg width="40" height="40" viewBox="0 0 40 40" fill="none" xmlns="http://www.w3.org/2000/svg">
<circle cx="20" cy="20" r="20" fill="url(#paint0_linear)"/>
<path opacity="0.3" d="M14.1667 16.6667H25.8334V15H14.1667V16.6667Z" fill="white"/>
<path d="M15.8333 19.1667H17.5V20.8334H15.8333V19.1667ZM25.8333 13.3334H25V11.6667H23.3333V13.3334H16.6667V11.6667H15V13.3334H14.1667C13.2417 13.3334 12.5083 14.0834 12.5083 15.0001L12.5 26.6667C12.5 27.5834 13.2417 28.3334 14.1667 28.3334H25.8333C26.75 28.3334 27.5 27.5834 27.5 26.6667V15.0001C27.5 14.0834 26.75 13.3334 25.8333 13.3334ZM25.8333 26.6667H14.1667V18.3334H25.8333V26.6667ZM25.8333 16.6667H14.1667V15.0001H25.8333V16.6667ZM22.5 19.1667H24.1667V20.8334H22.5V19.1667ZM19.1667 19.1667H20.8333V20.8334H19.1667V19.1667Z" fill="white"/>
<defs>
<linearGradient id="paint0_linear" x1="0" y1="0" x2="40" y2="40" gradientUnits="userSpaceOnUse">
<stop stop-color="#FCCF31"/>
<stop offset="1" stop-color="#F55555"/>
</linearGradient>
</defs>
</svg>
