<svg width="160" height="161" viewBox="0 0 160 161" fill="none" xmlns="http://www.w3.org/2000/svg">
<g clip-path="url(#clip0_23_123)">
<path d="M41.0112 130.899C41.2164 130.905 41.42 130.862 41.6055 130.774C41.791 130.686 41.9531 130.556 42.0787 130.393C42.1967 130.251 42.2848 130.086 42.3376 129.909C42.3904 129.732 42.4068 129.546 42.3858 129.362C42.3648 129.179 42.3068 129.001 42.2154 128.84C42.124 128.68 42.0011 128.539 41.8539 128.427C40.7304 127.528 39.6629 126.629 38.6517 125.674C38.3741 125.433 38.0131 125.309 37.6457 125.33C37.2783 125.351 36.9337 125.515 36.6854 125.787C36.5595 125.921 36.4621 126.079 36.3993 126.253C36.3365 126.426 36.3096 126.61 36.3201 126.794C36.3306 126.978 36.3784 127.157 36.4605 127.322C36.5426 127.487 36.6573 127.634 36.7978 127.753C37.8693 128.768 38.9945 129.724 40.1686 130.618C40.4021 130.818 40.7045 130.919 41.0112 130.899Z" fill="#79B6FF"/>
<path d="M31.0112 121.011C31.33 120.996 31.6394 120.899 31.9101 120.73C32.197 120.497 32.3811 120.161 32.4231 119.793C32.4651 119.426 32.3616 119.056 32.1348 118.764C28.076 113.731 24.8515 108.078 22.5843 102.023C22.4471 101.684 22.1821 101.414 21.8467 101.269C21.5114 101.125 21.1326 101.119 20.7926 101.252C20.4526 101.385 20.1788 101.646 20.0304 101.98C19.882 102.314 19.8711 102.692 20 103.034C22.3737 109.374 25.75 115.292 30 120.562C30.1258 120.706 30.2814 120.821 30.456 120.898C30.6307 120.976 30.8201 121.014 31.0112 121.011Z" fill="#79B6FF"/>
<path d="M17.472 86.8539H17.5844C17.7696 86.8412 17.9503 86.7916 18.1161 86.708C18.2819 86.6245 18.4293 86.5087 18.5496 86.3674C18.67 86.2261 18.7609 86.0621 18.8171 85.8852C18.8732 85.7082 18.8934 85.5219 18.8765 85.337C18.7641 83.7078 18.708 82.0224 18.708 80.3932V80.1123C18.7095 79.9274 18.6742 79.7441 18.6041 79.5731C18.534 79.402 18.4306 79.2466 18.2999 79.1158C18.1692 78.9851 18.0138 78.8817 17.8427 78.8117C17.6716 78.7416 17.4883 78.7063 17.3035 78.7078C17.1186 78.7063 16.9353 78.7416 16.7642 78.8117C16.5931 78.8817 16.4377 78.9851 16.307 79.1158C16.1763 79.2466 16.0729 79.402 16.0028 79.5731C15.9328 79.7441 15.8975 79.9274 15.899 80.1123V80.3932C15.899 82.1348 15.9552 83.8202 16.1237 85.5617C16.1273 85.7351 16.1651 85.9061 16.2349 86.0649C16.3046 86.2237 16.4049 86.3671 16.5302 86.4871C16.6554 86.6071 16.803 86.7013 16.9646 86.7642C17.1262 86.8271 17.2986 86.8576 17.472 86.8539Z" fill="#79B6FF"/>
<path d="M17.9776 72.3034C18.3082 72.3073 18.6285 72.189 18.8773 71.9713C19.1261 71.7536 19.2858 71.4518 19.3259 71.1237C20.2894 64.902 22.1832 58.8606 24.9439 53.2023C25.1008 52.8754 25.1229 52.4998 25.0054 52.1568C24.8879 51.8137 24.6403 51.5305 24.316 51.3683C23.9916 51.2061 23.6165 51.1779 23.2715 51.2898C22.9266 51.4017 22.6394 51.6447 22.472 51.9664C19.56 57.8637 17.5705 64.1732 16.5731 70.6742C16.543 70.8555 16.5499 71.0411 16.5934 71.2196C16.637 71.3982 16.7163 71.566 16.8266 71.7131C16.9369 71.8601 17.0758 71.9832 17.235 72.0751C17.3942 72.1669 17.5704 72.2255 17.7529 72.2473C17.8091 72.3034 17.8653 72.3034 17.9776 72.3034Z" fill="#79B6FF"/>
<path d="M39.7192 33.7079C40.0496 33.707 40.3686 33.5874 40.6181 33.3708C44.5475 30.0797 48.8686 27.287 53.4833 25.0562C53.6493 24.9787 53.7984 24.8693 53.9221 24.7342C54.0458 24.5991 54.1417 24.441 54.2043 24.2688C54.2669 24.0967 54.295 23.9139 54.2869 23.7309C54.2789 23.5479 54.2349 23.3682 54.1574 23.2022C54.08 23.0362 53.9705 22.8871 53.8355 22.7634C53.7004 22.6397 53.5422 22.5438 53.3701 22.4812C53.1979 22.4186 53.0151 22.3905 52.8321 22.3986C52.6491 22.4066 52.4695 22.4506 52.3035 22.5281C47.4723 24.85 42.9441 27.7555 38.8203 31.1798C38.6759 31.2949 38.5565 31.4382 38.4694 31.601C38.3822 31.7638 38.3291 31.9427 38.3133 32.1267C38.2975 32.3107 38.3194 32.4959 38.3776 32.6712C38.4358 32.8465 38.5291 33.008 38.6518 33.1461C38.7609 33.3288 38.9182 33.4779 39.1065 33.577C39.2948 33.6761 39.5068 33.7214 39.7192 33.7079Z" fill="#79B6FF"/>
<path d="M115.506 30.2248C115.73 30.228 115.952 30.1727 116.149 30.0643C116.346 29.956 116.511 29.7984 116.629 29.6069C116.84 29.2996 116.922 28.9225 116.859 28.5554C116.796 28.1883 116.593 27.8602 116.292 27.6406C114.888 26.6855 113.427 25.7305 111.91 24.8878C111.591 24.7228 111.221 24.6869 110.876 24.7873C110.532 24.8877 110.239 25.1168 110.058 25.4272C109.878 25.7376 109.824 26.1055 109.907 26.4548C109.99 26.8041 110.204 27.1079 110.506 27.3035C111.91 28.1462 113.315 28.9889 114.663 29.9439C114.914 30.1112 115.205 30.2082 115.506 30.2248Z" fill="#79B6FF"/>
<path d="M137.303 56.6292C137.495 56.619 137.684 56.5811 137.865 56.5169C138.206 56.3653 138.473 56.0861 138.61 55.7393C138.746 55.3925 138.741 55.006 138.595 54.6629C135.46 47.5472 131.063 41.0571 125.618 35.5056C125.357 35.2449 125.004 35.0984 124.635 35.0984C124.266 35.0984 123.912 35.2449 123.652 35.5056C123.391 35.7664 123.244 36.12 123.244 36.4888C123.244 36.8575 123.391 37.2112 123.652 37.4719C128.865 42.7746 133.072 48.9802 136.067 55.7865C136.173 56.0292 136.345 56.237 136.564 56.3861C136.782 56.5352 137.039 56.6195 137.303 56.6292Z" fill="#79B6FF"/>
<path d="M142.36 76.5169H142.472C142.657 76.5042 142.838 76.4546 143.004 76.3711C143.169 76.2875 143.317 76.1717 143.437 76.0304C143.558 75.8891 143.649 75.7252 143.705 75.5482C143.761 75.3713 143.781 75.1849 143.764 75.0001C143.652 73.5394 143.483 72.1349 143.259 70.6742C143.206 70.3092 143.011 69.9798 142.716 69.7585C142.421 69.5373 142.051 69.4423 141.685 69.4944C141.32 69.5466 140.991 69.7416 140.77 70.0366C140.549 70.3316 140.454 70.7024 140.506 71.0675C140.73 72.4158 140.899 73.8203 141.011 75.1686C141.009 75.3463 141.042 75.5226 141.109 75.6873C141.176 75.8519 141.276 76.0014 141.401 76.1271C141.527 76.2527 141.676 76.3519 141.841 76.4189C142.006 76.4859 142.182 76.5192 142.36 76.5169Z" fill="#79B6FF"/>
<path d="M138.764 103.427C139.047 103.434 139.325 103.351 139.557 103.189C139.789 103.027 139.964 102.796 140.056 102.528C142.355 96.3298 143.664 89.8079 143.932 83.2023C143.947 82.8298 143.814 82.4666 143.561 82.1927C143.308 81.9188 142.957 81.7565 142.584 81.7416C142.212 81.7267 141.849 81.8604 141.575 82.1132C141.301 82.3661 141.138 82.7174 141.123 83.0899C140.856 89.4063 139.605 95.6424 137.416 101.573C137.351 101.746 137.322 101.931 137.33 102.115C137.338 102.3 137.382 102.481 137.461 102.648C137.539 102.816 137.65 102.966 137.787 103.09C137.924 103.214 138.084 103.309 138.258 103.371C138.427 103.371 138.595 103.427 138.764 103.427Z" fill="#79B6FF"/>
<path d="M29.8314 142.304C30.0357 142.303 30.2373 142.258 30.4219 142.17C30.6064 142.083 30.7693 141.956 30.8988 141.798C31.1336 141.513 31.2474 141.148 31.2159 140.78C31.1844 140.413 31.01 140.072 30.7303 139.832C26.4617 136.322 22.5987 132.346 19.2134 127.978C18.9825 127.687 18.6456 127.5 18.2768 127.458C17.9081 127.416 17.5377 127.522 17.2472 127.753C16.9566 127.984 16.7697 128.321 16.7276 128.69C16.6854 129.058 16.7915 129.429 17.0224 129.719C20.5545 134.206 24.5462 138.311 28.9325 141.966C29.0482 142.086 29.1888 142.178 29.3442 142.236C29.4996 142.294 29.666 142.317 29.8314 142.304Z" fill="#79B6FF"/>
<path d="M13.0338 123.034C13.2949 123.038 13.5506 122.959 13.7642 122.809C13.9208 122.715 14.057 122.59 14.1647 122.442C14.2724 122.294 14.3495 122.127 14.3914 121.949C14.4333 121.771 14.4391 121.586 14.4086 121.406C14.378 121.225 14.3117 121.053 14.2136 120.899C13.4833 119.663 12.7529 118.427 12.0226 117.135C11.9404 116.961 11.8236 116.807 11.6795 116.68C11.5354 116.553 11.3669 116.457 11.1844 116.398C11.002 116.339 10.8093 116.317 10.6182 116.335C10.4271 116.353 10.2417 116.409 10.0733 116.501C9.9048 116.593 9.75687 116.718 9.63852 116.869C9.52017 117.02 9.4339 117.194 9.38498 117.379C9.33606 117.565 9.32552 117.759 9.35401 117.948C9.3825 118.138 9.44942 118.32 9.55068 118.483C10.281 119.775 11.0114 121.067 11.7979 122.359C11.9357 122.562 12.1197 122.728 12.3346 122.845C12.5495 122.963 12.7891 123.027 13.0338 123.034Z" fill="#79B6FF"/>
<path d="M3.53934 100.449C3.6546 100.458 3.77027 100.439 3.87642 100.393C4.23039 100.298 4.53357 100.069 4.72217 99.7546C4.91078 99.4403 4.9701 99.065 4.88766 98.7078C3.47269 92.7056 2.75633 86.56 2.75283 80.3932V78.3708C2.76121 78.1888 2.7325 78.0071 2.66843 77.8366C2.60436 77.6661 2.50628 77.5105 2.38016 77.3791C2.25403 77.2477 2.1025 77.1434 1.93477 77.0724C1.76704 77.0014 1.58663 76.9653 1.40451 76.9663C1.22258 76.9579 1.04085 76.9866 0.870367 77.0507C0.699884 77.1147 0.544218 77.2128 0.412836 77.3389C0.281455 77.4651 0.177106 77.6166 0.106137 77.7843C0.0351684 77.9521 -0.000936668 78.1325 1.84669e-05 78.3146V80.4494C0.0131895 86.8445 0.767281 93.2166 2.24721 99.4382C2.31873 99.7268 2.48482 99.9832 2.719 100.166C2.95318 100.35 3.24197 100.449 3.53934 100.449Z" fill="#79B6FF"/>
<path d="M2.30332 69.2698C2.63388 69.2736 2.95423 69.1553 3.20302 68.9377C3.45181 68.72 3.61155 68.4181 3.65164 68.09C3.87635 66.5732 4.15725 65.0563 4.49433 63.5956C4.53491 63.4149 4.53949 63.2279 4.5078 63.0454C4.47612 62.8629 4.4088 62.6884 4.30968 62.5319C4.21056 62.3754 4.08159 62.2399 3.93012 62.1333C3.77866 62.0266 3.60767 61.9508 3.42692 61.9102C3.24616 61.8697 3.05919 61.8651 2.87667 61.8968C2.69415 61.9284 2.51965 61.9958 2.36315 62.0949C2.20665 62.194 2.0712 62.323 1.96454 62.4744C1.85788 62.6259 1.7821 62.7969 1.74152 62.9776C1.40444 64.4945 1.12355 66.0675 0.842647 67.6406C0.812489 67.8219 0.819403 68.0074 0.862971 68.1859C0.906538 68.3645 0.985856 68.5324 1.09613 68.6794C1.2064 68.8264 1.34534 68.9496 1.50455 69.0414C1.66376 69.1332 1.83993 69.1918 2.02242 69.2136C2.1116 69.2501 2.20696 69.2692 2.30332 69.2698Z" fill="#79B6FF"/>
<path d="M12.191 41.9663C12.4303 41.9715 12.6665 41.9114 12.8743 41.7927C13.0821 41.6739 13.2537 41.5009 13.3708 41.2922C17.6882 34.0045 23.1514 27.46 29.5506 21.9102C29.6907 21.7921 29.8063 21.6476 29.8906 21.4849C29.975 21.3222 30.0264 21.1445 30.0421 20.9619C30.0577 20.7793 30.0373 20.5954 29.9818 20.4208C29.9264 20.2461 29.8371 20.084 29.7191 19.9439C29.6011 19.8037 29.4566 19.6881 29.2939 19.6038C29.1312 19.5195 28.9535 19.468 28.7709 19.4524C28.5883 19.4367 28.4044 19.4572 28.2297 19.5126C28.055 19.568 27.893 19.6573 27.7528 19.7753C21.0913 25.4941 15.4163 32.27 10.9551 39.8315C10.8616 39.9898 10.8005 40.1651 10.7753 40.3472C10.7501 40.5293 10.7614 40.7146 10.8084 40.8923C10.8555 41.07 10.9373 41.2366 11.0493 41.3824C11.1613 41.5282 11.3011 41.6503 11.4607 41.7416C11.6823 41.8746 11.933 41.9517 12.191 41.9663Z" fill="#79B6FF"/>
<path d="M37.4157 15.6742C37.678 15.6869 37.9364 15.6074 38.1461 15.4495C39.7753 14.3821 41.4607 13.427 43.1461 12.472C43.3087 12.3838 43.4523 12.2643 43.5686 12.1205C43.6849 11.9766 43.7717 11.8112 43.8239 11.6337C43.8761 11.4562 43.8927 11.2701 43.8728 11.0862C43.8529 10.9023 43.7968 10.7241 43.7079 10.5619C43.5205 10.243 43.2187 10.0075 42.8639 9.90312C42.5091 9.79877 42.1279 9.83343 41.7978 10.0001C40.0562 10.9551 38.3146 11.9664 36.6292 13.0338C36.4715 13.1276 36.3351 13.2533 36.2287 13.4028C36.1223 13.5523 36.0483 13.7224 36.0113 13.9021C35.9742 14.0818 35.9751 14.2673 36.0138 14.4467C36.0525 14.626 36.1282 14.7954 36.236 14.9439C36.3465 15.1623 36.5151 15.346 36.7232 15.4749C36.9313 15.6037 37.1709 15.6727 37.4157 15.6742Z" fill="#79B6FF"/>
<path d="M62.0788 5.22478C62.194 5.23363 62.3097 5.21435 62.4158 5.1686C72.5516 2.79377 83.0646 2.50705 93.3147 4.3259C93.6772 4.37332 94.0443 4.2847 94.3452 4.07718C94.6461 3.86965 94.8595 3.55795 94.9439 3.2023C94.9913 2.83986 94.9027 2.4727 94.6952 2.17178C94.4877 1.87087 94.176 1.65756 93.8203 1.57309C89.2555 0.787633 84.632 0.392944 80.0001 0.393314C73.8911 0.377966 67.8013 1.07557 61.854 2.47197C61.4904 2.55645 61.1747 2.78058 60.975 3.09593C60.7752 3.41128 60.7076 3.79255 60.7866 4.15736C60.8356 4.46187 60.9938 4.73813 61.2315 4.93456C61.4693 5.13099 61.7705 5.23415 62.0788 5.22478Z" fill="#79B6FF"/>
<path d="M111.236 9.7192C111.561 9.72185 111.876 9.61191 112.129 9.40807C112.382 9.20423 112.556 8.91911 112.622 8.60121C112.689 8.28331 112.643 7.95228 112.492 7.66446C112.342 7.37664 112.096 7.14981 111.798 7.02257C109.888 6.17988 107.865 5.39336 105.899 4.7192C105.548 4.6031 105.166 4.62575 104.832 4.7825C104.498 4.93924 104.236 5.21817 104.101 5.5619C103.985 5.91248 104.008 6.29422 104.164 6.62861C104.321 6.963 104.6 7.22462 104.944 7.35965C106.854 8.03381 108.764 8.76415 110.674 9.60684C110.855 9.67114 111.044 9.70898 111.236 9.7192Z" fill="#79B6FF"/>
<path d="M147.303 41.3483C147.565 41.3525 147.82 41.2738 148.034 41.1236C148.195 41.034 148.336 40.9116 148.448 40.7642C148.559 40.6169 148.639 40.4478 148.681 40.268C148.723 40.0881 148.728 39.9014 148.694 39.7199C148.659 39.5383 148.588 39.3658 148.483 39.2135C144.834 33.1145 140.374 27.5392 135.225 22.6405C135.095 22.5025 134.938 22.3925 134.763 22.3174C134.589 22.2422 134.401 22.2034 134.212 22.2034C134.022 22.2033 133.834 22.242 133.66 22.3171C133.486 22.3922 133.329 22.5021 133.198 22.64C133.068 22.7779 132.967 22.941 132.902 23.1192C132.837 23.2975 132.81 23.4871 132.82 23.6765C132.831 23.8659 132.881 24.0511 132.966 24.2207C133.051 24.3904 133.169 24.5409 133.315 24.663C138.285 29.4202 142.594 34.8245 146.124 40.7304C146.258 40.9192 146.434 41.0736 146.639 41.181C146.844 41.2884 147.072 41.3458 147.303 41.3483Z" fill="#79B6FF"/>
<path d="M153.595 54.4383C153.769 54.4278 153.94 54.3899 154.101 54.3259C154.445 54.1909 154.724 53.9293 154.88 53.5949C155.037 53.2605 155.06 52.8788 154.944 52.5282C154.27 50.6742 153.483 48.8203 152.64 47.0226C152.563 46.8566 152.454 46.7074 152.318 46.5837C152.183 46.46 152.025 46.3641 151.853 46.3015C151.681 46.2389 151.498 46.2108 151.315 46.2189C151.132 46.2269 150.952 46.2709 150.786 46.3484C150.62 46.4259 150.471 46.5353 150.348 46.6704C150.224 46.8054 150.128 46.9636 150.065 47.1357C150.003 47.3079 149.975 47.4907 149.983 47.6737C149.991 47.8567 150.035 48.0363 150.112 48.2023C150.899 49.9439 151.629 51.7417 152.303 53.5394C152.395 53.8071 152.57 54.0386 152.802 54.2002C153.035 54.3619 153.312 54.4452 153.595 54.4383Z" fill="#79B6FF"/>
<path d="M158.202 89.5505C158.545 89.5436 158.874 89.4157 159.131 89.1895C159.388 88.9632 159.556 88.6533 159.607 88.3145C159.879 85.683 160.011 83.0388 160 80.3932C160.004 74.8816 159.44 69.3843 158.315 63.9887C158.24 63.6311 158.027 63.3178 157.721 63.1176C157.416 62.9174 157.043 62.8468 156.685 62.9213C156.328 62.9958 156.015 63.2093 155.814 63.5148C155.614 63.8204 155.544 64.1929 155.618 64.5505C156.696 69.7626 157.242 75.0707 157.247 80.3932C157.256 82.9453 157.125 85.4959 156.854 88.0336C156.819 88.3981 156.93 88.7617 157.161 89.0455C157.392 89.3294 157.726 89.5108 158.09 89.5505H158.202Z" fill="#79B6FF"/>
<path d="M155.337 104.326C155.642 104.33 155.939 104.232 156.183 104.05C156.427 103.867 156.604 103.608 156.685 103.315C157.48 100.616 158.136 97.878 158.652 95.1123C158.687 94.9314 158.685 94.7454 158.647 94.5651C158.609 94.3848 158.536 94.2139 158.431 94.0622C158.327 93.9106 158.193 93.7812 158.038 93.6818C157.883 93.5824 157.71 93.5148 157.528 93.4831C157.164 93.4248 156.792 93.5091 156.488 93.7184C156.185 93.9276 155.974 94.2458 155.899 94.6067C155.402 97.2789 154.764 99.923 153.989 102.528C153.889 102.886 153.933 103.268 154.112 103.593C154.29 103.919 154.589 104.162 154.944 104.27C155.068 104.32 155.203 104.339 155.337 104.326Z" fill="#79B6FF"/>
<path d="M127.416 144.494C127.717 144.478 128.008 144.381 128.258 144.213C137.56 137.13 145.225 128.123 150.73 117.809C150.832 117.646 150.899 117.464 150.927 117.274C150.955 117.085 150.945 116.891 150.896 116.705C150.847 116.52 150.761 116.346 150.642 116.195C150.524 116.044 150.376 115.919 150.208 115.827C150.039 115.735 149.854 115.679 149.663 115.661C149.472 115.643 149.279 115.665 149.097 115.724C148.914 115.783 148.746 115.879 148.602 116.006C148.457 116.133 148.341 116.287 148.258 116.461C142.953 126.426 135.555 135.127 126.573 141.966C126.279 142.192 126.085 142.525 126.032 142.892C125.98 143.26 126.073 143.633 126.292 143.933C126.417 144.113 126.586 144.259 126.782 144.357C126.978 144.455 127.196 144.502 127.416 144.494Z" fill="#79B6FF"/>
<path d="M114.438 152.472C114.655 152.469 114.868 152.411 115.056 152.303C117.135 151.292 119.214 150.168 121.18 148.989C121.488 148.793 121.706 148.483 121.788 148.127C121.869 147.772 121.807 147.398 121.615 147.087C121.423 146.777 121.116 146.555 120.761 146.469C120.406 146.383 120.032 146.441 119.719 146.629C117.808 147.794 115.839 148.863 113.82 149.831C113.495 149.998 113.247 150.285 113.132 150.632C113.016 150.979 113.042 151.357 113.202 151.685C113.305 151.926 113.477 152.13 113.698 152.271C113.919 152.411 114.177 152.481 114.438 152.472Z" fill="#79B6FF"/>
<path d="M79.9438 160.393C84.4799 160.387 89.0079 160.011 93.4831 159.27C93.8481 159.203 94.1716 158.993 94.3823 158.688C94.593 158.382 94.6737 158.005 94.6067 157.64C94.5396 157.275 94.3303 156.952 94.0248 156.741C93.7192 156.53 93.3425 156.45 92.9775 156.517C88.6534 157.258 84.2747 157.634 79.8876 157.64C73.2703 157.648 66.6798 156.798 60.2808 155.112C60.1038 155.068 59.9197 155.059 59.7392 155.086C59.5587 155.113 59.3852 155.175 59.2287 155.269C59.0722 155.363 58.9357 155.487 58.8271 155.633C58.7184 155.78 58.6397 155.946 58.5955 156.124C58.5512 156.301 58.5422 156.485 58.5691 156.665C58.596 156.846 58.6581 157.019 58.752 157.176C58.8459 157.332 58.9697 157.469 59.1164 157.577C59.263 157.686 59.4296 157.765 59.6067 157.809C66.2471 159.538 73.082 160.406 79.9438 160.393Z" fill="#79B6FF"/>
<path d="M50.674 154.775C50.9551 154.774 51.2291 154.687 51.4599 154.527C51.6906 154.366 51.8672 154.139 51.9662 153.876C52.0357 153.707 52.0704 153.525 52.0683 153.342C52.0662 153.159 52.0274 152.979 51.954 152.811C51.8806 152.643 51.7742 152.492 51.6412 152.366C51.5082 152.24 51.3512 152.143 51.1797 152.079C49.2695 151.292 47.4156 150.449 45.5617 149.551C45.2347 149.394 44.8592 149.372 44.5161 149.489C44.173 149.607 43.8899 149.854 43.7277 150.179C43.5655 150.503 43.5373 150.878 43.6492 151.223C43.7611 151.568 44.0041 151.855 44.3257 152.022C46.2358 152.978 48.2021 153.82 50.1684 154.607C50.2348 154.671 50.3146 154.719 50.4021 154.748C50.4896 154.777 50.5825 154.787 50.674 154.775Z" fill="#79B6FF"/>
<path d="M79.9438 144.494C90.0771 144.496 100.066 142.094 109.09 137.484C118.115 132.874 125.916 126.189 131.854 117.977C132.07 117.672 132.156 117.293 132.093 116.925C132.029 116.556 131.822 116.227 131.517 116.011C131.211 115.795 130.833 115.709 130.464 115.772C130.095 115.836 129.767 116.043 129.551 116.348C121.426 127.589 109.73 135.743 96.3732 139.477C83.0162 143.212 68.7874 142.307 56.0112 136.91C55.6716 136.778 55.2943 136.783 54.9582 136.923C54.622 137.064 54.3532 137.328 54.208 137.662C54.0628 137.996 54.0524 138.374 54.1791 138.715C54.3058 139.057 54.5597 139.336 54.8876 139.494C62.8279 142.798 71.3436 144.497 79.9438 144.494Z" fill="#0053D5"/>
<path d="M49.2697 61.4606L26.0113 55.2808C23.9492 54.6881 22.2007 53.3127 21.1391 51.4482C20.0775 49.5837 19.7871 47.378 20.3299 45.3022C20.8726 43.2265 22.2056 41.4453 24.0439 40.3391C25.8823 39.2328 28.0803 38.8893 30.1686 39.3819L53.427 45.5617C54.9996 45.9774 56.4134 46.8504 57.4895 48.0701C58.5657 49.2899 59.2557 50.8015 59.4722 52.4136C59.6888 54.0257 59.4221 55.6658 58.706 57.1263C57.9899 58.5867 56.8566 59.8019 55.4495 60.6179C54.2023 61.3401 52.7895 61.7272 51.3483 61.7415C50.6491 61.7032 49.954 61.6092 49.2697 61.4606ZM22.8652 45.955C22.4989 47.3404 22.6948 48.8145 23.4103 50.0562C24.1259 51.2978 25.303 52.2065 26.6854 52.5842L49.9439 58.7639C50.6298 58.9536 51.3471 59.0016 52.0522 58.905C52.7573 58.8085 53.4353 58.5693 54.045 58.2021C55.2847 57.4659 56.1909 56.2778 56.5731 54.8875C56.7627 54.2016 56.8107 53.4843 56.7142 52.7792C56.6176 52.0741 56.3784 51.3961 56.0113 50.7864C55.275 49.5467 54.087 48.6405 52.6967 48.2583L29.4382 42.0785C28.9784 41.9672 28.5069 41.9106 28.0337 41.91C26.8468 41.9199 25.6963 42.3219 24.7616 43.0535C23.8268 43.785 23.1601 44.8051 22.8652 45.955Z" fill="#0053D5"/>
<path d="M46.0112 112.079V24.4381C46.0112 22.5012 46.7807 20.6435 48.1503 19.2739C49.52 17.9042 51.3776 17.1348 53.3146 17.1348H91.6854C93.6224 17.1348 95.48 17.9042 96.8496 19.2739C98.2193 20.6435 98.9888 22.5012 98.9888 24.4381V100.168L98.8764 101.573L96.9101 118.595C95.1798 119.03 93.411 119.293 91.6292 119.382H53.3146C52.3555 119.382 51.4058 119.193 50.5197 118.826C49.6336 118.459 48.8285 117.921 48.1503 117.243C47.4722 116.565 46.9342 115.76 46.5672 114.873C46.2001 113.987 46.0112 113.038 46.0112 112.079Z" fill="#79B6FF"/>
<path d="M53.3146 120.787H94.1573C95.2351 120.777 96.3019 120.567 97.3033 120.169C97.6417 120.031 97.9124 119.767 98.0567 119.431C98.201 119.096 98.2073 118.717 98.0742 118.377C97.9412 118.037 97.6795 117.763 97.3459 117.615C97.0123 117.466 96.6337 117.455 96.2921 117.584C95.6134 117.855 94.8878 117.989 94.1573 117.978H53.3146C51.7501 117.978 50.2497 117.356 49.1434 116.25C48.0372 115.144 47.4157 113.643 47.4157 112.079V24.4383C47.4157 22.8738 48.0372 21.3734 49.1434 20.2672C50.2497 19.1609 51.7501 18.5394 53.3146 18.5394H94.1573C95.7217 18.5394 97.2221 19.1609 98.3284 20.2672C99.4347 21.3734 100.056 22.8738 100.056 24.4383V100.169C100.056 100.541 100.204 100.898 100.468 101.162C100.731 101.425 101.088 101.573 101.461 101.573C101.833 101.573 102.19 101.425 102.454 101.162C102.717 100.898 102.865 100.541 102.865 100.169V24.4945C102.853 22.1887 101.932 19.9806 100.302 18.3501C98.6711 16.7197 96.4631 15.7984 94.1573 15.7866H53.3146C51.0087 15.7984 48.8007 16.7197 47.1702 18.3501C45.5397 19.9806 44.6185 22.1887 44.6067 24.4945V112.135C44.6201 114.435 45.5436 116.636 47.1753 118.258C48.8071 119.879 51.0143 120.788 53.3146 120.787Z" fill="#0053D5"/>
<path d="M52.0787 107.528H95.5057C95.8851 107.519 96.2457 107.361 96.5088 107.087C96.7719 106.813 96.9162 106.447 96.9102 106.067V30.5056C96.9162 30.1261 96.7719 29.7595 96.5088 29.4859C96.2457 29.2123 95.8851 29.0538 95.5057 29.0449H52.0787C51.6992 29.0538 51.3386 29.2123 51.0755 29.4859C50.8124 29.7595 50.6682 30.1261 50.6742 30.5056V106.011C50.6659 106.203 50.6958 106.395 50.762 106.575C50.8283 106.756 50.9297 106.921 51.0602 107.062C51.1908 107.203 51.3481 107.317 51.5229 107.397C51.6977 107.477 51.8866 107.522 52.0787 107.528Z" fill="white"/>
<path d="M49.2696 106.067V30.5055C49.2621 30.132 49.3293 29.7606 49.4671 29.4133C49.6049 29.066 49.8106 28.7497 50.0722 28.4829C50.3338 28.2161 50.646 28.0041 50.9905 27.8594C51.335 27.7148 51.7049 27.6403 52.0786 27.6404H95.5056C96.2557 27.6551 96.9701 27.9634 97.4953 28.4992C98.0206 29.0349 98.3147 29.7553 98.3146 30.5055V106.011C98.322 106.385 98.2549 106.756 98.1171 107.103C97.9793 107.451 97.7736 107.767 97.512 108.034C97.2504 108.301 96.9382 108.513 96.5937 108.657C96.2492 108.802 95.8792 108.876 95.5056 108.876H52.0786C51.3336 108.876 50.6191 108.58 50.0923 108.054C49.5655 107.527 49.2696 106.812 49.2696 106.067ZM95.4494 106.067V30.4494H52.0786V106.067H95.4494Z" fill="#0053D5"/>
<path d="M73.764 117.191C75.7497 117.191 77.3595 115.581 77.3595 113.596C77.3595 111.61 75.7497 110 73.764 110C71.7782 110 70.1685 111.61 70.1685 113.596C70.1685 115.581 71.7782 117.191 73.764 117.191Z" fill="#0053D5"/>
<path d="M67.528 25.6181H78.7078C79.0803 25.6181 79.4376 25.4701 79.7009 25.2067C79.9643 24.9433 80.1123 24.5861 80.1123 24.2136C80.1123 23.8411 79.9643 23.4838 79.7009 23.2204C79.4376 22.9571 79.0803 22.8091 78.7078 22.8091H67.528C67.1555 22.8091 66.7983 22.9571 66.5349 23.2204C66.2715 23.4838 66.1235 23.8411 66.1235 24.2136C66.1235 24.5861 66.2715 24.9433 66.5349 25.2067C66.7983 25.4701 67.1555 25.6181 67.528 25.6181Z" fill="#0053D5"/>
<path d="M82.6965 25.618H82.9774C83.0898 25.618 83.146 25.5618 83.2583 25.5618C83.3707 25.5618 83.4269 25.5057 83.483 25.4495C83.5392 25.3933 83.6516 25.3371 83.7078 25.2809C83.7772 25.2169 83.8343 25.1408 83.8763 25.0562C83.9354 24.9943 83.9746 24.916 83.9887 24.8315C84.0341 24.7452 84.0536 24.6477 84.0448 24.5506V24.2697C84.0345 23.8973 83.8956 23.54 83.6516 23.2585C83.4903 23.1014 83.2946 22.9841 83.08 22.9159C82.8655 22.8476 82.638 22.8303 82.4156 22.8652C82.3033 22.8652 82.2471 22.9214 82.1347 22.9214C82.0224 22.9214 81.9662 22.9776 81.91 23.0338C81.8538 23.0899 81.7415 23.1461 81.6853 23.2023C81.6159 23.2663 81.5588 23.3425 81.5167 23.427C81.4576 23.489 81.4185 23.5673 81.4044 23.6517C81.3534 23.7359 81.3335 23.8353 81.3482 23.9326V24.4944C81.3482 24.6068 81.4044 24.663 81.4044 24.7753C81.4044 24.8877 81.4606 24.9439 81.5167 25C81.5729 25.0562 81.6291 25.1686 81.6853 25.2248C81.7493 25.2942 81.8255 25.3513 81.91 25.3933C81.9719 25.4524 82.0502 25.4916 82.1347 25.5057C82.2189 25.5566 82.3183 25.5765 82.4156 25.5618C82.5019 25.6073 82.5994 25.6268 82.6965 25.618Z" fill="#0053D5"/>
<path d="M101.517 101.685V77.6405C101.517 73.6175 103.115 69.7593 105.96 66.9147C108.804 64.07 112.662 62.4719 116.685 62.4719C117.266 62.4719 117.824 62.7028 118.235 63.1137C118.646 63.5246 118.876 64.0818 118.876 64.6629V129.551L101.517 101.685Z" fill="white"/>
<path d="M118.876 130.955C119.061 130.957 119.245 130.921 119.416 130.851C119.587 130.781 119.742 130.678 119.873 130.547C120.004 130.416 120.107 130.261 120.177 130.09C120.247 129.919 120.282 129.735 120.281 129.551V64.6629C120.275 63.7111 119.894 62.8 119.221 62.127C118.548 61.454 117.637 61.0733 116.685 61.0674C114.509 61.0666 112.353 61.4948 110.342 62.3274C108.331 63.16 106.504 64.3808 104.965 65.9199C103.426 67.459 102.205 69.2863 101.372 71.2973C100.54 73.3084 100.112 75.4638 100.112 77.6404V101.685C100.112 102.472 100.393 100.169 101.124 100.169C101.854 100.169 102.865 99.5505 102.865 98.764V77.6404C102.871 73.9918 104.323 70.4943 106.903 67.9143C109.483 65.3344 112.981 63.8823 116.629 63.8764C116.733 63.8741 116.836 63.8928 116.933 63.9316C117.029 63.9703 117.117 64.0281 117.19 64.1016C117.264 64.1751 117.322 64.2627 117.361 64.3592C117.399 64.4557 117.418 64.559 117.416 64.6629V129.551C117.443 129.924 117.607 130.273 117.877 130.532C118.147 130.792 118.503 130.942 118.876 130.955Z" fill="#0053D5"/>
<path d="M104.326 96.9663C101.979 99.0189 100.098 101.55 98.8096 104.389C97.5209 107.228 96.8541 110.309 96.8539 113.427C96.8416 116.864 97.6506 120.254 99.2134 123.315L104.326 96.9663Z" fill="white"/>
<path d="M99.2697 124.719C99.4877 124.724 99.7024 124.666 99.8877 124.551C100.213 124.384 100.461 124.097 100.576 123.75C100.692 123.403 100.666 123.025 100.506 122.697C98.4301 118.648 97.7671 114.022 98.6222 109.553C99.4772 105.085 101.801 101.03 105.225 98.0338C105.367 97.9139 105.485 97.7665 105.569 97.6005C105.654 97.4344 105.705 97.253 105.718 97.0671C105.732 96.8811 105.708 96.6944 105.647 96.5179C105.587 96.3414 105.492 96.1788 105.368 96.0396C105.244 95.9005 105.094 95.7877 104.925 95.7078C104.757 95.628 104.574 95.5829 104.387 95.575C104.201 95.5671 104.015 95.5967 103.841 95.662C103.666 95.7273 103.506 95.827 103.371 95.9551C99.4849 99.3645 96.8453 103.971 95.8687 109.047C94.892 114.124 95.634 119.381 97.9775 123.989C98.1151 124.209 98.3053 124.39 98.5309 124.518C98.7566 124.646 99.0105 124.715 99.2697 124.719Z" fill="#0053D5"/>
<path d="M108.202 76.1237C108.202 73.2778 109.333 70.5485 111.345 68.5362C113.357 66.5239 116.087 65.3934 118.933 65.3934C119.117 65.3919 119.301 65.4272 119.472 65.4972C119.643 65.5673 119.798 65.6707 119.929 65.8014C120.06 65.9321 120.163 66.0875 120.233 66.2586C120.303 66.4297 120.339 66.613 120.337 66.7979V76.1237C120.339 76.3085 120.303 76.4919 120.233 76.6629C120.163 76.834 120.06 76.9894 119.929 77.1202C119.798 77.2509 119.643 77.3543 119.472 77.4243C119.301 77.4944 119.117 77.5297 118.933 77.5282H109.607C109.422 77.5297 109.239 77.4944 109.067 77.4243C108.896 77.3543 108.741 77.2509 108.61 77.1202C108.48 76.9894 108.376 76.834 108.306 76.6629C108.236 76.4919 108.201 76.3085 108.202 76.1237ZM117.472 68.3147C115.874 68.5919 114.402 69.3561 113.255 70.5025C112.109 71.649 111.345 73.1217 111.067 74.7192H117.472V68.3147Z" fill="#0053D5"/>
<path d="M55.281 86.0112C55.3585 85.3435 55.3037 84.6671 55.1198 84.0206C54.9359 83.3741 54.6264 82.7701 54.2091 82.2432C53.7917 81.7163 53.2747 81.2767 52.6874 80.9497C52.1002 80.6226 51.4543 80.4144 50.7866 80.337L43.9327 79.5505C43.265 79.473 42.5886 79.5277 41.9421 79.7117C41.2955 79.8956 40.6916 80.2051 40.1647 80.6224C39.6378 81.0398 39.1982 81.5568 38.8712 82.1441C38.5441 82.7313 38.3359 83.3772 38.2585 84.0449C38.181 84.7126 38.2358 85.389 38.4197 86.0355C38.6036 86.682 38.9131 87.286 39.3304 87.8129C39.7478 88.3398 40.2648 88.7793 40.8521 89.1064C41.4393 89.4335 42.0852 89.6416 42.7529 89.7191L49.6068 90.5056C50.2745 90.5831 50.9509 90.5283 51.5974 90.3444C52.244 90.1605 52.8479 89.851 53.3748 89.4337C53.9017 89.0163 54.3413 88.4993 54.6683 87.912C54.9954 87.3248 55.2036 86.6789 55.281 86.0112Z" fill="white"/>
<path d="M49.4383 91.91L42.5843 91.1235C40.8678 90.9102 39.299 90.0453 38.2023 88.7077C37.6709 88.0416 37.278 87.2761 37.0464 86.4561C36.8149 85.6361 36.7495 84.7781 36.854 83.9325C37.0673 82.216 37.9321 80.6471 39.2697 79.5504C39.9358 79.0191 40.7013 78.6261 41.5213 78.3946C42.3414 78.163 43.1994 78.0976 44.045 78.2021L50.8989 78.9887C52.6154 79.2019 54.1843 80.0668 55.281 81.4044C55.8235 82.064 56.2234 82.8288 56.4554 83.6508C56.6875 84.4727 56.7467 85.3337 56.6293 86.1797C56.4442 87.7665 55.6851 89.2308 54.495 90.2967C53.305 91.3626 51.7662 91.9564 50.1686 91.9662C49.9439 91.9662 49.663 91.91 49.4383 91.91ZM39.6068 84.2134C39.5057 85.1934 39.7888 86.1745 40.3966 86.9499C41.0044 87.7254 41.8894 88.2347 42.8652 88.3707L49.7192 89.1572C50.6992 89.2583 51.6803 88.9752 52.4557 88.3674C53.2312 87.7596 53.7405 86.8746 53.8765 85.8988C53.9863 84.9171 53.7065 83.9315 53.0971 83.154C52.4878 82.3765 51.5976 81.8693 50.618 81.7415L43.7079 80.8988H43.2585C42.3514 80.9146 41.481 81.2595 40.8093 81.8693C40.1375 82.479 39.7102 83.3121 39.6068 84.2134Z" fill="#0053D5"/>
<path d="M55.281 99.2696C55.3544 98.6457 55.3034 98.0134 55.1308 97.4093C54.9583 96.8052 54.6678 96.2413 54.2759 95.7502C53.8841 95.2591 53.3988 94.8506 52.8481 94.5482C52.2974 94.2459 51.6922 94.0557 51.0675 93.9887L44.663 93.2584C44.0391 93.185 43.4068 93.236 42.8027 93.4085C42.1986 93.5811 41.6347 93.8716 41.1436 94.2635C40.6525 94.6553 40.244 95.1406 39.9417 95.6913C39.6393 96.242 39.4491 96.8472 39.3821 97.4718C39.3088 98.0958 39.3598 98.7281 39.5323 99.3322C39.7048 99.9363 39.9954 100.5 40.3872 100.991C40.7791 101.482 41.2644 101.891 41.8151 102.193C42.3658 102.496 42.971 102.686 43.5956 102.753L50.0001 103.483C51.2581 103.619 52.5189 103.253 53.5079 102.463C54.497 101.674 55.1343 100.526 55.281 99.2696Z" fill="white"/>
<path d="M49.8314 104.831L43.4269 104.101C41.7954 103.915 40.3047 103.088 39.2827 101.803C38.2607 100.517 37.7912 98.8788 37.9775 97.2472C38.1637 95.6157 38.9905 94.125 40.2758 93.103C41.5612 92.081 43.1999 91.6115 44.8314 91.7978L51.2359 92.5281C52.8638 92.7227 54.3492 93.5516 55.3695 94.8349C56.3898 96.1182 56.8626 97.7522 56.6853 99.382C56.4964 101.018 55.6684 102.512 54.382 103.539C53.3039 104.419 51.9531 104.896 50.5617 104.888C50.317 104.897 50.0719 104.878 49.8314 104.831ZM53.9325 99.1011C54.0339 98.2077 53.7777 97.3105 53.2198 96.6052C52.662 95.9 51.8478 95.4441 50.955 95.3371L44.5505 94.6068C43.6571 94.5054 42.7598 94.7616 42.0546 95.3195C41.3494 95.8773 40.8935 96.6915 40.7865 97.5843C40.7334 98.0243 40.7708 98.4706 40.8963 98.8957C41.0219 99.3208 41.2331 99.7157 41.5168 100.056C41.7792 100.413 42.1161 100.708 42.5042 100.922C42.8923 101.135 43.3222 101.262 43.764 101.292L50.1685 102.023C50.6084 102.085 51.0564 102.058 51.4858 101.944C51.9152 101.829 52.3173 101.63 52.6683 101.358C53.0193 101.085 53.312 100.745 53.5292 100.358C53.7464 99.97 53.8835 99.5427 53.9325 99.1011Z" fill="#0053D5"/>
<path d="M111.91 85.6181H118.876C119.249 85.6181 119.606 85.4701 119.87 85.2067C120.133 84.9433 120.281 84.5861 120.281 84.2136C120.281 83.8411 120.133 83.4838 119.87 83.2205C119.606 82.9571 119.249 82.8091 118.876 82.8091H111.91C111.538 82.8091 111.18 82.9571 110.917 83.2205C110.654 83.4838 110.506 83.8411 110.506 84.2136C110.506 84.5861 110.654 84.9433 110.917 85.2067C111.18 85.4701 111.538 85.6181 111.91 85.6181Z" fill="#0053D5"/>
<path d="M114.888 89.5504H118.933C119.305 89.5504 119.662 89.4025 119.926 89.1391C120.189 88.8757 120.337 88.5184 120.337 88.1459C120.337 87.7734 120.189 87.4162 119.926 87.1528C119.662 86.8894 119.305 86.7415 118.933 86.7415H114.888C114.515 86.7415 114.158 86.8894 113.895 87.1528C113.631 87.4162 113.483 87.7734 113.483 88.1459C113.483 88.5184 113.631 88.8757 113.895 89.1391C114.158 89.4025 114.515 89.5504 114.888 89.5504Z" fill="#0053D5"/>
<path d="M49.8877 88.4269L49.4383 88.3707C48.7846 88.2918 48.1883 87.9587 47.7783 87.4436C47.3683 86.9284 47.1775 86.2726 47.2472 85.6179L47.3596 84.7191C47.3915 84.3868 47.493 84.065 47.6576 83.7746C47.8222 83.4842 48.046 83.2318 48.3147 83.0337C48.5725 82.8268 48.8701 82.6751 49.1891 82.5881C49.508 82.5011 49.8414 82.4807 50.1686 82.5281L50.618 82.5842C50.9503 82.6161 51.2721 82.7177 51.5625 82.8822C51.8529 83.0468 52.1053 83.2707 52.3034 83.5393C52.5103 83.7971 52.662 84.0947 52.749 84.4137C52.836 84.7326 52.8564 85.066 52.809 85.3932L52.6967 86.2921C52.6648 86.6243 52.5632 86.9461 52.3987 87.2365C52.2341 87.5269 52.0102 87.7794 51.7416 87.9775C51.2903 88.3272 50.7393 88.524 50.1686 88.5393C50.1353 88.498 50.092 88.466 50.0428 88.4464C49.9936 88.4267 49.9402 88.42 49.8877 88.4269ZM49.1574 84.1011C49.0414 84.1857 48.9459 84.2952 48.8778 84.4216C48.8098 84.548 48.7709 84.688 48.7641 84.8314L48.6517 85.7303C48.6191 86.0294 48.6992 86.3299 48.8765 86.573C48.9611 86.6889 49.0706 86.7845 49.197 86.8525C49.3234 86.9206 49.4634 86.9594 49.6068 86.9663L50.0562 87.0224C50.3553 87.0551 50.6558 86.975 50.8989 86.7977C51.0149 86.7131 51.1104 86.6036 51.1784 86.4772C51.2465 86.3508 51.2854 86.2108 51.2922 86.0674L51.4045 85.1685C51.4372 84.8694 51.3571 84.5689 51.1798 84.3258C51.0952 84.2099 50.9857 84.1143 50.8593 84.0463C50.7329 83.9782 50.5929 83.9394 50.4495 83.9325L50.0001 83.8764H49.8877C49.6255 83.8637 49.3671 83.9432 49.1574 84.1011Z" fill="#0053D5"/>
<path d="M50.2246 101.461L49.719 101.404C49.1189 101.33 48.5718 101.024 48.194 100.551C47.8162 100.079 47.6377 99.4782 47.6966 98.8764L47.8089 97.9213C47.8916 97.3248 48.1998 96.7827 48.6701 96.4065C49.1403 96.0302 49.7369 95.8486 50.337 95.8988L50.8426 95.955C51.4391 96.0377 51.9813 96.3459 52.3575 96.8162C52.7337 97.2864 52.9154 97.883 52.8651 98.4831L52.7527 99.4382C52.6803 100.034 52.3779 100.579 51.91 100.955C51.517 101.285 51.019 101.465 50.5055 101.461H50.2246ZM50.2246 97.3033C50.1063 97.2868 49.9859 97.2942 49.8706 97.3251C49.7552 97.3559 49.6471 97.4096 49.5528 97.4829C49.4586 97.5563 49.3799 97.6478 49.3216 97.752C49.2633 97.8563 49.2265 97.9711 49.2134 98.0899L49.101 99.0449C49.1035 99.2798 49.1612 99.5107 49.2696 99.7191C49.4342 99.8947 49.6508 100.013 49.8876 100.056L50.3932 100.112C50.628 100.11 50.859 100.052 51.0673 99.9438C51.243 99.7792 51.3612 99.5626 51.4044 99.3258L51.5168 98.3708C51.5333 98.2525 51.5259 98.1321 51.495 98.0167C51.4642 97.9013 51.4105 97.7932 51.3372 97.699C51.2639 97.6047 51.1724 97.5261 51.0681 97.4678C50.9639 97.4095 50.849 97.3726 50.7303 97.3595L50.2246 97.3033Z" fill="#0053D5"/>
<path d="M69.2135 143.258C69.4177 143.258 69.6193 143.213 69.8039 143.125C69.9885 143.038 70.1514 142.911 70.2809 142.753C70.4028 142.614 70.4955 142.453 70.5532 142.278C70.6109 142.102 70.6326 141.917 70.6168 141.734C70.6011 141.55 70.5483 141.371 70.4616 141.208C70.3749 141.046 70.2561 140.902 70.1123 140.787C63.4542 135.045 58.6453 127.46 56.2921 118.989C56.1878 118.631 55.9457 118.33 55.6191 118.151C55.2925 117.971 54.9081 117.929 54.5505 118.034C54.1929 118.138 53.8914 118.38 53.7123 118.707C53.5332 119.033 53.4912 119.418 53.5955 119.775C56.1189 128.77 61.2388 136.821 68.3146 142.921C68.5589 143.147 68.8814 143.267 69.2135 143.258Z" fill="#0053D5"/>
<path d="M87.5281 87.0785C87.6234 87.0783 87.7176 87.0581 87.8046 87.0195C87.8917 86.9808 87.9697 86.9243 88.0337 86.8538C88.1003 86.7875 88.1532 86.7087 88.1892 86.622C88.2253 86.5352 88.2438 86.4421 88.2438 86.3482C88.2438 86.2542 88.2253 86.1612 88.1892 86.0744C88.1532 85.9877 88.1003 85.9089 88.0337 85.8426L81.854 79.6628C81.7876 79.5964 81.7087 79.5437 81.622 79.5078C81.5352 79.4719 81.4422 79.4534 81.3483 79.4534C81.2544 79.4534 81.1615 79.4719 81.0747 79.5078C80.988 79.5437 80.9091 79.5964 80.8427 79.6628C80.7763 79.7292 80.7237 79.808 80.6877 79.8948C80.6518 79.9815 80.6333 80.0745 80.6333 80.1684C80.6333 80.2623 80.6518 80.3553 80.6877 80.4421C80.7237 80.5288 80.7763 80.6076 80.8427 80.674L87.0225 86.8538C87.1669 86.9743 87.342 87.0521 87.5281 87.0785Z" fill="#79B6FF"/>
<path d="M87.5281 87.0785C87.6234 87.0783 87.7176 87.0581 87.8046 87.0195C87.8917 86.9808 87.9697 86.9243 88.0337 86.8538C88.1003 86.7875 88.1532 86.7087 88.1892 86.622C88.2253 86.5352 88.2438 86.4421 88.2438 86.3482C88.2438 86.2542 88.2253 86.1612 88.1892 86.0744C88.1532 85.9877 88.1003 85.9089 88.0337 85.8426L81.854 79.6628C81.7876 79.5964 81.7087 79.5437 81.622 79.5078C81.5352 79.4719 81.4422 79.4534 81.3483 79.4534C81.2544 79.4534 81.1615 79.4719 81.0747 79.5078C80.988 79.5437 80.9091 79.5964 80.8427 79.6628C80.7763 79.7292 80.7237 79.808 80.6877 79.8948C80.6518 79.9815 80.6333 80.0745 80.6333 80.1684C80.6333 80.2623 80.6518 80.3553 80.6877 80.4421C80.7237 80.5288 80.7763 80.6076 80.8427 80.674L87.0225 86.8538C87.1669 86.9743 87.342 87.0521 87.5281 87.0785Z" fill="#79B6FF"/>
<path d="M84.5505 73.2585H93.3146C93.4934 73.2585 93.6648 73.1874 93.7913 73.061C93.9177 72.9346 93.9887 72.7631 93.9887 72.5843C93.9887 72.4055 93.9177 72.234 93.7913 72.1076C93.6648 71.9812 93.4934 71.9102 93.3146 71.9102H84.5505C84.3726 71.913 84.2028 71.985 84.077 72.1108C83.9512 72.2366 83.8793 72.4064 83.8764 72.5843C83.8677 72.675 83.8791 72.7665 83.9099 72.8522C83.9407 72.938 83.9901 73.0159 84.0545 73.0803C84.119 73.1447 84.1968 73.1941 84.2826 73.2249C84.3683 73.2557 84.4598 73.2672 84.5505 73.2585Z" fill="#79B6FF"/>
<path d="M84.5505 73.2585H93.3146C93.4934 73.2585 93.6648 73.1874 93.7913 73.061C93.9177 72.9346 93.9887 72.7631 93.9887 72.5843C93.9887 72.4055 93.9177 72.234 93.7913 72.1076C93.6648 71.9812 93.4934 71.9102 93.3146 71.9102H84.5505C84.3726 71.913 84.2028 71.985 84.077 72.1108C83.9512 72.2366 83.8793 72.4064 83.8764 72.5843C83.8677 72.675 83.8791 72.7665 83.9099 72.8522C83.9407 72.938 83.9901 73.0159 84.0545 73.0803C84.119 73.1447 84.1968 73.1941 84.2826 73.2249C84.3683 73.2557 84.4598 73.2672 84.5505 73.2585Z" fill="#79B6FF"/>
<path d="M81.4044 65.6742C81.4997 65.674 81.5939 65.6539 81.6809 65.6152C81.768 65.5765 81.846 65.5201 81.91 65.4495L88.0898 59.2697C88.1562 59.2033 88.2089 59.1245 88.2448 59.0378C88.2808 58.951 88.2993 58.858 88.2993 58.7641C88.2993 58.6702 88.2808 58.5772 88.2448 58.4905C88.2089 58.4037 88.1562 58.3249 88.0898 58.2585C88.0234 58.1921 87.9446 58.1394 87.8578 58.1035C87.7711 58.0676 87.6781 58.0491 87.5842 58.0491C87.4903 58.0491 87.3973 58.0676 87.3106 58.1035C87.2238 58.1394 87.145 58.1921 87.0786 58.2585L80.8988 64.4383C80.8322 64.5046 80.7794 64.5834 80.7433 64.6701C80.7073 64.7569 80.6887 64.8499 80.6887 64.9439C80.6887 65.0379 80.7073 65.1309 80.7433 65.2177C80.7794 65.3044 80.8322 65.3832 80.8988 65.4495C81.0432 65.57 81.2183 65.6478 81.4044 65.6742Z" fill="#79B6FF"/>
<path d="M81.4044 65.6742C81.4997 65.674 81.5939 65.6539 81.6809 65.6152C81.768 65.5765 81.846 65.5201 81.91 65.4495L88.0898 59.2697C88.1562 59.2033 88.2089 59.1245 88.2448 59.0378C88.2808 58.951 88.2993 58.858 88.2993 58.7641C88.2993 58.6702 88.2808 58.5772 88.2448 58.4905C88.2089 58.4037 88.1562 58.3249 88.0898 58.2585C88.0234 58.1921 87.9446 58.1394 87.8578 58.1035C87.7711 58.0676 87.6781 58.0491 87.5842 58.0491C87.4903 58.0491 87.3973 58.0676 87.3106 58.1035C87.2238 58.1394 87.145 58.1921 87.0786 58.2585L80.8988 64.4383C80.8322 64.5046 80.7794 64.5834 80.7433 64.6701C80.7073 64.7569 80.6887 64.8499 80.6887 64.9439C80.6887 65.0379 80.7073 65.1309 80.7433 65.2177C80.7794 65.3044 80.8322 65.3832 80.8988 65.4495C81.0432 65.57 81.2183 65.6478 81.4044 65.6742Z" fill="#79B6FF"/>
<path d="M73.8203 62.472C73.9982 62.4691 74.168 62.3971 74.2938 62.2713C74.4196 62.1455 74.4916 61.9757 74.4945 61.7978V53.0338C74.4945 52.855 74.4234 52.6835 74.297 52.5571C74.1706 52.4307 73.9991 52.3596 73.8203 52.3596C73.6415 52.3596 73.47 52.4307 73.3436 52.5571C73.2172 52.6835 73.1461 52.855 73.1461 53.0338V61.7978C73.1374 61.8885 73.1489 61.98 73.1797 62.0658C73.2105 62.1515 73.2599 62.2294 73.3243 62.2938C73.3887 62.3582 73.4666 62.4076 73.5524 62.4384C73.6381 62.4692 73.7296 62.4807 73.8203 62.472Z" fill="#79B6FF"/>
<path d="M73.8203 62.472C73.9982 62.4691 74.168 62.3971 74.2938 62.2713C74.4196 62.1455 74.4916 61.9757 74.4945 61.7978V53.0338C74.4945 52.855 74.4234 52.6835 74.297 52.5571C74.1706 52.4307 73.9991 52.3596 73.8203 52.3596C73.6415 52.3596 73.47 52.4307 73.3436 52.5571C73.2172 52.6835 73.1461 52.855 73.1461 53.0338V61.7978C73.1374 61.8885 73.1489 61.98 73.1797 62.0658C73.2105 62.1515 73.2599 62.2294 73.3243 62.2938C73.3887 62.3582 73.4666 62.4076 73.5524 62.4384C73.6381 62.4692 73.7296 62.4807 73.8203 62.472Z" fill="#79B6FF"/>
<path d="M66.1798 65.6181C66.275 65.6178 66.3692 65.5977 66.4562 65.559C66.5433 65.5203 66.6213 65.4639 66.6854 65.3934C66.752 65.3271 66.8048 65.2483 66.8408 65.1615C66.8769 65.0747 66.8955 64.9817 66.8955 64.8877C66.8955 64.7938 66.8769 64.7007 66.8408 64.614C66.8048 64.5272 66.752 64.4484 66.6854 64.3821L60.5056 58.2024C60.3715 58.0683 60.1896 57.9929 60 57.9929C59.8103 57.9929 59.6284 58.0683 59.4943 58.2024C59.3602 58.3364 59.2849 58.5183 59.2849 58.708C59.2849 58.8976 59.3602 59.0795 59.4943 59.2136L65.6741 65.3934C65.7382 65.4639 65.8162 65.5203 65.9033 65.559C65.9903 65.5977 66.0845 65.6178 66.1798 65.6181Z" fill="#79B6FF"/>
<path d="M66.1798 65.6181C66.275 65.6178 66.3692 65.5977 66.4562 65.559C66.5433 65.5203 66.6213 65.4639 66.6854 65.3934C66.752 65.3271 66.8048 65.2483 66.8408 65.1615C66.8769 65.0747 66.8955 64.9817 66.8955 64.8877C66.8955 64.7938 66.8769 64.7007 66.8408 64.614C66.8048 64.5272 66.752 64.4484 66.6854 64.3821L60.5056 58.2024C60.3715 58.0683 60.1896 57.9929 60 57.9929C59.8103 57.9929 59.6284 58.0683 59.4943 58.2024C59.3602 58.3364 59.2849 58.5183 59.2849 58.708C59.2849 58.8976 59.3602 59.0795 59.4943 59.2136L65.6741 65.3934C65.7382 65.4639 65.8162 65.5203 65.9033 65.559C65.9903 65.5977 66.0845 65.6178 66.1798 65.6181Z" fill="#79B6FF"/>
<path d="M54.2698 73.2023H63.0338C63.2126 73.2023 63.3841 73.1313 63.5105 73.0049C63.6369 72.8784 63.708 72.707 63.708 72.5282C63.708 72.3494 63.6369 72.1779 63.5105 72.0515C63.3841 71.925 63.2126 71.854 63.0338 71.854H54.2698C54.0919 71.8569 53.9221 71.9289 53.7963 72.0547C53.6705 72.1805 53.5985 72.3503 53.5956 72.5282C53.5916 72.6178 53.6063 72.7072 53.6388 72.7908C53.6713 72.8744 53.7208 72.9503 53.7842 73.0137C53.8476 73.0771 53.9235 73.1267 54.0071 73.1591C54.0907 73.1916 54.1802 73.2063 54.2698 73.2023Z" fill="#79B6FF"/>
<path d="M54.2698 73.2023H63.0338C63.2126 73.2023 63.3841 73.1313 63.5105 73.0049C63.6369 72.8784 63.708 72.707 63.708 72.5282C63.708 72.3494 63.6369 72.1779 63.5105 72.0515C63.3841 71.925 63.2126 71.854 63.0338 71.854H54.2698C54.0919 71.8569 53.9221 71.9289 53.7963 72.0547C53.6705 72.1805 53.5985 72.3503 53.5956 72.5282C53.5916 72.6178 53.6063 72.7072 53.6388 72.7908C53.6713 72.8744 53.7208 72.9503 53.7842 73.0137C53.8476 73.0771 53.9235 73.1267 54.0071 73.1591C54.0907 73.1916 54.1802 73.2063 54.2698 73.2023Z" fill="#79B6FF"/>
<path d="M59.9437 87.0224C60.039 87.0221 60.1332 87.002 60.2202 86.9633C60.3073 86.9246 60.3853 86.8682 60.4493 86.7977L66.6291 80.6179C66.6955 80.5515 66.7482 80.4727 66.7841 80.3859C66.8201 80.2992 66.8385 80.2062 66.8385 80.1123C66.8385 80.0184 66.8201 79.9254 66.7841 79.8386C66.7482 79.7519 66.6955 79.673 66.6291 79.6066C66.5627 79.5402 66.4839 79.4876 66.3971 79.4516C66.3104 79.4157 66.2174 79.3972 66.1235 79.3972C66.0296 79.3972 65.9366 79.4157 65.8499 79.4516C65.7631 79.4876 65.6843 79.5402 65.6179 79.6066L59.4381 85.7864C59.3715 85.8527 59.3187 85.9315 59.2826 86.0183C59.2466 86.105 59.228 86.1981 59.228 86.292C59.228 86.386 59.2466 86.479 59.2826 86.5658C59.3187 86.6526 59.3715 86.7314 59.4381 86.7977C59.5825 86.9181 59.7576 86.9959 59.9437 87.0224Z" fill="#79B6FF"/>
<path d="M59.9437 87.0224C60.039 87.0221 60.1332 87.002 60.2202 86.9633C60.3073 86.9246 60.3853 86.8682 60.4493 86.7977L66.6291 80.6179C66.6955 80.5515 66.7482 80.4727 66.7841 80.3859C66.8201 80.2992 66.8385 80.2062 66.8385 80.1123C66.8385 80.0184 66.8201 79.9254 66.7841 79.8386C66.7482 79.7519 66.6955 79.673 66.6291 79.6066C66.5627 79.5402 66.4839 79.4876 66.3971 79.4516C66.3104 79.4157 66.2174 79.3972 66.1235 79.3972C66.0296 79.3972 65.9366 79.4157 65.8499 79.4516C65.7631 79.4876 65.6843 79.5402 65.6179 79.6066L59.4381 85.7864C59.3715 85.8527 59.3187 85.9315 59.2826 86.0183C59.2466 86.105 59.228 86.1981 59.228 86.292C59.228 86.386 59.2466 86.479 59.2826 86.5658C59.3187 86.6526 59.3715 86.7314 59.4381 86.7977C59.5825 86.9181 59.7576 86.9959 59.9437 87.0224Z" fill="#79B6FF"/>
<path d="M73.7641 92.7528C73.942 92.7499 74.1118 92.6779 74.2376 92.5521C74.3635 92.4263 74.4354 92.2565 74.4383 92.0786V83.3145C74.4383 83.1357 74.3673 82.9643 74.2409 82.8378C74.1144 82.7114 73.9429 82.6404 73.7641 82.6404C73.5854 82.6404 73.4139 82.7114 73.2874 82.8378C73.161 82.9643 73.09 83.1357 73.09 83.3145V92.0786C73.086 92.1682 73.1007 92.2576 73.1332 92.3412C73.1657 92.4248 73.2152 92.5008 73.2786 92.5642C73.342 92.6276 73.4179 92.6771 73.5015 92.7096C73.5851 92.742 73.6746 92.7568 73.7641 92.7528Z" fill="#79B6FF"/>
<path d="M73.7641 92.7528C73.942 92.7499 74.1118 92.6779 74.2376 92.5521C74.3635 92.4263 74.4354 92.2565 74.4383 92.0786V83.3145C74.4383 83.1357 74.3673 82.9643 74.2409 82.8378C74.1144 82.7114 73.9429 82.6404 73.7641 82.6404C73.5854 82.6404 73.4139 82.7114 73.2874 82.8378C73.161 82.9643 73.09 83.1357 73.09 83.3145V92.0786C73.086 92.1682 73.1007 92.2576 73.1332 92.3412C73.1657 92.4248 73.2152 92.5008 73.2786 92.5642C73.342 92.6276 73.4179 92.6771 73.5015 92.7096C73.5851 92.742 73.6746 92.7568 73.7641 92.7528Z" fill="#79B6FF"/>
<path d="M67.3596 69.1573L70.3371 72.1349L80.1686 62.3034C80.7987 61.6858 81.6458 61.3398 82.5281 61.3398C83.4105 61.3398 84.2576 61.6858 84.8877 62.3034C85.5053 62.9335 85.8513 63.7806 85.8513 64.663C85.8513 65.5453 85.5053 66.3924 84.8877 67.0225L75.0562 76.854L72.2472 79.663C71.7525 80.1488 71.0868 80.421 70.3933 80.421C69.6999 80.421 69.0342 80.1488 68.5394 79.663L65.7304 76.854L62.7529 73.8764C62.1353 73.2463 61.7893 72.3992 61.7893 71.5169C61.7893 70.6346 62.1353 69.7874 62.7529 69.1573C63.0527 68.8502 63.411 68.6062 63.8065 68.4395C64.2021 68.2729 64.627 68.187 65.0562 68.187C65.4855 68.187 65.9104 68.2729 66.3059 68.4395C66.7015 68.6062 67.0598 68.8502 67.3596 69.1573Z" fill="#79B6FF"/>
<path d="M67.5281 80.6742L61.6854 74.8315C61.2407 74.3946 60.8873 73.8737 60.6455 73.2991C60.4038 72.7245 60.2785 72.1076 60.2771 71.4842C60.2757 70.8608 60.3981 70.2433 60.6372 69.6676C60.8763 69.0919 61.2274 68.5694 61.6701 68.1304C62.1127 67.6915 62.6382 67.3448 63.2159 67.1106C63.7936 66.8763 64.4121 66.7591 65.0355 66.7658C65.6588 66.7725 66.2747 66.9029 66.8472 67.1495C67.4198 67.3961 67.9377 67.754 68.3708 68.2023L70.3933 70.2248L79.2135 61.4046C79.6467 60.9562 80.1645 60.5984 80.7371 60.3518C81.3097 60.1052 81.9255 59.9747 82.5489 59.968C83.1722 59.9614 83.7907 60.0785 84.3684 60.3128C84.9461 60.547 85.4716 60.8937 85.9143 61.3327C86.3569 61.7716 86.708 62.2941 86.9471 62.8698C87.1863 63.4455 87.3087 64.063 87.3072 64.6864C87.3058 65.3098 87.1806 65.9267 86.9388 66.5013C86.6971 67.076 86.3436 67.5968 85.8989 68.0338L73.2585 80.6742C72.4966 81.4303 71.4667 81.8547 70.3933 81.8547C69.3199 81.8547 68.29 81.4303 67.5281 80.6742ZM81.1798 63.3147L71.3483 73.1461C71.2214 73.279 71.0688 73.3848 70.8998 73.4571C70.7309 73.5294 70.549 73.5666 70.3652 73.5666C70.1814 73.5666 69.9995 73.5294 69.8306 73.4571C69.6616 73.3848 69.509 73.279 69.3821 73.1461L66.4045 70.1686C66.0469 69.811 65.5619 69.6101 65.0562 69.6101C64.5505 69.6101 64.0655 69.811 63.7079 70.1686C63.3503 70.5262 63.1494 71.0112 63.1494 71.5169C63.1494 72.0226 63.3503 72.5076 63.7079 72.8652L69.5506 78.7079C69.662 78.8274 69.7968 78.9226 69.9466 78.9877C70.0964 79.0528 70.258 79.0864 70.4214 79.0864C70.5847 79.0864 70.7463 79.0528 70.8961 78.9877C71.0459 78.9226 71.1807 78.8274 71.2922 78.7079L83.9326 66.0675C84.1106 65.8909 84.2519 65.6809 84.3484 65.4495C84.4448 65.2181 84.4944 64.9699 84.4944 64.7192C84.4944 64.4685 84.4448 64.2202 84.3484 63.9888C84.2519 63.7574 84.1106 63.5474 83.9326 63.3708C83.7586 63.1894 83.5491 63.0459 83.3171 62.9492C83.0851 62.8526 82.8356 62.8048 82.5843 62.809C82.3274 62.7844 82.0682 62.8169 81.8253 62.9043C81.5825 62.9917 81.362 63.1319 81.1798 63.3147Z" fill="#0053D5"/>
<path d="M55.7865 72.0225C55.9576 70.4744 55.5106 68.9213 54.5427 67.701C53.5749 66.4806 52.1644 65.6917 50.618 65.5057L42.7528 64.6068C41.2047 64.4358 39.6516 64.8828 38.4313 65.8506C37.2109 66.8185 36.422 68.2289 36.236 69.7753C36.0649 71.3235 36.5119 72.8766 37.4798 74.0969C38.4476 75.3172 39.8581 76.1062 41.4045 76.2922L49.2697 77.1911C50.0385 77.2896 50.8193 77.2332 51.566 77.0253C52.3127 76.8174 53.0103 76.4622 53.6176 75.9805C54.2249 75.4989 54.7297 74.9005 55.1022 74.2208C55.4747 73.541 55.7074 72.7936 55.7865 72.0225Z" fill="white"/>
<path d="M49.1574 78.5956L41.2922 77.6967C39.3736 77.4699 37.6196 76.5022 36.4045 75.0001C35.2165 73.4899 34.6715 71.5723 34.8877 69.663C35.1145 67.7444 36.0822 65.9904 37.5843 64.7754C39.0945 63.5874 41.0121 63.0424 42.9214 63.2585L50.7866 64.1574C52.7052 64.3842 54.4592 65.3519 55.6742 66.854C56.8622 68.3643 57.4072 70.2818 57.1911 72.1911C56.9643 74.1098 55.9965 75.8637 54.4944 77.0788C53.2141 78.0905 51.6318 78.6443 50 78.6518C49.718 78.6611 49.4357 78.6423 49.1574 78.5956ZM54.4383 71.9102C54.5501 70.7244 54.2089 69.5401 53.4832 68.5956C52.7517 67.6632 51.6816 67.0575 50.5057 66.9102L42.6405 66.0114C41.4546 65.8995 40.2704 66.2407 39.3259 66.9664C38.3935 67.6979 37.7878 68.768 37.6405 69.9439C37.5286 71.1298 37.8698 72.314 38.5956 73.2585C39.327 74.1909 40.3972 74.7967 41.5731 74.9439L49.4383 75.8428C50.6241 75.9547 51.8084 75.6135 52.7529 74.8878C53.6852 74.1563 54.291 73.0861 54.4383 71.9102Z" fill="#0053D5"/>
<path d="M49.1574 75.1125C48.2355 75.0038 47.3937 74.5357 46.8151 73.8098C46.2365 73.0839 45.9678 72.159 46.0675 71.2361L46.1237 70.5619C46.2422 69.6408 46.7036 68.7983 47.4158 68.2024C48.1467 67.6267 49.076 67.364 50.0001 67.472C50.922 67.5807 51.7637 68.0488 52.3423 68.7747C52.9209 69.5006 53.1896 70.4255 53.09 71.3484L53.0338 72.0226C52.9308 72.8742 52.5197 73.6587 51.878 74.2279C51.2363 74.7972 50.4084 75.1118 49.5506 75.1125C49.4211 75.141 49.2869 75.141 49.1574 75.1125ZM49.8315 68.9327C49.5615 68.9028 49.2882 68.9272 49.0277 69.0043C48.7673 69.0815 48.5248 69.21 48.3147 69.3821C48.0932 69.5487 47.9088 69.7597 47.7734 70.0015C47.638 70.2433 47.5545 70.5107 47.5282 70.7866L47.472 71.4608C47.4124 72.0121 47.5742 72.5645 47.9219 72.9964C48.2696 73.4284 48.7746 73.7046 49.3259 73.7642C49.8772 73.8238 50.4296 73.6619 50.8616 73.3142C51.2935 72.9666 51.5697 72.4615 51.6293 71.9102L51.6855 71.2361C51.7158 70.963 51.6919 70.6865 51.6151 70.4227C51.5382 70.1588 51.41 69.9128 51.2376 69.6987C51.0653 69.4846 50.8524 69.3068 50.6111 69.1753C50.3698 69.0438 50.1048 68.9614 49.8315 68.9327Z" fill="#0053D5"/>
<path d="M78.4832 50.4495C78.4832 50.0495 78.6018 49.6584 78.824 49.3259C79.0462 48.9933 79.3621 48.734 79.7317 48.581C80.1012 48.4279 80.5079 48.3878 80.9002 48.4659C81.2925 48.5439 81.6529 48.7365 81.9357 49.0194C82.2186 49.3022 82.4112 49.6626 82.4892 50.0549C82.5673 50.4472 82.5272 50.8539 82.3741 51.2234C82.2211 51.593 81.9618 51.9089 81.6292 52.1311C81.2967 52.3533 80.9056 52.472 80.5056 52.472C79.9746 52.4551 79.4699 52.2366 79.0942 51.8609C78.7185 51.4852 78.5 50.9805 78.4832 50.4495ZM79.3258 50.4495C79.3258 50.6828 79.395 50.9109 79.5247 51.1049C79.6543 51.2989 79.8386 51.4502 80.0541 51.5394C80.2697 51.6287 80.5069 51.6521 80.7358 51.6066C80.9646 51.5611 81.1748 51.4487 81.3398 51.2837C81.5048 51.1187 81.6172 50.9085 81.6627 50.6796C81.7082 50.4508 81.6849 50.2136 81.5956 49.998C81.5063 49.7824 81.3551 49.5982 81.1611 49.4685C80.9671 49.3389 80.739 49.2697 80.5056 49.2697C80.3486 49.2616 80.1916 49.2866 80.0448 49.3431C79.898 49.3995 79.7647 49.4861 79.6535 49.5973C79.5423 49.7085 79.4556 49.8418 79.3992 49.9886C79.3428 50.1354 79.3178 50.2924 79.3258 50.4495Z" fill="#79B6FF"/>
<path d="M62.1348 54.1574H65.8426C66.0214 54.1574 66.1929 54.0864 66.3193 53.9599C66.4458 53.8335 66.5168 53.662 66.5168 53.4832C66.5168 53.3044 66.4458 53.133 66.3193 53.0065C66.1929 52.8801 66.0214 52.8091 65.8426 52.8091H62.1348C61.9569 52.812 61.7871 52.8839 61.6613 53.0097C61.5355 53.1355 61.4635 53.3053 61.4606 53.4832C61.4566 53.5728 61.4713 53.6623 61.5038 53.7459C61.5363 53.8295 61.5858 53.9054 61.6492 53.9688C61.7126 54.0322 61.7885 54.0817 61.8721 54.1142C61.9557 54.1467 62.0452 54.1614 62.1348 54.1574Z" fill="#0053D5"/>
<path d="M63.9887 55.9551C64.1666 55.9522 64.3364 55.8803 64.4622 55.7544C64.588 55.6286 64.66 55.4588 64.6629 55.2809V51.5731C64.6629 51.3943 64.5919 51.2228 64.4654 51.0964C64.339 50.97 64.1675 50.8989 63.9887 50.8989C63.8099 50.8989 63.6385 50.97 63.512 51.0964C63.3856 51.2228 63.3146 51.3943 63.3146 51.5731V55.2809C63.3059 55.3716 63.3174 55.4631 63.3482 55.5489C63.379 55.6346 63.4283 55.7125 63.4928 55.7769C63.5572 55.8414 63.6351 55.8907 63.7208 55.9215C63.8066 55.9523 63.898 55.9638 63.9887 55.9551Z" fill="#0053D5"/>
<path d="M81.4044 86.236C81.4997 86.2357 81.5939 86.2156 81.6809 86.1769C81.768 86.1382 81.846 86.0818 81.91 86.0112L84.4943 83.427C84.6284 83.2929 84.7038 83.111 84.7038 82.9214C84.7038 82.7317 84.6284 82.5498 84.4943 82.4157C84.3602 82.2816 84.1783 82.2063 83.9887 82.2063C83.7991 82.2063 83.6172 82.2816 83.4831 82.4157L80.8988 85C80.8322 85.0663 80.7794 85.1451 80.7433 85.2319C80.7073 85.3186 80.6887 85.4117 80.6887 85.5056C80.6887 85.5996 80.7073 85.6926 80.7433 85.7794C80.7794 85.8662 80.8322 85.9449 80.8988 86.0112C80.9628 86.0818 81.0409 86.1382 81.1279 86.1769C81.215 86.2156 81.3092 86.2357 81.4044 86.236Z" fill="#0053D5"/>
<path d="M83.9888 86.236C84.0841 86.2357 84.1782 86.2156 84.2653 86.1769C84.3523 86.1382 84.4304 86.0818 84.4944 86.0112C84.561 85.9449 84.6138 85.8662 84.6499 85.7794C84.6859 85.6926 84.7045 85.5996 84.7045 85.5056C84.7045 85.4117 84.6859 85.3186 84.6499 85.2319C84.6138 85.1451 84.561 85.0663 84.4944 85L81.9101 82.4157C81.776 82.2816 81.5942 82.2063 81.4045 82.2063C81.2149 82.2063 81.033 82.2816 80.8989 82.4157C80.7648 82.5498 80.6895 82.7317 80.6895 82.9214C80.6895 83.111 80.7648 83.2929 80.8989 83.427L83.4832 86.0112C83.5472 86.0818 83.6252 86.1382 83.7123 86.1769C83.7993 86.2156 83.8935 86.2357 83.9888 86.236Z" fill="#0053D5"/>
<path d="M63.8764 87.9213C63.8764 88.1102 63.9324 88.2948 64.0373 88.4519C64.1423 88.6089 64.2914 88.7313 64.4659 88.8036C64.6405 88.8759 64.8325 88.8948 65.0177 88.858C65.203 88.8211 65.3732 88.7302 65.5068 88.5966C65.6403 88.463 65.7313 88.2929 65.7681 88.1076C65.805 87.9223 65.7861 87.7303 65.7138 87.5558C65.6415 87.3813 65.5191 87.2321 65.362 87.1272C65.205 87.0222 65.0203 86.9662 64.8314 86.9662C64.7045 86.9606 64.5778 86.9815 64.4594 87.0275C64.341 87.0736 64.2335 87.1437 64.1437 87.2335C64.0539 87.3234 63.9837 87.4309 63.9377 87.5493C63.8917 87.6677 63.8708 87.7944 63.8764 87.9213Z" fill="#0053D5"/>
<path d="M128.371 5.84268C128.438 4.26398 129.113 2.7724 130.254 1.67925C131.395 0.586091 132.914 -0.0241699 134.494 -0.0241699C136.075 -0.0241699 137.594 0.586091 138.735 1.67925C139.876 2.7724 140.55 4.26398 140.618 5.84268C140.55 7.42137 139.876 8.91295 138.735 10.0061C137.594 11.0993 136.075 11.7095 134.494 11.7095C132.914 11.7095 131.395 11.0993 130.254 10.0061C129.113 8.91295 128.438 7.42137 128.371 5.84268ZM131.124 5.84268C131.163 6.68862 131.532 7.48555 132.151 8.063C132.771 8.64045 133.592 8.95256 134.438 8.93256C135.287 8.96139 136.113 8.65226 136.734 8.073C137.356 7.49373 137.722 6.69164 137.753 5.84268C137.738 5.42945 137.643 5.02313 137.471 4.64695C137.299 4.27078 137.055 3.93213 136.753 3.65037C136.45 3.36862 136.095 3.14928 135.707 3.0049C135.32 2.86053 134.908 2.79395 134.494 2.80897C132.641 2.80897 131.124 4.15728 131.124 5.84268Z" fill="#0053D5"/>
<path d="M14.719 154.775C14.7365 153.989 14.9089 153.214 15.2263 152.495C15.5437 151.776 15.9998 151.126 16.5686 150.584C17.1375 150.041 17.8078 149.616 18.5412 149.332C19.2746 149.049 20.0566 148.913 20.8426 148.933C21.6314 148.898 22.4191 149.024 23.1581 149.302C23.8971 149.58 24.5722 150.004 25.1426 150.55C25.7131 151.096 26.167 151.752 26.4772 152.478C26.7873 153.204 26.9472 153.986 26.9472 154.775C26.9472 155.565 26.7873 156.346 26.4772 157.072C26.167 157.799 25.7131 158.454 25.1426 159C24.5722 159.546 23.8971 159.971 23.1581 160.249C22.4191 160.527 21.6314 160.653 20.8426 160.618C19.2577 160.648 17.7251 160.051 16.5782 158.957C15.4314 157.863 14.7631 156.36 14.719 154.775ZM17.528 154.775C17.5674 155.621 17.9362 156.418 18.5557 156.996C19.1751 157.573 19.996 157.885 20.8426 157.865C21.6916 157.894 22.5174 157.585 23.1388 157.006C23.7602 156.426 24.1264 155.624 24.1572 154.775C24.1178 153.929 23.7489 153.132 23.1295 152.555C22.51 151.978 21.6892 151.665 20.8426 151.685C19.9936 151.657 19.1678 151.966 18.5464 152.545C17.925 153.124 17.5587 153.926 17.528 154.775Z" fill="#0053D5"/>
<path d="M145.787 25.2248H153.708C154.08 25.2248 154.438 25.0768 154.701 24.8134C154.964 24.55 155.112 24.1928 155.112 23.8203C155.112 23.4478 154.964 23.0905 154.701 22.8271C154.438 22.5637 154.08 22.4158 153.708 22.4158H145.787C145.414 22.4158 145.057 22.5637 144.793 22.8271C144.53 23.0905 144.382 23.4478 144.382 23.8203C144.382 24.1928 144.53 24.55 144.793 24.8134C145.057 25.0768 145.414 25.2248 145.787 25.2248Z" fill="#0053D5"/>
<path d="M149.719 29.1573C149.904 29.1588 150.087 29.1235 150.258 29.0535C150.429 28.9834 150.585 28.88 150.715 28.7493C150.846 28.6186 150.95 28.4632 151.02 28.2921C151.09 28.121 151.125 27.9377 151.123 27.7528V19.8315C151.123 19.459 150.976 19.1018 150.712 18.8384C150.449 18.575 150.091 18.427 149.719 18.427C149.346 18.427 148.989 18.575 148.726 18.8384C148.462 19.1018 148.314 19.459 148.314 19.8315V27.7528C148.313 27.9377 148.348 28.121 148.418 28.2921C148.488 28.4632 148.592 28.6186 148.723 28.7493C148.853 28.88 149.009 28.9834 149.18 29.0535C149.351 29.1235 149.534 29.1588 149.719 29.1573Z" fill="#0053D5"/>
<path d="M4.26973 136.348H12.1911C12.5636 136.348 12.9208 136.2 13.1842 135.937C13.4476 135.674 13.5956 135.316 13.5956 134.944C13.5956 134.571 13.4476 134.214 13.1842 133.951C12.9208 133.687 12.5636 133.539 12.1911 133.539H4.26973C3.89723 133.539 3.54 133.687 3.2766 133.951C3.01321 134.214 2.86523 134.571 2.86523 134.944C2.86523 135.316 3.01321 135.674 3.2766 135.937C3.54 136.2 3.89723 136.348 4.26973 136.348Z" fill="#0053D5"/>
<path d="M8.20235 140.337C8.3872 140.339 8.57051 140.303 8.74159 140.233C8.91267 140.163 9.06809 140.06 9.19881 139.929C9.32953 139.798 9.43293 139.643 9.50298 139.472C9.57303 139.301 9.60834 139.117 9.60684 138.933V131.011C9.60684 130.639 9.45887 130.281 9.19547 130.018C8.93208 129.755 8.57484 129.607 8.20235 129.607C7.82985 129.607 7.47261 129.755 7.20922 130.018C6.94582 130.281 6.79785 130.639 6.79785 131.011V138.933C6.81304 139.3 6.96589 139.649 7.22607 139.909C7.48624 140.169 7.83472 140.322 8.20235 140.337Z" fill="#0053D5"/>
<path d="M10.0001 10.2246C10.2683 10.2164 10.5258 10.1173 10.7305 9.94374L14.7192 5.95498C14.9087 5.75907 15.0146 5.49719 15.0146 5.22464C15.0146 4.9521 14.9087 4.69022 14.7192 4.49431C14.6277 4.40088 14.5184 4.32666 14.3978 4.27599C14.2773 4.22532 14.1478 4.19922 14.017 4.19922C13.8862 4.19922 13.7567 4.22532 13.6361 4.27599C13.5155 4.32666 13.4063 4.40088 13.3147 4.49431L9.26978 8.48307C9.13536 8.6295 9.04575 8.81141 9.01157 9.00722C8.9774 9.20304 9.00009 9.40454 9.07696 9.58785C9.15383 9.77116 9.28166 9.92858 9.44528 10.0414C9.6089 10.1543 9.80146 10.2179 10.0001 10.2246Z" fill="#0053D5"/>
<path d="M13.9889 10.2247C14.2571 10.2164 14.5146 10.1174 14.7192 9.94381C14.8126 9.85227 14.8869 9.74301 14.9375 9.62243C14.9882 9.50185 15.0143 9.37236 15.0143 9.24157C15.0143 9.11077 14.9882 8.98129 14.9375 8.8607C14.8869 8.74012 14.8126 8.63086 14.7192 8.53932L10.6743 4.49438C10.4851 4.32329 10.2373 4.23146 9.98235 4.23786C9.72735 4.24427 9.48456 4.34843 9.30419 4.5288C9.12382 4.70917 9.01966 4.95196 9.01325 5.20696C9.00685 5.46196 9.09868 5.70967 9.26977 5.89887L13.3147 9.88763C13.3949 9.99043 13.4971 10.074 13.6137 10.1323C13.7303 10.1907 13.8585 10.2222 13.9889 10.2247Z" fill="#0053D5"/>
<path d="M13.9888 124.551C14.251 124.563 14.5094 124.484 14.7191 124.326C14.8718 124.228 15.0034 124.1 15.106 123.95C15.2087 123.8 15.2804 123.631 15.3171 123.453C15.3537 123.276 15.3545 123.092 15.3193 122.914C15.2842 122.736 15.2138 122.566 15.1124 122.416C14.7753 121.91 14.4944 121.405 14.1573 120.955C14.0626 120.798 13.9375 120.661 13.7895 120.552C13.6414 120.444 13.4732 120.365 13.2947 120.322C13.1162 120.279 12.9309 120.272 12.7496 120.301C12.5682 120.33 12.3945 120.395 12.2383 120.491C12.0822 120.588 11.9467 120.715 11.8399 120.864C11.7331 121.013 11.657 121.182 11.616 121.361C11.5751 121.54 11.57 121.726 11.6012 121.907C11.6324 122.088 11.6992 122.261 11.7978 122.416C12.1349 122.921 12.4158 123.427 12.7528 123.933C12.9035 124.117 13.0915 124.268 13.3046 124.374C13.5176 124.481 13.7508 124.541 13.9888 124.551Z" fill="#0053D5"/>
<path d="M147.584 144.831C147.584 145.176 147.686 145.513 147.878 145.799C148.069 146.085 148.341 146.309 148.659 146.44C148.978 146.572 149.328 146.607 149.666 146.54C150.003 146.472 150.314 146.306 150.557 146.063C150.801 145.819 150.967 145.509 151.034 145.171C151.101 144.833 151.067 144.483 150.935 144.165C150.803 143.847 150.58 143.575 150.293 143.383C150.007 143.192 149.67 143.09 149.326 143.09C148.865 143.093 148.424 143.277 148.098 143.603C147.772 143.929 147.587 144.37 147.584 144.831Z" fill="#0053D5"/>
</g>
<defs>
<clipPath id="clip0_23_123">
<rect width="160" height="160.618" fill="white"/>
</clipPath>
</defs>
</svg>
