<svg width="32" height="42" viewBox="0 0 32 42" fill="none" xmlns="http://www.w3.org/2000/svg">
<path d="M27.8642 22.8437L21.6542 19.7387C24.1267 17.822 25.7176 14.832 25.7176 11.4587C25.7176 5.65116 20.9834 0.916992 15.1759 0.916992C9.36841 0.916992 4.63425 5.65116 4.63425 11.4587C4.63425 15.5412 6.97258 19.087 10.3842 20.8312V27.0795C6.39758 26.2362 6.53175 26.2362 6.05258 26.2362C5.03675 26.2362 4.07841 26.6387 3.35008 27.367L0.666748 30.0887L10.4226 39.8445C11.2467 40.6878 12.3967 41.167 13.5851 41.167H25.6601C27.5384 41.167 29.1292 39.8253 29.4359 37.9662L30.9692 28.9387C31.3909 26.447 30.1451 23.9937 27.8642 22.8437ZM8.46758 11.4587C8.46758 7.75949 11.4767 4.75033 15.1759 4.75033C18.8751 4.75033 21.8842 7.75949 21.8842 11.4587C21.8842 13.2795 21.1559 14.9278 19.9676 16.1353V11.4587C19.9676 8.81366 17.8209 6.66699 15.1759 6.66699C12.5309 6.66699 10.3842 8.81366 10.3842 11.4587V16.1353C9.19591 14.9278 8.46758 13.2795 8.46758 11.4587ZM27.1934 28.3062L25.6601 37.3337H13.5851C13.4126 37.3337 13.2592 37.257 13.1251 37.142L6.07175 30.0887L14.2176 31.7945V11.4587C14.2176 10.922 14.6392 10.5003 15.1759 10.5003C15.7126 10.5003 16.1342 10.922 16.1342 11.4587V22.9587H19.5076L26.1392 26.2745C26.9059 26.6578 27.3276 27.482 27.1934 28.3062Z" fill="white"/>
</svg>
