<svg width="47" height="46" viewBox="0 0 47 46" fill="none" xmlns="http://www.w3.org/2000/svg">
<path d="M35.3321 23.8437L29.1982 20.7387C31.6404 18.822 33.2117 15.832 33.2117 12.4587C33.2117 6.65116 28.5356 1.91699 22.7994 1.91699C17.0632 1.91699 12.3871 6.65116 12.3871 12.4587C12.3871 16.5412 14.6967 20.087 18.0665 21.8312V28.0795C14.1288 27.2362 14.2613 27.2362 13.788 27.2362C12.7846 27.2362 11.8381 27.6387 11.1187 28.367L8.46826 31.0887L18.1044 40.8445C18.9184 41.6878 20.0543 42.167 21.2281 42.167H33.1549C35.0102 42.167 36.5815 40.8253 36.8844 38.9662L38.399 29.9387C38.8154 27.447 37.5849 24.9937 35.3321 23.8437ZM16.1734 12.4587C16.1734 8.75949 19.1456 5.75033 22.7994 5.75033C26.4532 5.75033 29.4254 8.75949 29.4254 12.4587C29.4254 14.2795 28.706 15.9278 27.5323 17.1353V12.4587C27.5323 9.81366 25.4119 7.66699 22.7994 7.66699C20.1869 7.66699 18.0665 9.81366 18.0665 12.4587V17.1353C16.8928 15.9278 16.1734 14.2795 16.1734 12.4587ZM34.6694 29.3062L33.1549 38.3337H21.2281C21.0577 38.3337 20.9063 38.257 20.7737 38.142L13.8069 31.0887L21.8528 32.7945V12.4587C21.8528 11.922 22.2693 11.5003 22.7994 11.5003C23.3295 11.5003 23.746 11.922 23.746 12.4587V23.9587H27.0779L33.6282 27.2745C34.3855 27.6578 34.802 28.482 34.6694 29.3062Z" fill="#1854D1"/>
<path opacity="0.3" d="M33.6473 27.2742L27.097 23.9583H23.7462V12.4583C23.7462 11.9217 23.3297 11.5 22.7996 11.5C22.2695 11.5 21.853 11.9217 21.853 12.4583V32.7942L13.8071 31.0883L20.7739 38.1417C20.8875 38.2567 21.0579 38.3333 21.2283 38.3333H33.1551L34.6696 29.3058C34.8022 28.4817 34.3857 27.6575 33.6473 27.2742Z" fill="#1854D1"/>
</svg>
