<svg width="46" height="46" viewBox="0 0 46 46" fill="none" xmlns="http://www.w3.org/2000/svg">
<path d="M22.8589 1.91699L5.82056 9.58366V21.0837C5.82056 31.7212 13.0903 41.6687 22.8589 44.0837C32.6276 41.6687 39.8972 31.7212 39.8972 21.0837V9.58366L22.8589 1.91699ZM36.1109 21.0837C36.1109 29.747 30.4694 37.7395 22.8589 40.1162C15.2484 37.7395 9.60686 29.747 9.60686 21.0837V12.0753L22.8589 6.11449L36.1109 12.0753V21.0837ZM14.1693 22.2145L11.5 24.917L19.0726 32.5837L34.2178 17.2503L31.5485 14.5287L19.0726 27.1595L14.1693 22.2145Z" fill="#1854D1"/>
<path opacity="0.3" d="M9.60693 12.0751V21.0834C9.60693 29.7468 15.2485 37.7393 22.859 40.1159C30.4694 37.7584 36.111 29.7468 36.111 21.0834V12.0751L22.859 6.11426L9.60693 12.0751ZM34.2179 17.2501L19.0727 32.5834L11.5001 24.9168L14.1694 22.2143L19.0727 27.1593L31.5485 14.5284L34.2179 17.2501Z" fill="#1854D1"/>
</svg>
