<svg width="42" height="28" viewBox="0 0 42 28" fill="none" xmlns="http://www.w3.org/2000/svg">
<path d="M20.9999 0.333008C11.8333 0.333008 4.00492 6.03468 0.833252 14.083C4.00492 22.1313 11.8333 27.833 20.9999 27.833C30.1666 27.833 37.9949 22.1313 41.1666 14.083C37.9949 6.03468 30.1666 0.333008 20.9999 0.333008ZM20.9999 24.1663C14.0516 24.1663 7.85492 20.2613 4.82992 14.083C7.85492 7.90468 14.0516 3.99967 20.9999 3.99967C27.9482 3.99967 34.1449 7.90468 37.1699 14.083C34.1449 20.2613 27.9482 24.1663 20.9999 24.1663ZM20.9999 5.83301C16.4533 5.83301 12.7499 9.53634 12.7499 14.083C12.7499 18.6297 16.4533 22.333 20.9999 22.333C25.5466 22.333 29.2499 18.6297 29.2499 14.083C29.2499 9.53634 25.5466 5.83301 20.9999 5.83301ZM20.9999 18.6663C18.4699 18.6663 16.4166 16.613 16.4166 14.083C16.4166 11.553 18.4699 9.49968 20.9999 9.49968C23.5299 9.49968 25.5833 11.553 25.5833 14.083C25.5833 16.613 23.5299 18.6663 20.9999 18.6663Z" fill="white"/>
</svg>
