<svg width="44" height="44" viewBox="0 0 44 44" fill="none" xmlns="http://www.w3.org/2000/svg">
<path opacity="0.3" d="M21.736 11C14.8729 11 8.75229 14.905 5.7644 21.0833C8.75229 27.2617 14.8729 31.1667 21.736 31.1667C28.5991 31.1667 34.7197 27.2617 37.7076 21.0833C34.7197 14.905 28.5991 11 21.736 11ZM21.736 29.3333C17.2451 29.3333 13.5872 25.63 13.5872 21.0833C13.5872 16.5367 17.2451 12.8333 21.736 12.8333C26.2269 12.8333 29.8848 16.5367 29.8848 21.0833C29.8848 25.63 26.2269 29.3333 21.736 29.3333Z" fill="#1854D1"/>
<path d="M21.7361 7.33301C12.6819 7.33301 4.94964 13.0347 1.81689 21.083C4.94964 29.1313 12.6819 34.833 21.7361 34.833C30.7903 34.833 38.5226 29.1313 41.6553 21.083C38.5226 13.0347 30.7903 7.33301 21.7361 7.33301ZM21.7361 31.1663C14.873 31.1663 8.75241 27.2613 5.76452 21.083C8.75241 14.9047 14.873 10.9997 21.7361 10.9997C28.5992 10.9997 34.7198 14.9047 37.7077 21.083C34.7198 27.2613 28.5992 31.1663 21.7361 31.1663ZM21.7361 12.833C17.2452 12.833 13.5873 16.5363 13.5873 21.083C13.5873 25.6297 17.2452 29.333 21.7361 29.333C26.227 29.333 29.8849 25.6297 29.8849 21.083C29.8849 16.5363 26.227 12.833 21.7361 12.833ZM21.7361 25.6663C19.2372 25.6663 17.209 23.613 17.209 21.083C17.209 18.553 19.2372 16.4997 21.7361 16.4997C24.2351 16.4997 26.2632 18.553 26.2632 21.083C26.2632 23.613 24.2351 25.6663 21.7361 25.6663Z" fill="#1854D1"/>
</svg>
