<svg width="40" height="40" viewBox="0 0 40 40" fill="none" xmlns="http://www.w3.org/2000/svg">
<circle cx="20" cy="20" r="20" fill="url(#paint0_linear)"/>
<path d="M17.3472 16.5212C17.9843 17.4613 19.0611 18.0807 20.2801 18.0807C21.4991 18.0807 22.5759 17.4613 23.2131 16.5212C23.6878 17.5091 24.6898 18.1982 25.857 18.1982C27.479 18.1982 28.7985 16.8787 28.7985 15.2574C28.7985 13.6353 27.479 12.3158 25.857 12.3158C24.9514 12.3158 24.1501 12.7363 23.6102 13.3824C23.1276 12.0003 21.8248 11 20.2801 11C18.7354 11 17.4327 12.0003 16.9501 13.3824C16.4101 12.7363 15.6089 12.3158 14.7033 12.3158C13.0812 12.3158 11.7617 13.6353 11.7617 15.2574C11.7617 16.8787 13.0812 18.1982 14.7033 18.1982C15.8704 18.1982 16.8725 17.5091 17.3472 16.5212ZM25.857 13.8196C26.65 13.8196 27.2947 14.4643 27.2947 15.2574C27.2947 16.0497 26.65 16.6944 25.857 16.6944C25.0647 16.6944 24.42 16.0497 24.42 15.2574C24.42 14.4643 25.0647 13.8196 25.857 13.8196ZM20.2801 12.5038C21.4036 12.5038 22.317 13.4172 22.317 14.5407C22.317 15.6634 21.4036 16.5769 20.2801 16.5769C19.1567 16.5769 18.2432 15.6634 18.2432 14.5407C18.2432 13.4172 19.1566 12.5038 20.2801 12.5038ZM13.2655 15.2574C13.2655 14.4643 13.9102 13.8196 14.7032 13.8196C15.4955 13.8196 16.1402 14.4643 16.1402 15.2574C16.1402 16.0497 15.4955 16.6944 14.7032 16.6944C13.9102 16.6943 13.2655 16.0496 13.2655 15.2574Z" fill="white"/>
<path d="M26.4223 18.5931C25.1966 18.5516 23.8529 18.6017 22.7902 19.2667C22.2159 19.0923 21.6146 18.9992 20.9938 18.9992C20.0052 19.0035 18.692 18.9366 17.768 19.2663C16.7078 18.6026 15.3581 18.5499 14.1363 18.5932C11.3599 18.543 8.94982 20.963 9.00079 23.7368C9.00076 24.5452 9.65867 25.2024 10.4671 25.2024H13.2322C13.1498 26.1625 13.9234 27.0047 14.8882 26.9999C14.8882 26.9999 25.6704 26.9999 25.6704 26.9999C26.635 27.0045 27.4091 26.1627 27.3265 25.2024C27.3265 25.2024 30.0915 25.2024 30.0915 25.2024C30.9 25.2024 31.5579 24.5452 31.5579 23.7368C31.5579 20.9003 29.2544 18.5931 26.4223 18.5931ZM11.5729 21.1602C12.4965 20.1344 13.9647 20.0274 15.2642 20.0971C15.4823 20.097 15.6974 20.116 15.9089 20.1542C14.8067 20.8907 13.7787 22.3612 13.4403 23.7052C13.4402 23.7052 10.5046 23.7368 10.5046 23.7368C10.5046 22.758 10.882 21.8445 11.5729 21.1602ZM25.6704 25.4961H14.8882C14.7994 25.4961 14.7304 25.4271 14.7304 25.3383C14.7094 23.3431 16.0319 21.4219 17.9473 20.7872C18.792 20.4197 20.077 20.5115 20.9938 20.503C23.5985 20.4689 25.8644 22.7041 25.8282 25.3383C25.8283 25.4271 25.7593 25.4961 25.6704 25.4961ZM27.1155 23.6986C26.7916 22.5142 26.1402 21.4204 25.2132 20.6105C25.0469 20.4626 24.6632 20.1659 24.6473 20.1548C25.0639 20.0577 25.9873 20.1098 26.4223 20.0969C28.4122 20.097 30.0335 21.7094 30.0541 23.6986H27.1155V23.6986Z" fill="white"/>
<defs>
<linearGradient id="paint0_linear" x1="0" y1="0" x2="40" y2="40" gradientUnits="userSpaceOnUse">
<stop stop-color="#FFF720"/>
<stop offset="1" stop-color="#3CD500"/>
</linearGradient>
</defs>
</svg>
