<svg width="24" height="24" viewBox="0 0 24 24" fill="none" xmlns="http://www.w3.org/2000/svg">
<path d="M5 15.0039C10.5 16.0039 13.5 16.0039 19 15.0039V19.0039H5V15.0039Z" fill="#BAD6FF"/>
<path d="M15.5556 9.33721H13.2889V6.67054H10.7111V9.33721H8.44444L12 12.8928L15.5556 9.33721ZM18.2222 4.00388H5.76889C4.78222 4.00388 4 4.80388 4 5.78165V18.2261C4 19.2039 4.78222 20.0039 5.76889 20.0039H18.2222C19.2 20.0039 20 19.2039 20 18.2261V5.78165C20 4.80388 19.2 4.00388 18.2222 4.00388ZM18.2222 18.2261H5.77778V15.5594H8.94222C9.55556 16.6172 10.6933 17.3372 12.0089 17.3372C13.3244 17.3372 14.4533 16.6172 15.0756 15.5594H18.2222V18.2261ZM18.2222 13.7817H13.7867C13.7867 14.7594 12.9867 15.5594 12.0089 15.5594C11.0311 15.5594 10.2311 14.7594 10.2311 13.7817H5.77778L5.76889 5.78165H18.2222V13.7817Z" fill="#1975FF"/>
</svg>
