<svg width="40" height="40" viewBox="0 0 40 40" fill="none" xmlns="http://www.w3.org/2000/svg">
<rect width="40" height="40" rx="20" fill="url(#paint0_linear_7335_6350)"/>
<path d="M21 11.06V9H19V11.06C14.83 11.52 11.52 14.83 11.06 19H9V21H11.06C11.52 25.17 14.83 28.48 19 28.94V31H21V28.94C25.17 28.48 28.48 25.17 28.94 21H31V19H28.94C28.48 14.83 25.17 11.52 21 11.06ZM20 27C16.13 27 13 23.87 13 20C13 16.13 16.13 13 20 13C23.87 13 27 16.13 27 20C27 23.87 23.87 27 20 27Z" fill="white"/>
<path opacity="0.3" d="M20 22C21.1046 22 22 21.1046 22 20C22 18.8954 21.1046 18 20 18C18.8954 18 18 18.8954 18 20C18 21.1046 18.8954 22 20 22Z" fill="white"/>
<path d="M20 16C17.79 16 16 17.79 16 20C16 22.21 17.79 24 20 24C22.21 24 24 22.21 24 20C24 17.79 22.21 16 20 16ZM20 22C18.9 22 18 21.1 18 20C18 18.9 18.9 18 20 18C21.1 18 22 18.9 22 20C22 21.1 21.1 22 20 22Z" fill="white"/>
<defs>
<linearGradient id="paint0_linear_7335_6350" x1="20" y1="0" x2="20" y2="40" gradientUnits="userSpaceOnUse">
<stop stop-color="#1854D1"/>
<stop offset="1" stop-color="#2C98C6"/>
</linearGradient>
</defs>
</svg>
