<svg width="43" height="42" viewBox="0 0 43 42" fill="none" xmlns="http://www.w3.org/2000/svg">
<ellipse cx="21.8117" cy="20.8631" rx="21.0656" ry="20.5952" fill="#1975FF"/>
<path d="M25.7584 27.5654H16.9869V25.8252L21.1265 21.4131C21.6949 20.792 22.1138 20.25 22.3834 19.7871C22.6588 19.3242 22.7965 18.8848 22.7965 18.4688C22.7965 17.9004 22.6529 17.4551 22.3658 17.1328C22.0787 16.8047 21.6685 16.6406 21.1353 16.6406C20.5611 16.6406 20.107 16.8398 19.773 17.2383C19.4449 17.6309 19.2808 18.1494 19.2808 18.7939H16.732C16.732 18.0146 16.9166 17.3027 17.2857 16.6582C17.6607 16.0137 18.1881 15.5098 18.8678 15.1465C19.5474 14.7773 20.3179 14.5928 21.1793 14.5928C22.4976 14.5928 23.5201 14.9092 24.2467 15.542C24.9791 16.1748 25.3453 17.0684 25.3453 18.2227C25.3453 18.8555 25.1812 19.5 24.8531 20.1562C24.525 20.8125 23.9625 21.5771 23.1656 22.4502L20.2564 25.5176H25.7584V27.5654Z" fill="white"/>
</svg>
