<svg width="40" height="40" viewBox="0 0 40 40" fill="none" xmlns="http://www.w3.org/2000/svg">
<circle cx="20" cy="20" r="20" fill="url(#paint0_linear)"/>
<path d="M26.5 18.2C26.5 20.77 24.4 23.99 20.34 27.71L20 28.01L19.66 27.7C15.6 23.99 13.5 20.77 13.5 18.2C13.5 14.36 16.32 11.5 20 11.5C23.68 11.5 26.5 14.35 26.5 18.2Z" fill="#323232" fill-opacity="0.2"/>
<path d="M20 10C24.2 10 28 13.22 28 18.2C28 21.52 25.33 25.45 20 30C14.67 25.45 12 21.52 12 18.2C12 13.22 15.8 10 20 10ZM26 18.2C26 14.57 23.35 12 20 12C16.65 12 14 14.57 14 18.2C14 20.54 15.95 23.64 20 27.34C24.05 23.64 26 20.54 26 18.2ZM20 20C18.9 20 18 19.1 18 18C18 16.9 18.9 16 20 16C21.1 16 22 16.9 22 18C22 19.1 21.1 20 20 20Z" fill="white"/>
<defs>
<linearGradient id="paint0_linear" x1="0" y1="0" x2="40" y2="40" gradientUnits="userSpaceOnUse">
<stop stop-color="#20D7FF"/>
<stop offset="1" stop-color="#0015D5"/>
</linearGradient>
</defs>
</svg>
