<svg width="20" height="20" viewBox="0 0 20 20" fill="none" xmlns="http://www.w3.org/2000/svg">
<path opacity="0.3" d="M4.20703 6.66667H15.3181V5H4.20703V6.66667Z" fill="white"/>
<path d="M5.79374 9.16675H7.38105V10.8334H5.79374V9.16675ZM15.3176 3.33341H14.5239V1.66675H12.9366V3.33341H6.58739V1.66675H5.00009V3.33341H4.20644C3.32549 3.33341 2.62708 4.08341 2.62708 5.00008L2.61914 16.6667C2.61914 17.5834 3.32549 18.3334 4.20644 18.3334H15.3176C16.1906 18.3334 16.9049 17.5834 16.9049 16.6667V5.00008C16.9049 4.08341 16.1906 3.33341 15.3176 3.33341ZM15.3176 16.6667H4.20644V8.33341H15.3176V16.6667ZM15.3176 6.66675H4.20644V5.00008H15.3176V6.66675ZM12.1429 9.16675H13.7303V10.8334H12.1429V9.16675ZM8.96835 9.16675H10.5556V10.8334H8.96835V9.16675Z" fill="white"/>
</svg>
