<svg width="28" height="28" viewBox="0 0 28 28" fill="none" xmlns="http://www.w3.org/2000/svg">
<rect width="28" height="28" rx="6" fill="#E8F1FF"/>
<path d="M14.0001 8.66675C11.0601 8.66675 8.66675 11.0601 8.66675 14.0001C8.66675 16.9401 11.0601 19.3334 14.0001 19.3334C16.9401 19.3334 19.3334 16.9401 19.3334 14.0001C19.3334 11.0601 16.9401 8.66675 14.0001 8.66675ZM17.3334 14.6667H10.6667V13.3334H17.3334V14.6667Z" fill="#BAD6FF"/>
<path d="M10.6666 13.3333H17.3333V14.6666H10.6666V13.3333ZM13.9999 7.33325C10.3199 7.33325 7.33325 10.3199 7.33325 13.9999C7.33325 17.6799 10.3199 20.6666 13.9999 20.6666C17.6799 20.6666 20.6666 17.6799 20.6666 13.9999C20.6666 10.3199 17.6799 7.33325 13.9999 7.33325ZM13.9999 19.3333C11.0599 19.3333 8.66659 16.9399 8.66659 13.9999C8.66659 11.0599 11.0599 8.66659 13.9999 8.66659C16.9399 8.66659 19.3333 11.0599 19.3333 13.9999C19.3333 16.9399 16.9399 19.3333 13.9999 19.3333Z" fill="#0061F4"/>
</svg>