<svg width="29" height="28" viewBox="0 0 29 28" fill="none" xmlns="http://www.w3.org/2000/svg">
<rect x="0.282471" width="28" height="28" rx="6" fill="#E8F1FF"/>
<path d="M14.2826 8.66675C11.3426 8.66675 8.94922 11.0601 8.94922 14.0001C8.94922 16.9401 11.3426 19.3334 14.2826 19.3334C17.2226 19.3334 19.6159 16.9401 19.6159 14.0001C19.6159 11.0601 17.2226 8.66675 14.2826 8.66675ZM17.6159 14.6667H14.9492V17.3334H13.6159V14.6667H10.9492V13.3334H13.6159V10.6667H14.9492V13.3334H17.6159V14.6667Z" fill="#BAD6FF"/>
<path d="M14.9491 10.6666H13.6157V13.3333H10.9491V14.6666H13.6157V17.3333H14.9491V14.6666H17.6157V13.3333H14.9491V10.6666ZM14.2824 7.33325C10.6024 7.33325 7.61572 10.3199 7.61572 13.9999C7.61572 17.6799 10.6024 20.6666 14.2824 20.6666C17.9624 20.6666 20.9491 17.6799 20.9491 13.9999C20.9491 10.3199 17.9624 7.33325 14.2824 7.33325ZM14.2824 19.3333C11.3424 19.3333 8.94906 16.9399 8.94906 13.9999C8.94906 11.0599 11.3424 8.66659 14.2824 8.66659C17.2224 8.66659 19.6157 11.0599 19.6157 13.9999C19.6157 16.9399 17.2224 19.3333 14.2824 19.3333Z" fill="#0061F4"/>
</svg>