<svg width="14" height="14" viewBox="0 0 14 14" fill="none" xmlns="http://www.w3.org/2000/svg">
<path d="M10.7733 5.35337L6.05992 10.0667L3.23325 7.24003L4.17325 6.30003L6.05992 8.1867L9.83325 4.41337L10.7733 5.35337ZM1.66659 7.00003C1.66659 5.4467 2.34659 4.05337 3.41325 3.08003L4.99992 4.6667V0.666699H0.999919L2.46658 2.13337C1.15992 3.3467 0.333252 5.07337 0.333252 7.00003C0.333252 10.46 2.96658 13.3 6.33325 13.6334V12.2867C3.70658 11.96 1.66659 9.71337 1.66659 7.00003ZM13.6666 7.00003C13.6666 3.54003 11.0333 0.700033 7.66658 0.366699V1.71337C10.2933 2.04003 12.3333 4.2867 12.3333 7.00003C12.3333 8.55336 11.6533 9.9467 10.5866 10.92L8.99992 9.33337V13.3334H12.9999L11.5333 11.8667C12.8399 10.6534 13.6666 8.9267 13.6666 7.00003Z" fill="#323232"/>
</svg>
