<svg width="12" height="14" viewBox="0 0 12 14" fill="none" xmlns="http://www.w3.org/2000/svg">
<path d="M10 5.99984L9.06 5.05317L4.66667 9.4465L2.94 7.7265L2 8.6665L4.66667 11.3332L10 5.99984ZM10.6667 1.99984H7.88C7.6 1.2265 6.86667 0.666504 6 0.666504C5.13333 0.666504 4.4 1.2265 4.12 1.99984H1.33333C1.24 1.99984 1.15333 2.0065 1.06667 2.0265C0.806667 2.07984 0.573333 2.21317 0.393333 2.39317C0.273333 2.51317 0.173333 2.65984 0.106667 2.81984C0.0400001 2.97984 0 3.1465 0 3.33317V12.6665C0 12.8465 0.0400001 13.0265 0.106667 13.1865C0.173333 13.3465 0.273333 13.4865 0.393333 13.6132C0.573333 13.7932 0.806667 13.9265 1.06667 13.9798C1.15333 13.9932 1.24 13.9998 1.33333 13.9998H10.6667C11.4 13.9998 12 13.3998 12 12.6665V3.33317C12 2.59984 11.4 1.99984 10.6667 1.99984ZM6 1.83317C6.27333 1.83317 6.5 2.05984 6.5 2.33317C6.5 2.6065 6.27333 2.83317 6 2.83317C5.72667 2.83317 5.5 2.6065 5.5 2.33317C5.5 2.05984 5.72667 1.83317 6 1.83317ZM10.6667 12.6665H1.33333V3.33317H10.6667V12.6665Z" fill="#323232"/>
</svg>
